<svg width="60" height="44" viewBox="0 0 60 44" fill="none" xmlns="http://www.w3.org/2000/svg">
<path d="M32.0698 14.3197C31.6398 14.3197 31.2198 14.0997 30.9798 13.7097C30.6198 13.1097 30.8198 12.3297 31.4198 11.9797C34.3198 10.2397 36.7398 9.71974 36.8398 9.69974C37.5198 9.55974 38.1898 9.98972 38.3398 10.6797C38.4798 11.3597 38.0498 12.0297 37.3698 12.1797C37.3098 12.1897 35.2198 12.6598 32.7298 14.1598C32.5098 14.2598 32.2898 14.3197 32.0698 14.3197Z" fill="#323232"/>
<path d="M53.2199 19.6899C51.6799 19.6899 49.8699 18.1499 48.5399 16.2999C47.7299 15.1799 47.1299 13.9799 46.8599 12.9299C46.3399 10.9799 47.0799 10.0999 47.5699 9.74989C49.2699 8.52989 51.7599 10.3799 53.4699 12.7499C55.1799 15.1299 56.1399 18.0699 54.4499 19.2999C54.0599 19.5599 53.6499 19.6899 53.2199 19.6899ZM49.2499 12.0999C49.3799 12.6999 49.7799 13.6999 50.5899 14.8199C51.3999 15.9499 52.2199 16.6399 52.7399 16.9499C52.6099 16.3499 52.2099 15.3499 51.3999 14.2299C50.5899 13.0999 49.7699 12.4099 49.2499 12.0999Z" fill="#323232"/>
<path d="M34.37 42.49C31.27 42.49 28.29 41.83 25.68 40.5C25.06 40.18 24.81 39.42 25.13 38.8C25.45 38.18 26.21 37.93 26.83 38.25C32.2 40.99 39.72 40.35 46 36.61C50.46 33.95 53.82 30.1 55.48 25.76C57.1 21.53 56.88 17.3401 54.87 13.9701C50.59 6.80005 40.26 5.35005 31.35 10.6601C30.75 11.0201 29.97 10.8201 29.62 10.2201C29.26 9.62005 29.46 8.84001 30.06 8.49001C40.19 2.45001 52.04 4.28 57.04 12.67C59.45 16.72 59.74 21.6801 57.84 26.6601C55.98 31.5301 52.24 35.83 47.29 38.78C43.17 41.24 38.65 42.49 34.37 42.49Z" fill="#323232"/>
<path d="M12.5599 39.39C12.3799 39.39 12.2098 39.3501 12.0398 39.2801C10.4998 38.5801 9.24985 36.75 9.11985 36.55C8.72985 35.97 8.88985 35.19 9.46985 34.8C10.0498 34.41 10.8298 34.5701 11.2198 35.1501C11.5898 35.7001 12.4199 36.68 13.0899 36.98C13.7299 37.27 14.0098 38.0201 13.7198 38.6501C13.4998 39.1201 13.0399 39.39 12.5599 39.39Z" fill="#323232"/>
<path d="M15.0498 9.20963C12.5298 9.20963 10.2198 8.45963 10.0598 6.63963C9.87983 4.54963 12.7398 3.36961 15.6598 3.11961C18.5798 2.86961 21.5998 3.54963 21.7798 5.63963C21.9598 7.72963 19.0998 8.90965 16.1798 9.15965C15.7998 9.19965 15.4198 9.20963 15.0498 9.20963ZM12.9498 6.39964C13.5298 6.59964 14.5898 6.76963 15.9698 6.63963C17.3498 6.51963 18.3698 6.17962 18.9098 5.87962C18.3298 5.67962 17.2698 5.50962 15.8898 5.62962C14.4998 5.75962 13.4898 6.10964 12.9498 6.39964Z" fill="#323232"/>
<path d="M17.43 43.5C7.82 43.5 0 33.74 0 21.75C0 9.76 7.82 0 17.43 0C27.04 0 34.86 9.76 34.86 21.75C34.86 33.75 27.04 43.5 17.43 43.5ZM17.43 2.53003C9.21 2.53003 2.53001 11.15 2.53001 21.75C2.53001 32.35 9.21 40.97 17.43 40.97C25.65 40.97 32.33 32.35 32.33 21.75C32.33 11.15 25.65 2.53003 17.43 2.53003Z" fill="#323232"/>
<path d="M7.59993 32.6597C7.16993 32.6597 6.74993 32.4397 6.50993 32.0397C1.78993 24.0497 4.40993 16.1597 4.51993 15.8297C4.74993 15.1697 5.45993 14.8197 6.11993 15.0497C6.77993 15.2697 7.12993 15.9897 6.90993 16.6497C6.87993 16.7297 4.57993 23.8097 8.67993 30.7597C9.03993 31.3597 8.83993 32.1397 8.23993 32.4897C8.03993 32.5997 7.81993 32.6597 7.59993 32.6597Z" fill="#323232"/>
</svg>
