<svg width="24" height="64" viewBox="0 0 24 64" fill="none" xmlns="http://www.w3.org/2000/svg">
<path d="M18.6899 21.72H5.45993C4.05993 21.72 2.91992 20.58 2.91992 19.18V15.34C2.91992 13.94 4.05993 12.8 5.45993 12.8H8.33992L9.92992 1.84998C10.0199 1.22998 10.5499 0.77002 11.1799 0.77002H12.3999C12.9999 0.77002 13.5199 1.19998 13.6399 1.78998L15.8299 12.73H18.6999C20.0999 12.73 21.2399 13.87 21.2399 15.27V19.18C21.2399 20.58 20.0999 21.72 18.6899 21.72ZM5.45993 15.33L5.43993 19.18L18.6899 19.19L18.6999 15.27L14.7799 15.26C14.1799 15.26 13.6599 14.83 13.5399 14.24L11.8799 5.94L10.8899 12.8H11.5499C12.2499 12.8 12.8099 13.37 12.8099 14.06C12.8099 14.76 12.2399 15.32 11.5499 15.32H5.45993V15.33Z" fill="#323232"/>
<path d="M19.1499 63.83H4.63994C2.32994 63.83 0.439941 61.9499 0.439941 59.6299V23.39C0.439941 21.07 2.31994 19.1899 4.63994 19.1899H19.1499C21.4599 19.1899 23.3499 21.07 23.3499 23.39V59.6299C23.3399 61.9499 21.4599 63.83 19.1499 63.83ZM4.62994 21.7199C3.70994 21.7199 2.95995 22.47 2.95995 23.39V59.6299C2.95995 60.5499 3.70994 61.2999 4.62994 61.2999H19.14C20.06 61.2999 20.8099 60.5499 20.8099 59.6299V23.39C20.8099 22.47 20.06 21.7199 19.14 21.7199H4.62994Z" fill="#323232"/>
<path d="M18.6199 47.67C17.9199 47.67 17.3599 47.1001 17.3599 46.4001V25.5701C17.3599 24.8701 17.9299 24.3101 18.6199 24.3101C19.3199 24.3101 19.8799 24.8801 19.8799 25.5701V46.4001C19.8799 47.1001 19.3199 47.67 18.6199 47.67Z" fill="#323232"/>
<path d="M18.6199 53.8298C17.9199 53.8298 17.3599 53.2598 17.3599 52.5598V49.3298C17.3599 48.6298 17.9299 48.0698 18.6199 48.0698C19.3199 48.0698 19.8799 48.6398 19.8799 49.3298V52.5598C19.8799 53.2698 19.3199 53.8298 18.6199 53.8298Z" fill="#323232"/>
</svg>
