<svg width="17" height="15" viewBox="0 0 17 15" fill="none" xmlns="http://www.w3.org/2000/svg">
<path d="M16.6898 12.204C16.7739 12.3723 16.7739 12.709 16.5214 12.7931C14.8381 14.1398 12.734 14.8131 10.9665 14.8131C10.0407 14.8131 9.19907 14.6448 8.52574 14.2239C6.00078 12.7931 3.55999 10.5207 1.96084 8.2482C1.11919 6.98572 1.11919 5.47075 1.96084 4.20827C2.04501 4.03994 2.21334 3.8716 2.29751 3.70327C1.37169 2.77745 0.866699 1.68331 0.866699 0.504991C0.866699 0.252495 1.11919 0 1.37169 0C1.62419 0 1.87668 0.252495 1.87668 0.504991C1.87668 1.59914 2.38167 2.44079 3.055 3.02995C4.31748 2.01997 5.83245 1.76747 6.84244 2.27246C7.59992 2.69329 8.44157 3.53494 8.77823 4.29243C9.1149 5.04992 9.28323 5.80741 9.53572 6.5649C9.95655 8.16404 10.3774 9.51068 11.6399 10.689C12.8182 11.8673 14.5856 12.2881 16.1006 11.8673C16.3531 11.8673 16.6056 11.9515 16.6898 12.204ZM9.03073 13.3823C10.3774 14.1398 12.4815 13.9714 14.3332 12.9615C13.0707 12.7931 11.8924 12.2881 10.9665 11.3623C9.53573 9.93151 9.03073 8.33237 8.60991 6.73323C8.44158 5.97574 8.18908 5.30241 7.85242 4.54493C7.59992 3.95577 6.9266 3.28245 6.42161 3.02995C6.25328 2.94579 6.00078 2.86162 5.74828 2.86162C5.15913 2.86162 4.48581 3.02995 3.89665 3.53494C4.14915 3.70328 4.40164 3.78744 4.56997 3.95577C4.82246 4.03994 4.90663 4.3766 4.82247 4.62909C4.7383 4.79742 4.56997 4.88159 4.40164 4.88159C4.31748 4.88159 4.23331 4.88159 4.14914 4.79742C3.81248 4.62909 3.47582 4.46076 3.13916 4.20827C3.055 4.3766 2.97083 4.46076 2.88666 4.62909C2.2975 5.63908 2.2975 6.73323 2.88666 7.57488C4.31747 9.84734 6.6741 12.0356 9.03073 13.3823ZM9.70406 12.1198C8.27325 11.3623 6.25328 9.34235 4.23331 6.64906C4.06498 6.39656 3.72832 6.39656 3.55999 6.5649C3.30749 6.73323 3.30749 7.06989 3.47582 7.23822C5.66412 10.0998 7.76826 12.204 9.28323 12.9615C9.78822 13.214 10.3774 13.3823 11.0507 13.3823C11.3032 13.3823 11.5557 13.1298 11.5557 12.8773C11.5557 12.6248 11.3032 12.3723 11.0507 12.3723C10.4615 12.3723 10.0407 12.2881 9.70406 12.1198Z" fill="#323232"/>
</svg>
