<svg width="54" height="55" viewBox="0 0 54 55" fill="none" xmlns="http://www.w3.org/2000/svg">
<path d="M27.4677 54.5942C25.472 54.5861 23.5001 54.1597 21.6792 53.3426C19.8584 52.5255 18.2291 51.3357 16.8964 49.8501C14.7241 47.3872 12.3417 42.8066 13.3276 34.9717C14.2411 27.7085 17.1537 22.731 19.9702 17.917C22.6923 13.2637 25.2636 8.86865 26.1303 2.49756C26.1743 2.17541 26.333 1.87995 26.5774 1.66547C26.8217 1.45098 27.1353 1.33189 27.4604 1.33008H27.4677C27.7916 1.33003 28.1047 1.44652 28.3499 1.65828C28.595 1.87003 28.7557 2.16291 28.8027 2.4834C29.978 10.4839 32.9272 15.4009 35.7788 20.1558C38.584 24.833 41.2334 29.2505 41.7964 35.9409C42.4135 43.2749 39.9507 47.6343 37.7754 50C36.46 51.4265 34.8675 52.5697 33.0951 53.3597C31.3228 54.1496 29.408 54.5697 27.4677 54.5942ZM27.4277 8.79736C26.0992 12.4653 24.38 15.9796 22.2998 19.2798C19.497 24.0698 16.8501 28.5942 16.0054 35.3086C15.3149 40.7969 16.2959 45.0884 18.9203 48.0645C19.9733 49.2591 21.2668 50.2179 22.716 50.878C24.1653 51.5381 25.7376 51.8847 27.33 51.895C28.9225 51.9053 30.4992 51.579 31.9568 50.9377C33.4145 50.2963 34.7202 49.3543 35.7885 48.1733C38.3827 45.3516 39.5302 41.1997 39.1069 36.1675C38.5961 30.1011 36.2182 26.1357 33.4643 21.5439C30.8917 17.5838 28.8615 13.2968 27.4277 8.79736Z" fill="#323232"/>
<path d="M40.6347 51.8845C38.9122 51.8881 37.1951 51.6937 35.517 51.3054C35.171 51.2161 34.8746 50.9934 34.6926 50.6859C34.5106 50.3785 34.458 50.0114 34.5462 49.6652C34.6344 49.319 34.8563 49.0219 35.1632 48.839C35.4701 48.6562 35.837 48.6024 36.1835 48.6896C36.2558 48.7086 43.4452 50.4748 47.8178 47.1833C49.9852 45.5519 51.1449 42.8693 51.2645 39.2102C51.5238 31.2546 46.2635 27.0412 40.1727 22.1623C34.3886 17.5295 27.8329 12.2785 26.1395 2.91963C26.1075 2.74503 26.1103 2.56583 26.1477 2.3923C26.185 2.21877 26.2562 2.05432 26.3572 1.90835C26.4582 1.76238 26.587 1.63778 26.7363 1.54167C26.8855 1.44555 27.0522 1.37981 27.2269 1.34821C27.4015 1.31662 27.5807 1.31978 27.7542 1.35754C27.9276 1.39529 28.0919 1.46689 28.2377 1.56823C28.3834 1.66957 28.5077 1.79865 28.6035 1.9481C28.6992 2.09755 28.7646 2.26442 28.7958 2.43916C30.309 10.8034 36.181 15.507 41.8602 20.0559C47.9589 24.9411 54.265 29.9924 53.9618 39.298C53.8143 43.82 52.2899 47.2014 49.4306 49.3478C46.8453 51.1123 43.7624 52.0014 40.6347 51.8845Z" fill="#323232"/>
<path d="M13.8555 51.8845C10.7277 52.0016 7.64472 51.1125 5.05959 49.3478C2.20022 47.2014 0.675799 43.82 0.528339 39.298C0.225119 29.9924 6.53127 24.9411 12.6299 20.0559C18.3091 15.507 24.1812 10.8034 25.6944 2.43916C25.7255 2.26442 25.7909 2.09755 25.8867 1.9481C25.9825 1.79865 26.1068 1.66957 26.2525 1.56823C26.3982 1.46689 26.5625 1.39529 26.736 1.35754C26.9094 1.31978 27.0886 1.31662 27.2633 1.34821C27.4379 1.37981 27.6047 1.44555 27.7539 1.54167C27.9031 1.63778 28.0319 1.76238 28.1329 1.90835C28.2339 2.05432 28.3051 2.21877 28.3425 2.3923C28.3798 2.56583 28.3826 2.74503 28.3506 2.91963C26.6572 12.2785 20.1016 17.5295 14.3174 22.1623C8.22658 27.0412 2.96632 31.2546 3.2256 39.2102C3.34523 42.8693 4.5049 45.5519 6.67238 47.1833C11.0464 50.4758 18.2349 48.7087 18.3067 48.6896C18.6531 48.6024 19.02 48.6562 19.3269 48.839C19.6339 49.0219 19.8557 49.319 19.9439 49.6652C20.0322 50.0114 19.9795 50.3785 19.7975 50.6859C19.6156 50.9934 19.3191 51.2161 18.9732 51.3054C17.2951 51.6937 15.5779 51.888 13.8555 51.8845Z" fill="#323232"/>
<path d="M27.6582 51.101C27.5359 51.1009 27.4142 51.0842 27.2964 51.0512C18.02 48.479 17.081 38.7221 17.8804 33.9228C17.939 33.5697 18.1356 33.2544 18.4267 33.0462C18.7179 32.838 19.0798 32.754 19.4329 32.8127C19.786 32.8714 20.1013 33.0679 20.3095 33.359C20.5176 33.6502 20.6016 34.0121 20.543 34.3652C20.4639 34.851 18.7803 45.8886 28.0181 48.4506C28.3325 48.538 28.6045 48.7362 28.784 49.0087C28.9635 49.2812 29.0382 49.6095 28.9943 49.9328C28.9504 50.2561 28.7909 50.5526 28.5452 50.7674C28.2996 50.9821 27.9845 51.1007 27.6582 51.101Z" fill="#323232"/>
<path d="M11.254 48.7877C11.0663 48.7877 10.8807 48.7485 10.7091 48.6724C4.01424 45.7124 3.90535 38.1749 4.78328 34.6031C4.86843 34.2555 5.08814 33.956 5.3941 33.7704C5.70006 33.5848 6.0672 33.5283 6.41479 33.6134C6.76239 33.6985 7.06195 33.9181 7.24762 34.224C7.43329 34.5299 7.48985 34.8971 7.40486 35.2447C7.32478 35.5772 5.51278 43.4234 11.8009 46.2037C12.084 46.3289 12.3155 46.5476 12.4566 46.8233C12.5976 47.0989 12.6396 47.4146 12.5755 47.7175C12.5114 48.0204 12.3451 48.292 12.1045 48.4869C11.8639 48.6817 11.5636 48.7879 11.254 48.7877Z" fill="#323232"/>
<path d="M21.607 15.0766C21.3864 15.0764 21.1691 15.0222 20.9743 14.9185C20.7795 14.8149 20.613 14.6651 20.4895 14.4823C20.366 14.2994 20.2892 14.089 20.2659 13.8696C20.2425 13.6502 20.2733 13.4284 20.3556 13.2236C20.3873 13.1445 23.5338 5.28271 23.6734 1.74413C23.6872 1.39568 23.8354 1.06611 24.0868 0.824448C24.3382 0.582785 24.6733 0.447793 25.0221 0.447754H29.5352C29.8466 0.447839 30.1483 0.555485 30.3893 0.752487C30.6304 0.949489 30.7959 1.22373 30.858 1.52879C30.858 1.52928 31.8448 6.38914 32.9889 11.9433C33.0246 12.1169 33.0259 12.2959 32.9925 12.4699C32.9591 12.644 32.8918 12.8097 32.7944 12.9578C32.6969 13.1058 32.5713 13.2332 32.4246 13.3327C32.2779 13.4322 32.1131 13.5018 31.9395 13.5376C31.766 13.5734 31.587 13.5746 31.413 13.5412C31.2389 13.5079 31.0731 13.4405 30.9251 13.3431C30.7771 13.2457 30.6497 13.12 30.5502 12.9733C30.4507 12.8267 30.3811 12.6618 30.3453 12.4883C29.5255 8.5078 28.7862 4.88378 28.4327 3.14696H26.2393C25.6056 7.37011 22.983 13.9243 22.8595 14.2305C22.759 14.4804 22.586 14.6945 22.3628 14.8453C22.1396 14.9961 21.8764 15.0767 21.607 15.0766Z" fill="#323232"/>
</svg>
