<svg width="54" height="41" viewBox="0 0 54 41" fill="none" xmlns="http://www.w3.org/2000/svg">
<path d="M35.7305 39.1122C18.8705 39.0422 17.3605 39.1122 17.3105 39.1122C17.1705 39.1222 17.0205 39.1122 16.8805 39.0722C16.7105 39.0322 0.410501 34.5322 0.000501169 14.3822C-0.00949883 14.0222 0.130485 13.6722 0.390485 13.4122C0.640485 13.1522 0.990507 13.0122 1.35051 13.0122H51.7505C52.3805 13.0122 52.9305 13.4522 53.0705 14.0622C53.1105 14.2322 56.7505 31.3222 36.2105 39.0322C36.0505 39.0822 35.8905 39.1122 35.7305 39.1122ZM23.0405 36.3822C25.9405 36.3822 30.0005 36.3922 35.4905 36.4122C50.9105 30.5122 50.9905 19.2222 50.6005 15.7022H2.76051C3.73051 31.7522 15.7105 35.9022 17.3905 36.4022C18.0705 36.3922 19.8405 36.3822 23.0405 36.3822Z" fill="#323232"/>
<path d="M23.6405 8.90198C22.5505 9.46198 21.2905 9.17197 21.2905 9.17197C21.3705 9.33197 21.7905 7.97196 22.8705 7.41196C23.9605 6.85196 25.2205 7.14197 25.2205 7.14197C25.2205 7.14197 24.7205 8.34198 23.6405 8.90198Z" fill="#323232"/>
<path d="M39.4806 9.54211C39.0406 10.6821 37.9106 11.3121 37.9106 11.3121C38.0806 11.3821 37.4906 10.0921 37.9206 8.95212C38.3606 7.81212 39.4906 7.18213 39.4906 7.18213C39.4906 7.18213 39.9206 8.40211 39.4806 9.54211Z" fill="#323232"/>
<path d="M31.8905 11.1119C30.8005 11.6719 29.5405 11.3819 29.5405 11.3819C29.6205 11.5419 30.0405 10.1819 31.1205 9.62193C32.2105 9.06193 33.4705 9.35191 33.4705 9.35191C33.4705 9.35191 32.9805 10.5519 31.8905 11.1119Z" fill="#323232"/>
<path d="M15.5205 9.72208C16.4705 10.4921 16.7205 11.7621 16.7205 11.7621C16.8305 11.6221 15.4305 11.7921 14.4705 11.0221C13.5205 10.2521 13.2705 8.98209 13.2705 8.98209C13.2705 8.98209 14.5705 8.95208 15.5205 9.72208Z" fill="#323232"/>
<path d="M52.0208 16.3122C51.2708 16.3122 50.6708 15.7122 50.6708 14.9622C50.6708 14.5322 50.6708 13.7522 50.2208 13.3422C49.8408 13.0022 49.1208 12.8622 48.1108 12.9622C47.6408 13.0022 47.1808 12.8022 46.9008 12.4222C46.6208 12.0422 46.5608 11.5422 46.7408 11.1022C46.8908 10.7322 46.6308 9.77221 45.9408 9.22221C45.3408 8.74221 44.6908 8.75223 43.9308 9.27223C43.4108 9.63223 42.7008 9.57223 42.2408 9.14223C41.7808 8.70223 41.6908 8.00223 42.0208 7.46223C42.0908 7.20223 41.5508 6.23221 40.5708 5.75221C39.5008 5.23221 39.0608 5.83223 38.8908 6.05223C38.5808 6.47223 38.0508 6.68222 37.5308 6.57222C37.0108 6.46222 36.6108 6.07223 36.4908 5.55223C36.2208 4.40223 35.4408 3.99223 35.0008 3.86223C34.2308 3.62223 33.3608 3.79223 32.8108 4.30223C32.4808 4.60223 32.0308 4.72224 31.6008 4.62224C31.1708 4.52224 30.8108 4.22224 30.6508 3.81224C30.4108 3.21224 29.9708 2.86223 29.3008 2.74223C28.3008 2.55223 27.3208 2.96222 27.0708 3.23222C26.8008 3.52222 26.4008 3.68222 26.0108 3.66222C25.6108 3.64222 25.2408 3.44224 25.0008 3.12224C24.8208 2.88224 24.2808 2.68222 23.6108 2.76222C23.2408 2.81222 22.3408 3.03223 21.9808 3.96223C21.8008 4.44223 21.3608 4.77222 20.8508 4.82222C20.3308 4.87222 19.8508 4.62221 19.5808 4.19221C19.3908 3.89221 18.7508 3.60221 18.0008 3.69221C17.4608 3.75221 16.4908 4.05224 16.0208 5.40224C15.9008 5.75224 15.6408 6.03224 15.3008 6.18224C14.9608 6.33224 14.5808 6.34222 14.2408 6.20222C13.4608 5.88222 12.8408 5.85222 12.3508 6.10222C11.7408 6.41222 11.2008 7.27223 10.9208 8.39223C10.8208 8.77223 10.5708 9.09223 10.2208 9.27223C9.87078 9.45223 9.46078 9.46224 9.10078 9.31224C8.67078 9.14224 7.77076 8.94224 7.11076 9.34224C6.38076 9.78224 6.14077 10.9022 6.06077 11.7522C6.00077 12.4622 5.39077 13.0322 4.68077 12.9822C3.06077 12.9822 2.76078 14.5722 2.72078 15.0722C2.66078 15.8122 2.00076 16.3822 1.27076 16.3122C0.530764 16.2622 -0.0292267 15.6222 0.0307733 14.8822C0.140773 13.2422 1.18078 10.9422 3.54078 10.4022C3.96078 8.48224 4.91077 7.51224 5.71077 7.03224C6.67077 6.44224 7.77076 6.33222 8.74076 6.45222C9.17076 5.44222 9.91078 4.32221 11.1308 3.69221C11.7708 3.36221 12.7408 3.09223 14.0308 3.33223C14.8608 2.01223 16.1708 1.16223 17.7108 0.992233C18.6908 0.882233 19.6508 1.06221 20.4408 1.47221C21.1608 0.732214 22.1408 0.242239 23.2608 0.0922394C24.3308 -0.0577606 25.3708 0.142228 26.1708 0.612228C27.2108 0.0722284 28.5708 -0.137761 29.8108 0.0922394C30.8408 0.282239 31.7008 0.762235 32.3508 1.46223C33.4308 1.00223 34.6708 0.922221 35.8408 1.29222C36.9008 1.62222 37.7608 2.26223 38.3708 3.14223C39.6008 2.61223 41.0708 2.78222 42.4408 3.70222C43.3608 4.32222 44.1308 5.23223 44.5008 6.21223C45.6208 6.05223 46.7208 6.36222 47.6708 7.13222C48.6508 7.93222 49.2908 9.12224 49.4608 10.2822C50.5308 10.3922 51.4108 10.7522 52.0708 11.3522C53.4008 12.5622 53.4008 14.3122 53.4008 14.9622C53.3708 15.7122 52.7608 16.3122 52.0208 16.3122Z" fill="#323232"/>
<path d="M37.9104 32.8123C37.5904 32.8123 37.2704 32.7022 37.0104 32.4722C36.4504 31.9722 36.4004 31.1222 36.9004 30.5722C42.0004 24.8522 42.0804 20.9423 42.0804 20.9023C42.0804 20.1623 42.6804 19.5522 43.4204 19.5522H43.4304C44.1704 19.5522 44.7704 20.1323 44.7804 20.8723C44.7804 21.0723 44.8004 25.7623 38.9204 32.3723C38.6504 32.6623 38.2804 32.8123 37.9104 32.8123Z" fill="#323232"/>
<path d="M35.4206 40.9021H17.2206C16.4806 40.9021 15.8706 40.3021 15.8706 39.5521V37.7621C15.8706 37.0221 16.4806 36.4121 17.2206 36.4121H35.4206C36.1606 36.4121 36.7706 37.0121 36.7706 37.7621V39.5521C36.7706 40.3021 36.1606 40.9021 35.4206 40.9021Z" fill="#323232"/>
</svg>
