<svg width="18" height="14" viewBox="0 0 18 14" fill="none" xmlns="http://www.w3.org/2000/svg">
<path d="M2 0.5C1.46957 0.5 0.960859 0.710714 0.585786 1.08579C0.210714 1.46086 0 1.96957 0 2.5L0 11.5C0 12.0304 0.210714 12.5391 0.585786 12.9142C0.960859 13.2893 1.46957 13.5 2 13.5H6V0.5H2Z" fill="#D91023"/>
<path d="M6 0.5H12V13.5H6V0.5Z" fill="#EEEEEE"/>
<path d="M16 0.5H12V13.5H16C16.5304 13.5 17.0391 13.2893 17.4142 12.9142C17.7893 12.5391 18 12.0304 18 11.5V2.5C18 1.96957 17.7893 1.46086 17.4142 1.08579C17.0391 0.710714 16.5304 0.5 16 0.5Z" fill="#D91023"/>
</svg>
