<svg width="17" height="14" viewBox="0 0 17 14" fill="none" xmlns="http://www.w3.org/2000/svg">
<path d="M16.7379 1.5C16.4107 0.9045 15.8086 0.5 15.1111 0.5H8.5V1.5H16.7379ZM0 10.5H17V11.5H0V10.5ZM8.5 6.5H17V7.5H8.5V6.5ZM8.5 4.5H17V5.5H8.5V4.5ZM0 8.5H17V9.5H0V8.5ZM1.88889 13.5H15.1111C15.8086 13.5 16.4107 13.0955 16.7379 12.5H0.262083C0.589333 13.0955 1.19142 13.5 1.88889 13.5ZM8.5 2.5H17V3.5H8.5V2.5Z" fill="#B22334"/>
<path d="M0.0321111 11.8395C0.0401389 11.886 0.0491111 11.9325 0.0599722 11.978C0.07225 12.0285 0.0873611 12.077 0.103417 12.126C0.145444 12.2555 0.196444 12.3805 0.260667 12.4975L0.262083 12.5H16.7379L16.7389 12.498C16.8022 12.3801 16.8547 12.256 16.8956 12.1275C16.9267 12.0337 16.9507 11.9374 16.9674 11.8395C16.9868 11.7295 17 11.6165 17 11.5H0C0 11.6165 0.0132222 11.729 0.0321111 11.8395ZM0 9.5H17V10.5H0V9.5ZM0 7.5V8.5H17V7.5H8.5H0ZM8.5 5.5H17V6.5H8.5V5.5ZM8.5 3.5H17V4.5H8.5V3.5ZM0.0604444 2.022C0.07225 1.971 0.0887778 1.9225 0.103889 1.8735C0.08749 1.92235 0.0729963 1.97189 0.0604444 2.022ZM8.5 2.5H17C17 2.3835 16.9868 2.2705 16.9674 2.16C16.9509 2.06205 16.9267 1.96572 16.8952 1.872C16.8542 1.74291 16.8016 1.61832 16.7379 1.5H8.5V2.5Z" fill="#EEEEEE"/>
<path d="M8.5 0.5H1.88889C1.38792 0.5 0.907478 0.710714 0.553243 1.08579C0.199007 1.46086 0 1.96957 0 2.5L0 7.5H8.5V0.5Z" fill="#3C3B6E"/>
<path d="M0.944946 1.863L1.23678 2.0875L1.12534 2.45L1.4167 2.226L1.70853 2.45L1.59709 2.0875L1.88892 1.863H1.52814L1.4167 1.5L1.30572 1.863H0.944946ZM1.88939 2.863L2.18122 3.0875L2.06978 3.45L2.36114 3.226L2.65297 3.45L2.54153 3.0875L2.83336 2.863H2.47259L2.36114 2.5L2.25017 2.863H1.88939ZM3.77828 2.863L4.07011 3.0875L3.95867 3.45L4.25003 3.226L4.54186 3.45L4.43042 3.0875L4.72225 2.863H4.36147L4.25003 2.5L4.13906 2.863H3.77828ZM5.66717 2.863L5.959 3.0875L5.84756 3.45L6.13892 3.226L6.43075 3.45L6.31931 3.0875L6.61114 2.863H6.25036L6.13892 2.5L6.02795 2.863H5.66717ZM1.88939 4.863L2.18122 5.0875L2.06978 5.45L2.36114 5.226L2.65297 5.45L2.54153 5.0875L2.83336 4.863H2.47259L2.36114 4.5L2.25017 4.863H1.88939ZM3.77828 4.863L4.07011 5.0875L3.95867 5.45L4.25003 5.226L4.54186 5.45L4.43042 5.0875L4.72225 4.863H4.36147L4.25003 4.5L4.13906 4.863H3.77828ZM5.66717 4.863L5.959 5.0875L5.84756 5.45L6.13892 5.226L6.43075 5.45L6.31931 5.0875L6.61114 4.863H6.25036L6.13892 4.5L6.02795 4.863H5.66717ZM2.83384 1.863L3.12567 2.0875L3.01422 2.45L3.30559 2.226L3.59742 2.45L3.48597 2.0875L3.77781 1.863H3.41703L3.30559 1.5L3.19461 1.863H2.83384ZM4.72272 1.863L5.01456 2.0875L4.90311 2.45L5.19447 2.226L5.48631 2.45L5.37486 2.0875L5.6667 1.863H5.30592L5.19447 1.5L5.0835 1.863H4.72272ZM6.61161 1.863L6.90345 2.0875L6.792 2.45L7.08336 2.226L7.3752 2.45L7.26375 2.0875L7.55559 1.863H7.19481L7.08336 1.5L6.97239 1.863H6.61161ZM0.944946 3.863L1.23678 4.0875L1.12534 4.45L1.4167 4.226L1.70853 4.45L1.59709 4.0875L1.88892 3.863H1.52814L1.4167 3.5L1.30572 3.863H0.944946ZM3.01422 4.45L3.30559 4.226L3.59742 4.45L3.48597 4.0875L3.77781 3.863H3.41703L3.30559 3.5L3.19461 3.863H2.83384L3.12567 4.0875L3.01422 4.45ZM4.72272 3.863L5.01456 4.0875L4.90311 4.45L5.19447 4.226L5.48631 4.45L5.37486 4.0875L5.6667 3.863H5.30592L5.19447 3.5L5.0835 3.863H4.72272ZM6.61161 3.863L6.90345 4.0875L6.792 4.45L7.08336 4.226L7.3752 4.45L7.26375 4.0875L7.55559 3.863H7.19481L7.08336 3.5L6.97239 3.863H6.61161ZM0.944946 5.863L1.23678 6.0875L1.12534 6.45L1.4167 6.226L1.70853 6.45L1.59709 6.0875L1.88892 5.863H1.52814L1.4167 5.5L1.30572 5.863H0.944946ZM3.01422 6.45L3.30559 6.226L3.59742 6.45L3.48597 6.0875L3.77781 5.863H3.41703L3.30559 5.5L3.19461 5.863H2.83384L3.12567 6.0875L3.01422 6.45ZM4.72272 5.863L5.01456 6.0875L4.90311 6.45L5.19447 6.226L5.48631 6.45L5.37486 6.0875L5.6667 5.863H5.30592L5.19447 5.5L5.0835 5.863H4.72272ZM6.61161 5.863L6.90345 6.0875L6.792 6.45L7.08336 6.226L7.3752 6.45L7.26375 6.0875L7.55559 5.863H7.19481L7.08336 5.5L6.97239 5.863H6.61161Z" fill="white"/>
</svg>
