<svg width="37" height="68" viewBox="0 0 37 68" fill="none" xmlns="http://www.w3.org/2000/svg">
<path d="M18.8773 38.9003C13.6488 38.9003 10.2445 38.8593 10.1937 38.8588C9.84654 38.8544 9.51441 38.7165 9.26635 38.4736C9.01828 38.2307 8.87335 37.9016 8.86168 37.5546C8.82261 36.3842 8.01501 8.80604 18.1 0.77772C18.3755 0.558012 18.726 0.454823 19.0766 0.490229C19.4271 0.525635 19.75 0.69682 19.976 0.967173C26.8246 9.14783 31.0238 28.6312 29.2797 37.7621C29.2214 38.0684 29.0588 38.3451 28.8195 38.5451C28.5802 38.745 28.279 38.8558 27.9672 38.8587C24.6048 38.8895 21.5091 38.9003 18.8773 38.9003ZM11.5394 36.1723C14.0101 36.1928 19.7386 36.2255 26.7982 36.1698C27.8451 27.7699 24.3245 11.5898 18.7689 3.81826C11.8587 11.0565 11.5072 30.912 11.5394 36.1723Z" fill="#323232"/>
<path d="M30.1381 26.7361C29.3207 26.7399 28.5078 26.6155 27.7289 26.3675C27.4985 26.286 27.2945 26.1434 27.1387 25.9551C26.9829 25.7668 26.8811 25.5398 26.8441 25.2982C25.2044 17.2321 22.1377 9.5236 17.7885 2.53546C17.6155 2.25161 17.5533 1.91388 17.614 1.58703C17.6746 1.26018 17.8538 0.967213 18.1171 0.764326C18.3804 0.561439 18.7094 0.462909 19.0409 0.487623C19.3724 0.512337 19.6831 0.658561 19.9135 0.898252C22.2357 3.31475 33.8715 15.4564 34.9262 17.1839C35.9457 18.8514 37.8432 21.9554 34.7094 24.9637C33.4788 26.1339 31.8359 26.771 30.1381 26.7361ZM29.35 23.9857C29.9671 24.1037 30.6032 24.0776 31.2086 23.9095C31.814 23.7414 32.3724 23.4358 32.8402 23.0164C34.2602 21.6536 33.8647 20.6214 32.6234 18.5916C32.185 17.8734 28.5873 13.971 24.6606 9.80255C26.7425 14.3426 28.3152 19.0993 29.35 23.9857Z" fill="#323232"/>
<path d="M8.26519 26.8938C6.1655 27.002 4.1025 26.3125 2.4898 24.9636C-0.642038 21.9563 1.25445 18.8518 2.27301 17.1838C3.32965 15.4558 14.9634 3.31466 17.2847 0.898157C17.5151 0.658322 17.8259 0.511969 18.1575 0.487162C18.4891 0.462354 18.8182 0.560833 19.0816 0.763727C19.3451 0.966621 19.5244 1.25964 19.5851 1.58659C19.6459 1.91353 19.5838 2.25139 19.4107 2.53536C12.0963 14.5456 11.5386 25.3381 11.5337 25.446C11.5201 25.7489 11.405 26.0384 11.207 26.268C11.009 26.4977 10.7395 26.6541 10.4419 26.7121C9.72311 26.8366 8.9947 26.8974 8.26519 26.8938ZM12.8638 9.45777C8.81305 13.7537 5.02692 17.8538 4.57574 18.5916C3.33551 20.6218 2.93999 21.6541 4.35894 23.0164C5.51128 24.1218 7.56988 24.262 8.92926 24.1785C9.53751 19.1101 10.8623 14.1538 12.8638 9.45777Z" fill="#323232"/>
<path d="M13.6919 45.1177C12.8101 45.1177 11.9481 44.8563 11.2149 44.3665C10.4817 43.8766 9.91028 43.1803 9.57281 42.3657C9.23534 41.551 9.14704 40.6546 9.31905 39.7897C9.49107 38.9249 9.91566 38.1305 10.5392 37.507C11.1627 36.8835 11.9571 36.4588 12.822 36.2868C13.6868 36.1148 14.5832 36.2031 15.3979 36.5406C16.2125 36.8781 16.9088 37.4495 17.3987 38.1827C17.8885 38.9159 18.15 39.7779 18.1499 40.6597C18.1485 41.8416 17.6784 42.9747 16.8427 43.8104C16.0069 44.6462 14.8738 45.1163 13.6919 45.1177ZM13.6919 38.9004C13.344 38.9004 13.0039 39.0035 12.7146 39.1967C12.4253 39.39 12.1998 39.6647 12.0667 39.9861C11.9335 40.3075 11.8986 40.6611 11.9665 41.0023C12.0343 41.3436 12.2018 41.657 12.4477 41.903C12.6937 42.1491 13.0071 42.3166 13.3483 42.3846C13.6895 42.4525 14.0432 42.4177 14.3646 42.2846C14.686 42.1515 14.9608 41.9261 15.1541 41.6369C15.3474 41.3476 15.4507 41.0076 15.4507 40.6597C15.4503 40.1933 15.2648 39.7462 14.9351 39.4164C14.6054 39.0866 14.1583 38.901 13.6919 38.9004Z" fill="#323232"/>
<path d="M24.4556 45.1177C23.5738 45.1175 22.7119 44.8559 21.9789 44.366C21.2458 43.876 20.6745 43.1796 20.3372 42.365C19.9999 41.5503 19.9117 40.6539 20.0838 39.7891C20.2559 38.9243 20.6806 38.13 21.3042 37.5066C21.9277 36.8832 22.7222 36.4587 23.587 36.2868C24.4518 36.1148 25.3481 36.2032 26.1627 36.5407C26.9773 36.8782 27.6736 37.4496 28.1634 38.1828C28.6532 38.916 28.9146 39.778 28.9146 40.6597C28.9132 41.8418 28.4429 42.975 27.607 43.8108C26.771 44.6466 25.6376 45.1166 24.4556 45.1177ZM24.4556 38.9004C24.1077 38.9006 23.7677 39.0038 23.4785 39.1972C23.1894 39.3906 22.964 39.6653 22.831 39.9867C22.698 40.3081 22.6633 40.6618 22.7312 41.0029C22.7991 41.3441 22.9667 41.6574 23.2127 41.9034C23.4587 42.1493 23.7721 42.3168 24.1133 42.3846C24.4544 42.4525 24.8081 42.4176 25.1294 42.2845C25.4508 42.1514 25.7255 41.926 25.9188 41.6368C26.1121 41.3476 26.2153 41.0075 26.2153 40.6597C26.2149 40.1931 26.0293 39.7459 25.6994 39.416C25.3694 39.0862 24.9221 38.9007 24.4556 38.9004Z" fill="#323232"/>
<path d="M25.0201 67.2162C24.3868 67.2106 23.7669 67.0327 23.2271 66.7016C21.5288 65.6879 20.2173 63.2592 19.3169 60.5473C18.3433 63.2475 16.9038 65.6352 15.2886 66.5585C14.778 66.8768 14.1857 67.0393 13.5842 67.0261C12.9827 67.0129 12.398 66.8246 11.9019 66.4843C11.4778 66.2333 11.1099 65.8977 10.8211 65.4985C10.5323 65.0992 10.3288 64.6448 10.2231 64.1635C10.1648 63.8461 10.1536 63.5218 10.1899 63.2011C9.9108 63.2289 9.62942 63.2253 9.35108 63.1903C8.64228 63.1082 7.98117 62.7919 7.47257 62.2914C6.96397 61.7909 6.63699 61.135 6.54346 60.4276C6.46154 60.0024 6.46972 59.5647 6.56745 59.1429C6.66518 58.721 6.8503 58.3243 7.11084 57.9784C5.18605 54.8304 8.34523 52.4857 10.2348 51.0839C10.8187 50.6874 11.3626 50.2351 11.8588 49.7333C12.5825 48.8529 12.5825 45.9486 12.3549 44.2626C12.3066 43.908 12.4011 43.5488 12.6177 43.2639C12.8343 42.979 13.1551 42.7919 13.5097 42.7436C13.8643 42.6953 14.2235 42.7898 14.5084 43.0063C14.7933 43.2229 14.9804 43.5438 15.0288 43.8983C15.1508 44.7904 15.6704 49.3456 13.9448 51.4467C13.316 52.1271 12.6108 52.7327 11.8432 53.2514C9.83735 54.7396 9.1391 55.4852 9.25336 56.1674C11.3462 54.7397 13.1907 52.9783 14.7134 50.9535C14.9121 50.6968 15.1967 50.5203 15.515 50.4564C15.8333 50.3925 16.1639 50.4455 16.4464 50.6056C16.7288 50.7657 16.944 51.0223 17.0526 51.3283C17.1612 51.6342 17.1558 51.969 17.0376 52.2714C16.9051 52.572 16.7507 52.8625 16.5757 53.1405C16.8297 53.0974 17.0907 53.1281 17.3278 53.2288C17.565 53.3295 17.7682 53.4961 17.9135 53.7089C17.9126 53.5888 17.9087 53.4711 17.9018 53.3559C17.8856 53.0594 17.9675 52.7659 18.135 52.5207C18.3024 52.2755 18.5461 52.0924 18.8281 51.9997C19.1102 51.907 19.415 51.9098 19.6952 52.0079C19.9755 52.1059 20.2156 52.2936 20.3784 52.5419C20.4335 52.5113 20.4906 52.4844 20.5493 52.4613C20.6946 52.5854 20.8735 52.6636 21.0632 52.686C21.253 52.7084 21.4451 52.6741 21.6154 52.5873C21.7856 52.5006 21.9264 52.3653 22.0198 52.1986C22.1132 52.0319 22.155 51.8413 22.1401 51.6508C22.3937 51.4234 22.7239 51.3004 23.0644 51.3063C23.4049 51.3123 23.7306 51.4469 23.976 51.683C24.6274 52.3099 25.2085 52.8446 25.726 53.3012C24.9669 52.317 24.4172 51.1879 24.1108 49.9833C22.9731 45.496 23.3706 43.7518 23.519 43.3246C23.6365 42.9866 23.8835 42.7091 24.2056 42.5532C24.5277 42.3973 24.8986 42.3758 25.2365 42.4933C25.5745 42.6108 25.852 42.8578 26.0079 43.1799C26.1638 43.502 26.1854 43.8728 26.0678 44.2108L26.0689 44.2103C26.0737 44.2103 25.7808 45.5863 26.7271 49.3202C27.3305 51.2265 28.5958 52.8541 30.2944 53.9091C31.312 54.6786 32.3638 55.474 31.9653 56.7504C31.8746 57.1245 31.7015 57.4737 31.4588 57.7724C31.216 58.0712 30.9097 58.3121 30.562 58.4774C30.9178 58.7915 31.2074 59.1733 31.4139 59.6005C31.6205 60.0277 31.7399 60.4918 31.7651 60.9657C31.7501 61.2872 31.6632 61.6013 31.511 61.8848C31.3587 62.1684 31.1449 62.4142 30.8853 62.6044C30.4979 62.912 30.0469 63.1296 29.565 63.2413C29.0831 63.353 28.5824 63.3561 28.0991 63.2504C28.0298 63.2362 27.9595 63.2206 27.8891 63.203C28.1437 63.8038 28.2012 64.4699 28.0532 65.1054C27.9371 65.5091 27.73 65.8809 27.4478 66.192C27.1656 66.5032 26.8158 66.7455 26.4252 66.9003C25.9855 67.1068 25.5059 67.2147 25.0201 67.2162ZM21.4107 58.1015C22.2066 61.1137 23.4458 63.6889 24.6099 64.3837C24.7055 64.4579 24.8201 64.5036 24.9405 64.5155C25.061 64.5274 25.1823 64.5051 25.2906 64.4511C25.3401 64.4285 25.3881 64.4026 25.4341 64.3734C24.9764 63.3163 24.3729 62.3286 23.6411 61.4389C22.8421 60.3645 22.0977 59.2507 21.4107 58.1015ZM14.0064 61.2568C13.4142 61.941 13.0231 62.7759 12.8765 63.6689C12.9156 63.8774 13.1822 64.0937 13.3999 64.2382C13.5259 64.3227 13.6353 64.3944 13.9497 64.2148C15.5317 63.3114 17.2984 59.0902 17.7847 55.5776C16.9006 57.6951 15.6179 59.6231 14.0064 61.2568ZM23.6753 55.4936C26.4761 59.8417 28.1333 60.5053 28.6245 60.6029C28.6999 60.619 28.777 60.6257 28.854 60.6229C28.221 59.9123 27.5467 59.2396 26.8345 58.6083C25.8873 57.726 24.7866 56.7011 23.6753 55.4936ZM9.49369 59.35C9.15678 59.6532 9.1763 59.7802 9.21341 60.0302C9.21911 60.1577 9.27261 60.2783 9.36329 60.3681C9.45396 60.4579 9.57515 60.5102 9.70267 60.5146C10.1281 60.5002 10.5462 60.4009 10.9327 60.2224C11.3191 60.044 11.6659 59.79 11.9527 59.4755C12.1831 59.1396 12.4273 58.7934 12.6792 58.435C13.0777 57.8695 13.4986 57.2719 13.9234 56.6347C12.6304 58.019 11.1108 59.2128 9.71335 59.3388C9.63918 59.3451 9.56596 59.349 9.49369 59.35Z" fill="#323232"/>
</svg>
