<svg width="66" height="70" viewBox="0 0 66 70" fill="none" xmlns="http://www.w3.org/2000/svg">
<path d="M44.6953 58.9457C44.6253 58.9457 44.5653 58.9457 44.5153 58.9457C44.0753 58.9357 43.5853 58.6957 43.3453 58.3157C42.9153 57.6257 43.2053 57.0457 43.6753 56.0857C44.5453 54.3057 46.5853 50.1457 46.5853 44.4257C46.5853 42.0857 45.4853 39.9657 43.3253 38.1157C39.7653 35.0857 34.3454 33.7157 31.3654 34.1857C28.7354 34.6057 23.6753 34.8357 19.4553 31.6757C15.8253 28.9557 13.5753 24.3657 12.7653 18.0257C12.7153 17.6557 12.8353 17.2857 13.0753 16.9957C13.3253 16.7157 13.6753 16.5557 14.0553 16.5557H47.4053C47.4553 16.5557 47.5053 16.5557 47.5553 16.5657C47.7453 16.5857 66.3353 19.0057 65.4453 39.1457C64.5953 58.1857 47.4353 58.9457 44.6953 58.9457ZM32.5753 31.4957C36.2553 31.4957 41.4053 33.0557 45.0053 36.1357C47.7353 38.4657 49.1853 41.3357 49.1853 44.4257C49.1853 49.8657 47.5453 53.9857 46.4753 56.2657C51.4653 55.8457 62.1953 53.2757 62.8353 39.0257C63.6053 21.6857 48.6353 19.3357 47.3153 19.1557H15.5553C16.4053 24.0057 18.2354 27.5057 21.0054 29.5857C24.2854 32.0357 28.2153 32.0357 30.9453 31.6057C31.4453 31.5357 31.9953 31.4957 32.5753 31.4957Z" fill="#323232"/>
<path d="M52.4755 46.9956C51.0055 46.9956 49.3955 46.8256 47.5955 46.4256C46.8955 46.2656 46.4555 45.5756 46.6055 44.8656C46.7655 44.1656 47.4555 43.7256 48.1655 43.8756C60.2955 46.5856 62.8155 37.6056 62.9155 37.2256C63.0955 36.5356 63.8055 36.1156 64.5055 36.2956C65.1955 36.4756 65.6155 37.1856 65.4355 37.8756C65.4055 37.9856 62.9555 46.9956 52.4755 46.9956Z" fill="#323232"/>
<path d="M44.4854 38.7153C43.8754 38.7153 43.3354 38.2853 43.2054 37.6753C43.0654 36.9653 43.5154 36.2854 44.2254 36.1354C57.6454 33.4054 57.1154 23.6353 57.0854 23.2253C57.0354 22.5053 57.5754 21.8854 58.2854 21.8254C59.0054 21.7654 59.6254 22.3054 59.6854 23.0154C59.6954 23.1354 60.4954 35.4853 44.7454 38.6853C44.6654 38.7053 44.5754 38.7153 44.4854 38.7153Z" fill="#323232"/>
<path d="M29.6954 69.2556C29.3354 69.2556 28.9954 69.1056 28.7454 68.8456C28.4554 68.5356 28.3354 68.1056 28.4254 67.6856C29.3254 63.3756 31.3054 60.8956 33.0054 59.4956C30.8254 58.4556 28.1354 56.2256 26.8654 51.4256C26.7754 51.0756 26.8254 50.7056 27.0154 50.4056C27.2054 50.1056 27.5154 49.8856 27.8654 49.8156C39.6554 47.4856 45.5454 56.8656 45.6054 56.9656C45.7854 57.2556 45.8354 57.5956 45.7654 57.9256C44.0254 65.7456 38.6254 67.9956 29.8854 69.2456C29.8154 69.2556 29.7554 69.2556 29.6954 69.2556ZM29.8254 52.1456C31.8654 57.4856 36.1754 57.7856 36.3654 57.7956C37.0054 57.8356 37.5354 58.3256 37.5954 58.9656C37.6554 59.6056 37.2554 60.1956 36.6354 60.3556C36.4854 60.3956 33.1554 61.4056 31.4754 66.3456C38.8354 65.0456 41.8254 62.8256 43.0854 57.8956C41.9654 56.3556 37.6454 51.2856 29.8254 52.1456Z" fill="#323232"/>
<path d="M34.1054 34.1857C33.6554 34.1857 33.2154 33.9557 32.9754 33.5357C32.6154 32.9157 32.8354 32.1157 33.4554 31.7557C44.9154 25.1457 43.3154 18.9857 43.2454 18.7257C43.0554 18.0457 43.4454 17.3157 44.1254 17.1157C44.8054 16.9157 45.5254 17.2857 45.7354 17.9657C45.8454 18.3057 48.1754 26.2857 34.7554 34.0157C34.5554 34.1257 34.3254 34.1857 34.1054 34.1857Z" fill="#323232"/>
<path d="M13.8054 19.1656C12.1554 19.1656 4.12537 18.8356 1.50537 12.6056C-1.20463 6.14557 0.555356 1.07555 0.635356 0.86555C0.875356 0.18555 1.62535 -0.164428 2.30535 0.0755723C2.98535 0.315572 3.33536 1.06558 3.09536 1.73558C3.06536 1.82558 1.62536 6.13556 3.91536 11.5956C4.92536 14.0056 7.19536 15.2556 9.31536 15.8856C8.16536 14.6056 7.22536 12.9656 7.16536 10.9856C7.03536 6.33558 8.66536 4.17557 8.84536 3.94557C9.29536 3.38557 10.1154 3.29556 10.6754 3.74556C11.2354 4.19556 11.3254 5.01557 10.8754 5.57557C10.8754 5.57557 9.66536 7.22556 9.76536 10.9056C9.86536 14.3556 14.5554 16.6555 14.6054 16.6755C15.1454 16.9355 15.4354 17.5356 15.3154 18.1156C15.1954 18.7056 14.6854 19.1255 14.0854 19.1455C14.0554 19.1655 13.9654 19.1656 13.8054 19.1656Z" fill="#323232"/>
<path d="M31.8155 24.4753C31.8155 25.8453 30.7055 26.9653 29.3255 26.9653C27.9455 26.9653 26.8354 25.8553 26.8354 24.4753C26.8354 23.1053 27.9455 21.9854 29.3255 21.9854C30.7055 21.9854 31.8155 23.0953 31.8155 24.4753Z" fill="#323232"/>
</svg>
