<svg width="58" height="59" viewBox="0 0 58 59" fill="none" xmlns="http://www.w3.org/2000/svg">
<path d="M27.1365 57.5956C27.1264 57.4114 27.1899 57.2308 27.313 57.0934C27.4362 56.956 27.6088 56.8731 27.793 56.863C28.5902 56.8192 29.4053 56.7596 30.2308 56.6843C33.1269 53.8766 35.1046 47.5627 35.1046 40.0343C35.1046 32.7258 33.2387 26.5685 30.4801 23.6453C28.559 23.3474 27.1603 23.2331 26.8615 23.2112C30.5793 23.2579 33.7137 30.9407 33.7137 40.0343C33.7137 49.1561 30.5605 56.8621 26.8277 56.8621C23.0949 56.8621 19.9408 49.1561 19.9408 40.0343C19.9408 30.9205 23.0896 23.221 26.8184 23.2081L26.7833 23.2055C26.6006 23.1941 26.4297 23.111 26.308 22.9742C26.1863 22.8375 26.1235 22.6582 26.1334 22.4753C26.1432 22.2925 26.2249 22.121 26.3606 21.9981C26.4963 21.8752 26.675 21.8109 26.8579 21.8192C26.8477 21.8191 26.8379 21.8159 26.8277 21.8159C22.1857 21.8159 18.5498 29.8185 18.5498 40.0343C18.5498 50.2505 22.1857 58.2531 26.8277 58.2531C27.0638 58.2486 27.2991 58.2232 27.5309 58.1773C27.4191 58.1245 27.3235 58.0427 27.2541 57.9404C27.1847 57.8381 27.1441 57.719 27.1365 57.5956Z" fill="#323232"/>
<path d="M26.8276 58.7534C21.8232 58.7534 18.0498 50.7061 18.0498 40.0347C18.0498 29.3633 21.8232 21.3164 26.8276 21.3164V21.3184C26.8457 21.3184 26.8638 21.3188 26.8818 21.3198L26.8579 22.3193C26.8423 22.3208 26.8232 22.3193 26.8052 22.3198C26.7568 22.3253 26.7123 22.3488 26.6804 22.3856C26.6485 22.4223 26.6316 22.4697 26.6329 22.5184C26.6343 22.567 26.6538 22.6134 26.6877 22.6483C26.7216 22.6832 26.7673 22.7042 26.8159 22.707V22.7085H26.8169L26.8184 23.2085L26.8179 23.2124L26.8199 23.7085C23.4219 23.7202 20.441 31.3491 20.441 40.0347C20.441 48.7324 23.4254 56.3623 26.8277 56.3623C30.2296 56.3623 33.214 48.7324 33.214 40.0347C33.214 31.667 30.4351 24.2578 27.189 23.7402C27.0098 23.7241 26.8858 23.7144 26.8253 23.71L26.8683 22.7114C27.0111 22.7132 27.1537 22.7247 27.295 22.7456C27.8947 22.7993 29.065 22.9199 30.5573 23.1514L30.7267 23.1777L30.8444 23.3022C33.7809 26.4145 35.6051 32.8262 35.6051 40.0347C35.6051 47.5205 33.6793 54.0381 30.5792 57.0435L30.4523 57.1665L30.2765 57.1826C29.4445 57.2583 28.6237 57.3183 27.8204 57.3623C27.7688 57.3654 27.7205 57.3887 27.686 57.4272C27.6514 57.4657 27.6334 57.5162 27.6359 57.5678C27.6389 57.6023 27.6511 57.6354 27.6712 57.6637C27.6913 57.6919 27.7185 57.7143 27.7501 57.7285L29.132 58.4023L27.6178 58.6699C27.3574 58.721 27.093 58.749 26.8276 58.7534ZM25.6333 22.5352C21.898 23.8672 19.0498 31.2075 19.0498 40.0347C19.0498 49.6704 22.4438 57.5347 26.6514 57.749C26.6444 57.7075 26.6398 57.6656 26.6377 57.6235C26.6325 57.5347 26.6374 57.4451 26.6524 57.3574C22.6602 57.1382 19.4409 49.4517 19.4409 40.0347C19.4409 31.3833 22.1617 24.1855 25.7017 22.9097C25.6586 22.7894 25.6355 22.6629 25.6333 22.5352ZM29.648 24.0278C32.3242 26.6372 34.2139 32.8398 34.2139 40.0347C34.2139 47.4409 32.2232 53.7764 29.4312 56.2515C29.6221 56.2358 29.814 56.2196 30.0069 56.2026C32.8047 53.3594 34.605 47.0469 34.605 40.0346C34.605 33.1679 32.9331 27.0942 30.232 24.1133C30.0308 24.0825 29.8361 24.054 29.648 24.0278Z" fill="#323232"/>
<path d="M37.9908 56.4478C37.9077 56.4099 37.8329 56.356 37.7706 56.2892C37.7084 56.2224 37.6599 56.1439 37.6279 56.0583C37.596 55.9728 37.5812 55.8818 37.5844 55.7905C37.5876 55.6992 37.6088 55.6095 37.6467 55.5264C37.6817 55.4496 37.7111 55.3407 37.7426 55.2437C35.2977 55.9923 32.7793 56.4754 30.2309 56.6843C29.5015 57.442 28.5606 57.9623 27.531 58.1773C27.6236 58.2252 27.726 58.2511 27.8303 58.253L27.8692 58.2521C31.442 58.1314 34.9833 57.5399 38.4013 56.4929C38.3614 56.5023 38.3207 56.5081 38.2797 56.5103C38.1801 56.5103 38.0816 56.489 37.9908 56.4478Z" fill="#323232"/>
<path d="M27.8824 58.7519C27.6857 58.7571 27.4907 58.7147 27.314 58.6284L25.918 57.956L27.4434 57.6855C28.3747 57.4878 29.2248 57.0139 29.8828 56.3257L30.0098 56.2026L30.1856 56.1865C32.699 55.9835 35.1829 55.5075 37.5933 54.7671L38.5211 54.4761L38.2178 55.3999C38.1854 55.5135 38.1466 55.6251 38.1016 55.7344C38.0803 55.7815 38.0784 55.8351 38.0964 55.8836C38.1145 55.932 38.1509 55.9714 38.1978 55.9932C38.2236 56.0047 38.2515 56.0107 38.2798 56.0107L38.5547 56.9692C35.0955 58.0281 31.512 58.6273 27.8965 58.7515L27.8824 58.7519ZM30.4497 57.1665C30.2774 57.3261 30.1026 57.4739 29.9253 57.6098C32.3868 57.4211 34.8242 56.994 37.2032 56.3345C37.1465 56.2166 37.1094 56.0903 37.0933 55.9604C34.921 56.5676 32.6969 56.9713 30.4497 57.1665Z" fill="#323232"/>
<path d="M57.304 39.2914C56.8639 37.9711 55.5735 36.7282 54.8943 36.7282C54.4931 36.7282 53.3476 36.447 51.3825 33.8416C49.1258 30.8487 47.4958 28.6862 41.5652 25.5135C35.7749 22.4151 27.2326 21.8405 26.8722 21.8174C26.8673 21.8171 26.863 21.8196 26.8582 21.8194C27.5549 21.8591 28.2359 22.0418 28.859 22.3559C29.4822 22.6701 30.034 23.109 30.4803 23.6455C34.0976 24.1228 37.6172 25.167 40.9095 26.7397C46.5694 29.7679 48.0418 31.7217 50.2723 34.6793C51.9349 36.8844 53.4427 38.039 54.7567 38.1151C55.4473 38.6048 55.9219 39.3424 56.0815 40.1739C56.0931 40.5705 55.9967 40.9629 55.8026 41.309C55.6085 41.6551 55.324 41.942 54.9795 42.139C54.3025 42.6514 53.5988 43.1275 52.8713 43.5652C51.7121 44.272 51.4205 44.5007 50.0794 46.7592C49.1954 48.1716 48.0808 49.4256 46.7819 50.4691C46.6363 50.9471 46.4489 51.4113 46.2216 51.8563C46.1791 51.9372 46.121 52.0089 46.0507 52.0673C45.9804 52.1257 45.8993 52.1697 45.812 52.1968C45.7248 52.2239 45.633 52.2335 45.542 52.2251C45.451 52.2167 45.3625 52.1905 45.2816 52.1479C45.1515 52.0758 45.0487 51.9629 44.9889 51.8267C43.5611 52.7782 42.046 53.5917 40.464 54.256C40.0733 54.4215 39.6884 54.5624 39.3025 54.707C39.2269 55.186 39.0961 55.6546 38.9128 56.1034C38.8437 56.2513 38.724 56.3697 38.5754 56.4371C39.376 56.1737 40.1838 55.8853 41.0073 55.5365C45.6575 53.5674 49.4002 50.6265 51.2747 47.4692C52.4864 45.4294 52.634 45.3393 53.5957 44.7525C54.3615 44.2922 55.1021 43.7913 55.8144 43.252C56.4758 42.8594 56.9838 42.2531 57.2545 41.5332C57.5253 40.8133 57.5428 40.0226 57.304 39.2914Z" fill="#323232"/>
<path d="M38.7314 56.9121L38.3622 55.9848C38.4037 55.9677 38.4375 55.9361 38.4575 55.896C38.6241 55.4846 38.7427 55.0553 38.811 54.6167L38.8622 54.3383L39.2836 54.1801C39.6108 54.0581 39.9374 53.9365 40.2685 53.7959C41.8213 53.1443 43.3084 52.3459 44.7094 51.4116L45.1899 51.0888L45.4399 51.6113C45.4549 51.6497 45.4811 51.6826 45.5151 51.706C45.6664 51.7275 45.7387 51.6997 45.7787 51.623C45.9921 51.2044 46.1683 50.7678 46.3051 50.3183L46.3491 50.1792L46.4614 50.0854C47.7177 49.0791 48.7957 47.8683 49.6498 46.5039C50.9936 44.2407 51.3286 43.9204 52.6108 43.1386C53.3243 42.7093 54.0144 42.2422 54.6782 41.7392C55.56 41.0786 55.6176 40.5581 55.5844 40.2236C55.4508 39.5808 55.0937 39.0061 54.5766 38.6015C53.1489 38.4443 51.5668 37.227 49.8725 34.9809C47.6811 32.0737 46.2348 30.1557 40.6738 27.1806C37.4308 25.6355 33.9652 24.6093 30.4038 24.1396L30.2343 24.1133L30.1167 23.9888C29.3949 23.1373 28.4025 22.5596 27.3057 22.3525C27.1245 22.3369 26.9912 22.3271 26.9121 22.3213L26.8999 22.3242L26.8081 22.3169L26.8394 21.7363L26.749 21.332L26.8721 21.3174L26.9126 21.3198C27.0941 21.3235 27.2753 21.338 27.4551 21.3633C29.5522 21.5483 36.731 22.3594 41.8008 25.0728C47.8267 28.2969 49.4849 30.4951 51.7798 33.5381C53.7515 36.1533 54.7827 36.2285 54.894 36.2285C55.8608 36.2285 57.2895 37.6675 57.7788 39.1333C58.0473 39.9641 58.0291 40.8614 57.7272 41.6806C57.4253 42.4998 56.8572 43.194 56.1138 43.6519C55.3892 44.2013 54.6355 44.7113 53.856 45.1797C52.9488 45.7334 52.854 45.7915 51.7046 47.7246C49.7759 50.9722 45.9478 53.9873 41.2022 55.9971C40.4604 56.311 39.6753 56.602 38.7314 56.9121ZM39.7397 55.0776C39.705 55.2431 39.6694 55.3979 39.6313 55.542C40.0483 55.3886 40.4365 55.2353 40.8124 55.0761C42.3777 54.4179 43.8799 53.6185 45.3002 52.688C45.2134 52.6653 45.1296 52.6327 45.0502 52.5908C44.9944 52.5617 44.9412 52.5279 44.8911 52.4897C43.547 53.3525 42.1309 54.0977 40.6586 54.7168C40.35 54.8476 40.0449 54.9633 39.7397 55.0776ZM47.2133 50.7597C47.1254 51.0278 47.0336 51.2758 46.937 51.5063C48.4878 50.3228 49.8119 48.8686 50.8452 47.2138C52.0854 45.1264 52.2934 44.9614 53.3354 44.3257C54.0877 43.8741 54.815 43.3822 55.5141 42.852C56.0909 42.5223 56.5366 42.004 56.7762 41.3842C57.0157 40.7645 57.0346 40.0812 56.8295 39.4492C56.678 38.9653 56.4277 38.5182 56.0946 38.1359C55.7614 37.7537 55.3526 37.4447 54.894 37.2285C54.1713 37.2285 52.9067 36.6933 50.9828 34.143C48.7631 31.1992 47.1606 29.0747 41.329 25.9546C37.8222 24.2778 34.068 23.1775 30.2109 22.6958C30.3837 22.8447 30.5548 23.0054 30.7241 23.1777C34.3393 23.6684 37.8556 24.7215 41.1454 26.2988C46.8998 29.3779 48.3989 31.3657 50.6684 34.375C52.2182 36.4302 53.6411 37.5498 54.7856 37.6162L54.894 37.6225L54.9037 37.6191L54.9164 37.6235L55.0268 37.6948C55.4323 37.9778 55.778 38.3379 56.0443 38.7545C56.3105 39.1712 56.4921 39.6362 56.5786 40.123C56.6002 40.6056 56.4908 41.085 56.262 41.5104C56.0331 41.9358 55.6934 42.2912 55.2787 42.539C54.5957 43.0567 53.8857 43.5379 53.1518 43.9805C52.0834 44.6318 51.8334 44.7842 50.5092 47.0146C49.6246 48.4363 48.511 49.7017 47.2133 50.7597Z" fill="#323232"/>
<path d="M26.8186 23.2082L26.8617 23.2113C26.8503 23.2112 26.8393 23.207 26.8279 23.207L26.8186 23.2082Z" fill="#323232"/>
<path d="M26.8618 23.7114L26.7485 23.6997L26.8184 23.2085L26.7065 22.7217L26.876 22.707L26.9409 22.7188L26.8735 23.4043L26.9404 23.6938L26.8618 23.7114ZM26.8184 22.7085V23.2085L26.8213 23.1523L26.8184 22.7085Z" fill="#323232"/>
<path d="M30.2309 56.6846C29.4054 56.7598 28.5903 56.8194 27.7931 56.8633C27.6392 56.8706 27.4921 56.9291 27.3753 57.0297C27.2586 57.1302 27.1787 57.2669 27.1486 57.418C27.1185 57.5691 27.1397 57.726 27.209 57.8636C27.2783 58.0013 27.3916 58.1118 27.531 58.1776C28.5605 57.9626 29.5014 57.4423 30.2309 56.6846Z" fill="#323232"/>
<path d="M27.4581 58.6987L27.3116 58.627C27.073 58.5125 26.8792 58.3218 26.7611 58.085C26.6429 57.8482 26.6069 57.5788 26.659 57.3193C26.711 57.0598 26.848 56.825 27.0483 56.6521C27.2487 56.4791 27.5009 56.3778 27.7652 56.3643C28.5572 56.3203 29.3663 56.2613 30.1856 56.1865L31.5953 56.0581L30.5792 57.0435C29.7789 57.8719 28.7467 58.4388 27.6183 58.6699L27.4581 58.6987ZM28.5211 57.3203C28.2862 57.3355 28.0527 57.3494 27.8204 57.3623C27.7687 57.3654 27.7203 57.3887 27.6857 57.4273C27.6512 57.4659 27.6332 57.5166 27.6358 57.5683C27.6373 57.5937 27.6442 57.6185 27.6559 57.6411C27.9557 57.5678 28.246 57.4602 28.5211 57.3203Z" fill="#323232"/>
<path d="M26.1342 22.4673C26.1284 22.5584 26.1405 22.6498 26.17 22.7362C26.1994 22.8227 26.2456 22.9024 26.3059 22.971C26.3662 23.0396 26.4394 23.0956 26.5214 23.1359C26.6033 23.1762 26.6924 23.1999 26.7835 23.2058L26.8186 23.2083L26.8279 23.2071C26.8393 23.2071 26.8503 23.2113 26.8617 23.2114C27.1606 23.2333 28.5593 23.3477 30.4804 23.6456C30.0341 23.1091 29.4822 22.6702 28.8591 22.356C28.236 22.0419 27.5549 21.8592 26.8582 21.8195C26.6769 21.8119 26.4998 21.8753 26.3646 21.9963C26.2294 22.1173 26.1468 22.2863 26.1342 22.4673Z" fill="#323232"/>
<path d="M31.8452 24.3628L30.4038 24.1396C28.4605 23.8384 27.0821 23.729 26.8252 23.7099L26.8184 23.7085C26.6565 23.7047 26.4969 23.6685 26.3492 23.602C26.2015 23.5356 26.0686 23.4402 25.9583 23.3216C25.8481 23.2029 25.7627 23.0634 25.7072 22.9112C25.6517 22.7591 25.6273 22.5973 25.6353 22.4355C25.6572 22.124 25.7997 21.8332 26.0324 21.6249C26.2651 21.4167 26.5698 21.3072 26.8819 21.3198C27.6433 21.3592 28.3884 21.5557 29.0703 21.8968C29.7522 22.238 30.3562 22.7165 30.8443 23.3022L31.8452 24.3628ZM26.8277 22.707L26.9409 22.7187C27.0894 22.7275 27.7764 22.7812 28.812 22.9087C28.2255 22.5371 27.5483 22.3332 26.854 22.3193C26.8275 22.3148 26.8003 22.316 26.7742 22.3229C26.7481 22.3298 26.7238 22.3421 26.7029 22.3591C26.682 22.3761 26.665 22.3974 26.653 22.4216C26.641 22.4457 26.6343 22.4721 26.6333 22.499C26.63 22.5508 26.6474 22.6018 26.6817 22.6408C26.7159 22.6798 26.7642 22.7036 26.8159 22.707H26.8277Z" fill="#323232"/>
<path d="M39.9043 34.5053C39.9232 34.5947 39.9595 34.6796 40.0111 34.7549C40.0628 34.8303 40.1288 34.8948 40.2054 34.9446C40.2821 34.9945 40.3677 35.0287 40.4576 35.0454C40.5474 35.0621 40.6397 35.061 40.7291 35.042C40.8185 35.023 40.9033 34.9866 40.9786 34.9348C41.0539 34.883 41.1182 34.8169 41.168 34.7402C41.2177 34.6635 41.2518 34.5778 41.2684 34.4879C41.285 34.3981 41.2837 34.3058 41.2645 34.2164L40.4115 30.1997C40.3925 30.1104 40.3561 30.0257 40.3044 29.9505C40.2527 29.8752 40.1867 29.8109 40.1101 29.7612C40.0336 29.7114 39.948 29.6772 39.8582 29.6606C39.7684 29.6439 39.6763 29.6451 39.5869 29.6641C39.4976 29.6831 39.4129 29.7194 39.3377 29.7711C39.2624 29.8228 39.1981 29.8888 39.1483 29.9654C39.0986 30.042 39.0644 30.1276 39.0478 30.2174C39.0311 30.3071 39.0323 30.3993 39.0513 30.4886L39.9043 34.5053Z" fill="#323232"/>
<path d="M40.5834 35.5566C40.3099 35.5555 40.0449 35.461 39.8323 35.2887C39.6198 35.1165 39.4726 34.8768 39.415 34.6093L38.562 30.5927C38.5294 30.4391 38.5273 30.2807 38.556 30.1263C38.5846 29.9719 38.6434 29.8247 38.7289 29.6931C38.8144 29.5614 38.9251 29.4479 39.0545 29.359C39.1839 29.2701 39.3295 29.2076 39.4831 29.175C39.6367 29.1424 39.7952 29.1404 39.9495 29.169C40.1039 29.1976 40.2511 29.2564 40.3827 29.3419C40.5144 29.4275 40.6279 29.5381 40.7168 29.6675C40.8057 29.7969 40.8682 29.9426 40.9008 30.0961L41.7538 34.1127C41.7907 34.287 41.7882 34.4673 41.7465 34.6405C41.7048 34.8137 41.625 34.9753 41.5128 35.1137C41.4007 35.2521 41.259 35.3636 41.0982 35.4403C40.9374 35.5169 40.7615 35.5566 40.5834 35.5566ZM39.7314 30.1494C39.7023 30.1494 39.6736 30.1559 39.6474 30.1684C39.6211 30.181 39.598 30.1992 39.5797 30.2218C39.5614 30.2444 39.5484 30.2708 39.5416 30.2991C39.5348 30.3273 39.5344 30.3568 39.5404 30.3852L40.3934 34.4023C40.4029 34.4458 40.4268 34.4847 40.4614 34.5128C40.4959 34.5408 40.539 34.5563 40.5834 34.5566C40.7304 34.5297 40.7978 34.4257 40.7753 34.3203L39.9223 30.3041C39.913 30.2604 39.889 30.2211 39.8542 30.193C39.8195 30.1648 39.7761 30.1494 39.7314 30.1494Z" fill="#323232"/>
<path d="M47.3127 40.7298C47.4972 40.7297 47.674 40.6564 47.8044 40.526C47.9349 40.3956 48.0081 40.2187 48.0082 40.0343V36.57C48.0082 36.3856 47.9349 36.2087 47.8045 36.0782C47.674 35.9478 47.4971 35.8745 47.3127 35.8745C47.1282 35.8745 46.9513 35.9478 46.8209 36.0782C46.6905 36.2087 46.6172 36.3856 46.6172 36.57V40.0343C46.6172 40.2187 46.6905 40.3956 46.821 40.526C46.9514 40.6565 47.1283 40.7297 47.3127 40.7298Z" fill="#323232"/>
<path d="M47.313 41.23C46.9961 41.2296 46.6922 41.1036 46.4681 40.8795C46.244 40.6554 46.118 40.3516 46.1177 40.0347V36.5703C46.1177 36.2533 46.2436 35.9493 46.4678 35.7251C46.6919 35.5009 46.996 35.375 47.313 35.375C47.63 35.375 47.934 35.5009 48.1582 35.7251C48.3824 35.9493 48.5083 36.2533 48.5083 36.5703V40.0347C48.508 40.3516 48.3819 40.6554 48.1578 40.8795C47.9337 41.1036 47.6299 41.2296 47.313 41.23ZM47.313 36.375C47.2612 36.3751 47.2116 36.3957 47.175 36.4323C47.1383 36.4689 47.1177 36.5185 47.1177 36.5703V40.0347C47.1177 40.2505 47.5083 40.2505 47.5083 40.0347V36.5703C47.5082 36.5185 47.4876 36.4689 47.451 36.4323C47.4144 36.3957 47.3648 36.3751 47.313 36.375Z" fill="#323232"/>
<path d="M46.8553 45.7672C46.7641 45.761 46.6726 45.773 46.586 45.8024C46.4994 45.8318 46.4195 45.8781 46.3509 45.9385C46.2823 45.999 46.2263 46.0724 46.1862 46.1546C46.1462 46.2368 46.1228 46.3261 46.1174 46.4174C46.0104 48.0661 45.6294 49.6854 44.9899 51.2088C44.9412 51.3045 44.9157 51.4103 44.9155 51.5176C44.9153 51.625 44.9404 51.7308 44.9888 51.8267C45.6097 51.4057 46.2081 50.9525 46.7817 50.4691C47.1626 49.1772 47.4049 47.8484 47.5047 46.5052C47.5165 46.3213 47.4547 46.1402 47.3329 46.0018C47.2111 45.8633 47.0393 45.779 46.8553 45.7672Z" fill="#323232"/>
<path d="M44.7866 52.565L44.5376 52.0415C44.4558 51.8757 44.414 51.6931 44.4156 51.5083C44.4171 51.3234 44.4619 51.1415 44.5464 50.9771C45.1546 49.5178 45.5169 47.9678 45.6187 46.3902C45.6273 46.2319 45.6677 46.077 45.7373 45.9346C45.8069 45.7921 45.9044 45.6651 46.0239 45.5611C46.2621 45.3532 46.5727 45.2479 46.8882 45.2681C47.2041 45.2891 47.4988 45.4344 47.7079 45.6723C47.9169 45.9101 48.0232 46.221 48.0034 46.5371C47.9009 47.9205 47.6511 49.2891 47.2583 50.6196L47.2144 50.7592L47.1021 50.853C46.5153 51.3479 45.9028 51.8115 45.267 52.2417L44.7866 52.565ZM46.8071 46.2657C46.7615 46.2658 46.7174 46.2824 46.6831 46.3125C46.6635 46.3294 46.6474 46.3501 46.636 46.3733C46.6246 46.3966 46.618 46.4219 46.6167 46.4478C46.5143 47.8701 46.2364 49.2743 45.7896 50.6284C45.9702 50.4868 46.1558 50.3379 46.3482 50.1797C46.6921 48.9713 46.9123 47.731 47.0054 46.4781C47.0074 46.4522 47.0043 46.4262 46.9962 46.4016C46.9882 46.3769 46.9754 46.3541 46.9585 46.3344C46.9416 46.3147 46.9211 46.2986 46.8979 46.2869C46.8748 46.2751 46.8496 46.2681 46.8237 46.2661H46.8208L46.8071 46.2657Z" fill="#323232"/>
<path d="M45.2815 52.1481C45.3623 52.1906 45.4508 52.2169 45.5418 52.2253C45.6328 52.2337 45.7246 52.2241 45.8119 52.197C45.8991 52.1699 45.9803 52.1259 46.0505 52.0675C46.1208 52.009 46.1789 51.9373 46.2215 51.8565C46.4487 51.4115 46.6361 50.9472 46.7817 50.4692C46.2081 50.9527 45.6096 51.4058 44.9888 51.8269C45.0485 51.9631 45.1514 52.0759 45.2815 52.1481Z" fill="#323232"/>
<path d="M45.605 52.7281C45.4118 52.7277 45.2215 52.6806 45.0504 52.5909L45.0483 52.5898C44.8227 52.4681 44.6433 52.2756 44.5376 52.042L44.3511 51.6523L44.7104 51.4116C45.3169 51.0004 45.9013 50.5578 46.4615 50.0854L47.773 48.9907L47.2583 50.6201C47.1042 51.1266 46.9052 51.6183 46.6636 52.0894C46.5623 52.2823 46.41 52.4438 46.2234 52.5564C46.0368 52.669 45.823 52.7283 45.605 52.7281Z" fill="#323232"/>
<path d="M38.5754 56.437C38.5173 56.4561 38.4594 56.4743 38.4014 56.493C38.4616 56.4822 38.5201 56.4633 38.5754 56.437Z" fill="#323232"/>
<path d="M38.4888 56.9854L38.2495 56.0171L38.416 55.9629L38.7925 56.8872C38.6962 56.9337 38.594 56.9668 38.4888 56.9854Z" fill="#323232"/>
<path d="M38.9841 49.4313C38.892 49.4273 38.8001 49.4424 38.7141 49.4754C38.628 49.5085 38.5497 49.5588 38.4839 49.6234C38.4181 49.688 38.3662 49.7654 38.3315 49.8508C38.2969 49.9362 38.2801 50.0278 38.2823 50.12C38.2896 51.8425 38.1085 53.5607 37.7424 55.244C38.258 55.0823 38.778 54.9034 39.3024 54.7071C39.5365 53.1936 39.6604 51.665 39.6733 50.1335C39.6742 50.0421 39.6572 49.9515 39.623 49.8667C39.5889 49.7819 39.5383 49.7047 39.4743 49.6395C39.4103 49.5743 39.3341 49.5223 39.25 49.4866C39.1659 49.4509 39.0755 49.4321 38.9841 49.4313Z" fill="#323232"/>
<path d="M36.9683 56.0104L37.2671 55.0895C37.6201 53.4553 37.7928 51.7873 37.7822 50.1154C37.7835 49.9497 37.8183 49.7861 37.8847 49.6343C37.9511 49.4826 38.0476 49.3459 38.1685 49.2326C38.2791 49.1272 38.4105 49.0459 38.5543 48.9941C38.698 48.9422 38.851 48.9208 39.0034 48.9313C39.3181 48.9379 39.6175 49.0683 39.8365 49.2943C40.0556 49.5203 40.1766 49.8236 40.1734 50.1383C40.1591 51.6983 40.0325 53.2552 39.7945 54.797L39.7432 55.0753L39.4781 55.1749C38.9448 55.3751 38.4162 55.5571 37.8921 55.7208L36.9683 56.0104ZM38.9395 49.9293C38.9225 49.9292 38.9058 49.9324 38.8901 49.9388C38.8744 49.9452 38.8602 49.9546 38.8481 49.9665C38.8272 49.9871 38.8105 50.0117 38.7992 50.0389C38.7879 50.0661 38.7821 50.0952 38.7822 50.1247C38.7648 51.5854 38.6488 53.0433 38.4351 54.4884C38.5762 54.4396 38.7174 54.3893 38.8589 54.3376C39.0539 52.9428 39.159 51.5368 39.1733 50.1286C39.1738 50.0766 39.1536 50.0267 39.1173 49.9896C39.0809 49.9525 39.0314 49.9314 38.9795 49.9308L38.9512 49.9298L38.9395 49.9293Z" fill="#323232"/>
<path d="M38.9126 56.1034C39.0959 55.6546 39.2268 55.186 39.3024 54.707C38.7778 54.9038 38.2578 55.0827 37.7424 55.2439C37.7109 55.3409 37.6816 55.4498 37.6466 55.5266C37.5872 55.6412 37.562 55.7705 37.5739 55.8991C37.5859 56.0277 37.6345 56.1501 37.7139 56.2519C37.7934 56.3536 37.9004 56.4305 38.0222 56.4732C38.144 56.516 38.2755 56.5229 38.4012 56.4932C38.4592 56.4744 38.5171 56.4563 38.5752 56.4372C38.7238 56.3697 38.8435 56.2513 38.9126 56.1034Z" fill="#323232"/>
<path d="M38.2798 57.0107C38.0796 57.011 37.8825 56.961 37.7067 56.8652C37.5309 56.7695 37.382 56.631 37.2736 56.4627C37.1652 56.2943 37.1009 56.1014 37.0866 55.9017C37.0722 55.7021 37.1083 55.5019 37.1915 55.3198C37.2099 55.2743 37.2255 55.2276 37.2383 55.1802L37.316 54.9297L37.5933 54.7671C38.1002 54.6079 38.6115 54.4318 39.1275 54.2388L39.9542 53.9287L39.7945 54.7974C39.7128 55.3171 39.5695 55.8252 39.3677 56.311C39.2502 56.567 39.0444 56.7722 38.7881 56.8892L38.4903 56.9854C38.4212 57.0008 38.3507 57.0093 38.2798 57.0107ZM38.1382 55.6431C38.1255 55.6782 38.1138 55.7075 38.1016 55.7344C38.0801 55.7816 38.0783 55.8354 38.0964 55.884C38.1145 55.9326 38.1512 55.972 38.1983 55.9937L38.4161 55.9629C38.4087 55.9629 38.441 55.9331 38.4576 55.896C38.5167 55.7631 38.567 55.6264 38.608 55.4868C38.4507 55.5405 38.2942 55.5926 38.1382 55.6431Z" fill="#323232"/>
<path d="M40.7528 38.3394C40.5697 38.3616 40.4029 38.4555 40.289 38.6004C40.1751 38.7454 40.1234 38.9297 40.1451 39.1128C40.3269 40.7693 40.248 42.4441 39.9115 44.0762C39.8881 44.1647 39.8824 44.2569 39.8948 44.3476C39.9071 44.4382 39.9372 44.5255 39.9833 44.6045C40.0295 44.6836 40.0907 44.7527 40.1636 44.808C40.2365 44.8632 40.3196 44.9036 40.4082 44.9267C40.4967 44.9498 40.5889 44.9553 40.6795 44.9427C40.7701 44.9301 40.8574 44.8997 40.9362 44.8534C41.0151 44.807 41.0841 44.7455 41.1392 44.6725C41.1942 44.5994 41.2343 44.5162 41.2572 44.4276C41.6413 42.627 41.7321 40.7762 41.5262 38.9466C41.5029 38.7641 41.4088 38.598 41.264 38.4844C41.1193 38.3708 40.9356 38.3187 40.7528 38.3394Z" fill="#323232"/>
<path d="M40.5853 45.4476C40.4024 45.4478 40.222 45.4061 40.0578 45.3256C39.8936 45.2451 39.7501 45.128 39.6383 44.9834C39.5265 44.8387 39.4493 44.6703 39.4128 44.4912C39.3762 44.312 39.3813 44.1269 39.4276 43.95C39.7471 42.3796 39.8217 40.7693 39.6488 39.1761C39.6111 38.8609 39.6999 38.5437 39.8956 38.2938C40.0914 38.044 40.3782 37.8819 40.6932 37.8431H40.6952C41.009 37.8088 41.3237 37.8989 41.5719 38.0939C41.8201 38.289 41.982 38.5735 42.0228 38.8865C42.2355 40.7785 42.1404 42.6925 41.7411 44.554C41.6744 44.8098 41.5247 45.0363 41.3156 45.1979C41.1065 45.3596 40.8496 45.4474 40.5853 45.4476ZM40.8114 38.8362C40.76 38.843 40.7134 38.8697 40.6816 38.9105C40.6498 38.9514 40.6354 39.0031 40.6414 39.0545C40.8333 40.7728 40.7502 42.5107 40.3953 44.2029C40.3824 44.253 40.3898 44.3062 40.416 44.3509C40.4421 44.3956 40.4849 44.428 40.535 44.4412C40.585 44.4521 40.6373 44.4438 40.6814 44.418C40.7256 44.3921 40.7584 44.3505 40.7733 44.3016C41.1435 42.5621 41.2301 40.7742 41.0296 39.0071C41.0223 38.956 40.9955 38.9096 40.9548 38.8778C40.9142 38.8459 40.8628 38.8311 40.8114 38.8362Z" fill="#323232"/>
<path d="M44.8333 25.1883C44.742 25.185 44.6523 25.1638 44.5693 25.1258C44.4862 25.0878 44.4115 25.0338 44.3493 24.9669C44.2872 24.9 44.2388 24.8215 44.207 24.7359C44.1752 24.6502 44.1606 24.5592 44.1641 24.4679C44.1671 24.3845 44.1655 24.3021 44.1663 24.2192C44.0368 24.3731 43.912 24.5358 43.7774 24.6789C43.7145 24.7454 43.6653 24.8235 43.6327 24.909C43.6 24.9945 43.5846 25.0855 43.5872 25.177C43.5898 25.2684 43.6104 25.3584 43.6479 25.4419C43.6854 25.5254 43.7389 25.6006 43.8055 25.6633C43.8721 25.726 43.9504 25.775 44.036 25.8074C44.1215 25.8398 44.2126 25.855 44.3041 25.8522C44.3955 25.8493 44.4855 25.8284 44.5688 25.7907C44.6522 25.753 44.7273 25.6993 44.7898 25.6325C44.9728 25.438 45.1439 25.2211 45.3179 25.0094C45.1921 25.1238 45.0286 25.1876 44.8587 25.1888L44.8333 25.1883Z" fill="#323232"/>
<path d="M44.2826 26.3516C43.9781 26.3525 43.685 26.236 43.4643 26.0264C43.234 25.8087 43.0994 25.5086 43.0899 25.1919C43.0804 24.8752 43.1967 24.5676 43.4135 24.3364C43.4965 24.2485 43.5746 24.1528 43.6527 24.0566L44.683 22.833L44.6645 24.4858C44.6632 24.5116 44.667 24.5373 44.6758 24.5615C44.6845 24.5857 44.6981 24.6079 44.7155 24.6268C44.733 24.6457 44.7541 24.661 44.7775 24.6716C44.8009 24.6823 44.8262 24.6882 44.852 24.689H44.8549C44.9035 24.688 44.9501 24.6693 44.9857 24.6362L45.7035 25.3271L45.6029 25.4511C45.4555 25.6313 45.309 25.8115 45.1527 25.9761C45.0457 26.0907 44.9169 26.1828 44.7739 26.2472C44.6309 26.3116 44.4765 26.3469 44.3197 26.3511L44.2826 26.3516Z" fill="#323232"/>
<path d="M16.2961 5.78676C16.3233 5.60455 16.4217 5.44059 16.5697 5.33086C16.7177 5.22113 16.9032 5.17459 17.0855 5.20145C17.2678 5.22831 17.4319 5.32638 17.542 5.47414C17.6521 5.6219 17.699 5.80728 17.6725 5.98961C17.6563 6.09961 17.6478 6.21407 17.639 6.32823C18.3426 5.94834 19.0764 5.58232 19.8586 5.24069C21.4707 4.53266 23.1367 3.95401 24.8406 3.51021C24.7811 3.45479 24.7164 3.40532 24.6473 3.36253C24.5682 3.31687 24.4989 3.25608 24.4433 3.18362C24.3877 3.11117 24.3469 3.02847 24.3233 2.94026C24.2996 2.85205 24.2936 2.76005 24.3055 2.66951C24.3175 2.57897 24.3471 2.49168 24.3928 2.4126C24.4385 2.33352 24.4992 2.26419 24.5717 2.2086C24.6441 2.15302 24.7269 2.11225 24.8151 2.08862C24.9033 2.06499 24.9953 2.05897 25.0858 2.07089C25.1764 2.08282 25.2637 2.11246 25.3427 2.15813C25.7441 2.42592 26.0935 2.76431 26.374 3.15686C36.9605 1.00494 43.7836 5.706 44.1207 5.94479C47.1825 8.11454 48.6296 8.07832 49.6864 8.043C49.8648 8.03848 50.0342 8.033 50.2008 8.0421C50.5882 8.13496 50.941 8.33687 51.2173 8.62393C51.4936 8.91099 51.6819 9.27119 51.76 9.66191C51.838 10.0526 51.8024 10.4575 51.6576 10.8287C51.5127 11.1999 51.2645 11.5218 50.9424 11.7563C48.7165 14.1031 48.4186 15.1789 48.041 16.5409C47.9794 16.7646 47.9142 16.9991 47.8363 17.2527C47.2425 19.0718 46.4386 20.8155 45.4408 22.4484C45.5379 23.1339 45.5755 23.8266 45.5534 24.5186C45.5451 24.6667 45.4888 24.808 45.3928 24.9211C47.0496 22.7306 48.3252 20.2763 49.1657 17.6616C49.2481 17.3949 49.316 17.1481 49.3812 16.9122C49.7326 15.6453 49.9644 14.809 51.9512 12.7135C52.4598 12.2887 52.8353 11.7265 53.0331 11.094C53.2308 10.4615 53.2424 9.78552 53.0665 9.14665C52.8905 8.50778 52.5344 7.93305 52.0407 7.49103C51.5471 7.04901 50.9366 6.75838 50.2822 6.65384C50.073 6.64116 49.8666 6.64661 49.6465 6.65295C48.7337 6.68102 47.6081 6.71135 44.9248 4.81009C44.4956 4.50582 34.2445 -2.56127 19.3025 3.96565C15.4092 5.60768 11.9459 8.12348 9.18061 11.3183C6.41531 14.5132 4.42217 18.3015 3.35541 22.39C3.26032 22.7097 3.1906 22.9497 3.13355 23.095C2.92601 23.4786 2.62902 23.8065 2.2678 24.0508C1.55923 24.512 1.02578 25.1974 0.752752 25.9975C0.479729 26.7976 0.482931 27.6661 0.761816 28.4642C1.30969 30.7485 2.86002 30.7952 4.22834 30.8363C4.8603 30.7844 5.4962 30.8626 6.09678 31.066C6.69735 31.2694 7.24988 31.5938 7.72025 32.019C10.7259 34.8856 17.0096 35.7826 17.2759 35.8197C17.3077 35.8238 17.3398 35.826 17.3719 35.826C17.548 35.8258 17.7175 35.7588 17.8462 35.6384C17.9748 35.5181 18.0531 35.3534 18.065 35.1777C18.077 35.0019 18.0218 34.8282 17.9106 34.6915C17.7994 34.5549 17.6406 34.4655 17.466 34.4414C17.4054 34.4333 11.3643 33.5725 8.68015 31.012C8.08712 30.4694 7.39125 30.0512 6.63373 29.7823C5.87622 29.5133 5.07248 29.3991 4.27003 29.4463C2.95785 29.4064 2.41449 29.3901 2.11475 28.14C1.89803 27.5956 1.88383 26.9915 2.07477 26.4375C2.26572 25.8835 2.64911 25.4165 3.15525 25.1212C3.70504 24.7345 4.14399 24.2107 4.42847 23.6017C4.49458 23.4342 4.57791 23.157 4.68839 22.7867C5.43487 20.1172 6.55797 17.5678 8.02384 15.2153C7.83896 14.5722 7.76539 13.9022 7.80628 13.2342C7.82288 13.0509 7.91148 12.8816 8.05268 12.7635C8.19388 12.6454 8.37616 12.5881 8.55955 12.6042C8.74293 12.6202 8.91246 12.7084 9.03098 12.8492C9.1495 12.9901 9.20733 13.1722 9.19181 13.3556C9.18746 13.4057 9.1958 13.4599 9.19407 13.5109C11.1236 10.9651 13.5137 8.80392 16.2404 7.13966C16.2167 6.68795 16.2353 6.23501 16.2961 5.78676Z" fill="#323232"/>
<path d="M17.3716 36.3262L17.2075 36.315C16.9341 36.2769 10.4868 35.3487 7.37502 32.3814C6.94812 31.9999 6.44732 31.7103 5.90377 31.5306C5.36022 31.3508 4.78552 31.2848 4.21535 31.3365C2.82035 31.2945 0.912622 31.2374 0.275412 28.5811C-0.0279514 27.6922 -0.028336 26.7279 0.274313 25.8388C0.576962 24.9496 1.1656 24.1858 1.94826 23.6666C2.23889 23.4695 2.4841 23.2126 2.6675 22.9131C2.71584 22.7901 2.77251 22.5962 2.84817 22.3414C3.92798 18.1641 5.95614 14.292 8.77514 11.0257C11.5941 7.7594 15.1281 5.18687 19.1026 3.50787C34.2935 -3.12982 44.7759 4.09136 45.2144 4.4024C47.7652 6.21001 48.8052 6.18267 49.6314 6.1534C49.8667 6.14705 50.0874 6.14168 50.312 6.1554C51.0618 6.2649 51.7642 6.58781 52.3355 7.08559C52.9068 7.58338 53.3227 8.235 53.5338 8.96273C53.7449 9.69046 53.7421 10.4636 53.5258 11.1898C53.3095 11.9159 52.8889 12.5646 52.314 13.0582C50.4137 15.0626 50.2066 15.8087 49.8638 17.045C49.7955 17.2897 49.7261 17.5387 49.6431 17.8092C48.7804 20.4831 47.4752 22.9934 45.7818 25.2355L45.0025 24.609C45.0308 24.5792 45.0486 24.5409 45.0533 24.5001C45.0747 23.8371 45.0387 23.1735 44.9459 22.5167L44.9215 22.3385L45.0162 22.1857C45.9894 20.5879 46.7755 18.8835 47.359 17.1061C47.4351 16.8585 47.4976 16.6295 47.5582 16.4113C47.94 15.0343 48.2691 13.8493 50.5797 11.4127C51.2301 10.7267 51.4361 10.1149 51.2105 9.54259C51.1143 9.3131 50.972 9.1058 50.7925 8.93354C50.6129 8.76128 50.3999 8.62772 50.1666 8.54115C50.0367 8.5348 49.898 8.53772 49.7535 8.54214C48.6431 8.58072 47.0474 8.632 43.8316 6.35368C43.5523 6.15544 36.8765 1.53433 26.4737 3.64712L26.17 3.70911L25.9796 3.46448C25.7403 3.12148 25.4397 2.82566 25.0929 2.59193C25.0706 2.57883 25.046 2.57029 25.0205 2.56681C24.9949 2.56333 24.9689 2.56498 24.944 2.57166C24.9191 2.57835 24.8958 2.58993 24.8754 2.60574C24.855 2.62154 24.838 2.64124 24.8253 2.6637C24.805 2.70958 24.801 2.76103 24.8141 2.80946C24.8272 2.85788 24.8565 2.90036 24.8971 2.92982C24.9966 2.98949 25.0896 3.05955 25.1744 3.13882L25.8678 3.76186L24.9654 3.99477C23.2874 4.43267 21.6467 5.00265 20.0587 5.69936C19.3517 6.00795 18.6383 6.35757 17.8765 6.76871L17.0704 7.20425L17.1407 6.29018C17.1514 6.152 17.1607 6.03287 17.1778 5.91763C17.1799 5.86716 17.1646 5.81751 17.1345 5.77697C17.1044 5.73643 17.0612 5.70748 17.0123 5.69498C16.9611 5.68806 16.9093 5.70145 16.8678 5.73229C16.8264 5.76313 16.7987 5.80896 16.7906 5.85998C16.7343 6.27722 16.7173 6.69883 16.7398 7.11926L16.752 7.41174L16.503 7.56554C13.8303 9.19859 11.4867 11.3174 9.59337 13.8126L8.63293 15.0856L8.69445 13.4923C8.69011 13.4324 8.68995 13.3722 8.69396 13.3122C8.69834 13.2606 8.68208 13.2094 8.64876 13.1697C8.61545 13.1301 8.5678 13.1053 8.51623 13.1007C8.46523 13.0991 8.41542 13.1164 8.37633 13.1492C8.33724 13.1819 8.31161 13.228 8.30431 13.2785C8.26828 13.8887 8.33695 14.5005 8.50741 15.0876L8.56359 15.299L8.4464 15.4836C7.00441 17.7968 5.90047 20.3042 5.16808 22.9298C5.0504 23.321 4.96251 23.611 4.89318 23.7863C4.57945 24.4744 4.09003 25.0677 3.47417 25.5065C3.04064 25.7413 2.71065 26.1298 2.54909 26.5956C2.38754 27.0614 2.4061 27.5708 2.60116 28.0236C2.81161 28.902 2.97911 28.9074 4.2838 28.9469C5.14756 28.9025 6.01151 29.0302 6.82546 29.3226C7.63941 29.6151 8.3871 30.0665 9.02501 30.6506C11.588 33.0954 17.4752 33.9386 17.5343 33.9469C17.8343 33.9882 18.1074 34.1419 18.2985 34.3768C18.4896 34.6117 18.5844 34.9104 18.5637 35.2125C18.5431 35.5147 18.4086 35.7977 18.1873 36.0044C17.966 36.2112 17.6744 36.3261 17.3716 36.3262ZM7.37111 14.5552C5.80741 17.0263 4.61593 19.7141 3.83498 22.5322C3.72024 22.918 3.65334 23.1392 3.59865 23.2783C3.36497 23.743 3.01741 24.141 2.5884 24.4351C1.95055 24.835 1.46938 25.4418 1.22539 26.154C0.981411 26.8662 0.989423 27.6406 1.24807 28.3476C1.70656 30.2607 2.88235 30.2959 4.24319 30.3364C4.93663 30.2855 5.63317 30.3764 6.29033 30.6036C6.9475 30.8307 7.55149 31.1894 8.06545 31.6577C10.9463 34.4053 17.085 35.2886 17.3447 35.3247H17.3487C17.399 35.3291 17.4492 35.3145 17.4893 35.2836C17.5293 35.2528 17.5563 35.208 17.565 35.1582C17.5719 35.1066 17.5582 35.0544 17.5267 35.0129C17.4952 34.9714 17.4485 34.9441 17.397 34.937C17.3354 34.9287 11.1435 34.0532 8.33495 31.374C7.78633 30.8732 7.14204 30.4885 6.44085 30.2432C5.73966 29.9979 4.99607 29.8971 4.25487 29.9468C2.95507 29.9068 2.01708 29.8784 1.62841 28.2568C1.39069 27.6211 1.38116 26.9225 1.6014 26.2804C1.82165 25.6384 2.258 25.0928 2.83593 24.7368C3.31845 24.4023 3.70646 23.9489 3.96239 23.4204C4.02639 23.2593 4.10351 22.9966 4.20849 22.647C4.94782 20.0018 6.05115 17.4723 7.48681 15.1309C7.43994 14.9346 7.40139 14.7427 7.37111 14.5552ZM45.9595 22.5596C45.9859 22.7705 46.0064 22.98 46.023 23.1866C47.141 21.4128 48.0361 19.508 48.688 17.5152C48.7681 17.2545 48.8344 17.0137 48.898 16.7833C49.2583 15.4874 49.5161 14.5553 51.5884 12.3697C52.0306 12.0137 52.361 11.5379 52.5401 10.9992C52.7193 10.4605 52.7397 9.88166 52.5988 9.3317C52.458 8.78175 52.1619 8.28395 51.7458 7.8977C51.3298 7.51145 50.8113 7.25307 50.2525 7.1534C50.0572 7.14168 49.8648 7.14754 49.6616 7.1534C48.6802 7.17977 47.4595 7.21982 44.6362 5.21835C44.2837 4.96982 37.19 0.0821083 26.2656 2.26864C26.3662 2.37069 26.4686 2.48397 26.5728 2.60848C37.2266 0.557212 44.1196 5.33211 44.4097 5.53768C47.3511 7.62168 48.6948 7.57381 49.6695 7.54403C49.9009 7.53719 50.0659 7.53426 50.228 7.54354C50.7121 7.63979 51.1582 7.87314 51.5134 8.2158C51.8685 8.55845 52.1177 8.99596 52.2312 9.47622C52.3447 9.95648 52.3177 10.4592 52.1536 10.9246C51.9894 11.39 51.6949 11.7984 51.3052 12.1012C49.1655 14.3565 48.896 15.3287 48.523 16.6739C48.4595 16.9039 48.3941 17.1427 48.314 17.4005C47.7269 19.2037 46.937 20.9345 45.9595 22.5596ZM9.05178 12.2359C9.17044 12.2978 9.27775 12.3794 9.36916 12.4771C11.1713 10.2739 13.3206 8.37924 15.7324 6.86774C15.73 6.70174 15.7324 6.54254 15.7388 6.38874C13.1959 7.94658 10.9349 9.92356 9.05178 12.2359ZM17.9336 5.16167L17.9439 5.17536C18.02 5.27745 18.0793 5.39102 18.1196 5.51179C18.6446 5.24421 19.1529 5.00348 19.6582 4.78278C21.0381 4.17839 22.4564 3.66572 23.9038 3.24812C23.8503 3.12758 23.8168 2.99909 23.8047 2.86774C22.338 3.29085 20.9009 3.81071 19.503 4.4239C18.9615 4.66071 18.4383 4.90663 17.9336 5.16167Z" fill="#323232"/>
<path d="M18.8134 11.8934C18.0639 10.1324 17.665 8.24225 17.6388 6.32861C17.1534 6.59066 16.69 6.8625 16.2402 7.14001C16.3909 8.9653 16.8284 10.7554 17.5365 12.4445C17.61 12.6132 17.7473 12.746 17.9185 12.8136C18.0896 12.8813 18.2806 12.8783 18.4496 12.8054C18.6186 12.7325 18.7518 12.5955 18.8199 12.4246C18.8881 12.2536 18.8858 12.0626 18.8134 11.8934Z" fill="#323232"/>
<path d="M18.1753 13.3643C17.9418 13.3645 17.7133 13.2962 17.5182 13.1678C17.3231 13.0394 17.1699 12.8567 17.0776 12.6421C16.3452 10.8973 15.8939 9.0473 15.7407 7.16113L15.7285 6.86864L15.9775 6.71484C16.435 6.43212 16.9072 6.15575 17.4018 5.88866L18.2085 5.45312L18.1377 6.36719C18.1711 8.20005 18.5565 10.0094 19.2729 11.6968C19.335 11.8408 19.3681 11.9957 19.3703 12.1526C19.3725 12.3095 19.3437 12.4652 19.2856 12.611C19.2276 12.7567 19.1414 12.8896 19.032 13.002C18.9226 13.1144 18.792 13.2042 18.6479 13.2661C18.4989 13.3313 18.3379 13.3648 18.1753 13.3643ZM16.7568 7.4102C16.9329 9.07376 17.3502 10.7028 17.9956 12.2461C18.0107 12.2812 18.0358 12.3112 18.0677 12.3322C18.0997 12.3532 18.1371 12.3643 18.1753 12.3643C18.3169 12.3199 18.3457 12.2686 18.3564 12.2408C18.366 12.2171 18.3707 12.1917 18.3704 12.1661C18.37 12.1405 18.3646 12.1153 18.3544 12.0918L18.352 12.0855L18.8129 11.8926L18.351 12.0835C17.7 10.5223 17.2893 8.87137 17.1328 7.18706C17.0058 7.26079 16.8805 7.33517 16.7568 7.4102Z" fill="#323232"/>
<path d="M17.6725 5.98993C17.699 5.8076 17.6521 5.62222 17.542 5.47446C17.4319 5.3267 17.2678 5.22863 17.0855 5.20177C16.9032 5.17491 16.7177 5.22145 16.5697 5.33118C16.4217 5.44091 16.3233 5.60487 16.2961 5.78708C16.2354 6.23532 16.2167 6.68825 16.2404 7.13996C16.6902 6.86245 17.1536 6.59061 17.639 6.32856C17.6478 6.2144 17.6563 6.09996 17.6725 5.98993Z" fill="#323232"/>
<path d="M15.7767 8.01413L15.7406 7.16114C15.7152 6.67805 15.7354 6.19362 15.8011 5.71434C15.8496 5.40206 16.0187 5.12129 16.2722 4.93251C16.5256 4.74374 16.8431 4.66206 17.1562 4.70507C17.3117 4.7277 17.4612 4.78077 17.5962 4.86124C17.7311 4.94171 17.8489 5.04799 17.9428 5.17401C18.0367 5.30004 18.1048 5.44334 18.1432 5.59571C18.1817 5.74807 18.1897 5.90652 18.1669 6.062C18.1532 6.15478 18.1464 6.251 18.1391 6.34716L18.1181 6.61962L17.8763 6.76856C17.3993 7.02588 16.9447 7.29247 16.5028 7.56542L15.7767 8.01413ZM16.9837 5.69284C16.9367 5.69266 16.8912 5.70952 16.8557 5.74031C16.8201 5.77111 16.7969 5.81375 16.7904 5.86032C16.7718 5.98632 16.7577 6.11716 16.7479 6.25388C16.8851 6.17478 17.0239 6.09617 17.1644 6.01804C17.1683 5.98386 17.1727 5.95066 17.1776 5.91745V5.91645C17.1795 5.86613 17.1642 5.81666 17.1341 5.77631C17.1039 5.73596 17.0609 5.70718 17.0121 5.69477C17.0027 5.69339 16.9932 5.69276 16.9837 5.69284Z" fill="#323232"/>
<path d="M27.6456 8.29601C27.7199 8.46417 27.8578 8.59606 28.0291 8.66284C28.2004 8.72962 28.3912 8.72585 28.5597 8.65236C28.7283 8.57887 28.8608 8.44163 28.9285 8.27066C28.9961 8.09969 28.9933 7.9089 28.9207 7.74001C28.2343 6.12757 27.3808 4.59158 26.374 3.15723C25.871 3.25945 25.3603 3.37615 24.8406 3.51057C26.0075 4.95791 26.9529 6.57068 27.6456 8.29601Z" fill="#323232"/>
<path d="M28.2832 9.21338C28.0506 9.21341 27.823 9.14557 27.6284 9.01816C27.4337 8.89075 27.2805 8.70931 27.1875 8.49609C26.5241 6.83628 25.6208 5.28205 24.5073 3.88379L23.8096 3.26123L24.7148 3.02686C25.2437 2.88965 25.7632 2.771 26.2744 2.66699L26.5781 2.60547L26.7686 2.84961C27.803 4.31584 28.678 5.88821 29.3789 7.54004C29.4584 7.72194 29.4914 7.9208 29.4748 8.11864C29.4582 8.31647 29.3925 8.50705 29.2838 8.67314C29.175 8.83924 29.0266 8.97561 28.8519 9.06993C28.6772 9.16425 28.4817 9.21356 28.2832 9.21338ZM28.104 8.09619C28.1193 8.13101 28.1444 8.16062 28.1762 8.18143C28.208 8.20224 28.2452 8.21334 28.2832 8.21338C28.4263 8.16895 28.4546 8.11767 28.4653 8.08937C28.4748 8.06561 28.4794 8.04019 28.4789 8.01462C28.4784 7.98904 28.4728 7.96382 28.4624 7.94044C27.8273 6.46362 27.0583 5.04805 26.165 3.71144C26.0288 3.74074 25.8918 3.77119 25.7539 3.80276C26.6727 5.15549 27.4597 6.5932 28.104 8.09619Z" fill="#323232"/>
<path d="M25.3427 2.15813C25.183 2.0659 24.9932 2.0409 24.815 2.08863C24.6369 2.13635 24.485 2.25289 24.3927 2.4126C24.3005 2.57232 24.2755 2.76212 24.3232 2.94027C24.371 3.11841 24.4875 3.27031 24.6472 3.36254C24.7163 3.40533 24.7811 3.45479 24.8406 3.51021C25.3602 3.37579 25.871 3.25908 26.374 3.15686C26.0935 2.76431 25.744 2.42592 25.3427 2.15813Z" fill="#323232"/>
<path d="M24.7061 4.06192L24.5064 3.88272C24.4733 3.85062 24.4372 3.82183 24.3985 3.79678C24.2622 3.71854 24.1426 3.61417 24.0466 3.48965C23.9507 3.36514 23.8802 3.22293 23.8393 3.07115C23.7984 2.91937 23.7878 2.76102 23.8082 2.60515C23.8285 2.44927 23.8794 2.29894 23.9579 2.16276C24.0364 2.02659 24.1411 1.90724 24.2658 1.81154C24.3905 1.71584 24.5328 1.64567 24.6847 1.60506C24.8365 1.56444 24.9949 1.55416 25.1507 1.57483C25.3066 1.5955 25.4568 1.6467 25.5928 1.72549C26.0517 2.0234 26.4506 2.40485 26.7686 2.85001L27.2647 3.48672L26.4737 3.64737C25.9791 3.74747 25.4765 3.86319 24.9659 3.99454L24.7061 4.06192ZM24.9937 2.56485C24.9594 2.56503 24.9258 2.57423 24.8962 2.59155C24.8667 2.60887 24.8422 2.63368 24.8252 2.66348C24.805 2.70936 24.801 2.76081 24.8141 2.80923C24.8272 2.85766 24.8564 2.90014 24.897 2.92959C24.916 2.94082 24.9356 2.9526 24.9551 2.96524C25.1143 2.92569 25.2727 2.88759 25.4302 2.85098C25.3278 2.75225 25.2146 2.66528 25.0928 2.5917C25.0627 2.57418 25.0285 2.56492 24.9937 2.56485Z" fill="#323232"/>
<path d="M9.21158 18.0187C9.30723 18.1765 9.46163 18.2898 9.64084 18.3337C9.82005 18.3777 10.0094 18.3486 10.1672 18.253C10.325 18.1573 10.4383 18.0029 10.4822 17.8237C10.5262 17.6445 10.4971 17.4552 10.4015 17.2974C9.71126 16.1459 9.29788 14.8498 9.19391 13.5112C8.7615 14.0847 8.38014 14.6528 8.02368 15.2156C8.29899 16.1966 8.69817 17.1386 9.21158 18.0187Z" fill="#323232"/>
<path d="M9.80667 18.8535C9.60128 18.8528 9.39947 18.7995 9.22049 18.6988C9.04151 18.598 8.89133 18.4531 8.78421 18.2778L8.7832 18.2764C8.24597 17.3558 7.82837 16.3705 7.54053 15.3442L7.48486 15.1328L7.60156 14.9482C8.01904 14.2891 8.39795 13.7368 8.79443 13.2104L9.74854 11.9434L9.69336 13.5289C9.79217 14.7717 10.1814 15.9741 10.8296 17.0391C10.9391 17.2205 10.9985 17.4277 11.0016 17.6395C11.0048 17.8514 10.9516 18.0603 10.8476 18.2448C10.7435 18.4294 10.5923 18.583 10.4094 18.69C10.2265 18.7969 10.0185 18.8533 9.80667 18.8535ZM9.63968 17.7593C9.66662 17.8036 9.71004 17.8353 9.76041 17.8476C9.81077 17.8599 9.86394 17.8516 9.90823 17.8247C9.95252 17.7978 9.98431 17.7543 9.99658 17.704C10.0089 17.6536 10.0006 17.6004 9.97366 17.5562C9.4834 16.7085 9.10741 15.7998 8.8555 14.8535C8.76028 14.9956 8.66411 15.1431 8.56552 15.2964C8.82628 16.1564 9.18678 16.983 9.63968 17.7593Z" fill="#323232"/>
<path d="M8.55956 12.6024C8.37607 12.5875 8.1941 12.6454 8.05306 12.7637C7.91202 12.8821 7.8233 13.0512 7.80614 13.2345C7.76525 13.9024 7.83882 14.5724 8.0237 15.2156C8.38016 14.6528 8.76152 14.0847 9.19393 13.5112C9.19568 13.4602 9.18732 13.406 9.19167 13.3559C9.20775 13.1721 9.15017 12.9895 9.03163 12.8482C8.9131 12.7069 8.74329 12.6185 8.55956 12.6024Z" fill="#323232"/>
<path d="M7.83436 16.4503L7.54041 15.3443C7.33993 14.6451 7.2613 13.9167 7.30799 13.1909C7.3385 12.8767 7.49088 12.587 7.73249 12.3838C7.9741 12.1806 8.28569 12.0802 8.60047 12.104L8.60291 12.1045C8.91855 12.1324 9.21025 12.2843 9.41401 12.527C9.61777 12.7697 9.71695 13.0833 9.68983 13.399C9.69343 13.4426 9.69457 13.4865 9.69324 13.5303L9.68739 13.687L9.59315 13.812C9.21327 14.3164 8.849 14.8472 8.44614 15.4834L7.83436 16.4503ZM8.50236 13.1002C8.45318 13.1003 8.40575 13.1185 8.36918 13.1514C8.33261 13.1843 8.30945 13.2295 8.30412 13.2784C8.28735 13.4827 8.28605 13.6881 8.30021 13.8926C8.43058 13.7056 8.56046 13.525 8.69132 13.3482L8.69376 13.3121C8.69811 13.2607 8.68197 13.2096 8.64887 13.17C8.61577 13.1304 8.56838 13.1055 8.51701 13.1006L8.50236 13.1002Z" fill="#323232"/>
<path d="M17.5502 23.9768C17.6805 23.9766 17.8081 23.9399 17.9186 23.8707C18.029 23.8015 18.1177 23.7027 18.1748 23.5855C18.2318 23.4683 18.2547 23.3375 18.241 23.2079C18.2273 23.0783 18.1775 22.9552 18.0972 22.8526C17.2846 21.7013 16.7231 20.392 16.449 19.0098C16.4168 18.8285 16.3139 18.6675 16.163 18.562C16.0122 18.4565 15.8256 18.4151 15.6443 18.447C15.4629 18.4789 15.3017 18.5815 15.1959 18.7321C15.0901 18.8828 15.0483 19.0692 15.0798 19.2506C15.39 20.8587 16.0456 22.3803 17.0014 23.7101C17.0666 23.7934 17.1499 23.8607 17.245 23.9069C17.3401 23.9531 17.4445 23.9771 17.5502 23.9768Z" fill="#323232"/>
<path d="M17.5502 24.4767C17.3689 24.4773 17.1897 24.4364 17.0266 24.3572C16.8634 24.278 16.7206 24.1626 16.6088 24.0197C15.6043 22.6233 14.9145 21.0258 14.5868 19.3371C14.5321 19.025 14.6036 18.704 14.7855 18.4446C14.9674 18.1852 15.245 18.0086 15.557 17.9538C15.7105 17.9252 15.8682 17.9277 16.0208 17.9611C16.1733 17.9945 16.3176 18.0581 16.4452 18.1481C16.575 18.2378 16.6857 18.3523 16.7709 18.4851C16.856 18.6178 16.914 18.7662 16.9413 18.9216C17.2004 20.2236 17.728 21.4574 18.4906 22.5441C18.6287 22.7206 18.7144 22.9323 18.738 23.155C18.7615 23.3778 18.7221 23.6028 18.6241 23.8042C18.526 24.0056 18.3734 24.1755 18.1835 24.2944C17.9936 24.4133 17.7742 24.4765 17.5502 24.4767ZM15.7675 18.9347C15.7559 18.9347 15.7442 18.9358 15.7328 18.9381C15.6841 18.9515 15.6415 18.9813 15.6122 19.0223C15.5828 19.0634 15.5686 19.1133 15.5717 19.1637C15.867 20.6913 16.4889 22.1371 17.3949 23.402C17.4074 23.426 17.4255 23.4467 17.4477 23.4622C17.4699 23.4776 17.4956 23.4875 17.5224 23.4908C17.5493 23.4942 17.5765 23.491 17.6019 23.4815C17.6272 23.4719 17.6499 23.4564 17.6679 23.4362C17.7092 23.4042 17.7361 23.3571 17.7427 23.3053C17.7493 23.2535 17.735 23.2011 17.703 23.1598C16.8385 21.9474 16.2435 20.5641 15.9579 19.1027C15.9536 19.0761 15.944 19.0506 15.9298 19.0277C15.9155 19.0048 15.8969 18.985 15.8749 18.9694C15.8434 18.9472 15.806 18.9352 15.7675 18.9347Z" fill="#323232"/>
<path d="M17.8272 33.0871C16.9049 32.3648 16.1806 31.4206 15.7218 30.3427C15.6416 30.1765 15.4987 30.049 15.3245 29.9881C15.1503 29.9273 14.9591 29.9381 14.7929 30.0183C14.6267 30.0985 14.4992 30.2414 14.4383 30.4156C14.3775 30.5898 14.3883 30.781 14.4685 30.9472C14.6052 31.2315 15.8477 33.7413 17.2712 34.3621C17.44 34.4338 17.6301 34.4359 17.8005 34.3681C17.9708 34.3003 18.1074 34.168 18.1807 34C18.254 33.8319 18.2579 33.6418 18.1917 33.4708C18.1256 33.2999 17.9946 33.1619 17.8272 33.0871Z" fill="#323232"/>
<path d="M17.5493 34.9204C17.3846 34.9206 17.2216 34.8865 17.0708 34.8203C15.5127 34.1411 14.2544 31.6558 14.0181 31.1646C13.9499 31.0232 13.9102 30.8698 13.9013 30.7131C13.8925 30.5565 13.9145 30.3996 13.9663 30.2514C14.0181 30.1033 14.0986 29.9668 14.2031 29.8497C14.3077 29.7327 14.4343 29.6374 14.5757 29.5694C14.8614 29.4333 15.1892 29.4155 15.488 29.5196C15.7868 29.6237 16.0325 29.8414 16.1719 30.1255C16.5832 31.095 17.2188 31.953 18.0264 32.6289C18.2783 32.7385 18.4847 32.9316 18.611 33.1756C18.7373 33.4196 18.7757 33.6997 18.7197 33.9686C18.6637 34.2376 18.5168 34.4791 18.3036 34.6525C18.0905 34.8258 17.8241 34.9204 17.5493 34.9204ZM15.0962 30.4507C15.0658 30.4507 15.0357 30.4576 15.0083 30.4707C14.9622 30.4935 14.927 30.5336 14.9103 30.5822C14.8935 30.6309 14.8967 30.6841 14.9189 30.7305C15.3852 31.6992 16.4468 33.4575 17.4712 33.9038C17.6079 33.9224 17.6904 33.8896 17.729 33.8027C17.7494 33.7552 17.7502 33.7016 17.7313 33.6535C17.7124 33.6054 17.6752 33.5667 17.6279 33.5459C16.4839 33.0474 15.2837 30.5854 15.2714 30.5605C15.2556 30.5275 15.2307 30.4997 15.1997 30.4802C15.1687 30.4608 15.1328 30.4505 15.0962 30.4507Z" fill="#323232"/>
<path d="M33.6876 10.6114C33.5412 10.723 33.4449 10.8882 33.42 11.0706C33.395 11.2531 33.4434 11.438 33.5545 11.5849C34.3337 12.7616 34.7928 14.121 34.8866 15.5291C34.8999 15.7038 34.9786 15.8671 35.1071 15.9863C35.2355 16.1054 35.4041 16.1718 35.5794 16.1721C35.5975 16.1721 35.6147 16.1716 35.6328 16.1702C35.8168 16.1563 35.9877 16.0699 36.1079 15.9299C36.2281 15.79 36.2879 15.608 36.2739 15.4241C36.1657 13.7467 35.6083 12.1293 34.6602 10.7413C34.5483 10.5954 34.3831 10.4997 34.2008 10.4754C34.0185 10.451 33.8339 10.4999 33.6876 10.6114Z" fill="#323232"/>
<path d="M35.663 16.6689C35.3496 16.6846 35.0421 16.5789 34.8047 16.3738C34.5672 16.1686 34.418 15.8797 34.3881 15.5673C34.3002 14.2526 33.8742 12.9829 33.1513 11.8813C32.9622 11.6285 32.8807 11.3111 32.9248 10.9985C32.9688 10.6858 33.1347 10.4033 33.3864 10.2125C33.638 10.0218 33.9548 9.93833 34.2677 9.98038C34.5807 10.0224 34.8642 10.1866 35.0566 10.437C36.0617 11.9033 36.6543 13.6128 36.7724 15.3867C36.7961 15.7028 36.6934 16.0154 36.4867 16.2558C36.2801 16.4963 35.9865 16.6448 35.6704 16.6689L35.663 16.6689ZM34.1079 10.9696C34.0653 10.9695 34.024 10.9834 33.9902 11.0092C33.949 11.0409 33.9221 11.0876 33.9152 11.1391C33.9083 11.1906 33.9221 11.2427 33.9536 11.2841C34.7917 12.5367 35.2855 13.9878 35.3852 15.4916C35.389 15.5405 35.4111 15.5862 35.447 15.6197C35.4829 15.6531 35.53 15.6719 35.579 15.6723C35.6059 15.6719 35.6324 15.6661 35.657 15.6552C35.6816 15.6443 35.7037 15.6286 35.722 15.6089C35.7404 15.5892 35.7545 15.5661 35.7637 15.5408C35.7729 15.5155 35.7768 15.4887 35.7753 15.4618C35.6766 13.8806 35.1543 12.3552 34.2631 11.0453C34.2448 11.0216 34.2213 11.0024 34.1944 10.9893C34.1674 10.9762 34.1378 10.9694 34.1079 10.9696Z" fill="#323232"/>
<path d="M43.7467 12.864C43.8454 12.864 43.9429 12.8431 44.0328 12.8026C44.1228 12.762 44.2031 12.7029 44.2684 12.629C44.3337 12.5551 44.3826 12.4681 44.4118 12.3739C44.441 12.2797 44.4498 12.1804 44.4377 12.0825C44.1743 10.4974 43.5897 8.98294 42.7198 7.63201C42.6174 7.4789 42.4585 7.37268 42.2778 7.33666C42.0972 7.30065 41.9096 7.33778 41.7563 7.43992C41.603 7.54206 41.4965 7.70085 41.4602 7.88143C41.4239 8.06202 41.4607 8.24964 41.5625 8.40312C42.3103 9.57563 42.8184 10.8846 43.0576 12.2545C43.0785 12.4226 43.1601 12.5773 43.287 12.6896C43.4138 12.8018 43.5773 12.8638 43.7467 12.864Z" fill="#323232"/>
<path d="M43.7466 13.3643C43.4554 13.3639 43.1743 13.2573 42.956 13.0645C42.7378 12.8716 42.5973 12.6058 42.5611 12.3169C42.3335 11.0227 41.8523 9.78621 41.1451 8.6787C40.9704 8.41465 40.9075 8.09207 40.9703 7.78173C41.0331 7.47139 41.2164 7.19864 41.4801 7.02331C41.7437 6.84797 42.0662 6.78437 42.3767 6.84646C42.6872 6.90854 42.9603 7.09124 43.1363 7.35448C44.0492 8.77008 44.6611 10.3583 44.9341 12.0205C44.9732 12.3351 44.8858 12.6523 44.6912 12.9025C44.4965 13.1527 44.2106 13.3154 43.896 13.355L43.7466 13.3643ZM42.1421 7.82275C42.1068 7.82278 42.0721 7.83237 42.0417 7.85052C42.0114 7.86866 41.9865 7.89467 41.9697 7.9258C41.953 7.95693 41.9449 7.99203 41.9465 8.02735C41.948 8.06267 41.9591 8.09692 41.9785 8.12646C42.7689 9.36377 43.3042 10.7464 43.5532 12.1934C43.5594 12.2404 43.5823 12.2836 43.6179 12.3151C43.6534 12.3465 43.6992 12.364 43.7466 12.3643V12.8643L43.7759 12.3623C43.8241 12.3501 43.8667 12.3219 43.8969 12.2823C43.927 12.2428 43.9429 12.1942 43.9419 12.1445C43.6844 10.6369 43.1272 9.19625 42.3032 7.90771C42.2853 7.8815 42.2613 7.86006 42.2332 7.84525C42.2051 7.83045 42.1739 7.82272 42.1421 7.82275Z" fill="#323232"/>
<path d="M45.3926 24.9214C45.3682 24.9517 45.3425 24.9797 45.3179 25.0096C45.3453 24.9824 45.3703 24.9529 45.3926 24.9214Z" fill="#323232"/>
<path d="M45.6489 25.3839L44.9309 24.6929L45.1829 24.8569L44.9869 24.6349L45.1239 24.7319L45.0029 24.6069L45.7849 25.2319L45.3929 24.9209L45.7829 25.2349L45.7729 25.2459H45.7739L45.6489 25.3839Z" fill="#323232"/>
<path d="M44.3788 18.6373C44.3008 18.4705 44.1599 18.3415 43.987 18.2784C43.814 18.2154 43.6232 18.2234 43.4562 18.3008C43.2891 18.3782 43.1596 18.5186 43.0959 18.6914C43.0323 18.8641 43.0396 19.055 43.1164 19.2223C43.7872 20.8042 44.1439 22.5015 44.1665 24.2196C44.6335 23.6609 45.0593 23.069 45.4408 22.4488C45.2604 21.1362 44.9032 19.8541 44.3788 18.6373Z" fill="#323232"/>
<path d="M43.6539 25.6066L43.6666 24.2145C43.6411 22.5693 43.2997 20.9442 42.6607 19.4279C42.5293 19.1403 42.5171 18.8123 42.6267 18.5157C42.7363 18.2191 42.9588 17.978 43.2457 17.8449C43.388 17.7788 43.5419 17.7415 43.6986 17.7349C43.8553 17.7284 44.0118 17.7528 44.1591 17.8067C44.3064 17.8607 44.4416 17.9432 44.557 18.0494C44.6724 18.1557 44.7657 18.2836 44.8316 18.426C45.3776 19.6879 45.7492 21.0183 45.9361 22.3805L45.9605 22.5587L45.8658 22.7116C45.4716 23.3523 45.0316 23.9638 44.5494 24.5412L43.6539 25.6066ZM43.7476 18.7331C43.7202 18.7332 43.6931 18.7395 43.6685 18.7516C43.6449 18.7621 43.6236 18.7773 43.6058 18.7961C43.5881 18.8149 43.5743 18.8371 43.5652 18.8613C43.5561 18.8855 43.5519 18.9113 43.5529 18.9372C43.5539 18.963 43.56 18.9884 43.5708 19.0119C44.0893 20.2323 44.4325 21.52 44.5904 22.8366C44.7017 22.6745 44.8121 22.508 44.9195 22.338C44.7411 21.1373 44.4072 19.9649 43.9263 18.8503L43.9253 18.8478C43.9143 18.8241 43.8987 18.8028 43.8794 18.7851C43.8602 18.7674 43.8376 18.7537 43.813 18.7448C43.792 18.7374 43.7699 18.7334 43.7476 18.7331Z" fill="#323232"/>
<path d="M45.4407 22.4487C45.0592 23.069 44.6333 23.6608 44.1663 24.2195C44.1655 24.3024 44.1671 24.3848 44.1641 24.4682C44.1606 24.5595 44.1752 24.6505 44.207 24.7361C44.2388 24.8218 44.2871 24.9003 44.3493 24.9672C44.4114 25.0341 44.4862 25.0881 44.5692 25.1261C44.6523 25.1641 44.742 25.1853 44.8333 25.1886L44.8586 25.1891C45.0286 25.1879 45.1921 25.1241 45.3179 25.0097C45.3425 24.9798 45.3682 24.9517 45.3926 24.9215C45.4886 24.8084 45.545 24.667 45.5532 24.5189C45.5754 23.8269 45.5377 23.1343 45.4407 22.4487Z" fill="#323232"/>
<path d="M44.8589 25.689C44.6946 25.688 44.5322 25.6536 44.3816 25.5879C44.231 25.5221 44.0953 25.4265 43.9829 25.3066C43.8757 25.1919 43.7924 25.0571 43.7377 24.9099C43.683 24.7627 43.6582 24.6061 43.6645 24.4492L43.6665 24.3135L43.6655 24.1309L43.7837 23.8979C44.2351 23.3575 44.6469 22.7852 45.0161 22.1855L45.7485 21.0024L45.936 22.3809C46.0365 23.095 46.0757 23.8163 46.0532 24.5371C46.0406 24.7923 45.9461 25.0366 45.7837 25.2339L45.6499 25.3833C45.4326 25.5787 45.1511 25.6875 44.8589 25.689ZM44.6646 24.4019V24.4859C44.6633 24.5116 44.6671 24.5373 44.6759 24.5615C44.6847 24.5857 44.6982 24.6079 44.7157 24.6268C44.7331 24.6457 44.7542 24.661 44.7776 24.6716C44.801 24.6823 44.8263 24.6882 44.8521 24.689C44.9017 24.6886 44.9494 24.6698 44.9859 24.6362C45.0212 24.5984 45.0446 24.5511 45.0533 24.5C45.0611 24.3042 45.0624 24.1043 45.0572 23.9004C44.9283 24.0723 44.7974 24.2394 44.6646 24.4019Z" fill="#323232"/>
</svg>
