<svg width="60" height="56" viewBox="0 0 60 56" fill="none" xmlns="http://www.w3.org/2000/svg">
<path d="M58.3028 37.5582C58.1978 37.5116 58.0847 37.4861 57.97 37.4832C57.8552 37.4803 57.741 37.5001 57.6338 37.5413C57.5267 37.5826 57.4287 37.6446 57.3455 37.7237C57.2623 37.8028 57.1955 37.8976 57.1489 38.0025C56.0804 40.4086 54.5898 41.9288 52.7203 42.5211C50.7717 43.0088 48.7135 42.7944 46.9073 41.9154C47.5215 40.7711 47.9293 39.5275 48.1123 38.2418C48.4377 38.2704 48.8332 38.2927 49.2782 38.2927C51.5636 38.3724 53.8036 37.6408 55.6015 36.2274C57.6519 34.4625 58.6089 31.694 58.4439 27.9987C58.4315 27.768 58.329 27.5514 58.1586 27.3954C57.9882 27.2395 57.7633 27.1566 57.5325 27.1646C57.4178 27.1696 57.3053 27.1972 57.2013 27.2457C57.0973 27.2942 57.0039 27.3628 56.9265 27.4475C56.849 27.5321 56.789 27.6312 56.7498 27.7391C56.7107 27.8469 56.6932 27.9615 56.6984 28.0761C56.8372 31.2042 56.0873 33.4982 54.4692 34.8961C52.4421 36.6454 49.5053 36.6112 48.1892 36.4897C48.1045 34.2297 47.34 32.0477 45.9956 30.229C48.201 27.8291 49.8933 25.0043 50.9688 21.9275C52.4527 21.954 53.908 21.5179 55.1328 20.6796C56.3575 19.8413 57.2909 18.6425 57.8032 17.2496C59.7775 12.025 56.9305 4.34133 53.2153 1.71561C52.8738 1.47512 52.4786 1.32183 52.0643 1.2691C51.65 1.21637 51.229 1.2658 50.8382 1.41308C50.4474 1.56036 50.0985 1.80102 49.822 2.11407C49.5455 2.42712 49.3498 2.80306 49.2519 3.2091C48.769 5.17004 48.1624 7.09846 47.4359 8.98278C47.4043 9.06776 47.3504 9.14268 47.28 9.19973C47.2095 9.25678 47.125 9.29386 47.0353 9.30709C46.943 9.32264 46.8483 9.31322 46.7608 9.27981C46.6734 9.2464 46.5965 9.19022 46.5381 9.11708L43.7844 5.74665C43.53 5.43418 43.1943 5.19796 42.8142 5.06401C42.4342 4.93007 42.0246 4.90358 41.6305 4.98746C41.2364 5.07134 40.873 5.26234 40.5805 5.53944C40.288 5.81653 40.0775 6.16897 39.9724 6.55796C39.1156 9.78275 38.5864 14.3423 40.926 17.7486C42.5281 20.0807 45.2204 21.4655 48.9288 21.8655C49.006 21.8738 49.0718 21.8708 49.1478 21.8778C48.1532 24.4485 46.7008 26.8176 44.8613 28.8704C42.0655 26.0409 38.4487 24.1651 34.5253 23.5098V20.965C35.3297 20.767 36.0345 20.2831 36.5083 19.6037C36.982 18.9242 37.1924 18.0955 37.1 17.2723C37.0076 16.4492 36.6189 15.6877 36.0063 15.1302C35.3937 14.5726 34.5992 14.257 33.771 14.2422C32.9428 14.2274 32.1375 14.5145 31.5054 15.0499C30.8734 15.5853 30.4577 16.3324 30.3361 17.1518C30.2145 17.9712 30.3951 18.8068 30.8444 19.5027C31.2936 20.1986 31.9808 20.7073 32.7775 20.9338V23.2518C30.7368 23.0115 28.6727 23.0524 26.6431 23.3734V20.9342C27.4354 20.7082 28.1184 20.2018 28.5648 19.5094C29.0112 18.8169 29.1905 17.9858 29.0693 17.1709C28.9481 16.3561 28.5347 15.6131 27.9061 15.0805C27.2776 14.548 26.4767 14.2623 25.653 14.2766C24.8293 14.291 24.0389 14.6044 23.4293 15.1585C22.8196 15.7126 22.4323 16.4695 22.3396 17.2881C22.2468 18.1067 22.455 18.9311 22.9252 19.6076C23.3955 20.284 24.0957 20.7663 24.8953 20.9646V23.7145C21.2664 24.505 17.9598 26.3703 15.4065 29.0675C13.4868 26.968 11.974 24.53 10.9451 21.8778C11.0212 21.8707 11.087 21.8739 11.1643 21.8655C14.9114 21.461 17.6208 20.0517 19.2161 17.6763C21.7206 13.9469 20.7739 8.80872 19.9876 6.07777C19.8897 5.7368 19.7001 5.42925 19.4394 5.18859C19.1788 4.94792 18.8571 4.78337 18.5095 4.71287C18.1594 4.64132 17.7964 4.66673 17.4597 4.78634C17.123 4.90596 16.8254 5.11524 16.5989 5.39162L13.6586 8.99078C13.5909 9.07665 13.5012 9.14257 13.399 9.18154C13.2968 9.22051 13.186 9.23108 13.0783 9.21212C12.9691 9.19532 12.8664 9.14949 12.7809 9.07943C12.6954 9.00937 12.6303 8.91765 12.5924 8.81385C11.826 6.80658 11.1972 4.74943 10.7103 2.6567C10.6383 2.33992 10.495 2.04373 10.2913 1.79065C10.0876 1.53758 9.82894 1.33427 9.53488 1.1962C9.25411 1.06034 8.94607 0.990235 8.63415 0.991221C8.32224 0.992207 8.01465 1.06425 7.73474 1.20189C3.42439 3.33489 0.512514 11.245 2.07029 16.5919C2.47571 18.1445 3.39219 19.5154 4.67196 20.4835C5.95174 21.4516 7.52024 21.9605 9.1246 21.9281C10.2402 25.1022 12.0065 28.0084 14.3102 30.4604C13.0695 32.219 12.3625 34.2983 12.2742 36.4488C11.2486 36.5819 7.87615 36.84 5.62394 34.8961C4.00585 33.4982 3.25594 31.2042 3.3948 28.0761C3.39997 27.9615 3.38249 27.8469 3.34335 27.7391C3.30421 27.6312 3.2442 27.5321 3.16673 27.4474C3.08926 27.3628 2.99586 27.2942 2.89187 27.2457C2.78789 27.1972 2.67537 27.1696 2.56073 27.1646C2.3299 27.1568 2.10522 27.2398 1.93484 27.3957C1.76446 27.5516 1.66194 27.7681 1.64927 27.9987C1.48427 31.694 2.44128 34.4625 4.49174 36.2274C6.28958 37.6407 8.52953 38.3723 10.815 38.2927C11.3254 38.2931 11.8353 38.2635 12.3422 38.2041C12.5169 39.4521 12.9043 40.661 13.4876 41.7782C11.6115 42.7618 9.44095 43.0271 7.38313 42.5245C5.50902 41.9351 4.01496 40.4131 2.9442 38.0025C2.89765 37.8976 2.83089 37.8029 2.74774 37.7238C2.66459 37.6447 2.56668 37.5828 2.45959 37.5415C2.3525 37.5002 2.23834 37.4805 2.12361 37.4833C2.00888 37.4862 1.89584 37.5116 1.79094 37.5582C1.68604 37.6047 1.59134 37.6715 1.51223 37.7546C1.43313 37.8378 1.37118 37.9357 1.32992 38.0428C1.28866 38.1499 1.26889 38.264 1.27176 38.3788C1.27462 38.4935 1.30005 38.6065 1.3466 38.7114C2.63014 41.6011 4.4849 43.4451 6.85859 44.1921C7.65625 44.4394 8.48704 44.5631 9.32214 44.5591C11.0842 44.5226 12.8151 44.0869 14.3844 43.2848C15.0665 44.2368 15.8618 45.1022 16.7528 45.8621C13.5503 46.6723 6.42996 49.0169 5.74232 53.9991C5.71066 54.2287 5.77151 54.4616 5.9115 54.6464C6.05148 54.8312 6.25913 54.9528 6.48878 54.9845C6.52878 54.9897 6.56907 54.9923 6.6094 54.9925C6.82033 54.9923 7.02407 54.9158 7.18301 54.7772C7.34196 54.6385 7.44538 54.447 7.47419 54.2381C8.05068 50.0532 15.6619 47.7735 18.5798 47.2411C22.0717 49.3818 26.0857 50.5195 30.1816 50.5296C34.2775 50.5396 38.297 49.4216 41.7994 47.2981C44.893 47.9165 52.0598 50.1789 52.6191 54.238C52.6479 54.447 52.7513 54.6385 52.9102 54.7771C53.0692 54.9158 53.2729 54.9923 53.4839 54.9924C53.5242 54.9923 53.5645 54.9896 53.6045 54.9844C53.8341 54.9527 54.0418 54.8311 54.1817 54.6463C54.3217 54.4615 54.3826 54.2287 54.3509 53.999C53.6829 49.1593 46.9434 46.8081 43.6221 45.9345C44.506 45.1915 45.2984 44.3459 45.9824 43.4156C47.4774 44.138 49.111 44.5281 50.7711 44.559C51.6062 44.5631 52.437 44.4393 53.2347 44.192C55.6083 43.445 57.4631 41.601 58.7467 38.7114C58.8405 38.4996 58.8464 38.2592 58.7632 38.043C58.68 37.8268 58.5144 37.6524 58.3028 37.5582ZM42.3665 16.7592C40.299 13.7489 41.0375 9.35659 41.6611 7.0074C41.6802 6.93004 41.7211 6.85979 41.779 6.80503C41.8369 6.75026 41.9093 6.71328 41.9876 6.69847C42.0209 6.69156 42.0549 6.68812 42.0889 6.68822C42.1546 6.68754 42.2196 6.70202 42.2788 6.73054C42.338 6.75906 42.3898 6.80084 42.4303 6.85265L45.184 10.2231C45.435 10.5318 45.7626 10.7692 46.1342 10.9116C46.5057 11.054 46.9082 11.0963 47.3012 11.0344C47.6942 10.9725 48.0642 10.8085 48.3739 10.5588C48.6837 10.3091 48.9225 9.98242 49.0665 9.61148C49.8201 7.65721 50.4491 5.65714 50.9497 3.6233C50.9803 3.49256 51.043 3.37146 51.1319 3.27088C51.2209 3.17029 51.3334 3.09335 51.4595 3.04696C51.5823 2.99968 51.7149 2.98371 51.8454 3.0005C51.9759 3.01728 52.1002 3.0663 52.2071 3.14311C55.3579 5.37054 57.8556 12.1678 56.1681 16.6317C55.1417 19.3456 52.7703 20.5193 49.1154 20.1279C45.9372 19.7848 43.6672 18.6515 42.3665 16.7592ZM32.047 17.6746C32.0471 17.3474 32.1442 17.0276 32.3261 16.7556C32.508 16.4836 32.7664 16.2716 33.0687 16.1464C33.3711 16.0213 33.7037 15.9886 34.0246 16.0525C34.3455 16.1164 34.6403 16.2741 34.8716 16.5055C35.1029 16.7369 35.2604 17.0317 35.3242 17.3526C35.388 17.6735 35.3552 18.0062 35.23 18.3085C35.1047 18.6107 34.8927 18.8691 34.6206 19.0509C34.3485 19.2326 34.0287 19.3297 33.7015 19.3297C33.2627 19.3292 32.8421 19.1546 32.5319 18.8443C32.2217 18.534 32.0473 18.1133 32.047 17.6746ZM24.0658 17.6746C24.0659 17.3474 24.163 17.0276 24.3449 16.7556C24.5268 16.4836 24.7852 16.2716 25.0875 16.1464C25.3899 16.0213 25.7225 15.9886 26.0434 16.0525C26.3643 16.1164 26.659 16.2741 26.8904 16.5055C27.1217 16.7369 27.2792 17.0317 27.343 17.3526C27.4068 17.6735 27.374 18.0062 27.2488 18.3085C27.1235 18.6107 26.9115 18.8691 26.6394 19.0509C26.3673 19.2326 26.0475 19.3297 25.7203 19.3297C25.2815 19.3292 24.8609 19.1546 24.5507 18.8443C24.2405 18.534 24.0661 18.1133 24.0658 17.6746ZM3.74865 16.1026C2.33539 11.2512 5.28027 4.36635 8.50966 2.76874C8.5489 2.74924 8.59213 2.73912 8.63595 2.73916C8.6876 2.74008 8.73845 2.75211 8.78503 2.77443C8.83996 2.80049 8.88838 2.83848 8.92677 2.88562C8.96516 2.93277 8.99253 2.98789 9.00691 3.04696C9.51227 5.21838 10.1643 7.35303 10.9584 9.43624C11.1059 9.82557 11.3532 10.1692 11.6756 10.4326C11.9979 10.6961 12.384 10.87 12.7949 10.9369C13.2058 11.0039 13.6271 10.9615 14.0164 10.814C14.4057 10.6665 14.7493 10.4192 15.0127 10.0968L17.953 6.49763C17.9766 6.46684 18.0087 6.44361 18.0453 6.43077C18.0819 6.41794 18.1214 6.41606 18.159 6.42537C18.1945 6.43093 18.2275 6.44679 18.254 6.47097C18.2805 6.49515 18.2993 6.52659 18.3081 6.56137C19.0113 9.00045 19.875 13.5606 17.7653 16.7017C16.4715 18.6287 14.1878 19.7814 10.9778 20.1279C7.13275 20.5421 4.63624 19.151 3.74865 16.1026ZM30.2309 48.7818C21.2802 48.7818 13.9977 43.4132 13.9977 36.814C13.9977 31.5943 18.5614 27.156 24.8953 25.5235V28.0374C24.8949 28.1524 24.9172 28.2664 24.961 28.3728C25.0047 28.4791 25.069 28.5758 25.1502 28.6573C25.2314 28.7387 25.3279 28.8034 25.4341 28.8475C25.5403 28.8916 25.6542 28.9143 25.7692 28.9143C25.8842 28.9143 25.9981 28.8916 26.1043 28.8475C26.2105 28.8034 26.307 28.7387 26.3882 28.6573C26.4694 28.5758 26.5337 28.4791 26.5774 28.3728C26.6212 28.2664 26.6435 28.1524 26.6431 28.0374V25.1501C28.6696 24.7991 30.737 24.7512 32.7775 25.0079V28.0374C32.7771 28.1524 32.7994 28.2664 32.8432 28.3727C32.8869 28.4791 32.9512 28.5758 33.0324 28.6573C33.1136 28.7387 33.2101 28.8034 33.3163 28.8475C33.4225 28.8916 33.5364 28.9143 33.6514 28.9143C33.7664 28.9143 33.8803 28.8916 33.9865 28.8475C34.0927 28.8034 34.1892 28.7387 34.2704 28.6573C34.3516 28.5758 34.4159 28.4791 34.4596 28.3727C34.5034 28.2664 34.5257 28.1524 34.5253 28.0374V25.2844C41.3952 26.6778 46.463 31.3122 46.463 36.814C46.463 43.4132 39.1816 48.7818 30.2309 48.7818Z" fill="#323232"/>
<path d="M53.4839 55.4923C53.1524 55.4912 52.8325 55.3706 52.5827 55.1526C52.333 54.9347 52.1701 54.6341 52.124 54.3058C51.6367 50.7682 45.334 48.5509 41.897 47.8283C38.3516 49.9336 34.3023 51.0398 30.1789 51.0294C26.0555 51.019 22.0119 49.8924 18.4771 47.7692C15.7105 48.3146 8.48979 50.529 7.96928 54.3063C7.94566 54.4859 7.88677 54.6591 7.79596 54.8159C7.70515 54.9726 7.58423 55.1099 7.44017 55.2197C7.29611 55.3296 7.13175 55.4099 6.95654 55.456C6.78134 55.502 6.59873 55.513 6.41927 55.4883C6.2398 55.4635 6.067 55.4035 5.91081 55.3117C5.75462 55.2199 5.61813 55.0981 5.50919 54.9534C5.40025 54.8086 5.32101 54.6438 5.27603 54.4683C5.23106 54.2928 5.22123 54.1101 5.24712 53.9308C5.91802 49.0719 12.2413 46.6134 15.7427 45.6159C15.1943 45.0897 14.6876 44.5218 14.2271 43.9171C12.6919 44.6421 11.0198 45.0315 9.32233 45.0592C8.4363 45.0628 7.55492 44.9313 6.70856 44.6691C4.19195 43.8771 2.23393 41.9411 0.889695 38.9147C0.815993 38.7497 0.775573 38.5717 0.770752 38.391C0.765932 38.2103 0.796806 38.0305 0.861603 37.8618C0.926401 37.693 1.02386 37.5387 1.14838 37.4077C1.2729 37.2767 1.42204 37.1716 1.58727 37.0983C1.75249 37.025 1.93054 36.985 2.11124 36.9807C2.29193 36.9763 2.47171 37.0076 2.64027 37.0729C2.80884 37.1381 2.96287 37.2359 3.09357 37.3608C3.22426 37.4856 3.32905 37.635 3.40192 37.8004C4.41168 40.0739 5.80181 41.5031 7.53325 42.0475C9.29989 42.4913 11.1656 42.3109 12.8145 41.5368C12.3993 40.649 12.0992 39.7119 11.9214 38.7482C11.5572 38.778 11.1866 38.7926 10.815 38.7926C8.40959 38.8737 6.05341 38.0989 4.16557 36.6061C1.99223 34.7355 0.977579 31.8322 1.14995 27.9762C1.16018 27.7882 1.20838 27.6043 1.29163 27.4354C1.37487 27.2666 1.49145 27.1164 1.63432 26.9938C1.76584 26.8754 1.92032 26.7852 2.08815 26.729C2.25598 26.6728 2.43359 26.6518 2.60991 26.6671C2.96467 26.6866 3.29734 26.8456 3.53522 27.1095C3.65755 27.2425 3.75229 27.3984 3.81398 27.5682C3.87567 27.738 3.90306 27.9183 3.89458 28.0988C3.76275 31.0651 4.45464 33.2248 5.95073 34.5177C7.80673 36.1203 10.5425 36.1056 11.7979 35.9972C11.9484 34.038 12.595 32.1493 13.6768 30.5089C11.5296 28.1499 9.85789 25.3986 8.75346 22.4059C7.10525 22.3666 5.51468 21.7916 4.22231 20.7679C2.92993 19.7442 2.00604 18.3275 1.59038 16.7321C-0.0238817 11.1896 3.02056 2.97673 7.51323 0.753595C7.8608 0.58264 8.24268 0.492928 8.63002 0.491235C9.01736 0.489543 9.40002 0.575918 9.74907 0.743829C10.1115 0.914296 10.4304 1.1651 10.6814 1.47721C10.9324 1.78932 11.109 2.15453 11.1978 2.5451C11.6797 4.61506 12.3017 6.64986 13.0596 8.63542C13.0659 8.65734 13.0785 8.67691 13.0959 8.69168C13.1133 8.70644 13.1346 8.71574 13.1573 8.71842C13.1782 8.72318 13.2001 8.72169 13.2203 8.71414C13.2404 8.70659 13.2579 8.69331 13.2706 8.67594L16.212 5.07536C16.4946 4.72881 16.8665 4.46609 17.2876 4.31562C17.7088 4.16515 18.163 4.13265 18.6012 4.22164C19.0395 4.31062 19.4451 4.5177 19.7741 4.8205C20.1032 5.12329 20.3432 5.51028 20.4683 5.93961C21.2789 8.75461 22.2476 14.0592 19.6314 17.9552C18.0108 20.3674 15.3243 21.8317 11.6421 22.3122C12.5778 24.5017 13.852 26.5304 15.418 28.3239C17.8994 25.8707 21.0036 24.1415 24.3956 23.3229V21.3341C23.5335 21.0254 22.8071 20.4239 22.3431 19.6345C21.8791 18.845 21.707 17.9177 21.8568 17.0144C22.0065 16.111 22.4687 15.2889 23.1626 14.6914C23.8564 14.0939 24.7381 13.7589 25.6537 13.7449C26.5692 13.7309 27.4607 14.0388 28.1725 14.6148C28.8843 15.1908 29.3714 15.9984 29.5487 16.8968C29.726 17.7952 29.5823 18.7273 29.1427 19.5305C28.703 20.3338 27.9954 20.9572 27.1431 21.2921V22.797C28.1671 22.6644 29.1985 22.5979 30.231 22.5978C30.8697 22.5978 31.5308 22.63 32.2779 22.6989V21.2916C31.4296 20.9567 30.7258 20.3347 30.289 19.534C29.8523 18.7334 29.7103 17.8049 29.8878 16.9104C30.0653 16.0158 30.551 15.2119 31.2604 14.6387C31.9698 14.0655 32.8578 13.7593 33.7697 13.7736C34.6815 13.7879 35.5595 14.1217 36.2506 14.7168C36.9417 15.3119 37.402 16.1306 37.5515 17.0303C37.7009 17.93 37.5299 18.8536 37.0683 19.6401C36.6067 20.4267 35.8838 21.0264 35.0254 21.3347V23.0988C38.712 23.7978 42.119 25.5443 44.8389 28.1291C46.3283 26.3826 47.5459 24.4216 48.4507 22.3122C44.8082 21.8371 42.1397 20.3981 40.5142 18.0319C38.066 14.4679 38.6055 9.75555 39.4893 6.42938C39.6181 5.95137 39.8764 5.51818 40.2356 5.17753C40.5948 4.83688 41.0411 4.60197 41.5253 4.49867C42.0095 4.39538 42.5127 4.42771 42.9797 4.5921C43.4467 4.75649 43.8592 5.04656 44.1719 5.43038L46.9253 8.80049C47.6827 6.94651 48.298 5.03769 48.7662 3.09049C48.8834 2.6053 49.1176 2.15615 49.4482 1.7822C49.7789 1.40824 50.1959 1.12082 50.6631 0.944986C51.1303 0.769154 51.6334 0.710245 52.1285 0.773393C52.6237 0.836541 53.0959 1.01983 53.504 1.30728C57.3614 4.03335 60.3189 12.007 58.2711 17.4264C57.7485 18.8557 56.8081 20.0947 55.5721 20.9824C54.3361 21.8702 52.8617 22.3657 51.3404 22.4044C50.2797 25.2983 48.6821 27.9658 46.6314 30.2667C47.8025 31.9738 48.5041 33.9588 48.666 36.0226C50.6143 36.2091 52.5632 35.6736 54.1426 34.5177C55.6387 33.2247 56.3306 31.0651 56.1988 28.0988C56.1907 27.9184 56.2182 27.7383 56.2798 27.5686C56.3415 27.3989 56.4359 27.243 56.5578 27.1099C56.6797 26.9767 56.8267 26.8689 56.9903 26.7926C57.1539 26.7163 57.3309 26.673 57.5113 26.6652C57.6818 26.6537 57.8529 26.6764 58.0147 26.7318C58.1764 26.7872 58.3254 26.8743 58.4532 26.9879C58.5977 27.1107 58.7158 27.2617 58.8 27.4316C58.8843 27.6015 58.9331 27.7868 58.9434 27.9762C59.1157 31.8322 58.1011 34.7355 55.9278 36.6061C53.8232 38.2319 51.1834 39.0054 48.5342 38.7726C48.3492 39.7723 48.0331 40.7432 47.5943 41.6603C49.1642 42.3363 50.9142 42.4715 52.5694 42.0446C54.2974 41.4972 55.6841 40.069 56.6919 37.7994C56.8402 37.467 57.1142 37.2068 57.4539 37.0758C57.7936 36.9449 58.1713 36.9538 58.5044 37.1007L58.5064 37.1017C58.8388 37.2502 59.0988 37.5244 59.2295 37.8642C59.3602 38.204 59.3509 38.5817 59.2037 38.9147C57.8594 41.9411 55.9014 43.8771 53.3848 44.6691C52.5385 44.9313 51.6571 45.0628 50.7711 45.0592C49.1745 45.037 47.5993 44.6895 46.1417 44.0378C45.6816 44.6281 45.1776 45.1827 44.6339 45.6969C48.5245 46.8346 54.2042 49.2775 54.8463 53.9308C54.8956 54.2917 54.7998 54.6575 54.5798 54.9479C54.3599 55.2382 54.0337 55.4295 53.6729 55.4797C53.6102 55.4879 53.5471 55.4921 53.4839 55.4923ZM41.6992 46.7682L41.8975 46.8078C42.3257 46.8932 52.3975 48.9655 53.1143 54.1696C53.1268 54.2588 53.171 54.3406 53.2389 54.3999C53.3068 54.4592 53.3938 54.492 53.4839 54.4923C53.5369 54.4909 53.5891 54.4786 53.6371 54.4561C53.6851 54.4335 53.728 54.4013 53.7629 54.3614C53.7979 54.3215 53.8242 54.2748 53.8402 54.2242C53.8562 54.1736 53.8616 54.1203 53.856 54.0675C53.2192 49.4557 46.398 47.1818 43.4951 46.4181L42.5703 46.175L43.2973 45.5543C44.1509 44.837 44.9162 44.0207 45.5771 43.1227L45.8208 42.7858L46.1967 42.964C47.6256 43.652 49.1854 44.0255 50.771 44.0592C51.5553 44.0629 52.3356 43.9468 53.085 43.715C55.3154 43.0128 57.0669 41.2614 58.2896 38.5084C58.3293 38.4179 58.3316 38.3154 58.296 38.2232C58.2603 38.131 58.1895 38.0567 58.0992 38.0165C58.0089 37.9764 57.9063 37.9736 57.814 38.0089C57.7216 38.0442 57.647 38.1146 57.6065 38.2047C56.4771 40.7477 54.8838 42.36 52.8711 42.9977C50.8059 43.5241 48.621 43.3023 46.7036 42.3717L46.2158 42.154L46.4648 41.6818C47.0518 40.5894 47.4417 39.4022 47.6167 38.1745L47.6811 37.7023L48.1557 37.7438C49.7139 37.8791 52.937 37.8586 55.2754 35.8483C57.2041 34.1881 58.102 31.5548 57.9443 28.0212C57.9399 27.9681 57.925 27.9165 57.9004 27.8693C57.8759 27.8221 57.8421 27.7803 57.8013 27.7462C57.7424 27.6924 57.6657 27.6624 57.5859 27.6618C57.5317 27.6615 57.478 27.6722 57.428 27.6934C57.3781 27.7145 57.3329 27.7456 57.2954 27.7848C57.2622 27.821 57.2364 27.8633 57.2197 27.9095C57.2029 27.9557 57.1955 28.0047 57.1977 28.0538C57.3442 31.3419 56.5361 33.7715 54.7959 35.2745C52.6777 37.1026 49.7192 37.1339 48.1435 36.9879L47.7031 36.9473L47.6894 36.5054C47.6127 34.344 46.8804 32.257 45.5898 30.5215L45.3535 30.1934L45.625 29.8936C47.782 27.5479 49.4378 24.7869 50.4912 21.7794L50.5947 21.4449L50.9443 21.4278C52.3296 21.4539 53.6888 21.0489 54.8338 20.2687C55.9788 19.4884 56.853 18.3717 57.3354 17.0728C59.2358 12.0435 56.4995 4.64899 52.9267 2.1236C52.6518 1.93032 52.3337 1.80722 52.0003 1.76502C51.6669 1.72282 51.3282 1.7628 51.0137 1.88148C50.6993 2.00016 50.4186 2.19393 50.1962 2.44592C49.9738 2.6979 49.8164 3.00045 49.7377 3.3272C49.2497 5.30914 48.6367 7.25819 47.9023 9.16265C47.8393 9.32876 47.7335 9.47525 47.5956 9.58724C47.4577 9.69924 47.2926 9.77276 47.1172 9.80035C46.9377 9.83101 46.7534 9.81303 46.5833 9.74828C46.4131 9.68353 46.2635 9.57438 46.1499 9.43218L43.3974 6.06304C43.1997 5.82061 42.9386 5.63767 42.6433 5.5345C42.3479 5.43134 42.0298 5.41198 41.7241 5.47858C41.4216 5.54285 41.1428 5.68979 40.9189 5.90306C40.6949 6.11633 40.5345 6.38757 40.4555 6.68658C39.6259 9.80958 39.1054 14.2149 41.3383 17.4654C42.854 19.6714 45.4257 20.9844 48.9823 21.3682L49.832 21.4371L49.6196 22.0431C48.6075 24.6762 47.1221 27.1019 45.2367 29.2003L44.8725 29.6144L44.496 29.212C41.7726 26.4608 38.2516 24.6375 34.433 24.0011L34.0253 23.9244V20.5749L34.4032 20.4801C35.09 20.3119 35.6922 19.8994 36.0971 19.3197C36.5021 18.7401 36.6823 18.0328 36.604 17.33C36.5257 16.6273 36.1943 15.977 35.6717 15.5007C35.1491 15.0243 34.471 14.7544 33.764 14.7415C33.057 14.7285 32.3694 14.9733 31.8296 15.4301C31.2899 15.8869 30.9348 16.5246 30.8308 17.224C30.7268 17.9234 30.8809 18.6368 31.2643 19.231C31.6477 19.8251 32.2343 20.2594 32.9144 20.4528L33.2777 20.5563V23.8087L32.7235 23.7487C31.896 23.6527 31.0639 23.6023 30.2309 23.5978C29.0553 23.5979 27.8814 23.688 26.7196 23.8673L26.143 23.9567V20.5563L26.5063 20.4533C27.182 20.2606 27.7645 19.8286 28.1452 19.238C28.5259 18.6475 28.6788 17.9386 28.5754 17.2435C28.4719 16.5485 28.1192 15.9149 27.583 15.4608C27.0468 15.0067 26.3637 14.7632 25.6611 14.7756C24.9585 14.788 24.2845 15.0556 23.7647 15.5284C23.2449 16.0012 22.9148 16.6469 22.836 17.3452C22.7572 18.0434 22.9351 18.7465 23.3365 19.3232C23.7379 19.8999 24.3354 20.311 25.0175 20.4797L25.3954 20.5749V24.1095L25.0111 24.2008C21.4823 24.9713 18.266 26.7832 15.7783 29.402L15.4073 29.8141L15.0357 29.4025C13.0717 27.2533 11.5245 24.7576 10.4732 22.0426L10.2612 21.4372L11.0308 21.3727C14.7041 20.9806 17.2915 19.6447 18.8013 17.3976C21.1914 13.838 20.2696 8.86441 19.5073 6.21597C19.4346 5.96274 19.2937 5.73435 19.1001 5.5557C18.9064 5.37704 18.6674 5.25496 18.4092 5.20278C18.1485 5.14897 17.8781 5.16757 17.6273 5.25658C17.3765 5.34558 17.1548 5.50159 16.9863 5.70767L14.0459 9.30728C13.9228 9.461 13.7608 9.57901 13.5767 9.64907C13.3927 9.71912 13.1932 9.73868 12.999 9.70571C12.8031 9.67514 12.6188 9.59289 12.4651 9.46742C12.3115 9.34194 12.1941 9.17778 12.125 8.99185C11.3506 6.96285 10.7152 4.8835 10.2232 2.76821C10.1677 2.52512 10.0576 2.29786 9.90112 2.10369C9.74469 1.90952 9.54606 1.75355 9.32034 1.64761C9.10771 1.5446 8.87445 1.49129 8.63818 1.49171C8.40192 1.49213 8.16883 1.54628 7.95657 1.65005C3.82864 3.69253 1.04983 11.3009 2.55032 16.4523C3.17972 18.612 4.8355 21.2282 9.14751 21.4284L9.49809 21.4445L9.6021 21.7799C10.6961 24.8815 12.4239 27.7214 14.6753 30.1188L14.9498 30.4123L14.7222 30.7438C13.5326 32.4224 12.8558 34.4102 12.774 36.466L12.7593 36.8903L12.3384 36.945C11.2984 37.0778 7.71147 37.3576 5.29742 35.2746C3.55719 33.7716 2.74908 31.3419 2.89557 28.0539C2.8978 28.0049 2.89036 27.9559 2.87364 27.9098C2.85693 27.8636 2.83128 27.8213 2.79817 27.7851C2.76506 27.7489 2.72513 27.7196 2.68068 27.6988C2.63623 27.6781 2.58813 27.6663 2.53912 27.6642C2.49388 27.6599 2.44823 27.6652 2.40521 27.6798C2.36219 27.6945 2.32279 27.7181 2.28961 27.7492C2.24927 27.7829 2.21606 27.8243 2.19191 27.871C2.16777 27.9177 2.15317 27.9688 2.14899 28.0212C1.99127 31.5549 2.88922 34.1882 4.81793 35.8484C6.52518 37.1833 8.64926 37.8719 10.815 37.7927C11.3058 37.7929 11.7962 37.7645 12.2838 37.7077L12.7735 37.6501L12.838 38.1388C13.0055 39.3301 13.376 40.4838 13.9332 41.55L14.1646 42.0031L13.7081 42.2267C11.7165 43.2657 9.41397 43.5412 7.23346 43.0016C5.21588 42.3674 3.61921 40.7536 2.48737 38.2057C2.46749 38.1609 2.43895 38.1203 2.40341 38.0865C2.36787 38.0526 2.32601 38.0261 2.28021 38.0084C2.23442 37.9907 2.1856 37.9822 2.13652 37.9834C2.08745 37.9846 2.03909 37.9954 1.9942 38.0153C1.94932 38.0352 1.90879 38.0637 1.87492 38.0992C1.84106 38.1348 1.81453 38.1766 1.79684 38.2224C1.77916 38.2682 1.77068 38.3171 1.77187 38.3661C1.77305 38.4152 1.78389 38.4636 1.80377 38.5085C3.02643 41.2614 4.77789 43.0129 7.00836 43.715C7.75769 43.9468 8.538 44.0629 9.32236 44.0592C11.0061 44.026 12.6599 43.6087 14.1578 42.839L14.544 42.6432L14.793 42.9967C15.4522 43.9152 16.2201 44.7504 17.0802 45.4841L17.8053 46.1115L16.8756 46.3468C13.8936 47.1012 6.88679 49.3649 6.23737 54.0675C6.22408 54.1659 6.25028 54.2654 6.31021 54.3445C6.37015 54.4236 6.45895 54.4757 6.55721 54.4894C6.65418 54.4959 6.75022 54.4671 6.82771 54.4085C6.90521 54.3498 6.95895 54.2652 6.97907 54.1701C7.72224 48.7761 18.3824 46.7687 18.4898 46.7492L18.6856 46.7131L18.8526 46.8219C22.2638 48.91 26.1835 50.0196 30.183 50.0294C34.1824 50.0392 38.1075 48.9489 41.5289 46.8776L41.6992 46.7682ZM30.231 49.2819C21.004 49.2819 13.4976 43.6891 13.4976 36.8141C13.4976 31.5089 18.0278 26.777 24.7706 25.0392L25.3956 24.8786V28.0373C25.3956 28.0863 25.4052 28.1349 25.424 28.1803C25.4428 28.2256 25.4703 28.2669 25.505 28.3016C25.5397 28.3363 25.5809 28.3638 25.6263 28.3826C25.6716 28.4014 25.7202 28.411 25.7693 28.411C25.8184 28.411 25.867 28.4014 25.9124 28.3826C25.9577 28.3638 25.9989 28.3363 26.0336 28.3016C26.0684 28.2669 26.0959 28.2256 26.1147 28.1803C26.1335 28.1349 26.1431 28.0863 26.1431 28.0373V24.7267L26.5606 24.6569C28.6336 24.2978 30.7485 24.2488 32.836 24.5114L33.2779 24.5631V28.0373C33.2779 28.1364 33.3173 28.2315 33.3874 28.3016C33.4575 28.3717 33.5525 28.411 33.6517 28.411C33.7508 28.411 33.8459 28.3717 33.916 28.3016C33.9861 28.2315 34.0254 28.1364 34.0254 28.0373V24.6725L34.625 24.7941C41.8892 26.2677 46.9629 31.2106 46.9629 36.8141C46.9629 43.6891 39.457 49.2819 30.231 49.2819ZM24.3955 26.1798C18.4477 27.921 14.4975 32.1344 14.4975 36.8141C14.4975 43.1374 21.5556 48.2819 30.2309 48.2819C38.9057 48.2819 45.9628 43.1374 45.9628 36.8141C45.9628 31.8439 41.4965 27.422 35.0253 25.9054V28.0373C35.0253 28.2177 34.9898 28.3963 34.9208 28.563C34.8517 28.7297 34.7505 28.8811 34.623 29.0087C34.4954 29.1362 34.344 29.2374 34.1773 29.3065C34.0106 29.3755 33.832 29.411 33.6516 29.411C33.4712 29.411 33.2925 29.3755 33.1258 29.3065C32.9592 29.2374 32.8077 29.1362 32.6801 29.0087C32.5526 28.8811 32.4514 28.7297 32.3824 28.563C32.3133 28.3963 32.2778 28.2177 32.2778 28.0373V25.4562C31.5978 25.3851 30.9146 25.3481 30.2309 25.3454C29.1973 25.3473 28.1653 25.4248 27.143 25.5773V28.0373C27.143 28.4016 26.9983 28.7511 26.7406 29.0087C26.483 29.2663 26.1336 29.4111 25.7692 29.4111C25.4049 29.4111 25.0555 29.2663 24.7978 29.0087C24.5402 28.7511 24.3955 28.4016 24.3955 28.0373L24.3955 26.1798ZM50.4433 20.7023C49.982 20.7013 49.5211 20.6755 49.0625 20.6251C45.7329 20.2658 43.3418 19.0602 41.9546 17.0421C39.7744 13.8673 40.5322 9.31215 41.1777 6.87907C41.2207 6.71278 41.3095 6.56189 41.4339 6.44354C41.5584 6.3252 41.7136 6.24416 41.8818 6.20963C41.9499 6.19557 42.0193 6.18837 42.0888 6.18814C42.229 6.18723 42.3675 6.21824 42.4939 6.27881C42.6203 6.33938 42.7312 6.42794 42.8183 6.53776L45.5712 9.90689C45.7668 10.1479 46.0222 10.3333 46.3119 10.4446C46.6016 10.5559 46.9154 10.5892 47.222 10.5411C47.5286 10.4931 47.8172 10.3654 48.0589 10.1708C48.3007 9.97619 48.4871 9.72153 48.5996 9.43228C49.3455 7.49789 49.9682 5.51818 50.4638 3.50504C50.5132 3.29479 50.6139 3.10008 50.7571 2.9384C50.9003 2.77673 51.0814 2.65315 51.2841 2.57877C51.4832 2.50252 51.6981 2.47688 51.9095 2.50415C52.121 2.53142 52.3223 2.61075 52.4956 2.73502C55.7861 5.0612 58.395 12.154 56.6357 16.8083C55.6567 19.3961 53.5767 20.7023 50.4433 20.7023ZM42.7788 16.4757C43.9931 18.2423 46.143 19.3043 49.1694 19.631C52.6157 20.0016 54.7524 18.9606 55.7002 16.4547C57.3149 12.1833 54.9306 5.68081 51.9184 3.55142C51.8781 3.52193 51.831 3.50315 51.7815 3.49683C51.732 3.49051 51.6816 3.49686 51.6352 3.51528C51.5854 3.53289 51.5409 3.56295 51.5059 3.6026C51.471 3.64226 51.4467 3.69019 51.4355 3.74185C50.9295 5.79657 50.294 7.8172 49.5327 9.79164C49.3573 10.2442 49.0662 10.6427 48.6885 10.9475C48.3108 11.2522 47.8597 11.4525 47.3804 11.5282C46.901 11.604 46.4102 11.5526 45.9569 11.3793C45.5036 11.2059 45.1037 10.9165 44.7973 10.5402L42.1133 7.25503C41.5185 9.54751 40.8584 13.6793 42.7788 16.4757ZM9.68456 20.7008C6.32909 20.7008 4.12304 19.1764 3.26856 16.2423C1.76856 11.0929 4.82471 4.03384 8.28809 2.32046C8.39824 2.26656 8.51927 2.23859 8.64191 2.23867C8.76454 2.23876 8.88552 2.2669 8.99561 2.32095C9.11909 2.37944 9.22793 2.46483 9.3141 2.57087C9.40028 2.67691 9.46161 2.80089 9.49361 2.93373C9.99411 5.08301 10.6396 7.19593 11.4257 9.25796C11.5419 9.56533 11.737 9.83669 11.9914 10.0447C12.2458 10.2528 12.5504 10.3902 12.8747 10.4432C13.199 10.4961 13.5316 10.4628 13.8389 10.3464C14.1462 10.2301 14.4175 10.0349 14.6254 9.78041L17.5659 6.1813C17.6473 6.07821 17.7564 6.00047 17.8804 5.95722C18.0044 5.91398 18.1382 5.90702 18.2661 5.93716C18.3895 5.96178 18.5036 6.02013 18.5959 6.10572C18.6881 6.19132 18.7548 6.30081 18.7885 6.42203C19.5156 8.94497 20.4033 13.671 18.1801 16.9806C16.8007 19.0358 14.3955 20.2619 11.0317 20.6251C10.5843 20.6744 10.1346 20.6996 9.68456 20.7008ZM8.54881 3.28482C5.67234 4.83706 2.91355 11.4479 4.2285 15.963C5.05174 18.7878 7.3115 20.0236 10.9243 19.631C13.9809 19.301 16.1426 18.2219 17.3501 16.423C19.1992 13.6701 18.6152 9.69794 17.98 7.25504L15.3999 10.4133C15.081 10.8035 14.665 11.1029 14.1937 11.2815C13.7224 11.46 13.2124 11.5114 12.715 11.4305C12.2176 11.3495 11.7502 11.1391 11.3598 10.8203C10.9695 10.5015 10.6699 10.0856 10.4912 9.61443C9.7046 7.54979 9.0557 5.43529 8.54881 3.28482ZM33.7016 19.8297C33.2755 19.8298 32.8588 19.7036 32.5044 19.4669C32.15 19.2302 31.8738 18.8937 31.7106 18.5C31.5474 18.1063 31.5046 17.6731 31.5877 17.2551C31.6707 16.837 31.8759 16.4531 32.1772 16.1516C32.4784 15.8502 32.8623 15.6449 33.2803 15.5617C33.6983 15.4784 34.1315 15.521 34.5253 15.684C34.9191 15.847 35.2557 16.1231 35.4925 16.4774C35.7294 16.8317 35.8559 17.2483 35.856 17.6745C35.8554 18.2457 35.6282 18.7934 35.2244 19.1975C34.8205 19.6015 34.2729 19.8289 33.7016 19.8297ZM33.7016 16.5202C33.4732 16.5201 33.2499 16.5877 33.0599 16.7146C32.8699 16.8414 32.7218 17.0218 32.6344 17.2328C32.5469 17.4439 32.524 17.6761 32.5685 17.9001C32.6131 18.1242 32.7231 18.33 32.8846 18.4915C33.0461 18.6531 33.2519 18.763 33.476 18.8076C33.7001 18.8521 33.9323 18.8292 34.1433 18.7418C34.3543 18.6543 34.5347 18.5062 34.6615 18.3162C34.7884 18.1262 34.8561 17.9029 34.856 17.6745C34.8556 17.3685 34.7338 17.0751 34.5175 16.8587C34.3011 16.6423 34.0077 16.5205 33.7016 16.5202ZM25.7202 19.8297C25.2941 19.8297 24.8775 19.7034 24.5231 19.4666C24.1688 19.2299 23.8926 18.8934 23.7295 18.4997C23.5664 18.106 23.5237 17.6727 23.6068 17.2548C23.6899 16.8368 23.8951 16.4528 24.1964 16.1515C24.4977 15.8501 24.8816 15.6448 25.2995 15.5616C25.7175 15.4784 26.1507 15.521 26.5445 15.6841C26.9382 15.8471 27.2748 16.1232 27.5116 16.4775C27.7484 16.8318 27.8749 17.2483 27.875 17.6745C27.8745 18.2459 27.6473 18.7937 27.2434 19.1978C26.8394 19.6018 26.2916 19.8291 25.7202 19.8297ZM25.7202 16.5202C25.4918 16.5202 25.2685 16.5879 25.0786 16.7148C24.8887 16.8417 24.7407 17.0221 24.6533 17.2332C24.5659 17.4442 24.543 17.6764 24.5876 17.9004C24.6322 18.1245 24.7423 18.3302 24.9038 18.4917C25.0654 18.6532 25.2712 18.7631 25.4952 18.8076C25.7192 18.8521 25.9515 18.8292 26.1625 18.7417C26.3735 18.6542 26.5538 18.5061 26.6806 18.3162C26.8074 18.1262 26.8751 17.9029 26.875 17.6745C26.8747 17.3683 26.753 17.0748 26.5365 16.8584C26.3199 16.642 26.0264 16.5203 25.7202 16.5202Z" fill="#323232"/>
<path d="M35.5701 33.8878C35.3861 33.7484 35.1544 33.6875 34.9256 33.7183C34.6969 33.7491 34.4896 33.8692 34.349 34.0523C34.2085 34.2355 34.1462 34.4668 34.1756 34.6957C34.205 34.9247 34.3239 35.1327 34.5061 35.2743C34.6359 35.3756 37.6593 37.8027 35.5473 42.026C35.4436 42.2334 35.4266 42.4734 35.4999 42.6933C35.5732 42.9132 35.7309 43.095 35.9382 43.1986C36.1455 43.3023 36.3855 43.3194 36.6054 43.2461C36.8253 43.1728 37.0071 43.0151 37.1108 42.8078C39.3274 38.374 37.0721 35.0342 35.5701 33.8878Z" fill="#323232"/>
<path d="M36.3277 43.7908C36.0935 43.7908 35.8633 43.731 35.6588 43.6169C35.4543 43.5028 35.2823 43.3384 35.1593 43.1391C35.0363 42.9398 34.9663 42.7124 34.9559 42.4785C34.9456 42.2446 34.9952 42.0119 35.1002 41.8025C37.0333 37.9368 34.3155 35.7601 34.1988 35.6692C33.9118 35.4465 33.7247 35.1192 33.6784 34.759C33.6322 34.3987 33.7304 34.0347 33.9518 33.7467C34.1731 33.4587 34.4995 33.27 34.8596 33.222C35.2196 33.174 35.584 33.2706 35.8731 33.4905C37.4893 34.7239 39.9205 38.3055 37.5582 43.0315C37.4443 43.2603 37.2687 43.4526 37.0513 43.5868C36.8339 43.7209 36.5832 43.7916 36.3277 43.7908ZM35.0421 34.2098C34.985 34.2096 34.9287 34.2226 34.8774 34.2478C34.8262 34.2729 34.7814 34.3095 34.7467 34.3548C34.6862 34.4335 34.6594 34.533 34.6719 34.6315C34.6844 34.7299 34.7353 34.8195 34.8135 34.8806C34.9561 34.9915 38.2901 37.6594 35.9947 42.2498C35.9726 42.2937 35.9595 42.3416 35.956 42.3906C35.9524 42.4397 35.9586 42.4889 35.9742 42.5356C35.9898 42.5822 36.0144 42.6253 36.0466 42.6624C36.0789 42.6995 36.1182 42.7299 36.1622 42.7518C36.2515 42.7935 36.3534 42.7993 36.4469 42.768C36.5403 42.7366 36.6181 42.6705 36.6642 42.5833C38.7335 38.4437 36.6549 35.3455 35.2667 34.2855C35.2021 34.2363 35.1232 34.2097 35.0421 34.2098Z" fill="#323232"/>
<path d="M23.8507 33.888C22.3487 35.0345 20.0945 38.3742 22.31 42.808C22.4136 43.0154 22.5954 43.173 22.8153 43.2463C23.0352 43.3196 23.2752 43.3026 23.4825 43.1989C23.6899 43.0952 23.8475 42.9135 23.9208 42.6936C23.9941 42.4736 23.9771 42.2336 23.8734 42.0263C21.7626 37.8047 24.7826 35.3776 24.9146 35.2746C25.0975 35.1332 25.2169 34.925 25.2466 34.6958C25.2764 34.4665 25.214 34.2348 25.0733 34.0514C24.9326 33.8679 24.7249 33.7478 24.4957 33.7172C24.2666 33.6866 24.0346 33.748 23.8507 33.888Z" fill="#323232"/>
<path d="M23.0928 43.7906C22.8375 43.7915 22.5871 43.7209 22.3698 43.5869C22.1526 43.4529 21.9771 43.2608 21.8633 43.0323C19.501 38.3048 21.9317 34.7237 23.5469 33.4908C23.836 33.2701 24.2009 33.173 24.5615 33.221C24.922 33.2689 25.2489 33.4578 25.4704 33.7464C25.6918 34.0349 25.7898 34.3996 25.7428 34.7603C25.6958 35.121 25.5077 35.4483 25.2197 35.6705C25.106 35.7594 22.3911 37.943 24.3208 41.8023C24.4255 42.0117 24.4749 42.2444 24.4643 42.4783C24.4538 42.7121 24.3837 42.9394 24.2607 43.1386C24.1377 43.3378 23.9659 43.5022 23.7615 43.6163C23.5571 43.7304 23.3269 43.7904 23.0928 43.7906ZM24.3799 34.2086C24.2984 34.2085 24.2191 34.2353 24.1543 34.2848C22.7666 35.3444 20.688 38.4425 22.7573 42.5841C22.8033 42.6711 22.881 42.7371 22.9743 42.7682C23.0676 42.7994 23.1693 42.7935 23.2583 42.7516C23.3024 42.7298 23.3418 42.6995 23.3741 42.6624C23.4065 42.6253 23.4312 42.5822 23.4468 42.5355C23.4624 42.4889 23.4686 42.4396 23.4651 42.3905C23.4616 42.3415 23.4484 42.2936 23.4263 42.2496C21.1348 37.6671 24.4639 34.9923 24.6065 34.8805C24.669 34.8331 24.715 34.7674 24.7381 34.6924C24.7611 34.6175 24.7601 34.5373 24.735 34.463C24.71 34.3887 24.6622 34.3242 24.5985 34.2785C24.5348 34.2329 24.4583 34.2084 24.3799 34.2086Z" fill="#323232"/>
</svg>
