<svg width="61" height="41" viewBox="0 0 61 41" fill="none" xmlns="http://www.w3.org/2000/svg">
<path d="M12.862 19.9403C14.0512 20.7779 15.4577 21.2528 16.9112 21.3075C16.9335 21.3081 16.9547 21.3081 16.9771 21.3081C17.6127 21.3705 18.2534 21.2589 18.8304 20.9852C19.4075 20.7114 19.8993 20.2859 20.2532 19.7542C20.607 19.2225 20.8096 18.6045 20.8392 17.9665C20.8688 17.3285 20.7244 16.6944 20.4214 16.1322C19.8327 14.8021 18.8713 13.6711 17.6534 12.8759C14.8654 10.9841 11.6275 11.0522 10.2815 13.0327C8.93885 15.0133 10.0728 18.0474 12.862 19.9403ZM11.7001 13.9954C11.9176 13.7263 12.1978 13.5146 12.5162 13.3791C12.8345 13.2435 13.1813 13.1882 13.5261 13.218C14.6632 13.2625 15.7628 13.6365 16.6913 14.2945C17.631 14.9006 18.3755 15.7652 18.8353 16.7845C18.9945 17.101 19.0757 17.4509 19.0722 17.8051C19.0687 18.1593 18.9806 18.5076 18.8152 18.8208H18.8141C18.5872 19.0938 18.2968 19.307 17.9683 19.4417C17.6399 19.5763 17.2834 19.6283 16.9301 19.5932C15.8131 19.5428 14.7345 19.1707 13.824 18.5217C11.8965 17.2137 10.9244 15.1405 11.7001 13.9954Z" fill="#323232"/>
<path d="M16.9769 21.8079C15.4011 21.7635 13.8729 21.2579 12.5814 20.3538H12.5804C9.55991 18.3035 8.36753 14.9642 9.86753 12.7518C11.3705 10.5389 14.9154 10.4129 17.9349 12.4622C19.2332 13.3128 20.2572 14.5214 20.8832 15.9417C21.2176 16.5801 21.3741 17.2968 21.3363 18.0165C21.2985 18.7362 21.0678 19.4325 20.6683 20.0323C20.2689 20.6322 19.7154 21.1136 19.0659 21.426C18.4165 21.7384 17.6949 21.8703 16.9769 21.8079ZM13.1419 19.5267C14.2504 20.3091 15.5616 20.7539 16.9173 20.8074H16.9193C17.4764 20.8797 18.0426 20.7958 18.5549 20.565C19.0671 20.3343 19.5052 19.9659 19.8203 19.5008C20.1354 19.0358 20.3152 18.4923 20.3396 17.931C20.3639 17.3698 20.232 16.8127 19.9584 16.3221C19.4075 15.083 18.5097 14.0298 17.3734 13.2899C14.8148 11.5545 11.8841 11.5638 10.6946 13.3138C9.51005 15.0614 10.5843 17.7908 13.1419 19.5267ZM17.0375 20.095C16.9876 20.095 16.9447 20.094 16.9095 20.0926C15.6994 20.039 14.5304 19.637 13.5433 18.9349C11.3548 17.45 10.3422 15.1082 11.2855 13.7147L11.2865 13.7132C11.5484 13.3751 11.89 13.1072 12.2807 12.9335C12.6715 12.7597 13.0993 12.6855 13.5257 12.7176C14.7627 12.7628 15.9598 13.1669 16.971 13.8807C17.9922 14.5416 18.8001 15.484 19.2972 16.5941C19.4901 16.9861 19.5847 17.4192 19.5728 17.8559C19.5609 18.2927 19.4429 18.72 19.2289 19.1009C18.9689 19.4289 18.6345 19.6902 18.2534 19.8631C17.8723 20.0359 17.4554 20.1155 17.0375 20.095ZM12.1136 14.2757C11.5706 15.0789 12.307 16.8875 14.1048 18.1077C14.9341 18.7016 15.9171 19.0437 16.9359 19.0931C17.2071 19.1629 17.4933 19.1472 17.7553 19.0482C18.0173 18.9492 18.2424 18.7717 18.3997 18.54C18.557 18.3082 18.6389 18.0336 18.6342 17.7535C18.6295 17.4735 18.5384 17.2017 18.3734 16.9754C17.9509 16.0465 17.2694 15.2593 16.4105 14.7083C15.565 14.106 14.5629 13.7619 13.5257 13.7176C13.2628 13.6899 12.9971 13.7263 12.7512 13.8234C12.5054 13.9206 12.2866 14.0758 12.1136 14.2757Z" fill="#323232"/>
<path d="M33.9307 14.1152C33.9545 14.2253 33.9999 14.3296 34.0641 14.4222C34.1283 14.5148 34.2102 14.5937 34.3049 14.6546C34.3997 14.7155 34.5056 14.7571 34.6165 14.7771C34.7273 14.797 34.8411 14.7949 34.9511 14.7708C35.0612 14.7467 35.1654 14.7012 35.2578 14.6368C35.3503 14.5724 35.4291 14.4904 35.4898 14.3955C35.5506 14.3006 35.592 14.1947 35.6117 14.0838C35.6314 13.9729 35.6291 13.8591 35.6048 13.7491C34.8721 11.3015 33.8274 8.95833 32.4965 6.77738C32.4384 6.68077 32.3619 6.59656 32.2713 6.52958C32.1806 6.46259 32.0777 6.41415 31.9683 6.38701C31.8589 6.35988 31.7453 6.3546 31.6338 6.37146C31.5224 6.38833 31.4154 6.42701 31.3189 6.4853C31.2225 6.54358 31.1385 6.62032 31.0717 6.71113C31.005 6.80193 30.9568 6.90502 30.9299 7.01447C30.9031 7.12392 30.8981 7.23759 30.9153 7.34897C30.9324 7.46036 30.9714 7.56727 31.0299 7.66358C32.2585 9.68661 33.2328 11.8535 33.9307 14.1152Z" fill="#323232"/>
<path d="M34.7672 15.2892C34.458 15.2878 34.1584 15.1812 33.9178 14.9871C33.6772 14.793 33.5097 14.5227 33.4429 14.2208C32.7611 12.0135 31.8079 9.89933 30.6051 7.92689C30.5117 7.77451 30.4494 7.60521 30.4217 7.42869C30.394 7.25217 30.4014 7.0719 30.4435 6.89825C30.4857 6.7246 30.5617 6.56099 30.6672 6.4168C30.7728 6.27261 30.9057 6.15068 31.0585 6.05802C31.2113 5.96536 31.3809 5.90379 31.5575 5.87684C31.7341 5.84989 31.9144 5.85812 32.0878 5.90101C32.2613 5.9439 32.4246 6.02063 32.5683 6.12679C32.712 6.23296 32.8334 6.36648 32.9254 6.51966C34.2848 8.74675 35.3497 11.1407 36.0934 13.6417C36.1316 13.8158 36.1351 13.9958 36.1038 14.1712C36.0724 14.3467 36.0068 14.5142 35.9107 14.6643C35.8145 14.8144 35.6898 14.9441 35.5435 15.0459C35.3972 15.1478 35.2323 15.2198 35.0582 15.2579C34.9626 15.2787 34.865 15.2891 34.7672 15.2892ZM31.7623 6.86244C31.6978 6.86234 31.6346 6.88009 31.5797 6.91371C31.5392 6.93782 31.5039 6.96974 31.4759 7.00764C31.4479 7.04553 31.4277 7.08863 31.4166 7.13441C31.3941 7.22629 31.4088 7.32335 31.4576 7.40441C32.7177 9.47274 33.7128 11.6913 34.4195 14.0079V14.0089C34.437 14.0882 34.481 14.1591 34.5442 14.21C34.6074 14.2609 34.686 14.2889 34.7671 14.2892C34.8266 14.2864 34.8847 14.2701 34.9369 14.2416C34.9892 14.2131 35.0343 14.1731 35.0689 14.1246C35.0941 14.0852 35.1113 14.0412 35.1195 13.9951C35.1278 13.949 35.1268 13.9018 35.1167 13.8561C34.3972 11.4615 33.3728 9.16925 32.0689 7.03578C32.0447 6.99533 32.0128 6.96009 31.9749 6.93209C31.937 6.9041 31.8939 6.8839 31.8482 6.87269C31.8201 6.86588 31.7912 6.8624 31.7623 6.86244Z" fill="#323232"/>
<path d="M38.2021 23.367C38.2021 24.7242 39.7535 28.1802 40.8417 28.8599C40.9721 28.9419 41.1229 28.9856 41.277 28.986C41.4184 28.9847 41.5573 28.9485 41.6814 28.8805C41.8054 28.8126 41.9107 28.715 41.988 28.5965C42.1089 28.4065 42.1522 28.1774 42.109 27.9564C42.0658 27.7354 41.9394 27.5394 41.7558 27.409C40.8341 26.2246 40.204 24.8399 39.9165 23.3669C39.9165 22.0421 38.316 19.5499 37.826 18.8177C37.6991 18.6296 37.5029 18.4995 37.2803 18.4559C37.0576 18.4123 36.8268 18.4587 36.6383 18.585C36.4499 18.7113 36.3191 18.9072 36.2748 19.1296C36.2305 19.3521 36.2762 19.5831 36.4019 19.772C37.2015 20.8595 37.8102 22.0752 38.2021 23.367Z" fill="#323232"/>
<path d="M41.2768 29.4861C41.0295 29.4856 40.7873 29.4159 40.5776 29.2849C39.3354 28.509 37.7016 24.8962 37.7016 23.3669C37.3024 22.1801 36.7237 21.0615 35.9858 20.05C35.8866 19.9019 35.8176 19.7357 35.7827 19.5609C35.7477 19.3861 35.7476 19.2061 35.7822 19.0313C35.8168 18.8564 35.8855 18.6901 35.9844 18.5418C36.0833 18.3935 36.2105 18.2661 36.3586 18.1669C36.5067 18.0678 36.6729 17.9987 36.8477 17.9638C37.0225 17.9289 37.2025 17.9287 37.3773 17.9634C37.5522 17.998 37.7185 18.0667 37.8668 18.1656C38.0151 18.2645 38.1425 18.3916 38.2416 18.5397C38.895 19.5168 40.4164 21.9431 40.4164 23.3669C40.7079 24.6773 41.2631 25.9147 42.0483 27.0036C42.3368 27.2101 42.5346 27.5198 42.6006 27.8684C42.6666 28.2169 42.5958 28.5775 42.4028 28.8752C42.28 29.0619 42.1129 29.2154 41.9165 29.3219C41.72 29.4285 41.5003 29.4849 41.2768 29.4861ZM37.1128 18.9372C37.0428 18.9372 36.9745 18.9581 36.9165 18.9973C36.8375 19.05 36.7826 19.1318 36.7639 19.2249C36.7452 19.3181 36.7643 19.4148 36.8169 19.4939C37.5464 20.5827 38.7016 22.5969 38.7016 23.3669C38.7016 24.6667 40.23 27.8883 41.1059 28.4362C41.1835 28.4814 41.2758 28.4944 41.3629 28.4724C41.4499 28.4504 41.5249 28.3952 41.5718 28.3185C41.6211 28.2367 41.6374 28.1392 41.6174 28.0458C41.5975 27.9524 41.5427 27.8701 41.4643 27.8156C40.4115 26.5329 39.7063 25.0009 39.4165 23.3669C39.4165 22.4279 38.3803 20.5446 37.4106 19.0959C37.3845 19.0567 37.3508 19.0231 37.3116 18.997C37.2724 18.9709 37.2284 18.9529 37.1821 18.944C37.1593 18.9393 37.1361 18.937 37.1128 18.9372Z" fill="#323232"/>
<path d="M42.3851 12.2395C42.3799 12.3519 42.3969 12.4643 42.4352 12.5702C42.4735 12.676 42.5322 12.7733 42.6081 12.8564C42.684 12.9395 42.7755 13.0069 42.8774 13.0546C42.9794 13.1024 43.0897 13.1295 43.2021 13.1346L43.2423 13.1357C43.4627 13.1356 43.6746 13.0505 43.8338 12.8981C43.9931 12.7457 44.0874 12.5378 44.0972 12.3176C44.2089 9.87112 42.0447 7.26562 41.9521 7.15562C41.8058 6.98192 41.5965 6.87337 41.3703 6.85378C41.144 6.8342 40.9192 6.90517 40.7453 7.05114C40.5713 7.19711 40.4623 7.40614 40.4423 7.63236C40.4223 7.85858 40.4928 8.08351 40.6384 8.25777C41.1474 8.8655 42.4521 10.7662 42.3851 12.2395Z" fill="#323232"/>
<path d="M43.2427 13.6358C43.0543 13.6345 42.8682 13.5947 42.6957 13.5189C42.5233 13.4431 42.3681 13.3328 42.2398 13.1949C42.1191 13.0635 42.0256 12.9094 41.965 12.7416C41.9043 12.5738 41.8775 12.3956 41.8863 12.2173C41.9459 10.9097 40.6968 9.10703 40.2545 8.57871C40.0234 8.30293 39.9113 7.94673 39.9427 7.58834C39.9741 7.22995 40.1464 6.89866 40.4219 6.66726C40.6974 6.43585 41.0534 6.32324 41.4118 6.35415C41.7703 6.38505 42.1018 6.55696 42.3336 6.83211C42.5796 7.12704 44.7144 9.75938 44.5962 12.3409C44.5819 12.6899 44.4329 13.0197 44.1805 13.2612C43.9281 13.5026 43.592 13.6369 43.2427 13.6358ZM42.8843 12.2622C42.8822 12.3093 42.8894 12.3562 42.9055 12.4005C42.9216 12.4447 42.9463 12.4854 42.9781 12.5201C43.0095 12.5547 43.0476 12.5828 43.09 12.6026C43.1324 12.6224 43.1784 12.6335 43.2252 12.6353H43.2262C43.3201 12.6391 43.4118 12.6057 43.4812 12.5423C43.5507 12.479 43.5924 12.3908 43.5973 12.2969C43.6998 10.0537 41.6558 7.58061 41.5689 7.4766C41.5386 7.44075 41.5015 7.41122 41.4598 7.38971C41.418 7.3682 41.3725 7.35513 41.3257 7.35123C41.2789 7.34733 41.2318 7.35269 41.1871 7.36699C41.1423 7.3813 41.1009 7.40427 41.065 7.4346C41.0292 7.46493 40.9997 7.50203 40.9781 7.54377C40.9566 7.5855 40.9436 7.63107 40.9397 7.67786C40.9358 7.72465 40.9411 7.77175 40.9554 7.81647C40.9697 7.86119 40.9927 7.90267 41.023 7.93851C41.0416 7.96051 42.9752 10.294 42.8843 12.2622Z" fill="#323232"/>
<path d="M47.208 21.0067C47.4075 21.1151 47.6417 21.1399 47.8594 21.0757C48.0772 21.0115 48.2605 20.8635 48.3693 20.6643C48.4781 20.4651 48.5034 20.2308 48.4397 20.013C48.376 19.7951 48.2284 19.6114 48.0294 19.5022C47.5551 19.2433 46.6399 17.5329 46.0829 16.0981C46.0423 15.9932 45.9813 15.8973 45.9036 15.8159C45.8258 15.7345 45.7328 15.6692 45.6299 15.6237C45.5269 15.5783 45.416 15.5536 45.3035 15.551C45.191 15.5484 45.079 15.568 44.9741 15.6087C44.8692 15.6494 44.7732 15.7103 44.6918 15.788C44.6105 15.8658 44.5452 15.9588 44.4997 16.0617C44.4543 16.1647 44.4296 16.2756 44.427 16.3881C44.4244 16.5007 44.444 16.6126 44.4847 16.7175C44.8084 17.5519 45.9591 20.3259 47.208 21.0067Z" fill="#323232"/>
<path d="M47.6176 21.6117C47.3907 21.6113 47.1674 21.5542 46.9682 21.4457C45.6088 20.7035 44.4525 18.018 44.0189 16.8978C43.9546 16.7318 43.9235 16.5546 43.9276 16.3765C43.9317 16.1985 43.9708 16.023 44.0427 15.86C44.1146 15.697 44.2179 15.5498 44.3467 15.4268C44.4755 15.3038 44.6273 15.2073 44.7934 15.143C44.9594 15.0786 45.1366 15.0475 45.3146 15.0516C45.4927 15.0557 45.6682 15.0948 45.8312 15.1667C45.9942 15.2386 46.1413 15.3419 46.2644 15.4707C46.3874 15.5995 46.4839 15.7513 46.5482 15.9174C46.9332 17.0597 47.5167 18.1252 48.2719 19.0648C48.5357 19.2101 48.7438 19.4389 48.8633 19.7154C48.9828 19.9918 49.007 20.3002 48.9321 20.5919C48.8571 20.8836 48.6873 21.1421 48.4493 21.3267C48.2114 21.5114 47.9188 21.6116 47.6176 21.6117ZM47.4467 20.5677C47.53 20.6117 47.6272 20.6214 47.7177 20.5949C47.8081 20.5684 47.8847 20.5076 47.931 20.4256C47.9538 20.3846 47.9682 20.3395 47.9735 20.2929C47.9787 20.2463 47.9747 20.1992 47.9616 20.1541C47.9486 20.1091 47.9267 20.0671 47.8973 20.0306C47.8679 19.994 47.8316 19.9636 47.7904 19.9412C47.0082 19.514 45.9564 17.1531 45.6166 16.2791C45.6001 16.2349 45.575 16.1945 45.5426 16.1602C45.5103 16.1259 45.4714 16.0984 45.4282 16.0794C45.3851 16.0604 45.3385 16.0502 45.2914 16.0494C45.2443 16.0487 45.1974 16.0574 45.1537 16.075C45.0658 16.1095 44.9951 16.1774 44.9571 16.2639C44.919 16.3503 44.9167 16.4483 44.9506 16.5364C45.5561 18.098 46.5726 20.0906 47.4467 20.5677Z" fill="#323232"/>
<path d="M48.4846 25.5289C48.9659 26.3108 49.2115 27.2148 49.1922 28.1328C49.1922 28.3601 49.2825 28.5781 49.4433 28.7389C49.604 28.8996 49.8221 28.9899 50.0494 28.9899C50.2767 28.9899 50.4948 28.8996 50.6555 28.7389C50.8163 28.5781 50.9066 28.3601 50.9066 28.1328C50.9315 26.8459 50.5665 25.5816 49.8597 24.506C49.723 24.3264 49.5211 24.208 49.2976 24.1764C49.0742 24.1448 48.8473 24.2027 48.6662 24.3374C48.4852 24.472 48.3646 24.6727 48.3306 24.8958C48.2966 25.1189 48.3519 25.3464 48.4846 25.5289Z" fill="#323232"/>
<path d="M50.0492 29.4898C49.6894 29.4893 49.3444 29.3462 49.0899 29.0917C48.8355 28.8373 48.6923 28.4923 48.6918 28.1324C48.7074 27.3185 48.4942 26.5167 48.0766 25.8179C47.8673 25.5283 47.7808 25.1677 47.8357 24.8146C47.8907 24.4615 48.0828 24.1443 48.3702 23.932C48.6577 23.7197 49.0173 23.6293 49.371 23.6805C49.7246 23.7318 50.0438 23.9205 50.2592 24.2056C51.0339 25.3666 51.4344 26.737 51.4067 28.1324C51.4062 28.4923 51.263 28.8373 51.0086 29.0917C50.7541 29.3462 50.4091 29.4893 50.0492 29.4898ZM49.1791 24.6651C49.1128 24.665 49.0477 24.6833 48.9912 24.7179C48.9346 24.7526 48.8888 24.8023 48.8588 24.8615C48.8288 24.9207 48.8159 24.987 48.8214 25.0531C48.8269 25.1193 48.8507 25.1825 48.8901 25.2359L48.894 25.2413C49.4358 26.1067 49.7131 27.1116 49.6918 28.1324C49.6916 28.1795 49.7006 28.2262 49.7185 28.2698C49.7363 28.3133 49.7626 28.353 49.7958 28.3864C49.829 28.4198 49.8685 28.4463 49.912 28.4643C49.9555 28.4824 50.0021 28.4917 50.0492 28.4917C50.0963 28.4917 50.143 28.4824 50.1864 28.4643C50.2299 28.4463 50.2694 28.4198 50.3026 28.3864C50.3358 28.353 50.3621 28.3133 50.38 28.2698C50.3978 28.2262 50.4069 28.1795 50.4067 28.1324C50.4319 26.9533 50.1018 25.7938 49.4594 24.8048C49.4267 24.7614 49.3843 24.7262 49.3357 24.702C49.287 24.6777 49.2335 24.6651 49.1791 24.6651Z" fill="#323232"/>
<path d="M52.2092 16.4454C52.2189 16.6657 52.3132 16.8738 52.4724 17.0264C52.6317 17.179 52.8436 17.2643 53.0642 17.2646L53.1032 17.264C53.2157 17.2591 53.3261 17.232 53.4281 17.1843C53.5301 17.1367 53.6217 17.0694 53.6976 16.9863C53.7736 16.9032 53.8325 16.806 53.8709 16.7002C53.9092 16.5943 53.9264 16.4819 53.9213 16.3695C53.7258 14.6391 53.004 13.0105 51.8532 11.7036C51.7006 11.5354 51.4875 11.4347 51.2607 11.4234C51.0339 11.4122 50.8119 11.4913 50.6434 11.6436C50.4749 11.7958 50.3737 12.0087 50.362 12.2354C50.3502 12.4622 50.429 12.6844 50.5808 12.8532C51.4613 13.8668 52.0272 15.1151 52.2092 16.4454Z" fill="#323232"/>
<path d="M53.1236 17.7642C52.765 17.7772 52.4158 17.6485 52.1514 17.406C51.8869 17.1635 51.7285 16.8266 51.7105 16.4683C51.5319 15.2529 51.0101 14.1138 50.2066 13.1846C49.9658 12.9171 49.8411 12.5648 49.86 12.2054C49.8789 11.8459 50.0399 11.5087 50.3074 11.2679C50.575 11.0271 50.9272 10.9024 51.2867 10.9213C51.6461 10.9402 51.9834 11.1011 52.2242 11.3687C53.458 12.7584 54.226 14.4995 54.4205 16.3477C54.4286 16.5258 54.4016 16.7037 54.3409 16.8713C54.2802 17.0389 54.187 17.1929 54.0667 17.3245C53.9465 17.456 53.8014 17.5626 53.6399 17.638C53.4784 17.7135 53.3036 17.7564 53.1255 17.7642H53.1236ZM51.2173 11.9224C51.1482 11.9222 51.0804 11.942 51.0224 11.9796C50.9643 12.0172 50.9184 12.0708 50.8902 12.134C50.8621 12.1971 50.8529 12.2671 50.8638 12.3354C50.8748 12.4037 50.9053 12.4673 50.9517 12.5186C51.9137 13.6158 52.5255 14.9757 52.7085 16.4234L52.7095 16.4248C52.713 16.5165 52.7519 16.6032 52.818 16.6667C52.8841 16.7302 52.9724 16.7655 53.064 16.7652C53.1123 16.7648 53.1599 16.7549 53.2042 16.7358C53.2485 16.7168 53.2885 16.689 53.3219 16.6543C53.3553 16.6195 53.3814 16.5784 53.3987 16.5334C53.4159 16.4884 53.424 16.4404 53.4224 16.3922C53.2325 14.7775 52.5553 13.259 51.481 12.0387C51.4477 12.0018 51.407 11.9724 51.3616 11.9524C51.3162 11.9324 51.267 11.9221 51.2173 11.9224Z" fill="#323232"/>
<path d="M28.4049 19.9626C28.9585 20.4084 28.9273 21.5971 28.8737 21.9754C28.8567 22.0867 28.8619 22.2003 28.889 22.3096C28.916 22.4189 28.9644 22.5218 29.0312 22.6123C29.0981 22.7029 29.1822 22.7794 29.2787 22.8374C29.3752 22.8954 29.4822 22.9338 29.5936 22.9504C29.6361 22.9568 29.679 22.96 29.722 22.9598C29.927 22.9597 30.1252 22.8859 30.2804 22.7519C30.4357 22.618 30.5377 22.4327 30.5679 22.2299C30.6059 21.981 30.8927 19.7656 29.4809 18.6277C29.0251 18.2612 28.7217 17.7386 28.6293 17.1611C28.6057 16.9372 28.4962 16.7312 28.3239 16.5865C28.1515 16.4417 27.9297 16.3694 27.7051 16.3849C27.593 16.3941 27.4837 16.4254 27.3836 16.4768C27.2835 16.5283 27.1946 16.599 27.1218 16.6849C27.049 16.7708 26.9939 16.8701 26.9596 16.9773C26.9252 17.0845 26.9123 17.1974 26.9216 17.3096C27.0511 18.3535 27.5833 19.3056 28.4049 19.9626Z" fill="#323232"/>
<path d="M29.7221 23.46C29.5267 23.4603 29.3335 23.4183 29.1557 23.337C28.978 23.2556 28.82 23.1368 28.6925 22.9887C28.565 22.8406 28.4709 22.6667 28.4169 22.4788C28.3628 22.291 28.35 22.0937 28.3794 21.9005C28.4389 21.4796 28.395 20.5963 28.0913 20.3516C27.1639 19.6076 26.5651 18.5297 26.4233 17.3492C26.4087 17.1716 26.4292 16.9929 26.4837 16.8233C26.5381 16.6537 26.6255 16.4964 26.7408 16.3606C26.856 16.2247 26.997 16.1129 27.1554 16.0315C27.3139 15.9502 27.4869 15.9008 27.6645 15.8863C28.0196 15.8629 28.3701 15.9775 28.6427 16.2064C28.9153 16.4352 29.0889 16.7605 29.1274 17.1143C29.2057 17.558 29.4432 17.9578 29.7954 18.2388C31.4292 19.5557 31.1049 22.0279 31.062 22.3057C31.0124 22.626 30.8503 22.9182 30.6047 23.1297C30.3592 23.3413 30.0462 23.4584 29.7221 23.46ZM28.7182 19.5733C29.6069 20.2887 29.3706 22.0284 29.3686 22.046C29.3609 22.0925 29.3625 22.1402 29.3733 22.1861C29.3842 22.2321 29.4042 22.2754 29.432 22.3135C29.4598 22.3517 29.495 22.3839 29.5354 22.4083C29.5758 22.4327 29.6207 22.4488 29.6674 22.4556C29.7591 22.4592 29.8491 22.4315 29.923 22.3771C29.9968 22.3227 30.0499 22.2449 30.0737 22.1563C30.0874 22.067 30.3872 20.0006 29.1674 19.0172C28.6089 18.5677 28.2394 17.9248 28.1323 17.2159C28.1287 17.1683 28.1156 17.1218 28.0939 17.0793C28.0722 17.0367 28.0423 16.9989 28.0059 16.968C27.9695 16.937 27.9273 16.9136 27.8818 16.8991C27.8362 16.8846 27.7883 16.8793 27.7407 16.8834C27.6475 16.8929 27.5618 16.9385 27.5017 17.0104C27.4417 17.0823 27.4122 17.1748 27.4194 17.2682C27.54 18.1749 28.0051 19.0004 28.7182 19.5733Z" fill="#323232"/>
<path d="M31.6023 24.9566C31.4918 24.9777 31.3865 25.0205 31.2924 25.0823C31.1984 25.1441 31.1174 25.2239 31.0542 25.317C30.991 25.4101 30.9467 25.5148 30.924 25.625C30.9012 25.7353 30.9004 25.8489 30.9215 25.9595L31.7005 30.045C31.7378 30.2407 31.8421 30.4172 31.9955 30.5444C32.1489 30.6715 32.3418 30.7411 32.541 30.7414C32.5953 30.7413 32.6494 30.7363 32.7028 30.7263C32.8134 30.7052 32.9187 30.6625 33.0127 30.6007C33.1068 30.5389 33.1877 30.4591 33.251 30.366C33.3142 30.2729 33.3584 30.1682 33.3812 30.0579C33.4039 29.9477 33.4048 29.8341 33.3836 29.7235L32.6046 25.638C32.5836 25.5274 32.541 25.4221 32.4792 25.328C32.4175 25.2339 32.3378 25.1529 32.2447 25.0896C32.1516 25.0263 32.047 24.982 31.9368 24.9592C31.8265 24.9364 31.7129 24.9355 31.6023 24.9566Z" fill="#323232"/>
<path d="M32.5415 31.2409C32.2259 31.2405 31.9202 31.1302 31.6772 30.9289C31.4341 30.7276 31.2687 30.4479 31.2095 30.1379L30.4302 26.0529C30.3629 25.6994 30.4387 25.3337 30.6408 25.036C30.843 24.7383 31.1549 24.5329 31.5083 24.465C31.6835 24.4316 31.8636 24.433 32.0382 24.4691C32.2129 24.5053 32.3787 24.5756 32.5261 24.6759C32.6736 24.7762 32.7998 24.9046 32.8976 25.0538C32.9955 25.2029 33.0629 25.3698 33.0962 25.5451L33.8755 29.6296C33.9425 29.9832 33.8665 30.3489 33.6642 30.6466C33.462 30.9443 33.1498 31.1496 32.7964 31.2174C32.7123 31.2329 32.627 31.2407 32.5415 31.2409ZM31.6958 25.4475C31.6028 25.4654 31.5208 25.5195 31.4677 25.5979C31.4146 25.6762 31.3948 25.7725 31.4126 25.8654L32.1919 29.9509C32.2074 30.0323 32.2507 30.1058 32.3145 30.1588C32.3783 30.2117 32.4586 30.2407 32.5415 30.2409C32.5934 30.2389 32.6443 30.226 32.6909 30.2031C32.7375 30.1801 32.7788 30.1475 32.812 30.1075C32.8451 30.0676 32.8695 30.021 32.8835 29.9709C32.8974 29.9209 32.9007 29.8685 32.893 29.8171L32.1137 25.7316C32.105 25.6855 32.0873 25.6415 32.0616 25.6022C32.0358 25.5629 32.0026 25.5291 31.9638 25.5027C31.9249 25.4763 31.8813 25.4578 31.8353 25.4483C31.7893 25.4389 31.7419 25.4386 31.6958 25.4475Z" fill="#323232"/>
<path d="M22.5452 24.3593C22.5212 25.3341 22.8168 26.2899 23.3868 27.0809C23.5204 27.2642 23.7211 27.3871 23.9451 27.4226C24.1691 27.4581 24.3981 27.4033 24.5818 27.2703C24.7655 27.1374 24.889 26.937 24.9252 26.7131C24.9615 26.4892 24.9075 26.2601 24.7752 26.076C24.4478 25.62 24.2657 25.0757 24.2528 24.5145C24.2467 23.4756 23.9226 22.4636 23.3243 21.6143C23.2604 21.5212 23.1788 21.4415 23.0841 21.38C22.9893 21.3185 22.8834 21.2763 22.7723 21.2558C22.6612 21.2354 22.5472 21.2371 22.4368 21.2609C22.3264 21.2847 22.2218 21.3301 22.1289 21.3944C22.0361 21.4588 21.9569 21.5408 21.8959 21.6359C21.835 21.7309 21.7934 21.8371 21.7735 21.9483C21.7537 22.0595 21.7561 22.1736 21.7805 22.2838C21.8049 22.3941 21.8508 22.4985 21.9157 22.5909C22.285 23.1109 22.5029 23.723 22.5452 24.3593Z" fill="#323232"/>
<path d="M24.0785 27.933C23.8647 27.9327 23.6539 27.8819 23.4633 27.7849C23.2728 27.6878 23.1078 27.5472 22.9818 27.3744C22.3422 26.4848 22.0137 25.409 22.0473 24.3138C21.9924 23.7958 21.8054 23.3 21.5043 22.8749C21.4027 22.7284 21.331 22.5634 21.2933 22.3892C21.2555 22.2151 21.2524 22.0352 21.2842 21.8598C21.3159 21.6845 21.3819 21.5171 21.4784 21.3672C21.5748 21.2174 21.6999 21.088 21.8463 20.9864C21.9928 20.8849 22.1578 20.8132 22.3319 20.7754C22.5061 20.7377 22.686 20.7346 22.8614 20.7664C23.0367 20.7981 23.2041 20.8641 23.354 20.9606C23.5038 21.057 23.6332 21.182 23.7347 21.3285C24.3996 22.2744 24.7548 23.4033 24.7513 24.5595C24.7755 25.0007 24.9249 25.4258 25.182 25.7851C25.3274 25.988 25.414 26.227 25.4323 26.4759C25.4506 26.7248 25.4 26.9739 25.2859 27.1959C25.1719 27.4179 24.9988 27.6042 24.7858 27.7342C24.5728 27.8643 24.3281 27.933 24.0785 27.933ZM23.0434 24.4047C23.0321 25.2578 23.2939 26.0922 23.7904 26.786C23.813 26.8292 23.8454 26.8666 23.885 26.8951C23.9246 26.9237 23.9703 26.9426 24.0184 26.9503C24.0666 26.9581 24.1159 26.9546 24.1624 26.9399C24.209 26.9253 24.2515 26.9 24.2865 26.8661C24.3633 26.8107 24.415 26.7271 24.4304 26.6337C24.4458 26.5403 24.4235 26.4446 24.3685 26.3675C23.9734 25.8132 23.7593 25.1503 23.7552 24.4695C23.7351 23.5487 23.4425 22.6544 22.9144 21.8997C22.8878 21.8611 22.8537 21.8282 22.8143 21.8027C22.7749 21.7772 22.7308 21.7598 22.6847 21.7514C22.6385 21.7429 22.5912 21.7437 22.5453 21.7535C22.4994 21.7634 22.456 21.7822 22.4174 21.8089C22.3788 21.8356 22.3458 21.8696 22.3203 21.909C22.2949 21.9484 22.2774 21.9925 22.269 22.0386C22.2606 22.0848 22.2613 22.1322 22.2712 22.178C22.281 22.2239 22.2999 22.2674 22.3265 22.306C22.7625 22.922 23.0114 23.6507 23.0434 24.4047Z" fill="#323232"/>
<path d="M60.0666 27.7756V23.0751C60.0639 22.8733 59.9889 22.6792 59.8552 22.528C60.2625 20.0672 60.0739 17.5446 59.3051 15.1717C58.5364 12.7989 57.2099 10.645 55.437 8.89049C51.2894 4.40879 45.5775 1.69329 39.4834 1.306C35.4905 1.13547 31.5024 1.74039 27.7397 3.0873C25.7558 3.86743 23.639 4.25392 21.5074 4.22518L21.4538 5.08066L21.4494 4.22182C11.891 3.62136 5.27477 5.09853 2.31597 8.49093C1.53846 9.41282 0.991147 10.5063 0.719197 11.6812C0.447247 12.8562 0.458445 14.0789 0.751821 15.2486L0.592702 22.4115C0.577715 23.0688 0.693076 23.7226 0.932149 24.335C1.17122 24.9474 1.52927 25.5065 1.98559 25.9798C5.23235 29.3772 17.5128 40.4612 39.2044 40.4674H39.2256C48.3665 40.4674 54.6457 38.5014 57.8869 34.6234C58.698 33.691 59.3097 32.6024 59.6846 31.4248C60.0594 30.2472 60.1895 29.0053 60.0666 27.7756ZM3.60839 9.61763C5.52475 7.42079 9.54301 6.13853 15.168 5.86544C15.1742 5.95077 15.1933 6.03466 15.2248 6.11419C15.8337 7.40826 16.3329 8.75118 16.7171 10.1288C16.7493 10.3298 16.852 10.5127 17.0068 10.6448C17.1616 10.7769 17.3584 10.8496 17.5619 10.8498C17.6079 10.8499 17.6538 10.8464 17.6992 10.8392C17.8104 10.8214 17.917 10.7818 18.0128 10.7228C18.1087 10.6637 18.192 10.5863 18.2579 10.495C18.3239 10.4038 18.3711 10.3004 18.3971 10.1908C18.423 10.0812 18.4271 9.96764 18.4091 9.85649C18.0544 8.46977 17.5724 7.11874 16.9693 5.82064C17.1532 5.81869 17.3225 5.80726 17.5095 5.80726C18.7249 5.80726 20.0051 5.84855 21.3422 5.93226L21.4002 5.93616C21.5321 5.94439 21.6581 5.94147 21.7876 5.94538C21.8089 6.04915 21.8493 6.14804 21.9069 6.23696C22.6023 7.18789 23.1446 8.24177 23.5141 9.36037C23.5576 10.6917 24.0817 11.9622 24.9896 12.9369C25.0761 13.0091 25.1759 13.0634 25.2834 13.0969C25.3909 13.1305 25.5039 13.1425 25.616 13.1323C25.7282 13.1222 25.8372 13.09 25.9369 13.0377C26.0367 12.9854 26.1251 12.914 26.1972 12.8276C26.2693 12.7411 26.3237 12.6412 26.3572 12.5337C26.3908 12.4263 26.4028 12.3132 26.3926 12.2011C26.3825 12.089 26.3503 11.9799 26.298 11.8802C26.2457 11.7805 26.1743 11.692 26.0878 11.6199C25.5719 10.9753 25.2713 10.1849 25.2284 9.36037C24.9697 8.09821 24.4488 6.90444 23.6996 5.8563C25.2519 5.62184 26.7787 5.24163 28.2598 4.72072C31.8292 3.42613 35.6188 2.84793 39.4119 3.01922C45.0514 3.38072 50.3359 5.89708 54.1713 10.0473C55.5309 11.4424 56.5994 13.094 57.3145 14.906C58.0296 16.718 58.377 18.6542 58.3366 20.6018C57.8835 30.0429 48.7504 33.0101 40.3695 32.6267C32.2923 32.264 4.6787 26.069 2.45095 15.0268C2.1911 14.0989 2.16067 13.1217 2.36229 12.1794C2.56392 11.2371 2.99157 10.358 3.60839 9.61763ZM56.543 33.5592C53.6713 36.9572 47.6834 38.753 39.2244 38.753H39.2044C18.1926 38.7469 6.35293 28.068 3.22448 24.7956C2.9239 24.4847 2.68806 24.1172 2.53057 23.7145C2.37308 23.3118 2.29711 22.8818 2.30706 22.4495L2.38305 19.0284C9.02946 28.7954 32.5307 33.9906 40.2937 34.3388C40.7847 34.3611 41.2777 34.3723 41.7725 34.3723C48.4553 34.3723 55.2639 32.298 58.3523 26.8426V27.8408C58.3523 27.8904 58.3567 27.9399 58.3657 27.9887C58.464 28.9928 58.3527 30.0064 58.039 30.9653C57.7253 31.9241 57.2159 32.8074 56.543 33.5592Z" fill="#323232"/>
<path d="M39.225 40.9677C17.309 40.9613 4.90469 29.7587 1.62441 26.3251C1.12248 25.8047 0.728619 25.19 0.465628 24.5165C0.202636 23.843 0.0757168 23.1241 0.0921842 22.4012L0.250387 15.2904C-0.0503598 14.0533 -0.0541749 12.7627 0.239279 11.5238C0.532733 10.285 1.11514 9.13318 1.93886 8.16248C4.95742 4.70105 11.557 3.15955 21.0394 3.69666V3.69519L21.5384 3.72644C23.6079 3.74661 25.662 3.36796 27.5882 2.61121C31.4058 1.24449 35.4522 0.631598 39.5033 0.806519C45.7302 1.20127 51.567 3.97476 55.806 8.5531C57.6047 10.3394 58.9564 12.5249 59.7513 14.9321C60.5461 17.3392 60.7616 19.9 60.3802 22.4061C60.5021 22.608 60.5666 22.8392 60.5667 23.075V27.7421C60.6918 29.0355 60.5527 30.3408 60.1581 31.5788C59.7634 32.8168 59.1214 33.9618 58.2708 34.9442C54.9301 38.9408 48.5219 40.9677 39.225 40.9677ZM17.4437 4.59021C10.185 4.59021 5.1244 6.03161 2.69274 8.8197C1.96671 9.6855 1.45667 10.7113 1.20455 11.8127C0.952431 12.9142 0.965433 14.0597 1.24254 15.1552L1.25231 15.2069L1.09215 22.4232C1.07899 23.0148 1.18311 23.6031 1.39849 24.1542C1.61387 24.7053 1.93625 25.2083 2.34704 25.6342C5.55798 28.9955 17.7064 39.9613 39.2045 39.9677C48.2123 39.9677 54.3617 38.0619 57.5033 34.3026C58.2707 33.4247 58.8502 32.3988 59.206 31.2883C59.5617 30.1778 59.6861 29.0061 59.5716 27.8456L59.5668 27.7758V23.0751C59.5637 22.992 59.5308 22.9128 59.474 22.852L59.3236 22.6757L59.3617 22.4472C59.7568 20.0609 59.573 17.6147 58.8257 15.3143C58.0785 13.0138 56.7897 10.9265 55.0677 9.22797C51.0109 4.84324 45.4237 2.18585 39.4622 1.80562C35.5278 1.63905 31.5983 2.23632 27.891 3.56441C25.999 4.28544 23.9997 4.68436 21.9759 4.74458L21.9525 5.11226L20.9535 5.08345L20.9516 4.6933C19.7318 4.62441 18.5626 4.59005 17.4437 4.59021ZM39.224 39.2533C17.9975 39.2469 6.02676 28.4501 2.86269 25.1415C2.51664 24.7831 2.24513 24.3595 2.06393 23.8954C1.88272 23.4314 1.79541 22.9359 1.80703 22.4379L1.91836 17.4564L2.79629 18.7474C9.31386 28.3246 32.5746 33.4921 40.3158 33.8397C40.7992 33.8612 41.2849 33.8721 41.7728 33.8724C49.4154 33.8724 55.2992 31.2206 57.9164 26.5966L58.8519 24.9442V27.8412C58.9717 28.9269 58.8622 30.0257 58.5302 31.0664C58.1983 32.107 57.6515 33.0664 56.9252 33.8822C53.9555 37.3959 47.8344 39.2533 39.224 39.2533ZM2.851 20.4677L2.80709 22.4608C2.79856 22.8274 2.86296 23.1921 2.99657 23.5336C3.13019 23.8751 3.33036 24.1866 3.58541 24.4501C6.68014 27.6869 18.394 38.2469 39.2046 38.2533C47.5307 38.2533 53.3872 36.5184 56.1616 33.2367C57.3236 31.9102 57.9456 30.196 57.9047 28.433C54.8002 32.5458 49.0297 34.8724 41.7729 34.8724C41.27 34.8724 40.7693 34.8612 40.2709 34.8387C32.7064 34.4989 10.5473 29.5892 2.851 20.4677ZM41.7866 33.1595C41.3051 33.1595 40.8253 33.1485 40.3471 33.1263C32.1782 32.7596 4.24068 26.431 1.96041 15.1259C1.68296 14.1229 1.65362 13.0675 1.87496 12.0508C2.0963 11.034 2.56168 10.0863 3.23092 9.28943C5.22506 7.00428 9.3442 5.64783 15.144 5.36609L15.6108 5.34363L15.6655 5.80798C15.6684 5.84177 15.6733 5.87536 15.6801 5.90857C16.3012 7.24546 16.8133 8.63033 17.2114 10.0497C17.2248 10.1332 17.2674 10.2092 17.3316 10.2642C17.3958 10.3192 17.4774 10.3496 17.562 10.35C17.6184 10.3482 17.6736 10.334 17.7239 10.3084C17.7742 10.2828 17.8183 10.2465 17.853 10.202C17.8803 10.1642 17.8998 10.1213 17.9106 10.0759C17.9213 10.0305 17.923 9.98343 17.9155 9.93738C17.5655 8.59249 17.0955 7.28173 16.5112 6.02087L16.2084 5.32898L17.1957 5.31433C18.4545 5.27184 19.9155 5.34216 21.3735 5.43347C21.5043 5.44177 21.5756 5.44227 21.6469 5.44324L22.1908 5.4574L22.2758 5.83679C22.2841 5.8807 22.3003 5.92274 22.3237 5.9608C23.074 6.98799 23.6455 8.13446 24.0141 9.3519C24.0608 10.5373 24.5191 11.6694 25.31 12.5536C25.3431 12.5892 25.384 12.6168 25.4294 12.6342C25.4749 12.6516 25.5237 12.6584 25.5721 12.654C25.6206 12.6496 25.6674 12.6342 25.709 12.6089C25.7506 12.5836 25.7858 12.5492 25.812 12.5081C25.8421 12.4721 25.8649 12.4305 25.879 12.3857C25.893 12.3409 25.8981 12.2937 25.8939 12.2469C25.8897 12.2001 25.8764 12.1546 25.8546 12.1129C25.8329 12.0713 25.8031 12.0344 25.767 12.0042C25.1353 11.2637 24.7695 10.3332 24.728 9.36069C24.4823 8.18915 23.987 7.08433 23.2758 6.12143L22.8588 5.45592L23.6381 5.3602C25.16 5.12908 26.6568 4.75554 28.1088 4.24449C31.7336 2.93099 35.5817 2.34495 39.4331 2.51988C45.2051 2.88882 50.6142 5.4633 54.5405 9.7103C55.945 11.1537 57.0481 12.8622 57.7855 14.7362C58.5228 16.6103 58.8798 18.6124 58.8354 20.6258C58.391 29.9003 49.9887 33.1595 41.7866 33.1595ZM3.98482 9.94666C3.42076 10.6307 3.03109 11.4413 2.84926 12.3091C2.66743 13.1768 2.69887 14.0757 2.94088 14.9286C5.11471 25.7059 32.4048 31.7684 40.3921 32.1273C48.5356 32.4999 57.4008 29.661 57.8374 20.578C57.8737 18.6964 57.5357 16.8263 56.843 15.0765C56.1503 13.3267 55.1166 11.732 53.8022 10.3851C50.058 6.33138 44.8981 3.87294 39.3911 3.51892C35.6618 3.35317 31.9362 3.92189 28.4262 5.19275C27.148 5.6295 25.8416 5.9791 24.5161 6.23914C25.1594 7.17012 25.5746 8.2395 25.728 9.36072C25.772 10.0376 26.0077 10.6879 26.4077 11.2357C26.6836 11.4667 26.8568 11.7975 26.8894 12.1559C26.922 12.5142 26.8113 12.8709 26.5815 13.1478C26.3455 13.4158 26.0157 13.5832 25.6601 13.6155C25.3044 13.6479 24.9499 13.5427 24.6694 13.3217C23.6489 12.2501 23.0595 10.8398 23.0141 9.36072C22.6281 8.35166 22.1162 7.39537 21.4907 6.51453C21.4741 6.49012 21.4594 6.46472 21.4448 6.43933C21.4194 6.43833 21.394 6.43689 21.3686 6.43543C20.0737 6.35437 18.8647 6.31237 17.7221 6.30798C18.2253 7.4243 18.6207 8.58616 18.9028 9.77771C18.9311 9.9537 18.9244 10.1335 18.8832 10.3069C18.842 10.4804 18.767 10.644 18.6625 10.7884C18.558 10.9328 18.4261 11.0552 18.2743 11.1487C18.1225 11.2421 17.9538 11.3047 17.7778 11.3329C17.4231 11.3846 17.0623 11.296 16.7719 11.0858C16.4816 10.8756 16.2847 10.5605 16.2231 10.2074C15.8569 8.89582 15.3806 7.61752 14.7993 6.38611C9.48678 6.69275 5.75142 7.92127 3.98482 9.94666Z" fill="#323232"/>
</svg>
