<svg width="18" height="20" viewBox="0 0 18 20" fill="none" xmlns="http://www.w3.org/2000/svg">
<path d="M17.5496 14.6299C17.6827 14.6967 17.7894 14.8066 17.8522 14.9417C17.9151 15.0768 17.9303 15.2292 17.8956 15.3741C17.8608 15.5189 17.7781 15.6477 17.6608 15.7396C17.5435 15.8314 17.3986 15.8809 17.2496 15.8799C17.1485 15.8818 17.0486 15.8577 16.9595 15.8099L15.9595 15.3299C15.7995 15.5099 15.6496 15.6899 15.4796 15.8599L16.3495 16.73C16.4115 16.7906 16.4608 16.8628 16.4944 16.9427C16.5281 17.0225 16.5454 17.1082 16.5454 17.1949C16.5454 17.2815 16.5281 17.3675 16.4944 17.4473C16.4608 17.5272 16.4115 17.5994 16.3495 17.66C16.289 17.723 16.2159 17.7725 16.1349 17.8052C16.0539 17.838 15.9669 17.8531 15.8796 17.8499C15.7939 17.8524 15.7086 17.8367 15.6293 17.804C15.5501 17.7713 15.4786 17.7222 15.4196 17.66L14.4996 16.74L13.9496 17.1399L14.4996 18.22C14.5736 18.3785 14.5838 18.5594 14.5279 18.7252C14.472 18.8909 14.3545 19.0286 14.1996 19.1099C14.1046 19.1498 14.0025 19.1702 13.8995 19.17C13.779 19.1697 13.6609 19.1359 13.5585 19.0723C13.456 19.0087 13.3734 18.9178 13.3196 18.8099L12.7896 17.8099C11.1453 18.5513 9.30902 18.7551 7.54224 18.3921C5.77545 18.0292 4.16826 17.118 2.94946 15.7884C1.73067 14.4588 0.962407 12.7785 0.754152 10.9869C0.545896 9.19525 0.908233 7.38358 1.78955 5.80987L0.789552 3.72003C0.573177 3.32027 0.491671 2.86124 0.557191 2.41143C0.622711 1.96162 0.831777 1.54487 1.1532 1.22344C1.47462 0.902021 1.89125 0.693015 2.34107 0.627496C2.79088 0.561976 3.24978 0.643542 3.64954 0.859918L6.08954 2.06988C7.10776 1.66392 8.1934 1.4537 9.28955 1.45001C10.7956 1.45009 12.2752 1.84658 13.5794 2.59966C14.8837 3.35275 15.9667 4.43573 16.7197 5.74004C17.4727 7.04435 17.8691 8.52402 17.8691 10.0301C17.8691 11.5361 17.4726 13.0156 16.7195 14.3199L17.5496 14.6299ZM16.5496 9.94C16.551 8.8546 16.3088 7.78279 15.8407 6.80352C15.3726 5.82425 14.6906 4.96253 13.845 4.28204C12.9995 3.60154 12.0119 3.11949 10.9551 2.87164C9.89842 2.62378 8.79953 2.61636 7.73956 2.84991C7.85062 2.9425 7.92765 3.06948 7.95844 3.21075C7.98923 3.35202 7.972 3.49953 7.90955 3.62994C7.83014 3.78663 7.6924 3.90586 7.52594 3.96197C7.35948 4.01808 7.17765 4.00664 7.01959 3.92999L3.01959 1.92999C2.86331 1.8336 2.67861 1.79377 2.49652 1.81744C2.31444 1.84111 2.14604 1.92673 2.01959 2.05987C1.88965 2.18853 1.80701 2.35755 1.78522 2.53912C1.76343 2.72068 1.80372 2.90411 1.89954 3.05987L3.89954 7.05987C3.97575 7.21646 3.98698 7.39699 3.93079 7.56182C3.87459 7.72666 3.75554 7.86257 3.59955 7.94C3.51002 7.98658 3.41049 8.01044 3.30957 8.00982C3.18651 8.00928 3.06605 7.97437 2.96179 7.90899C2.85754 7.84361 2.77362 7.75049 2.71954 7.63995L2.52954 7.25982C2.17147 8.12537 1.98798 9.05336 1.98956 9.99004C2.05928 11.8676 2.85414 13.6449 4.20709 14.9485C5.56005 16.2522 7.36574 16.9805 9.24457 16.9805C11.1234 16.9805 12.929 16.2522 14.282 14.9485C15.6349 13.6449 16.4299 11.8676 16.4996 9.99004L16.5496 9.94ZM14.5496 9.94C14.5806 10.652 14.4671 11.3628 14.216 12.0298C13.9649 12.6969 13.5813 13.3063 13.0884 13.8211C12.5956 14.3359 12.0035 14.7456 11.3481 15.0254C10.6926 15.3053 9.98726 15.4498 9.27454 15.4498C8.56182 15.4498 7.85651 15.3053 7.20105 15.0254C6.54559 14.7456 5.95358 14.3359 5.46069 13.8211C4.96781 13.3063 4.58424 12.6969 4.33313 12.0298C4.08202 11.3628 3.96856 10.652 3.99957 9.94C3.99957 9.76495 3.93005 9.59697 3.80628 9.4732C3.6825 9.34943 3.51458 9.27984 3.33954 9.27984C3.1645 9.27984 2.99664 9.34943 2.87286 9.4732C2.74909 9.59697 2.67957 9.76495 2.67957 9.94C2.74596 11.6447 3.46986 13.2574 4.6994 14.44C5.92895 15.6226 7.56858 16.283 9.27454 16.283C10.9805 16.283 12.6202 15.6226 13.8497 14.44C15.0793 13.2574 15.8032 11.6447 15.8696 9.94C15.8696 9.76495 15.8 9.59697 15.6763 9.4732C15.5525 9.34943 15.3846 9.27984 15.2095 9.27984C15.0345 9.27984 14.8666 9.34943 14.7429 9.4732C14.6191 9.59697 14.5496 9.76495 14.5496 9.94ZM11.8796 5.94C10.9018 5.39677 9.85592 4.98651 8.76959 4.72003C8.68335 4.69287 8.59243 4.68373 8.5025 4.69317C8.41258 4.70261 8.32556 4.73025 8.24683 4.77471C8.1681 4.81917 8.09931 4.87934 8.0448 4.95147C7.99029 5.0236 7.95121 5.10627 7.92993 5.19415C7.90865 5.28202 7.90561 5.37337 7.92108 5.46246C7.93655 5.55154 7.97018 5.63641 8.01984 5.71197C8.0695 5.78752 8.13414 5.85213 8.20978 5.90167C8.28542 5.9512 8.37043 5.98474 8.45953 6.00005C9.43552 6.24198 10.3741 6.61526 11.2496 7.10992C12.0496 7.52992 13.0396 8.10989 13.2496 8.82989C13.2867 8.96914 13.3684 9.09248 13.4821 9.18096C13.5959 9.26944 13.7355 9.31819 13.8796 9.31988H14.0596C14.144 9.29681 14.2229 9.25728 14.2919 9.20342C14.3608 9.14956 14.4184 9.08246 14.4612 9.00616C14.504 8.92986 14.5312 8.84576 14.5412 8.75884C14.5512 8.67193 14.5439 8.5841 14.5196 8.50005C14.2196 7.10005 12.8996 6.38992 11.9396 5.85992L11.8796 5.94ZM10.0796 9.17999C9.29959 8.39999 8.52958 7.60993 7.75958 6.86993C7.69991 6.80074 7.62652 6.74473 7.54407 6.70538C7.46161 6.66602 7.37184 6.64429 7.28052 6.64141C7.1892 6.63854 7.09832 6.65444 7.01355 6.68853C6.92878 6.72262 6.85199 6.77411 6.78809 6.83941C6.72418 6.90471 6.67453 6.98244 6.64227 7.06793C6.61002 7.15341 6.59587 7.24475 6.60071 7.33599C6.60555 7.42723 6.62929 7.51636 6.67041 7.59795C6.71153 7.67955 6.76909 7.7517 6.83954 7.80987C7.59954 8.55987 8.36959 9.33992 9.13959 10.1099C9.90959 10.8799 10.6795 11.69 11.4595 12.43C11.5174 12.491 11.5873 12.5391 11.6647 12.5718C11.7422 12.6045 11.8255 12.621 11.9095 12.6199C11.9988 12.6203 12.0873 12.6028 12.1697 12.5684C12.2522 12.5341 12.3269 12.4836 12.3896 12.42C12.4516 12.3594 12.5008 12.2872 12.5344 12.2073C12.5681 12.1275 12.5854 12.0415 12.5854 11.9549C12.5854 11.8682 12.5681 11.7825 12.5344 11.7027C12.5008 11.6228 12.4516 11.5506 12.3896 11.49C11.6696 10.63 10.8996 9.87991 10.1396 9.09991L10.0796 9.17999ZM5.94959 8.49004C5.93389 8.39976 5.89953 8.31365 5.84876 8.23736C5.79798 8.16107 5.73189 8.09627 5.65466 8.04693C5.57744 7.99759 5.49077 7.96475 5.40021 7.95074C5.30964 7.93673 5.21719 7.94169 5.12866 7.96539C5.04014 7.98909 4.9575 8.03105 4.88605 8.08843C4.8146 8.14582 4.75587 8.21731 4.71362 8.29864C4.67138 8.37996 4.64655 8.46939 4.64069 8.56085C4.63482 8.6523 4.64806 8.74383 4.67957 8.82989C5.02375 9.92144 5.58587 10.9318 6.33185 11.7999C7.07783 12.6679 7.9922 13.3755 9.01959 13.8799C9.09727 13.9187 9.18278 13.9393 9.26959 13.94C9.39962 13.942 9.52724 13.9049 9.63599 13.8336C9.74473 13.7622 9.82958 13.6599 9.87958 13.5398C9.91567 13.4613 9.93546 13.3765 9.93781 13.2901C9.94016 13.2037 9.92502 13.1178 9.89325 13.0374C9.86148 12.957 9.81378 12.884 9.75299 12.8226C9.69221 12.7611 9.61958 12.7126 9.53955 12.68C8.69701 12.2384 7.95094 11.6333 7.34485 10.9002C6.73876 10.1671 6.28483 9.32051 6.00958 8.40997L5.94959 8.49004Z" fill="#323232"/>
</svg>
