<svg width="50" height="71" viewBox="0 0 50 71" fill="none" xmlns="http://www.w3.org/2000/svg">
<path d="M49.0851 10.1503L47.2489 6.88927C47.1963 6.79599 47.1226 6.71629 47.0337 6.65648C46.9449 6.59668 46.8433 6.55842 46.7371 6.54477C46.6308 6.53113 46.5229 6.54246 46.4218 6.57787C46.3207 6.61327 46.2293 6.67177 46.1548 6.74872C46.1192 6.78572 45.439 7.49372 44.3193 8.71805C45.4467 7.29069 46.171 6.43922 46.1904 6.41638C46.294 6.29548 46.3524 6.14238 46.3557 5.9832C46.3589 5.82403 46.3068 5.66866 46.2083 5.54363L44.3467 3.17827C44.2855 3.10058 44.2082 3.03699 44.1202 2.99184C44.0322 2.94669 43.9355 2.92104 43.8367 2.91664C43.7379 2.91224 43.6393 2.9292 43.5476 2.96634C43.456 3.00349 43.3734 3.05996 43.3055 3.1319C42.2062 4.40496 41.2287 5.7784 40.386 7.23413C41.0875 5.49921 41.6105 4.19613 41.7955 3.73436C41.8309 3.64622 41.8475 3.55171 41.8445 3.4568C41.8415 3.3619 41.8189 3.26863 41.7781 3.18289C41.7373 3.09715 41.6792 3.02079 41.6074 2.95862C41.5356 2.89645 41.4518 2.84983 41.3611 2.82167L38.393 1.89867C38.239 1.85188 38.0733 1.8612 37.9254 1.92497C37.7776 1.98875 37.6571 2.10284 37.5854 2.24701C37.6133 2.13701 37.6333 2.05701 37.6362 2.04515C37.6617 1.94112 37.6625 1.83258 37.6386 1.72818C37.6147 1.62378 37.5668 1.5264 37.4986 1.44377C37.4305 1.36115 37.344 1.29556 37.2461 1.25223C37.1481 1.2089 37.0414 1.18901 36.9345 1.19416L33.1965 1.37737C33.035 1.38531 32.8815 1.44981 32.7628 1.55957C32.6441 1.66934 32.5678 1.81736 32.5472 1.97772C30.6372 16.9773 15.8763 41.6439 15.7275 41.8913C15.7175 41.9079 15.7169 41.9277 15.7085 41.9449C15.7005 41.9611 15.6853 41.9723 15.6785 41.9891C14.215 45.5234 12.1004 48.7513 9.44503 51.5048C8.06461 52.8742 6.92724 54.4685 6.08156 56.2193L6.07897 56.2184C4.42809 59.7234 5.42412 62.513 9.04015 64.5096C12.8899 66.6353 15.9105 65.7776 18.0184 61.96C18.3362 61.3851 18.6052 60.7845 18.8225 60.1645C19.8283 57.9547 20.6525 55.6665 21.2868 53.3229C22.072 50.6758 22.7501 48.3896 24.0459 46.6117C24.0567 46.5969 24.0582 46.5781 24.0677 46.5625C24.0781 46.5457 24.0951 46.5343 24.1041 46.5165C24.2341 46.2588 37.2462 20.6265 48.9229 11.0197C49.0477 10.9169 49.1323 10.7734 49.162 10.6145C49.1916 10.4556 49.1644 10.2912 49.0851 10.1503ZM43.7809 4.68378L44.7815 5.95563C41.8471 9.52196 39.1104 13.2465 36.5837 17.1124C38.522 13.2472 41.6153 7.3725 43.7809 4.68378ZM40.241 3.9142C37.2453 11.3737 32.5752 22.7663 31.9779 23.5923C31.2452 24.5994 30.4093 25.727 29.6208 26.7816L38.6001 3.40366L40.241 3.9142ZM33.8345 2.72371L36.0695 2.61418C34.8214 7.38028 28.5772 29.9829 19.2445 43.0764L17.2714 41.9869C19.6007 38.0363 31.78 16.8627 33.8345 2.72371ZM17.5536 59.6372C17.353 60.2092 17.1056 60.7636 16.8138 61.2948C15.077 64.4403 12.8845 65.0604 9.70525 63.305C6.71777 61.6554 5.98338 59.6505 7.34505 56.7517C8.13814 55.143 9.19537 53.6787 10.4728 52.4197C13.0512 49.734 15.1435 46.6209 16.6565 43.2192L19.1127 44.5754L20.029 45.0814L22.4997 46.4456C21.3744 48.4869 20.5232 50.6675 19.968 52.9313C19.3479 55.2288 18.5403 57.4717 17.5536 59.6372ZM23.2005 45.2607L21.2274 44.1713C27.3369 29.2981 43.1392 11.973 46.5078 8.37781L47.6057 10.3276C36.7343 19.5983 25.3032 41.1849 23.2005 45.2607Z" fill="#323232"/>
<path d="M12.8451 66.1456C11.4169 66.0943 10.025 65.6821 8.7992 64.9473C4.9652 62.8311 3.86853 59.7388 5.62634 56.0059L5.65076 55.9527C6.51643 54.1825 7.67091 52.5688 9.06677 51.1778C11.6847 48.4651 13.7699 45.285 15.2142 41.8028L15.2611 41.7071C15.2713 41.6834 15.283 41.6604 15.2963 41.6383C15.4467 41.3878 30.143 16.9024 32.0511 1.91512C32.0867 1.6382 32.2184 1.38259 32.4234 1.19299C32.6283 1.0034 32.8934 0.891906 33.1722 0.878008L36.9095 0.694902C37.0941 0.689307 37.2776 0.725228 37.4465 0.80002C37.6153 0.874812 37.7652 0.986566 37.8851 1.12703C37.9485 1.20385 38.002 1.28834 38.0443 1.3785C38.2112 1.35634 38.3808 1.37102 38.5414 1.4215L41.5092 2.34435C41.7514 2.4194 41.9631 2.5701 42.1134 2.77432C42.2636 2.97855 42.3445 3.22555 42.3441 3.47911C42.5541 3.21885 42.7533 2.98888 42.9418 2.78917C43.0596 2.66548 43.2024 2.56834 43.3607 2.50426C43.519 2.44018 43.6892 2.41063 43.8598 2.41759C44.0304 2.42497 44.1973 2.46916 44.3492 2.54712C44.5011 2.62508 44.6343 2.73497 44.7397 2.86925L46.601 5.23497C46.5999 5.55704 46.7057 5.87037 46.9019 6.12578C47.0981 6.38119 47.3735 6.5642 47.685 6.6461L49.5219 9.90587C49.6582 10.1491 49.7048 10.4324 49.6535 10.7064C49.6023 10.9805 49.4565 11.2278 49.2416 11.4054C37.6108 20.9747 24.6801 46.485 24.5502 46.7418L24.4965 46.8307C24.4797 46.8639 24.4594 46.8954 24.436 46.9244C23.2045 48.6163 22.5375 50.8634 21.7661 53.4654C21.1249 55.8349 20.2911 58.1479 19.2729 60.3814C19.0532 61.0107 18.7797 61.6199 18.4555 62.2022C18.0522 63.0716 17.4782 63.851 16.7675 64.494C16.0568 65.137 15.2241 65.6304 14.3188 65.9449C13.8392 66.0797 13.3432 66.1472 12.8451 66.1456ZM6.35095 56.8365C5.07068 59.9083 6.0326 62.2779 9.28162 64.0723C9.97689 64.53 10.7556 64.846 11.5732 65.0022C12.3909 65.1584 13.2312 65.1517 14.0463 64.9825C14.823 64.7012 15.5358 64.2675 16.1427 63.707C16.7496 63.1465 17.2384 62.4704 17.5804 61.7183C17.8849 61.1686 18.1423 60.5942 18.35 60.0011C19.3522 57.798 20.1739 55.5173 20.807 53.1812C21.3593 50.772 22.3045 48.4702 23.6048 46.3682L23.683 46.2418C24.3753 44.8809 37.0804 20.1158 48.6058 10.6339C48.6396 10.6052 48.6624 10.5658 48.6704 10.5223C48.6784 10.4788 48.6711 10.4338 48.6497 10.3951L46.8128 7.13532C46.7986 7.10975 46.7785 7.08789 46.7543 7.07152C46.73 7.05515 46.7022 7.04473 46.6732 7.04108C46.6441 7.03694 46.6145 7.03983 46.5868 7.04952C46.5591 7.0592 46.5341 7.0754 46.514 7.09674C46.3792 7.23786 45.721 7.92633 44.6878 9.05574L43.9261 8.40828C45.0609 6.97228 45.7904 6.1158 45.8099 6.09236C45.8382 6.05931 45.8542 6.01751 45.8553 5.97402C45.8564 5.93052 45.8424 5.88798 45.8158 5.85358L43.9544 3.48787C43.9377 3.46679 43.9167 3.44952 43.8928 3.43723C43.8689 3.42493 43.8426 3.41789 43.8158 3.41658C43.7884 3.41561 43.7611 3.4204 43.7357 3.43067C43.7103 3.44093 43.6873 3.45644 43.6683 3.47615C42.5914 4.72239 41.6353 6.0681 40.8128 7.49515L39.9222 7.04691C40.6234 5.31302 41.1468 4.01077 41.3314 3.54891C41.341 3.52486 41.3455 3.49908 41.3447 3.47319C41.3439 3.44731 41.3377 3.42189 41.3265 3.39852C41.3156 3.37503 41.2999 3.35411 41.2804 3.33711C41.2609 3.32012 41.238 3.30743 41.2132 3.29988L38.2445 2.37654C38.2029 2.36554 38.1588 2.36937 38.1198 2.38738C38.0807 2.40538 38.0492 2.43642 38.0306 2.47518L35.9779 6.48006L37.1478 1.93562C37.1563 1.90617 37.1576 1.87513 37.1517 1.84506C37.1457 1.815 37.1327 1.78678 37.1136 1.76277C37.096 1.73948 37.0728 1.72097 37.0462 1.70894C37.0196 1.69691 36.9904 1.69175 36.9613 1.69393L33.221 1.87703C33.1767 1.87941 33.1346 1.8973 33.1021 1.92755C33.0697 1.95781 33.0488 1.99851 33.0433 2.04256C31.1527 16.8873 16.9769 40.7755 16.1878 42.0948L16.1185 42.2345C14.6351 45.8002 12.4981 49.0571 9.81772 51.8374C8.47697 53.167 7.36999 54.7131 6.54331 56.4107L6.36557 56.8414L6.35095 56.8365ZM12.8373 64.7764C11.6436 64.7209 10.4832 64.3654 9.46329 63.7427C6.2377 61.9615 5.42029 59.6724 6.89298 56.5391C7.70336 54.885 8.78765 53.3799 10.1 52.0875C12.6405 49.4398 14.7035 46.3724 16.1976 43.0211L16.4164 42.5152L23.2025 46.2633L22.9232 46.7105C21.8233 48.7142 20.991 50.8536 20.4476 53.0738C19.822 55.3881 19.0088 57.6475 18.016 59.8297C17.8077 60.4184 17.552 60.9893 17.2513 61.5367C16.0541 63.7052 14.6137 64.7764 12.8373 64.7764ZM16.8929 43.921C15.3723 47.172 13.3315 50.1532 10.851 52.7471C9.61247 53.9667 8.58456 55.383 7.80896 56.9385C6.54822 59.6241 7.17029 61.3345 9.94666 62.8677C12.8998 64.4962 14.7631 63.9737 16.3763 61.0533C16.6541 60.5462 16.8899 60.0173 17.0814 59.4717L17.1019 59.422C18.0775 57.2801 18.8757 55.0619 19.4886 52.7896C20.0283 50.6574 20.8056 48.5926 21.806 46.6339L16.8929 43.921ZM23.4095 45.9468L20.5951 44.3936L20.764 43.9815C26.9359 28.9595 42.9877 11.4029 46.1429 8.03621L46.6097 7.53865L48.2435 10.4415L47.9301 10.7086C37.1527 19.8985 25.809 41.2945 23.6449 45.4898L23.4095 45.9468ZM21.8607 43.9503L22.9926 44.5753C25.6381 39.4942 36.4936 19.3633 46.9691 10.2169L46.4076 9.2193C42.4447 13.4952 27.8207 29.8126 21.8607 43.9503ZM19.3929 43.73L16.5785 42.1763L16.8402 41.7335C19.2377 37.668 31.3011 16.6793 33.3392 2.65242L33.3988 2.24518L36.7259 2.08162L36.5531 2.7408C35.3841 7.20564 29.0755 30.1466 19.6517 43.3668L19.3929 43.73ZM17.9623 41.7979L19.0941 42.4224C27.8822 29.8507 33.9037 8.77843 35.4115 3.14752L34.2679 3.20369C32.1058 16.9513 20.8529 36.8541 17.9623 41.7979ZM27.8607 29.9683L38.3011 2.78717L40.9066 3.59818L40.7045 4.10111C40.3998 4.86087 33.222 22.7266 32.3832 23.8853C31.6488 24.8955 30.8109 26.0249 30.0209 27.0811L27.8607 29.9683ZM38.8988 4.02057L31.4056 23.5289C31.4623 23.4513 31.518 23.3746 31.5736 23.2984C32.0678 22.6158 36.0248 13.0621 39.5746 4.23108L38.8988 4.02057ZM37.0023 17.3853L36.1361 16.8887C38.265 12.6446 41.2513 7.02789 43.391 4.37067L43.7855 3.88141L45.4242 5.96442L45.1664 6.27542C42.2449 9.82745 39.5195 13.5363 37.0023 17.3853ZM43.7845 5.49762C42.7133 7.00059 41.7277 8.56281 40.8324 10.1768C42.2875 8.23395 43.4838 6.74713 44.139 5.94882L43.7845 5.49762Z" fill="#323232"/>
<path d="M12.9545 62.1731C12.9117 62.2564 12.8529 62.3303 12.7814 62.3908C12.71 62.4513 12.6273 62.497 12.5382 62.5255C12.449 62.554 12.3551 62.5646 12.2619 62.5567C12.1686 62.5489 12.0778 62.5227 11.9947 62.4797L9.3003 61.0896C9.21588 61.0481 9.14069 60.9899 9.07927 60.9187C9.01784 60.8474 8.97144 60.7645 8.94282 60.6749C8.9142 60.5853 8.90394 60.4908 8.9127 60.3971C8.92146 60.3035 8.94905 60.2125 8.99379 60.1297C9.0366 60.0465 9.09541 59.9726 9.16685 59.9121C9.23829 59.8516 9.32095 59.8059 9.41011 59.7774C9.49926 59.7489 9.59315 59.7383 9.68641 59.7462C9.77967 59.754 9.87047 59.7802 9.95359 59.8232L12.648 61.2133C12.7312 61.2561 12.8052 61.3149 12.8656 61.3864C12.9261 61.4578 12.9719 61.5405 13.0003 61.6297C13.0288 61.7188 13.0394 61.8127 13.0316 61.906C13.0237 61.9992 12.9975 62.09 12.9545 62.1731Z" fill="#323232"/>
<path d="M12.3187 63.0589C12.126 63.0588 11.9362 63.0126 11.765 62.9242L9.07067 61.534C8.9284 61.4632 8.80176 61.3646 8.69827 61.244C8.59477 61.1234 8.51653 60.9833 8.46813 60.8319C8.39458 60.6028 8.39063 60.357 8.45681 60.1257C8.523 59.8943 8.65636 59.6878 8.83996 59.5323C9.02356 59.3768 9.24917 59.2792 9.48825 59.252C9.72732 59.2247 9.96909 59.269 10.183 59.3792L12.8773 60.7689C13.1191 60.8936 13.3119 61.0961 13.4247 61.3436C13.5375 61.5912 13.5638 61.8695 13.4993 62.1338C13.4349 62.398 13.2834 62.633 13.0692 62.8008C12.8551 62.9686 12.5908 63.0595 12.3187 63.0589ZM9.62634 60.244C9.58731 60.2438 9.549 60.2544 9.51571 60.2748C9.48242 60.2952 9.45545 60.3244 9.43786 60.3592C9.42326 60.3842 9.41413 60.4121 9.4111 60.4408C9.40807 60.4696 9.41121 60.4987 9.42028 60.5262C9.42815 60.5507 9.44083 60.5733 9.45761 60.5928C9.47438 60.6122 9.4949 60.6281 9.51794 60.6395L12.2239 62.0355C12.2488 62.0485 12.2759 62.0565 12.3039 62.0589C12.3318 62.0614 12.3599 62.0583 12.3867 62.0498C12.4134 62.0413 12.4381 62.0276 12.4596 62.0096C12.481 61.9915 12.4986 61.9693 12.5114 61.9444C12.5242 61.9195 12.532 61.8923 12.5342 61.8643C12.5365 61.8364 12.5332 61.8083 12.5245 61.7816C12.5159 61.7549 12.502 61.7303 12.4838 61.709C12.4656 61.6877 12.4433 61.6702 12.4183 61.6576L9.72393 60.2679C9.69377 60.2523 9.66032 60.2441 9.62634 60.244Z" fill="#323232"/>
<path d="M1.51211 65.6201C1.21427 65.6203 0.92474 65.5219 0.688625 65.3404C0.45251 65.1588 0.283071 64.9043 0.206722 64.6164C0.130373 64.3285 0.151388 64.0234 0.266506 63.7487C0.381624 63.474 0.584379 63.2451 0.843166 63.0977L5.29824 60.5615C5.60924 60.3854 5.97741 60.3398 6.32199 60.4347C6.66657 60.5297 6.95943 60.7574 7.13632 61.068C7.3132 61.3786 7.35966 61.7466 7.26553 62.0914C7.1714 62.4362 6.94435 62.7296 6.63418 62.9072L2.1791 65.4434C1.97595 65.5594 1.74604 65.6203 1.51211 65.6201Z" fill="#323232"/>
<path d="M6.1693 69.7429C5.92806 69.7425 5.69131 69.6775 5.4837 69.5546C5.27608 69.4318 5.10517 69.2555 4.98873 69.0442C4.8723 68.833 4.81459 68.5943 4.82162 68.3532C4.82864 68.112 4.90014 67.8772 5.02868 67.673L7.76794 63.3322C7.86252 63.1823 7.9857 63.0525 8.13046 62.9502C8.27521 62.8479 8.43868 62.7751 8.61157 62.7359C8.78445 62.6968 8.96336 62.6921 9.13805 62.7221C9.31275 62.7521 9.47984 62.8163 9.62975 62.9108C9.77967 63.0054 9.90949 63.1286 10.0118 63.2734C10.1141 63.4181 10.1869 63.5816 10.226 63.7545C10.2652 63.9274 10.2699 64.1063 10.2399 64.281C10.2099 64.4557 10.1457 64.6227 10.0511 64.7727L7.31188 69.1135C7.19016 69.3064 7.02152 69.4653 6.82171 69.5754C6.62189 69.6855 6.39743 69.7431 6.1693 69.7429Z" fill="#323232"/>
<path d="M12.6196 70.9556C12.5776 70.9556 12.5346 70.9536 12.4926 70.9497C12.1362 70.9165 11.8076 70.743 11.579 70.4675C11.3504 70.192 11.2407 69.8369 11.2739 69.4805L11.6909 65.0127C11.7248 64.6568 11.8985 64.3289 12.1739 64.1009C12.4493 63.873 12.8039 63.7636 13.1599 63.7969C13.5159 63.8301 13.8441 64.0032 14.0726 64.2783C14.301 64.5533 14.411 64.9077 14.3784 65.2637L13.9614 69.7315C13.9301 70.0659 13.7753 70.3766 13.5272 70.603C13.2791 70.8293 12.9554 70.955 12.6196 70.9556Z" fill="#323232"/>
</svg>
