<svg width="48" height="48" viewBox="0 0 48 48" fill="none" xmlns="http://www.w3.org/2000/svg">
<path d="M43.8872 25.1988C41.4399 23.4112 35.4487 21.109 32.231 19.8726L31.27 19.5035L31.9155 18.7017C34.3511 15.6793 35.4712 12.6143 35.1538 9.83845C35.0233 8.6591 34.6014 7.53075 33.9261 6.55509C33.2509 5.57943 32.3435 4.78713 31.2856 4.24959C29.2944 3.37438 27.1424 2.92467 24.9673 2.92927C24.066 2.90469 23.1675 2.81888 22.2778 2.67245C21.519 2.50302 20.7808 2.33699 20.0415 2.15633C15.8149 1.16072 11.438 0.130455 7.02295 2.76082C2.58057 5.40633 2.23779 10.3687 2.23779 17.0909C2.16245 18.0402 1.994 18.9798 1.73486 19.8961C1.16851 21.9577 0.844709 24.0783 0.77002 26.2149C0.816652 27.45 1.16599 28.6548 1.78735 29.7232C2.40871 30.7916 3.28306 31.691 4.3335 32.3424C5.92265 33.3322 7.73368 33.9098 9.60248 34.0229C11.4713 34.136 13.3388 33.7809 15.0356 32.9898C15.934 32.5771 16.7823 32.063 17.564 31.4576L18.0142 31.1314L18.4575 31.4674C19.6972 32.464 20.5642 33.8498 20.9185 35.4005C21.0708 36.0138 21.2085 36.6402 21.3315 37.2667C21.5604 38.7769 21.9961 40.2484 22.6265 41.6397C23.856 44.0992 28.1313 47.5025 32.9634 47.5025C40.3989 47.5025 43.3003 42.2759 45.2202 38.8174L45.5874 38.1451C48.2495 33.4102 47.5161 27.8482 43.8872 25.1988ZM14.4751 31.6192C13.0783 32.2097 11.5794 32.5212 10.063 32.5362C8.32172 32.5575 6.61385 32.0577 5.15869 31.1012C4.31822 30.581 3.61608 29.8652 3.11221 29.0149C2.60835 28.1645 2.31773 27.2049 2.26514 26.2179C2.33703 24.2462 2.63387 22.2892 3.1499 20.3849L3.17627 20.274C3.47323 19.2355 3.65981 18.1686 3.73291 17.0909C3.73291 8.7501 4.60303 5.94345 7.77979 4.03428C9.42273 3.05976 11.3023 2.5565 13.2124 2.57969C15.3865 2.67567 17.5427 3.01886 19.6392 3.60264C20.4458 3.79552 21.1987 3.97324 21.9517 4.1207C22.8923 4.29266 23.8445 4.39336 24.8003 4.42197C26.792 4.3998 28.7663 4.79484 30.5962 5.58165C31.4396 6.00162 32.1631 6.62806 32.6994 7.40271C33.2357 8.17736 33.5674 9.07505 33.6636 10.0123C34.0513 13.36 31.8091 17.3961 27.5112 21.086C27.145 21.4083 26.564 21.9308 25.853 22.5694L25.5327 22.8556C21.2983 26.6299 16.603 30.731 14.4751 31.6192ZM44.2954 37.4019L43.9214 38.0743C42.0776 41.421 39.5503 46.0074 32.9634 46.0074C28.7886 46.0074 24.9947 43.0352 23.9673 40.981C23.3932 39.6991 22.9982 38.3443 22.7935 36.9547C22.6616 36.3121 22.5298 35.6666 22.3687 35.0362C21.9762 33.4054 21.1364 31.9165 19.9439 30.7369L19.3316 30.1549L21.5659 28.2989L22.0493 28.775C23.0579 29.8245 23.855 31.0584 24.397 32.4093C24.7036 33.129 24.9917 33.858 25.2652 34.587C25.6423 35.6603 26.0775 36.7123 26.5689 37.7384C27.4073 39.6446 28.8341 41.2324 30.6402 42.2691C31.3609 42.628 32.1585 42.8051 32.9634 42.7852C35.4552 42.6847 37.8059 41.6017 39.5015 39.773C39.6354 39.6267 39.7056 39.4331 39.6968 39.235C39.688 39.0368 39.6009 38.8503 39.4546 38.7164C39.3047 38.5836 39.1087 38.5148 38.9087 38.525C38.8104 38.5301 38.7142 38.5549 38.6256 38.5978C38.5371 38.6407 38.458 38.701 38.3931 38.775C36.7066 40.6563 33.3247 41.9781 31.3159 40.9371C29.8005 40.0403 28.607 38.6877 27.9058 37.0723C27.4644 36.1593 27.1021 35.2393 26.6607 34.0479C26.3287 33.1602 26.0435 32.4493 25.7632 31.8131C25.1729 30.3652 24.3293 29.0342 23.272 27.8824L22.7242 27.3101L23.3257 26.7945C24.0923 26.1358 24.8599 25.4512 25.6216 24.7706L26.8072 23.7164C27.562 23.0391 28.1304 22.5304 28.4995 22.2213C28.9351 21.8258 29.3638 21.4273 29.7915 21.0137L30.1411 20.6768L31.3189 21.1383C35.3062 22.6475 40.8628 24.8375 43.0034 26.398C46.022 28.6143 46.5757 33.3438 44.2954 37.4019Z" fill="#323232"/>
<path d="M32.9634 48.0022C27.9292 48.0022 23.4658 44.4368 22.1792 41.863C21.5272 40.4321 21.0768 38.9177 20.8408 37.363C20.7192 36.7444 20.5835 36.1262 20.4331 35.5208C20.1067 34.0807 19.3042 32.7929 18.1553 31.8655L18.0073 31.7532L17.8574 31.8621C17.0432 32.4937 16.1579 33.0281 15.2197 33.4543C11.2378 35.1077 7.16502 34.8552 4.05371 32.7566C2.93479 32.0595 2.00445 31.0979 1.34464 29.9566C0.684824 28.8153 0.315785 27.5292 0.27002 26.2117C0.345153 24.0364 0.673709 21.8773 1.24902 19.7781C1.49685 18.8998 1.66051 17.9999 1.73779 17.0906C1.73779 10.2019 2.09863 5.11108 6.76709 2.33081C11.3569 -0.403569 15.8301 0.650637 20.1562 1.6692C20.896 1.85035 21.6313 2.01539 22.3867 2.18433C23.2485 2.32322 24.1186 2.4051 24.9912 2.42944C27.2382 2.42583 29.4609 2.89445 31.5151 3.80493C32.6461 4.37954 33.6163 5.22659 34.3382 6.26969C35.0601 7.31279 35.511 8.51916 35.6504 9.78004C35.9834 12.6926 34.8267 15.886 32.3047 19.0154L32.0898 19.2825L32.4102 19.4055C35.6519 20.6511 41.6822 22.968 44.1822 24.7942C48.0162 27.593 48.8072 33.4382 46.023 38.3899L45.6587 39.0569C43.6802 42.6209 40.6929 48.0022 32.9634 48.0022ZM18.021 30.509L18.7593 31.0686C20.0896 32.1337 21.0212 33.6168 21.4033 35.2776C21.5581 35.9007 21.6977 36.5354 21.8222 37.1702C22.0434 38.6353 22.4641 40.0633 23.0727 41.4143C24.2446 43.7581 28.3325 47.0022 32.9633 47.0022C40.1044 47.0022 42.9203 41.9304 44.7827 38.5745L45.1489 37.9051C47.687 33.3894 47.0171 28.1028 43.5923 25.6023C41.1987 23.8538 35.2499 21.5676 32.0536 20.3396L30.4502 19.7239L31.5258 18.388C33.8764 15.4715 34.9589 12.5344 34.6572 9.89479C34.5354 8.797 34.1424 7.74676 33.5136 6.8387C32.8848 5.93064 32.04 5.1933 31.0552 4.69313C29.1253 3.85301 27.0423 3.42223 24.9375 3.428C24.014 3.40175 23.0932 3.31317 22.1816 3.16286C21.4067 2.99002 20.665 2.82301 19.9229 2.64186C15.794 1.66921 11.521 0.662861 7.27884 3.1902C3.06351 5.70046 2.73785 10.5349 2.73785 17.0906C2.66514 18.0742 2.4932 19.0479 2.22467 19.9968C1.66715 22.0267 1.34681 24.1144 1.27008 26.218C1.31747 27.3708 1.64715 28.4943 2.23016 29.4899C2.81317 30.4854 3.63168 31.3227 4.61383 31.928C7.44049 33.8362 11.1715 34.054 14.8438 32.5276C15.706 32.1295 16.5202 31.6346 17.2706 31.0525L18.021 30.509ZM32.9634 46.507C28.5904 46.507 24.604 43.3718 23.52 41.2043C22.9243 39.8822 22.5146 38.484 22.3027 37.0495C22.1685 36.3967 22.0405 35.7707 21.8843 35.1599C21.5151 33.62 20.7237 32.2137 19.5991 31.0989L18.5791 30.1291L21.5942 27.6247L22.4004 28.4182C23.4545 29.5126 24.288 30.7997 24.8555 32.2092C25.1665 32.9392 25.4575 33.675 25.7334 34.4109C26.1048 35.4686 26.5334 36.5055 27.0171 37.5168C27.809 39.3262 29.1583 40.8353 30.8682 41.824C31.5186 42.1458 32.2379 42.3041 32.9634 42.2849C35.3133 42.1887 37.5297 41.1661 39.1279 39.4407C39.1506 39.4169 39.1684 39.3889 39.1802 39.3582C39.1921 39.3276 39.1977 39.2949 39.1969 39.2621C39.1961 39.2292 39.1888 39.1969 39.1755 39.1668C39.1621 39.1368 39.143 39.1097 39.1191 39.0871C39.0662 39.0426 38.9982 39.0201 38.9292 39.0241C38.8984 39.0263 38.8684 39.0345 38.8408 39.0483C38.8132 39.0621 38.7887 39.0813 38.7686 39.1047C36.9551 41.1286 33.3579 42.5588 31.0859 41.3806C29.4758 40.4361 28.206 39.0061 27.4585 37.2956C27.0029 36.3527 26.6362 35.4211 26.1919 34.2214C25.8618 33.3385 25.5801 32.6369 25.3057 32.0144C24.7384 30.6201 23.9276 29.3379 22.9111 28.2277L21.9976 27.2741L23.0005 26.4147C23.7642 25.7585 24.5293 25.0759 25.2886 24.3972L26.4751 23.3425C27.2339 22.6613 27.8066 22.1491 28.1787 21.8376C28.5952 21.4587 29.02 21.0637 29.4438 20.654L30.0249 20.0939L31.5015 20.6726C35.5137 22.1911 41.1089 24.3977 43.2983 25.9938C46.52 28.3591 47.1352 33.3684 44.731 37.6467L44.358 38.3171C42.4546 41.7722 39.8462 46.507 32.9634 46.507ZM20.084 30.1799L20.2881 30.3742C21.5486 31.6178 22.4368 33.1887 22.8525 34.9099C23.0132 35.5388 23.145 36.1799 23.2759 36.8186C23.4744 38.1771 23.8575 39.5022 24.4146 40.757C25.3853 42.6984 28.9883 45.507 32.9634 45.507C39.2554 45.507 41.6987 41.0715 43.4839 37.8327L43.8599 37.1564C46.0161 33.3186 45.521 28.8664 42.7076 26.8004C40.6177 25.277 35.106 23.1061 31.1416 21.6056L30.2574 21.2589L30.1387 21.3732C29.7076 21.7902 29.2749 22.1921 28.8355 22.591C28.4541 22.9108 27.8902 23.4162 27.1411 24.088L25.9536 25.1437C25.1905 25.8258 24.4204 26.5124 23.6514 27.1735L23.4507 27.3454L23.6333 27.5363C24.7319 28.7312 25.6087 30.1124 26.2227 31.6149C26.503 32.2516 26.7915 32.9699 27.1289 33.8722C27.5639 35.0461 27.9204 35.9533 28.3559 36.8542C29.011 38.3719 30.1272 39.645 31.5464 40.4928C33.3271 41.4176 36.4907 40.1486 38.021 38.4406C38.1294 38.3175 38.2613 38.2174 38.4089 38.1462C38.5566 38.0749 38.7171 38.0339 38.8808 38.0256C39.213 38.0102 39.5382 38.1241 39.7881 38.3435C40.0326 38.5664 40.1789 38.8772 40.1949 39.2077C40.2108 39.5383 40.0951 39.8617 39.873 40.1071C38.0802 42.0377 35.596 43.1802 32.9634 43.2849C32.0784 43.3053 31.2018 43.1088 30.4102 42.7126C28.5093 41.6284 27.0062 39.9632 26.1216 37.9616C25.6217 36.9187 25.179 35.8494 24.7954 34.7585C24.5259 34.0402 24.2407 33.318 23.937 32.6047C23.4205 31.3141 22.6606 30.135 21.6987 29.1315L21.5376 28.9723L20.084 30.1799ZM10.063 33.0359C8.22305 33.0549 6.41909 32.526 4.88083 31.5163C3.97183 30.9497 3.21362 30.1713 2.67102 29.2478C2.12842 28.3242 1.81758 27.283 1.76511 26.2131C1.83643 24.2044 2.13774 22.2104 2.66312 20.2703L2.68997 20.158C2.97627 19.157 3.15824 18.129 3.23297 17.0906C3.23297 8.52756 4.15485 5.62915 7.52252 3.60522C9.24312 2.58387 11.2117 2.05595 13.2125 2.07933C15.4237 2.17391 17.6168 2.52123 19.7491 3.11449C20.5552 3.30736 21.3013 3.48363 22.0479 3.62963C22.9662 3.79683 23.8957 3.89477 24.8287 3.92263C26.8904 3.90062 28.9335 4.31428 30.8243 5.13651C31.7415 5.59321 32.5284 6.27445 33.1116 7.11689C33.6949 7.95933 34.0556 8.93559 34.1602 9.95486C34.5674 13.47 32.2628 17.6653 27.837 21.4651C27.4991 21.7625 26.9678 22.24 26.318 22.8235L25.8658 23.2283C21.6007 27.0301 16.8668 31.1624 14.6676 32.0803L14.6656 32.0813C13.2087 32.6977 11.6448 33.022 10.063 33.0359ZM13.2124 3.07933C11.3917 3.05706 9.60005 3.53632 8.03366 4.46459C5.05075 6.25759 4.23288 8.97191 4.23288 17.0906C4.16166 18.2076 3.97045 19.3138 3.66257 20.3899L3.6362 20.5003C3.12964 22.3679 2.83739 24.2872 2.76511 26.221C2.8185 27.1258 3.08958 28.0043 3.55527 28.7819C4.02095 29.5594 4.66747 30.2131 5.43991 30.6873C6.76301 31.4833 8.2613 31.9425 9.80325 32.0244C11.3452 32.1063 12.8837 31.8084 14.2837 31.157C16.3403 30.2976 20.9966 26.2288 25.2002 22.4822L25.6494 22.0799C26.3027 21.4929 26.8364 21.0134 27.1811 20.7102C31.355 17.1267 33.5351 13.2498 33.167 10.0696C33.0787 9.21396 32.7756 8.3945 32.2859 7.68733C31.7962 6.98017 31.1356 6.40824 30.3657 6.02467C28.5981 5.27429 26.6941 4.89855 24.7739 4.92117C23.7913 4.8916 22.8124 4.7873 21.8457 4.60916C21.0962 4.46216 20.3364 4.28299 19.5229 4.08865C17.4643 3.51503 15.3472 3.17642 13.2124 3.07933Z" fill="#323232"/>
<path d="M25.5609 18.8092C28.9905 15.8697 30.9583 12.6329 30.6907 10.3654C30.6811 10.2669 30.6518 10.1713 30.6045 10.0844C30.5573 9.99744 30.493 9.92089 30.4156 9.85926C30.3382 9.79764 30.2491 9.75221 30.1538 9.72566C30.0585 9.69911 29.9588 9.69199 29.8607 9.70471C29.6631 9.72943 29.4831 9.83093 29.3597 9.98727C29.2364 10.1436 29.1795 10.3422 29.2015 10.5401C29.3616 11.8639 28.2493 14.5338 24.5872 17.6754C24.1927 18.0113 23.6009 18.5455 22.8646 19.2086C17.4222 24.0831 13.848 26.9972 12.7532 27.4562C10.6107 28.3497 8.38801 28.1652 7.21613 26.9952C7.06344 26.8487 6.93578 26.6781 6.8382 26.4904L6.75317 26.3234L6.75711 26.1359C6.85255 24.5213 7.11335 22.9208 7.53543 21.3595C7.92887 19.9679 8.1602 18.5356 8.22485 17.0909C8.22485 9.56798 8.96219 8.56651 10.0862 7.89708C10.2286 7.81386 10.3395 7.68579 10.4014 7.53288C10.4633 7.37998 10.4728 7.21088 10.4283 7.05202C10.3839 6.89316 10.2881 6.75349 10.1559 6.65487C10.0237 6.55625 9.86247 6.50422 9.69754 6.50694C9.56052 6.50686 9.42599 6.54347 9.30789 6.61294C7.55789 7.66274 6.72974 9.04018 6.72974 17.0909C6.66536 18.4185 6.4471 19.7341 6.07935 21.0113C5.61232 22.7203 5.33814 24.4762 5.26196 26.2462C5.32583 26.9381 5.64466 27.5815 6.15649 28.0514C7.21793 29.0446 8.62929 29.5774 10.0823 29.5333C11.2065 29.5124 12.3163 29.2766 13.3518 28.8385C14.6604 28.2613 18.0882 25.4864 23.8079 20.3658C24.1438 20.0699 24.4456 19.7985 24.7131 19.5587C25.054 19.2521 25.3411 18.9952 25.5609 18.8092Z" fill="#323232"/>
<path d="M10.0825 30.0331C8.49572 30.0774 6.95606 29.4909 5.80078 28.4023C5.19636 27.8393 4.82565 27.0696 4.76221 26.246C4.83677 24.4431 5.11407 22.6543 5.58887 20.9135C5.9484 19.668 6.16352 18.3854 6.22998 17.0907C6.22998 9.26848 6.96924 7.43302 9.05078 6.18399C9.3377 6.02292 9.67503 5.97664 9.99472 6.05448C10.3144 6.13232 10.5927 6.32849 10.7734 6.60343C10.9434 6.88957 10.9935 7.23129 10.9126 7.55415C10.8318 7.877 10.6266 8.15482 10.3418 8.32707C9.39551 8.89055 8.7251 9.84907 8.7251 17.0907C8.6607 18.5744 8.42475 20.0456 8.02197 21.475C7.60923 23.002 7.35303 24.567 7.25732 26.1459L7.25586 26.2084L7.28418 26.2636C7.35808 26.4043 7.45458 26.532 7.56982 26.6415C8.59961 27.6694 10.606 27.811 12.561 26.9945C13.0474 26.7904 14.9937 25.5868 22.5312 18.8358L22.6562 18.723C23.3389 18.1088 23.8892 17.6132 24.2632 17.2943C28.019 14.0726 28.8227 11.5702 28.7051 10.6C28.6852 10.4365 28.6978 10.2707 28.7422 10.1121C28.7866 9.95346 28.8619 9.80519 28.9637 9.67578C29.0656 9.54638 29.1921 9.43838 29.3359 9.35801C29.4796 9.27764 29.6379 9.22648 29.8015 9.20747C29.9651 9.18845 30.1308 9.20196 30.2892 9.24722C30.4475 9.29247 30.5954 9.36858 30.7242 9.47117C30.8531 9.57376 30.9604 9.70081 31.04 9.84501C31.1196 9.98921 31.1699 10.1477 31.188 10.3114C31.4741 12.7372 29.4429 16.1405 25.8862 19.1889L25.8842 19.1908C25.6674 19.3739 25.3842 19.6278 25.0478 19.9301L24.1386 20.7406C18.3017 25.9662 14.9374 28.6854 13.5536 29.2958C12.4544 29.7614 11.2761 30.0117 10.0825 30.0331ZM9.69775 7.00677C9.64983 7.00662 9.60275 7.01944 9.56152 7.04388C8.11719 7.91009 7.22998 8.86028 7.22998 17.0907C7.16715 18.4583 6.94411 19.8138 6.56543 21.1293C6.10828 22.8011 5.83888 24.5185 5.76221 26.2499C5.83002 26.8083 6.09681 27.3235 6.51367 27.7011C7.48098 28.5985 8.76376 29.0773 10.0825 29.0331C11.1428 29.012 12.1892 28.7885 13.1655 28.3744C14.3994 27.83 17.873 25.0077 23.4746 19.9931L24.3799 19.1859C24.7236 18.8768 25.0142 18.6171 25.2368 18.4286C28.4927 15.6376 30.439 12.4955 30.1943 10.4237C30.1918 10.3899 30.1823 10.357 30.1663 10.3271C30.1503 10.2972 30.1282 10.271 30.1015 10.2501C30.0748 10.2292 30.044 10.2142 30.0112 10.2059C29.9783 10.1976 29.9441 10.1963 29.9106 10.202C29.8454 10.2127 29.7869 10.2482 29.7474 10.3011C29.7078 10.354 29.6904 10.4202 29.6987 10.4857C29.8818 11.9994 28.7212 14.7875 24.9131 18.0546C24.5425 18.3705 23.999 18.8598 23.3257 19.4662L23.1992 19.58C19.3315 23.0443 14.4141 27.3016 12.9468 27.9169C10.6196 28.8881 8.17478 28.6596 6.86328 27.349C6.67368 27.1656 6.51505 26.9528 6.39355 26.7186L6.25098 26.4379L6.25732 26.1254C6.35254 24.4767 6.6176 22.8422 7.04831 21.2479C7.43329 19.8929 7.66038 18.4979 7.72507 17.0907C7.72507 9.28456 8.52048 8.24744 9.83054 7.46717C9.88784 7.43192 9.92895 7.37551 9.94495 7.31016C9.96094 7.24481 9.95054 7.17579 9.91599 7.11806C9.89152 7.08304 9.85883 7.05457 9.82077 7.03516C9.78271 7.01575 9.74047 7.00601 9.69775 7.00677Z" fill="#323232"/>
</svg>
