<svg width="16" height="16" viewBox="0 0 16 16" fill="none" xmlns="http://www.w3.org/2000/svg">
<path d="M14.6496 7.42763C15.3229 8.60594 17.1746 11.8884 14.9021 14.3292C14.1446 15.1708 13.0505 15.5075 12.0405 15.5075C10.3572 15.5075 8.67387 14.6658 8.16888 14.4133C7.74805 14.1609 7.24307 13.9084 6.82224 13.5717C6.31725 13.4034 1.85649 12.0567 0.762343 9.95259C0.678177 9.86842 0.678177 9.70009 0.762343 9.61592C0.762343 9.53176 0.930663 9.36343 1.01483 9.36343C1.51982 9.11093 2.10899 8.9426 2.61398 8.77427C1.43566 6.67014 0.762343 4.566 0.762343 2.79853C0.762343 1.36772 1.85649 0.273573 3.2873 0.273573H3.37146C5.13893 0.273573 7.07474 0.778565 8.92638 1.78855C9.09471 1.36772 9.17887 0.946896 9.43136 0.526069C9.51553 0.441904 9.59969 0.357739 9.68386 0.273573C9.76803 0.189408 9.93636 0.189408 10.0205 0.273573C12.293 1.28356 13.5555 5.49182 13.6396 5.82849C13.7238 5.99682 13.808 6.08098 13.8921 6.24931C14.0605 6.58597 14.313 6.83847 14.4813 7.17513C14.4813 7.17513 14.5655 7.34346 14.6496 7.42763ZM14.9021 12.3934C15.4071 10.7101 14.313 8.9426 13.808 7.93262C13.7238 7.76429 13.6396 7.68012 13.6396 7.59596C13.4713 7.34346 13.303 7.0068 13.1346 6.7543C13.0505 6.58597 12.9663 6.41764 12.798 6.33348C12.7138 6.24931 12.7138 6.16515 12.7138 6.16515C12.3772 5.15516 11.3672 2.46187 10.0205 1.45189C8.75805 4.65017 9.3472 6.83847 10.6938 9.61592V9.70009C12.1247 10.2892 13.5555 11.2151 14.9021 12.3934ZM14.2288 13.6559C14.3971 13.4875 14.4813 13.4034 14.5655 13.235C10.1047 9.44759 5.81226 8.35345 1.94065 9.95259C3.0348 11.2151 5.81226 12.225 6.99057 12.6459C7.07474 12.6459 7.15891 12.6459 7.24307 12.73C7.6639 13.0667 8.16888 13.4034 8.58971 13.6559C9.01053 13.8242 12.4613 15.5917 14.2288 13.6559ZM9.43136 9.11093C9.17887 8.43761 8.92638 7.84845 8.75805 7.2593L7.74805 8.26928C7.66389 8.35345 7.49556 8.43761 7.4114 8.43761C7.32723 8.43761 7.15891 8.35345 7.07474 8.26928C6.90641 8.10095 6.90641 7.76429 7.07474 7.59596L8.50555 6.16515C8.42138 5.74432 8.42138 5.23933 8.42138 4.73434L6.31725 6.7543C6.23308 6.83847 6.06476 6.92263 5.98059 6.92263C5.89643 6.92263 5.72809 6.83847 5.64392 6.7543C5.47559 6.58597 5.47559 6.24931 5.64392 6.08098L8.00055 3.72435C8.08472 3.64019 8.25305 3.55602 8.42138 3.64019C8.42138 3.38769 8.50554 3.05103 8.58971 2.71437C6.82224 1.70438 4.9706 1.19939 3.20313 1.19939C2.27731 1.19939 1.604 1.87271 1.604 2.79853C1.604 4.48184 2.27731 6.50181 3.53979 8.52178C3.70812 8.52178 3.96063 8.43761 4.12896 8.43761C2.78231 6.33348 2.10898 4.56601 2.10898 3.13519C2.10898 2.8827 2.27732 2.6302 2.61398 2.6302C2.86647 2.6302 3.11896 2.8827 3.11896 3.13519C3.11896 4.56601 3.79229 6.24931 5.30727 8.35344C6.65391 8.26928 8.00055 8.52178 9.43136 9.11093ZM7.6639 11.2992C7.57973 11.2992 7.57973 11.2151 7.49557 11.2151C6.31725 11.0467 5.64392 10.6259 4.38144 9.86842C4.12895 9.70009 3.87646 9.78426 3.70813 10.0368C3.5398 10.2892 3.62396 10.5417 3.87646 10.7101C5.2231 11.5517 6.06475 12.0567 7.32723 12.225C9.43136 13.4034 10.9463 14.0767 12.2088 14.1609C12.4613 14.1609 12.6297 13.9925 12.7138 13.74C12.7138 13.4875 12.5455 13.235 12.293 13.235C11.1147 12.9825 9.68386 12.3934 7.6639 11.2992ZM10.778 5.32349C10.6938 5.071 10.4414 4.90267 10.1889 4.98683C9.93636 5.071 9.76802 5.32349 9.85219 5.57599C10.1047 6.83847 10.8622 8.60594 11.4513 9.1951C11.5355 9.27926 11.7038 9.36343 11.788 9.36343C11.8722 9.36343 12.0405 9.27926 12.1247 9.1951C12.293 9.02677 12.293 8.69011 12.1247 8.52178C11.7038 8.10095 11.0305 6.58597 10.778 5.32349ZM6.14892 2.71437L4.71811 4.14518C4.54978 4.31351 4.54978 4.65017 4.71811 4.8185C4.80228 4.90267 4.9706 4.98683 5.05477 4.98683C5.13893 4.98683 5.30727 4.90267 5.39144 4.8185L6.82224 3.38769C6.99057 3.21936 6.99057 2.8827 6.82224 2.71437C6.56975 2.54604 6.31725 2.54604 6.14892 2.71437ZM4.46561 2.04105L3.96061 2.54604C3.79228 2.71437 3.79228 3.05103 3.96061 3.21936C4.04478 3.30353 4.21312 3.38769 4.29728 3.38769C4.38145 3.38769 4.54977 3.30353 4.63394 3.21936L5.13894 2.71437C5.30727 2.54604 5.30727 2.20938 5.13894 2.04105C4.97061 1.78855 4.63394 1.78855 4.46561 2.04105Z" fill="#323232"/>
</svg>
