<svg width="51" height="51" viewBox="0 0 51 51" fill="none" xmlns="http://www.w3.org/2000/svg">
<path d="M49.8359 24.9497C49.9328 20.6858 47.7865 14.2152 43.1309 9.03175C41.0213 6.58273 38.4094 4.61631 35.4725 3.26601C32.5357 1.91572 29.3427 1.21317 26.1103 1.20605C25.9273 1.20605 25.7414 1.20794 25.5546 1.21218C19.2273 1.22076 13.1558 3.71045 8.64415 8.14648L8.63875 8.15173C8.40315 8.38491 8.17685 8.61663 7.96407 8.84492C3.85492 13.2344 1.50472 18.9825 1.3615 24.9935C1.36026 25.0134 1.36216 25.0322 1.36251 25.0522C1.36405 25.3062 1.36393 25.5606 1.3759 25.8122C1.81373 34.9999 12.6519 42.3774 14.7797 43.7395L14.8664 49.629C14.8692 49.8193 14.9468 50.0009 15.0824 50.1344C15.2181 50.268 15.4008 50.3429 15.5911 50.3428H36.1973C36.3876 50.3427 36.5701 50.2678 36.7056 50.1344C36.8412 50.0009 36.9189 49.8196 36.922 49.6294C36.9513 47.7786 36.9871 44.8246 36.9428 43.6499L38.1657 42.5997C44.099 37.5203 48.7849 33.5081 49.7615 26.0561C49.8007 25.7569 49.8224 25.4384 49.8343 25.11C49.8409 25.0568 49.8415 25.003 49.8359 24.9497ZM37.223 41.4989L35.9287 42.61H26.9567C26.765 42.6107 26.5814 42.6874 26.446 42.8232C26.3107 42.959 26.2347 43.143 26.2347 43.3347C26.2347 43.5264 26.3107 43.7104 26.446 43.8462C26.5814 43.982 26.765 44.0587 26.9567 44.0594H35.5069C35.5224 45.0334 35.5097 46.9847 35.4831 48.8934H16.3054L16.2342 44.0594H23.0757C23.2675 44.0587 23.4511 43.982 23.5864 43.8462C23.7217 43.7104 23.7977 43.5264 23.7977 43.3347C23.7977 43.143 23.7217 42.959 23.5864 42.8232C23.4511 42.6874 23.2675 42.6107 23.0757 42.61H15.7077C14.2904 41.7059 4.33761 35.0877 2.97399 27.0494L11.0893 35.6987C11.2208 35.8388 11.4026 35.921 11.5947 35.9271C11.7867 35.9332 11.9734 35.8627 12.1135 35.7312C12.2537 35.5997 12.3358 35.4179 12.3419 35.2258C12.348 35.0337 12.2776 34.8471 12.1461 34.7069L2.80614 24.7525C3.00686 19.2907 5.14368 14.0783 8.83458 10.0473L17.6793 35.4411C17.7104 35.5311 17.7591 35.6141 17.8223 35.6854C17.8856 35.7566 17.9622 35.8146 18.048 35.8562C18.1337 35.8977 18.2268 35.922 18.3219 35.9275C18.417 35.933 18.5122 35.9197 18.6022 35.8884C18.6922 35.8571 18.7751 35.8083 18.8461 35.7449C18.9172 35.6815 18.9751 35.6047 19.0165 35.5189C19.0578 35.4331 19.0819 35.3399 19.0872 35.2448C19.0925 35.1497 19.0791 35.0545 19.0475 34.9646L9.96502 8.88813C14.0082 5.06496 19.3159 2.86164 24.878 2.69744V35.8496C24.878 36.0418 24.9544 36.2262 25.0903 36.3621C25.2262 36.498 25.4105 36.5743 25.6027 36.5743C25.7949 36.5743 25.9792 36.498 26.1151 36.3621C26.251 36.2262 26.3274 36.0418 26.3274 35.8496V2.66664C29.1148 2.69437 31.8684 3.27976 34.426 4.38831C36.9837 5.49685 39.2935 7.10612 41.2195 9.12129L31.9097 35.6095C31.846 35.791 31.8569 35.9903 31.9402 36.1636C32.0235 36.3369 32.1722 36.4701 32.3536 36.5338C32.5351 36.5975 32.7344 36.5865 32.9077 36.5032C33.081 36.42 33.2142 36.2713 33.2779 36.0898L42.3326 10.3275C46.4924 15.1192 48.4427 20.9136 48.3922 24.7659L39.2678 34.7131C39.2035 34.7833 39.1536 34.8654 39.1211 34.9548C39.0885 35.0442 39.0738 35.1391 39.078 35.2342C39.0821 35.3293 39.1049 35.4226 39.145 35.5089C39.1852 35.5951 39.242 35.6726 39.3122 35.7369C39.3823 35.8012 39.4644 35.8511 39.5538 35.8837C39.6432 35.9163 39.7382 35.9309 39.8332 35.9268C39.9283 35.9227 40.0216 35.8999 40.1079 35.8597C40.1942 35.8195 40.2716 35.7627 40.336 35.6926L48.0876 27.242C46.8212 33.2753 42.7367 36.7788 37.223 41.4989Z" fill="#323232"/>
<path d="M36.1977 50.8432H15.5912C15.27 50.8419 14.962 50.7149 14.7331 50.4894C14.5043 50.2639 14.3727 49.9579 14.3666 49.6367L14.2836 44.0141C11.6479 42.2924 1.31195 34.9711 0.877375 25.8364C0.864685 25.5966 0.863707 25.3525 0.862727 25.1084C0.861727 25.041 0.860727 25.0058 0.862727 24.9692C0.995157 18.837 3.39468 12.9712 7.59808 8.50436C7.81586 8.27096 8.04567 8.0348 8.28753 7.79586C12.8945 3.27356 19.0868 0.731465 25.5424 0.712358C28.9413 0.626638 32.3166 1.29883 35.4233 2.68015C38.53 4.06146 41.2902 6.11722 43.5034 8.6982C48.3442 14.0874 50.4214 20.727 50.3374 24.9311C50.3418 25.0058 50.3402 25.0808 50.3325 25.1552C50.3217 25.4726 50.2983 25.8071 50.2573 26.1211C49.2553 33.7646 44.5053 37.8311 38.4907 42.9799L37.4497 43.8739C37.4839 45.2216 37.4477 48.0238 37.4223 49.6376C37.4156 49.9585 37.2838 50.2642 37.0551 50.4894C36.8263 50.7146 36.5187 50.8415 36.1977 50.8432ZM1.86267 25.1049C1.86367 25.3334 1.86466 25.5615 1.87536 25.787C2.30114 34.7216 12.9242 41.9584 15.0492 43.3183L15.2758 43.4633L15.3666 49.622C15.3677 49.6809 15.3918 49.737 15.4338 49.7783C15.4758 49.8197 15.5323 49.8429 15.5912 49.8432H36.1976C36.2567 49.8428 36.3132 49.8194 36.3552 49.7779C36.3972 49.7363 36.4212 49.68 36.4222 49.621C36.4496 47.9135 36.4877 44.8686 36.4427 43.6689L36.434 43.4281L37.8392 42.2206C43.6918 37.2108 48.3138 33.2543 49.265 25.9911C49.3021 25.7074 49.3236 25.4042 49.3343 25.0922L49.3295 25.0556L49.3363 24.9389C49.4271 20.9335 47.4291 14.5653 42.7592 9.36612C40.6953 6.97064 38.1406 5.0469 35.2681 3.72532C32.3956 2.40375 29.2726 1.71523 26.1107 1.70646C25.931 1.70646 25.7494 1.70792 25.5658 1.71231C19.3679 1.72648 13.4212 4.16327 8.99548 8.50231C8.75915 8.73571 8.53847 8.96231 8.33047 9.18591C4.31993 13.4902 2.01956 19.1111 1.86172 24.9921L1.36273 25.1068L1.86267 25.1049ZM35.9759 49.3935H15.8119L15.726 43.5595H23.0756C23.1352 43.5595 23.1923 43.5358 23.2344 43.4937C23.2765 43.4516 23.3002 43.3944 23.3002 43.3349C23.3002 43.2753 23.2765 43.2182 23.2344 43.1761C23.1923 43.1339 23.1352 43.1103 23.0756 43.1103H15.5619L15.4389 43.0317C14.2612 42.2802 3.89107 35.4487 2.48092 27.1332L2.20358 25.498L11.4536 35.3564C11.47 35.3831 11.4928 35.4053 11.5199 35.421C11.547 35.4367 11.5776 35.4455 11.6089 35.4466C11.6402 35.4477 11.6713 35.441 11.6994 35.4271C11.7275 35.4132 11.7518 35.3926 11.77 35.3671C11.7919 35.3472 11.8096 35.323 11.822 35.2961C11.8345 35.2692 11.8413 35.24 11.8422 35.2104C11.8438 35.1503 11.8217 35.0921 11.7807 35.0483L2.30416 24.9486L2.30615 24.748C2.50464 19.1626 4.68805 13.8311 8.46423 9.71087L9.02966 9.08831L18.1517 35.2768C18.1671 35.3208 18.1958 35.3589 18.2337 35.3859C18.2717 35.4129 18.3171 35.4275 18.3636 35.4277C18.514 35.3886 18.5511 35.332 18.5658 35.3002C18.5787 35.274 18.5862 35.2454 18.5879 35.2163C18.5896 35.1871 18.5854 35.1578 18.5756 35.1303L9.38708 8.74847L9.62048 8.5263C13.7551 4.62744 19.1737 2.37651 24.8539 2.19817L25.3783 2.17278V35.85C25.3783 36.0981 25.8275 36.0981 25.8275 35.85V2.16303L26.3314 2.16693C29.1837 2.19809 32.0011 2.79816 34.6186 3.93198C37.236 5.0658 39.6009 6.71057 41.5746 8.76993L41.7943 8.9921L32.3813 35.7758C32.3618 35.832 32.3654 35.8936 32.3912 35.9472C32.417 36.0008 32.4629 36.042 32.5189 36.0619C32.6703 36.0741 32.7699 36.0287 32.8061 35.9247L42.1459 9.35L42.7104 9.9999C47.3461 15.3402 48.9379 21.2953 48.892 24.7724L48.8891 24.9633L39.6361 35.0512C39.5962 35.0953 39.5752 35.1534 39.5778 35.2129C39.5803 35.2724 39.6062 35.3285 39.6498 35.369C39.6698 35.3922 39.6947 35.4106 39.7227 35.4227C39.7508 35.4349 39.7812 35.4405 39.8118 35.4392C39.8423 35.4379 39.8722 35.4296 39.8991 35.4151C39.926 35.4006 39.9493 35.3802 39.9672 35.3554L48.9506 25.5609L48.5766 27.3446C47.2748 33.5526 42.9828 37.2269 37.5492 41.8783L36.1147 43.1103H26.9564C26.8969 43.1103 26.8398 43.1339 26.7976 43.176C26.7555 43.2182 26.7318 43.2753 26.7318 43.3349C26.7318 43.3944 26.7555 43.4516 26.7976 43.4937C26.8398 43.5358 26.8969 43.5595 26.9564 43.5595H35.9994L36.0073 44.0517C36.0219 44.9447 36.0121 46.7572 35.9828 48.9003L35.9759 49.3935ZM16.7982 48.3935H34.9896C35.0092 46.8095 35.0179 45.4452 35.0121 44.5595H26.9564C26.6317 44.5595 26.3202 44.4305 26.0905 44.2008C25.8609 43.9711 25.7318 43.6597 25.7318 43.3349C25.7318 43.0101 25.8609 42.6986 26.0905 42.4689C26.3202 42.2393 26.6317 42.1103 26.9564 42.1103H35.7436L36.8979 41.1191C41.7504 36.9652 45.4145 33.8295 47.0541 29.1083L40.7045 36.0307C40.4802 36.2619 40.1759 36.3985 39.8541 36.4124C39.5323 36.4263 39.2174 36.3165 38.974 36.1054C38.7353 35.8855 38.5934 35.58 38.5795 35.2557C38.5656 34.9315 38.6808 34.6149 38.8998 34.3754L47.893 24.5707C47.8754 21.1635 46.2152 15.8915 42.5131 11.3212L33.7494 36.2558C33.6366 36.5582 33.4111 36.8052 33.1202 36.9451C32.8292 37.0849 32.4955 37.1066 32.1889 37.0058C31.8827 36.8978 31.6317 36.6729 31.491 36.3804C31.3502 36.0878 31.3311 35.7514 31.4379 35.4448L40.6429 9.25288C36.982 5.53863 32.0393 3.36481 26.8275 3.17671V35.8501C26.8275 36.1748 26.6985 36.4863 26.4688 36.716C26.2392 36.9456 25.9277 37.0747 25.6029 37.0747C25.2781 37.0747 24.9666 36.9456 24.737 36.716C24.5073 36.4863 24.3783 36.1748 24.3783 35.8501V3.22796C19.2341 3.50116 14.3443 5.55203 10.5443 9.03021L19.5199 34.8002C19.6266 35.1068 19.6072 35.4432 19.4661 35.7356C19.3249 36.0279 19.0734 36.2522 18.767 36.3593C18.4601 36.4614 18.1256 36.4399 17.8344 36.2993C17.5432 36.1587 17.3182 35.9101 17.2074 35.6064L8.64489 11.0234C5.4115 14.8167 3.53401 19.5792 3.30895 24.5585L12.5101 34.3647C12.6203 34.4821 12.7063 34.62 12.7631 34.7707C12.8199 34.9213 12.8464 35.0817 12.8412 35.2426C12.8359 35.4035 12.7989 35.5619 12.7324 35.7085C12.6659 35.8551 12.5711 35.9872 12.4535 36.0971C12.2123 36.3099 11.8989 36.4226 11.5775 36.412C11.256 36.4015 10.9507 36.2686 10.724 36.0405L3.93688 28.8071C6.25622 35.6386 14.389 41.159 15.8549 42.1103H23.0756C23.4004 42.1103 23.7118 42.2393 23.9415 42.4689C24.1712 42.6986 24.3002 43.0101 24.3002 43.3349C24.3002 43.6597 24.1712 43.9711 23.9415 44.2008C23.7118 44.4305 23.4004 44.5595 23.0756 44.5595H16.7416L16.7982 48.3935Z" fill="#323232"/>
</svg>
