<svg width="124" height="333" viewBox="0 0 124 333" fill="none" xmlns="http://www.w3.org/2000/svg">
<g opacity="0.4">
<rect y="48" width="124" height="5" fill="#848484"/>
<rect y="56" width="124" height="5" fill="#848484"/>
<rect y="64" width="124" height="5" fill="#848484"/>
<rect y="72" width="124" height="5" fill="#848484"/>
<rect y="80" width="124" height="5" fill="#848484"/>
<rect y="88" width="124" height="5" fill="#848484"/>
<rect y="96" width="124" height="5" fill="#848484"/>
<rect y="104" width="124" height="5" fill="#848484"/>
<rect width="124" height="5" fill="#848484"/>
<rect y="8" width="124" height="5" fill="#848484"/>
<rect y="16" width="124" height="5" fill="#848484"/>
<rect y="24" width="124" height="5" fill="#848484"/>
<rect y="32" width="124" height="5" fill="#848484"/>
<rect y="40" width="124" height="5" fill="#848484"/>
</g>
<g opacity="0.4">
<rect y="160" width="124" height="5" fill="#848484"/>
<rect y="168" width="124" height="5" fill="#848484"/>
<rect y="176" width="124" height="5" fill="#848484"/>
<rect y="184" width="124" height="5" fill="#848484"/>
<rect y="192" width="124" height="5" fill="#848484"/>
<rect y="200" width="124" height="5" fill="#848484"/>
<rect y="208" width="124" height="5" fill="#848484"/>
<rect y="216" width="124" height="5" fill="#848484"/>
<rect y="112" width="124" height="5" fill="#848484"/>
<rect y="120" width="124" height="5" fill="#848484"/>
<rect y="128" width="124" height="5" fill="#848484"/>
<rect y="136" width="124" height="5" fill="#848484"/>
<rect y="144" width="124" height="5" fill="#848484"/>
<rect y="152" width="124" height="5" fill="#848484"/>
</g>
<g opacity="0.4">
<rect y="272" width="124" height="5" fill="#848484"/>
<rect y="280" width="124" height="5" fill="#848484"/>
<rect y="288" width="124" height="5" fill="#848484"/>
<rect y="296" width="124" height="5" fill="#848484"/>
<rect y="304" width="124" height="5" fill="#848484"/>
<rect y="312" width="124" height="5" fill="#848484"/>
<rect y="320" width="124" height="5" fill="#848484"/>
<rect y="328" width="124" height="5" fill="#848484"/>
<rect y="224" width="124" height="5" fill="#848484"/>
<rect y="232" width="124" height="5" fill="#848484"/>
<rect y="240" width="124" height="5" fill="#848484"/>
<rect y="248" width="124" height="5" fill="#848484"/>
<rect y="256" width="124" height="5" fill="#848484"/>
<rect y="264" width="124" height="5" fill="#848484"/>
</g>
</svg>
