<svg width="126" height="310" viewBox="0 0 126 310" fill="none" xmlns="http://www.w3.org/2000/svg">
<g opacity="0.4">
<path fill-rule="evenodd" clip-rule="evenodd" d="M95.4672 84L106.979 96.6349L119.711 84.106L126 91.1156V96.9418L119.626 90.3212L106.804 102.938L95.4058 90.4272L83.5698 102.937L71.2334 90.3641L59.3085 102.968L47.4128 90.3948L35.4863 103L23.9745 90.3651L11.2498 102.886L0 91.3133V85.4795L11.3198 96.6863L24.149 84.0621L35.5477 96.5728L47.4128 84.0324L59.3085 96.6052L71.1753 84.0632L83.5117 96.6359L95.4672 84Z" fill="#848484"/>
<path fill-rule="evenodd" clip-rule="evenodd" d="M95.4672 71L106.979 83.6349L119.711 71.106L126 78.1156V83.9418L119.626 77.3212L106.804 89.9379L95.4058 77.4272L83.5698 89.9368L71.2334 77.3641L59.3085 89.9676L47.4128 77.3948L35.4863 90L23.9745 77.3651L11.2498 89.8864L0 78.3133V72.4795L11.3198 83.6863L24.149 71.0621L35.5477 83.5728L47.4128 71.0324L59.3085 83.6052L71.1753 71.0632L83.5117 83.6359L95.4672 71Z" fill="#848484"/>
<path fill-rule="evenodd" clip-rule="evenodd" d="M95.4672 58L106.979 70.6349L119.711 58.106L126 65.1156V70.9418L119.626 64.3212L106.804 76.9379L95.4058 64.4272L83.5698 76.9368L71.2334 64.3641L59.3085 76.9676L47.4128 64.3948L35.4863 77L23.9745 64.3651L11.2498 76.8864L0 65.3133V59.4795L11.3198 70.6863L24.149 58.0621L35.5477 70.5728L47.4128 58.0324L59.3085 70.6052L71.1753 58.0632L83.5117 70.6359L95.4672 58Z" fill="#848484"/>
<path fill-rule="evenodd" clip-rule="evenodd" d="M95.4672 44L106.979 57.2999L119.711 44.1116L126 51.4901V57.6229L119.626 50.6539L106.804 63.9346L95.4058 50.7655L83.5698 63.9335L71.2334 50.699L59.3085 63.9659L47.4128 50.7314L35.4863 64L23.9745 50.7001L11.2498 63.8805L0 51.6982V45.5574L11.3198 57.354L24.149 44.0654L35.5477 57.2345L47.4128 44.0341L59.3085 57.2686L71.1753 44.0665L83.5117 57.301L95.4672 44Z" fill="#848484"/>
<path fill-rule="evenodd" clip-rule="evenodd" d="M95.4672 31L106.979 43.6349L119.711 31.106L126 38.1156V43.9418L119.626 37.3212L106.804 49.9379L95.4058 37.4272L83.5698 49.9368L71.2334 37.3641L59.3085 49.9676L47.4128 37.3948L35.4863 50L23.9745 37.3651L11.2498 49.8864L0 38.3133V32.4795L11.3198 43.6863L24.149 31.0621L35.5477 43.5728L47.4128 31.0324L59.3085 43.6052L71.1753 31.0632L83.5117 43.6359L95.4672 31Z" fill="#848484"/>
<path fill-rule="evenodd" clip-rule="evenodd" d="M95.4672 18L106.979 30.6349L119.711 18.106L126 25.1156V30.9418L119.626 24.3212L106.804 36.9379L95.4058 24.4272L83.5698 36.9368L71.2334 24.3641L59.3085 36.9676L47.4128 24.3948L35.4863 37L23.9745 24.3651L11.2498 36.8864L0 25.3133V19.4795L11.3198 30.6863L24.149 18.0621L35.5477 30.5728L47.4128 18.0324L59.3085 30.6052L71.1753 18.0632L83.5117 30.6359L95.4672 18Z" fill="#848484"/>
<path fill-rule="evenodd" clip-rule="evenodd" d="M95.4672 5L106.979 17.6349L119.711 5.10601L126 12.1156V17.9418L119.626 11.3212L106.804 23.9379L95.4058 11.4272L83.5698 23.9368L71.2334 11.3641L59.3085 23.9676L47.4128 11.3948L35.4863 24L23.9745 11.3651L11.2498 23.8864L0 12.3133V6.47951L11.3198 17.6863L24.149 5.06212L35.5477 17.5728L47.4128 5.03243L59.3085 17.6052L71.1753 5.06315L83.5117 17.6359L95.4672 5Z" fill="#848484"/>
<path d="M23.5 98L29.1292 104H17.8708L23.5 98Z" fill="#848484"/>
<path d="M0 98L7 104H0V98Z" fill="#848484"/>
<path d="M47.5 98L53.1292 104H41.8708L47.5 98Z" fill="#848484"/>
<path d="M71.5 98L77.1292 104H65.8708L71.5 98Z" fill="#848484"/>
<path d="M94.5 98L100.129 104H88.8708L94.5 98Z" fill="#848484"/>
<path d="M119.5 98L125.129 104H113.871L119.5 98Z" fill="#848484"/>
<path d="M105.5 8L99.8708 2L111.129 2L105.5 8Z" fill="#848484"/>
<path d="M126 8L120 2L126 2L126 8Z" fill="#848484"/>
<path d="M81.5 8L75.8708 2L87.1292 2L81.5 8Z" fill="#848484"/>
<path d="M58 8L51.9378 2L64.0622 2L58 8Z" fill="#848484"/>
<path d="M34.5 8L28.8708 2L40.1292 2L34.5 8Z" fill="#848484"/>
<path d="M9.5 8L3.87083 2L15.1292 2L9.5 8Z" fill="#848484"/>
<path fill-rule="evenodd" clip-rule="evenodd" d="M95.4672 124L106.979 111.365L119.711 123.894L126 116.884L126 111.058L119.626 117.679L106.804 105.062L95.4058 117.573L83.5698 105.063L71.2334 117.636L59.3085 105.032L47.4128 117.605L35.4863 105L23.9745 117.635L11.2498 105.114L-6.39345e-07 116.687L-1.29343e-07 122.52L11.3198 111.314L24.149 123.938L35.5477 111.427L47.4128 123.968L59.3085 111.395L71.1753 123.937L83.5116 111.364L95.4672 124Z" fill="#848484"/>
<path fill-rule="evenodd" clip-rule="evenodd" d="M95.4672 137L106.979 124.365L119.711 136.894L126 129.884L126 124.058L119.626 130.679L106.804 118.062L95.4058 130.573L83.5698 118.063L71.2334 130.636L59.3085 118.032L47.4128 130.605L35.4863 118L23.9745 130.635L11.2498 118.114L-6.39345e-07 129.687L-1.29343e-07 135.52L11.3198 124.314L24.149 136.938L35.5477 124.427L47.4128 136.968L59.3085 124.395L71.1753 136.937L83.5116 124.364L95.4672 137Z" fill="#848484"/>
<path fill-rule="evenodd" clip-rule="evenodd" d="M95.4672 150L106.979 137.365L119.711 149.894L126 142.884L126 137.058L119.626 143.679L106.804 131.062L95.4058 143.573L83.5698 131.063L71.2334 143.636L59.3085 131.032L47.4128 143.605L35.4863 131L23.9745 143.635L11.2498 131.114L-6.39345e-07 142.687L-1.29343e-07 148.52L11.3198 137.314L24.149 149.938L35.5477 137.427L47.4128 149.968L59.3085 137.395L71.1753 149.937L83.5116 137.364L95.4672 150Z" fill="#848484"/>
<path fill-rule="evenodd" clip-rule="evenodd" d="M95.4672 164L106.979 150.7L119.711 163.888L126 156.51L126 150.377L119.626 157.346L106.804 144.065L95.4058 157.234L83.5698 144.066L71.2334 157.301L59.3085 144.034L47.4128 157.269L35.4863 144L23.9745 157.3L11.2498 144.12L-6.72995e-07 156.302L-1.3615e-07 162.443L11.3198 150.646L24.149 163.935L35.5477 150.766L47.4128 163.966L59.3085 150.731L71.1753 163.934L83.5116 150.699L95.4672 164Z" fill="#848484"/>
<path fill-rule="evenodd" clip-rule="evenodd" d="M95.4672 177L106.979 164.365L119.711 176.894L126 169.884L126 164.058L119.626 170.679L106.804 158.062L95.4058 170.573L83.5698 158.063L71.2334 170.636L59.3085 158.032L47.4128 170.605L35.4863 158L23.9745 170.635L11.2498 158.114L-6.39345e-07 169.687L-1.29343e-07 175.52L11.3198 164.314L24.149 176.938L35.5477 164.427L47.4128 176.968L59.3085 164.395L71.1753 176.937L83.5116 164.364L95.4672 177Z" fill="#848484"/>
<path fill-rule="evenodd" clip-rule="evenodd" d="M95.4672 190L106.979 177.365L119.711 189.894L126 182.884L126 177.058L119.626 183.679L106.804 171.062L95.4058 183.573L83.5698 171.063L71.2334 183.636L59.3085 171.032L47.4128 183.605L35.4863 171L23.9745 183.635L11.2498 171.114L-6.39345e-07 182.687L-1.29343e-07 188.52L11.3198 177.314L24.149 189.938L35.5477 177.427L47.4128 189.968L59.3085 177.395L71.1753 189.937L83.5116 177.364L95.4672 190Z" fill="#848484"/>
<path fill-rule="evenodd" clip-rule="evenodd" d="M95.4672 203L106.979 190.365L119.711 202.894L126 195.884L126 190.058L119.626 196.679L106.804 184.062L95.4058 196.573L83.5698 184.063L71.2334 196.636L59.3085 184.032L47.4128 196.605L35.4863 184L23.9745 196.635L11.2498 184.114L-6.39345e-07 195.687L-1.29343e-07 201.52L11.3198 190.314L24.149 202.938L35.5477 190.427L47.4128 202.968L59.3085 190.395L71.1753 202.937L83.5116 190.364L95.4672 203Z" fill="#848484"/>
<path d="M23.5 110L29.1292 104L17.8708 104L23.5 110Z" fill="#848484"/>
<path d="M0 110L7 104L-5.24537e-07 104L0 110Z" fill="#848484"/>
<path d="M47.5 110L53.1292 104L41.8708 104L47.5 110Z" fill="#848484"/>
<path d="M71.5 110L77.1292 104L65.8708 104L71.5 110Z" fill="#848484"/>
<path d="M94.5 110L100.129 104L88.8708 104L94.5 110Z" fill="#848484"/>
<path d="M119.5 110L125.129 104L113.871 104L119.5 110Z" fill="#848484"/>
<path d="M105.5 200L99.8708 206L111.129 206L105.5 200Z" fill="#848484"/>
<path d="M126 200L120 206L126 206L126 200Z" fill="#848484"/>
<path d="M81.5 200L75.8708 206L87.1292 206L81.5 200Z" fill="#848484"/>
<path d="M58 200L51.9378 206L64.0622 206L58 200Z" fill="#848484"/>
<path d="M34.5 200L28.8708 206L40.1292 206L34.5 200Z" fill="#848484"/>
<path d="M9.5 200L3.87084 206L15.1292 206L9.5 200Z" fill="#848484"/>
<path fill-rule="evenodd" clip-rule="evenodd" d="M95.4672 288L106.979 300.635L119.711 288.106L126 295.116V300.942L119.626 294.321L106.804 306.938L95.4058 294.427L83.5698 306.937L71.2334 294.364L59.3085 306.968L47.4128 294.395L35.4863 307L23.9745 294.365L11.2498 306.886L0 295.313L0 289.48L11.3198 300.686L24.149 288.062L35.5477 300.573L47.4128 288.032L59.3085 300.605L71.1753 288.063L83.5117 300.636L95.4672 288Z" fill="#848484"/>
<path fill-rule="evenodd" clip-rule="evenodd" d="M95.4672 275L106.979 287.635L119.711 275.106L126 282.116V287.942L119.626 281.321L106.804 293.938L95.4058 281.427L83.5698 293.937L71.2334 281.364L59.3085 293.968L47.4128 281.395L35.4863 294L23.9745 281.365L11.2498 293.886L0 282.313L0 276.48L11.3198 287.686L24.149 275.062L35.5477 287.573L47.4128 275.032L59.3085 287.605L71.1753 275.063L83.5117 287.636L95.4672 275Z" fill="#848484"/>
<path fill-rule="evenodd" clip-rule="evenodd" d="M95.4672 262L106.979 274.635L119.711 262.106L126 269.116V274.942L119.626 268.321L106.804 280.938L95.4058 268.427L83.5698 280.937L71.2334 268.364L59.3085 280.968L47.4128 268.395L35.4863 281L23.9745 268.365L11.2498 280.886L0 269.313L0 263.48L11.3198 274.686L24.149 262.062L35.5477 274.573L47.4128 262.032L59.3085 274.605L71.1753 262.063L83.5117 274.636L95.4672 262Z" fill="#848484"/>
<path fill-rule="evenodd" clip-rule="evenodd" d="M95.4672 248L106.979 261.3L119.711 248.112L126 255.49V261.623L119.626 254.654L106.804 267.935L95.4058 254.766L83.5698 267.934L71.2334 254.699L59.3085 267.966L47.4128 254.731L35.4863 268L23.9745 254.7L11.2498 267.88L0 255.698L0 249.557L11.3198 261.354L24.149 248.065L35.5477 261.234L47.4128 248.034L59.3085 261.269L71.1753 248.066L83.5117 261.301L95.4672 248Z" fill="#848484"/>
<path fill-rule="evenodd" clip-rule="evenodd" d="M95.4672 235L106.979 247.635L119.711 235.106L126 242.116V247.942L119.626 241.321L106.804 253.938L95.4058 241.427L83.5698 253.937L71.2334 241.364L59.3085 253.968L47.4128 241.395L35.4863 254L23.9745 241.365L11.2498 253.886L0 242.313L0 236.48L11.3198 247.686L24.149 235.062L35.5477 247.573L47.4128 235.032L59.3085 247.605L71.1753 235.063L83.5117 247.636L95.4672 235Z" fill="#848484"/>
<path fill-rule="evenodd" clip-rule="evenodd" d="M95.4672 222L106.979 234.635L119.711 222.106L126 229.116V234.942L119.626 228.321L106.804 240.938L95.4058 228.427L83.5698 240.937L71.2334 228.364L59.3085 240.968L47.4128 228.395L35.4863 241L23.9745 228.365L11.2498 240.886L0 229.313L0 223.48L11.3198 234.686L24.149 222.062L35.5477 234.573L47.4128 222.032L59.3085 234.605L71.1753 222.063L83.5117 234.636L95.4672 222Z" fill="#848484"/>
<path fill-rule="evenodd" clip-rule="evenodd" d="M95.4672 209L106.979 221.635L119.711 209.106L126 216.116V221.942L119.626 215.321L106.804 227.938L95.4058 215.427L83.5698 227.937L71.2334 215.364L59.3085 227.968L47.4128 215.395L35.4863 228L23.9745 215.365L11.2498 227.886L0 216.313L0 210.48L11.3198 221.686L24.149 209.062L35.5477 221.573L47.4128 209.032L59.3085 221.605L71.1753 209.063L83.5117 221.636L95.4672 209Z" fill="#848484"/>
<path d="M23.5 302L29.1292 308H17.8708L23.5 302Z" fill="#848484"/>
<path d="M0 302L7 308H0L0 302Z" fill="#848484"/>
<path d="M47.5 302L53.1292 308H41.8708L47.5 302Z" fill="#848484"/>
<path d="M71.5 302L77.1292 308H65.8708L71.5 302Z" fill="#848484"/>
<path d="M94.5 302L100.129 308H88.8708L94.5 302Z" fill="#848484"/>
<path d="M119.5 302L125.129 308H113.871L119.5 302Z" fill="#848484"/>
<path d="M105.5 212L99.8708 206L111.129 206L105.5 212Z" fill="#848484"/>
<path d="M126 212L120 206L126 206L126 212Z" fill="#848484"/>
<path d="M81.5 212L75.8708 206L87.1292 206L81.5 212Z" fill="#848484"/>
<path d="M58 212L51.9378 206L64.0622 206L58 212Z" fill="#848484"/>
<path d="M34.5 212L28.8708 206L40.1292 206L34.5 212Z" fill="#848484"/>
<path d="M9.5 212L3.87083 206L15.1292 206L9.5 212Z" fill="#848484"/>
</g>
</svg>
