<svg width="14" height="9" viewBox="0 0 14 9" fill="none" xmlns="http://www.w3.org/2000/svg">
<path d="M7.40727 7.94758L13.381 1.67796C13.4807 1.57335 13.5364 1.43436 13.5364 1.28983C13.5364 1.1453 13.4807 1.00632 13.381 0.90171L13.3743 0.894959C13.3259 0.844069 13.2677 0.803547 13.2032 0.775857C13.1387 0.748167 13.0693 0.733887 12.9991 0.733887C12.9289 0.733887 12.8594 0.748167 12.7949 0.775857C12.7304 0.803547 12.6722 0.844069 12.6239 0.894959L6.99889 6.79896L1.37615 0.894958C1.3278 0.844068 1.26961 0.803546 1.20511 0.775856C1.14061 0.748165 1.07115 0.733886 1.00096 0.733886C0.930766 0.733886 0.861307 0.748165 0.796807 0.775856C0.732308 0.803546 0.674116 0.844068 0.62577 0.894958L0.61902 0.901708C0.519294 1.00632 0.463662 1.1453 0.463662 1.28983C0.463662 1.43436 0.519294 1.57335 0.61902 1.67796L6.59277 7.94758C6.6453 8.00272 6.70849 8.04662 6.77849 8.07661C6.8485 8.1066 6.92386 8.12207 7.00002 8.12207C7.07618 8.12207 7.15154 8.1066 7.22155 8.07661C7.29155 8.04662 7.35474 8.00272 7.40727 7.94758Z" fill="#313131"/>
</svg>
