<svg width="40" height="40" viewBox="0 0 40 40" fill="none" xmlns="http://www.w3.org/2000/svg">
<circle cx="20" cy="20" r="20" fill="#00BDF2"/>
<path d="M21.3727 25.9563C21.2893 25.8684 21.2425 25.7492 21.2425 25.625C21.2425 25.5008 21.2893 25.3817 21.3727 25.2938L25.9557 20.4688L13.9687 20.4688C13.8505 20.4688 13.7373 20.4194 13.6538 20.3315C13.5703 20.2436 13.5233 20.1243 13.5233 20C13.5233 19.8757 13.5703 19.7565 13.6538 19.6686C13.7373 19.5807 13.8505 19.5313 13.9687 19.5313L25.9557 19.5313L21.3727 14.7063C21.2941 14.6174 21.2512 14.4999 21.2533 14.3784C21.2553 14.257 21.302 14.1411 21.3836 14.0553C21.4652 13.9694 21.5753 13.9202 21.6907 13.918C21.806 13.9159 21.9177 13.961 22.0021 14.0438L27.3458 19.6688C27.4292 19.7567 27.4761 19.8758 27.4761 20C27.4761 20.1242 27.4292 20.2434 27.3458 20.3313L22.0021 25.9563C21.9186 26.0441 21.8054 26.0934 21.6874 26.0934C21.5694 26.0934 21.4562 26.0441 21.3727 25.9563Z" fill="#FAF5EF"/>
</svg>
