<svg width="15" height="14" viewBox="0 0 15 14" fill="none" xmlns="http://www.w3.org/2000/svg">
<path d="M6.62728 1.04372C6.71068 1.13161 6.75752 1.25075 6.75752 1.37497C6.75752 1.49919 6.71068 1.61833 6.62728 1.70622L2.04428 6.53122L14.0313 6.53123C14.1495 6.53123 14.2627 6.58061 14.3462 6.66852C14.4297 6.75643 14.4767 6.87565 14.4767 6.99998C14.4767 7.1243 14.4297 7.24352 14.3462 7.33143C14.2627 7.41934 14.1495 7.46873 14.0313 7.46873L2.04428 7.46872L6.62728 12.2937C6.70594 12.3826 6.74877 12.5001 6.74673 12.6216C6.7447 12.743 6.69796 12.8589 6.61637 12.9447C6.53478 13.0306 6.42471 13.0798 6.30934 13.082C6.19398 13.0841 6.08232 13.039 5.99791 12.9562L0.65416 7.33122C0.570767 7.24333 0.523927 7.12419 0.523927 6.99997C0.523927 6.87575 0.570767 6.75661 0.65416 6.66872L5.99791 1.04372C6.08141 0.955941 6.19459 0.906635 6.3126 0.906635C6.43061 0.906635 6.54379 0.955941 6.62728 1.04372Z" fill="#00BDF2"/>
</svg>
