<svg width="23" height="13" viewBox="0 0 23 13" fill="none" xmlns="http://www.w3.org/2000/svg">
<path d="M10.8434 0.751212L1.21905 10.8523C1.05838 11.0208 0.96875 11.2447 0.96875 11.4776C0.96875 11.7104 1.05838 11.9344 1.21905 12.1029L1.22992 12.1138C1.30781 12.1958 1.40157 12.261 1.50548 12.3057C1.6094 12.3503 1.7213 12.3733 1.83439 12.3733C1.94748 12.3733 2.05938 12.3503 2.1633 12.3057C2.26722 12.261 2.36097 12.1958 2.43886 12.1138L11.5014 2.60177L20.5602 12.1138C20.6381 12.1958 20.7319 12.261 20.8358 12.3057C20.9397 12.3503 21.0516 12.3733 21.1647 12.3733C21.2778 12.3733 21.3897 12.3503 21.4936 12.3057C21.5975 12.261 21.6913 12.1958 21.7692 12.1138L21.78 12.1029C21.9407 11.9344 22.0303 11.7104 22.0303 11.4776C22.0303 11.2447 21.9407 11.0208 21.78 10.8523L12.1557 0.751212C12.071 0.662377 11.9692 0.591655 11.8565 0.543333C11.7437 0.49501 11.6222 0.470093 11.4995 0.470093C11.3768 0.470093 11.2554 0.49501 11.1426 0.543333C11.0299 0.591655 10.9281 0.662377 10.8434 0.751212Z" fill="#00BDF2"/>
</svg>
