<svg width="11" height="10" viewBox="0 0 11 10" fill="none" xmlns="http://www.w3.org/2000/svg">
<path d="M6.18937 9.76505C6.12354 9.69473 6.08656 9.59942 6.08656 9.50005C6.08656 9.40067 6.12354 9.30536 6.18937 9.23505L9.80754 5.37505L0.34406 5.37504C0.25082 5.37504 0.161398 5.33554 0.0954673 5.26521C0.029537 5.19488 -0.00750277 5.0995 -0.00750277 5.00004C-0.00750276 4.90059 0.029537 4.80521 0.0954674 4.73488C0.161398 4.66455 0.25082 4.62504 0.34406 4.62504L9.80754 4.62505L6.18937 0.765045C6.12727 0.693958 6.09346 0.599934 6.09507 0.502784C6.09668 0.405633 6.13357 0.312941 6.19799 0.244234C6.2624 0.175528 6.3493 0.136172 6.44038 0.134458C6.53146 0.132744 6.6196 0.168805 6.68625 0.235045L10.905 4.73505C10.9708 4.80536 11.0078 4.90067 11.0078 5.00005C11.0078 5.09942 10.9708 5.19473 10.905 5.26505L6.68625 9.76505C6.62033 9.83527 6.53097 9.87472 6.43781 9.87472C6.34465 9.87472 6.25529 9.83527 6.18937 9.76505Z" fill="#FAF5EF"/>
</svg>
