<svg width="49" height="49" viewBox="0 0 49 49" fill="none" xmlns="http://www.w3.org/2000/svg">
<path d="M41.5882 28.6803C41.4464 28.5407 41.2553 28.4627 41.0563 28.4634C40.8573 28.464 40.6666 28.5432 40.5257 28.6837C40.4567 28.7527 40.4019 28.8346 40.3646 28.9247C40.3272 29.0149 40.308 29.1115 40.308 29.2091C40.308 29.3067 40.3272 29.4033 40.3646 29.4935C40.4019 29.5836 40.4567 29.6655 40.5257 29.7345C40.8848 30.093 41.1697 30.5187 41.3641 30.9874C41.5585 31.4561 41.6586 31.9585 41.6586 32.4659C41.6586 32.9733 41.5585 33.4758 41.3641 33.9445C41.1697 34.4132 40.8848 34.8389 40.5257 35.1974C31.681 44.0436 21.5257 44.0441 12.6615 35.1979C12.5951 35.126 12.5147 35.0685 12.4252 35.0289C12.3356 34.9893 12.239 34.9686 12.1411 34.9679C12.0432 34.9672 11.9463 34.9866 11.8562 35.0249C11.7662 35.0632 11.6849 35.1196 11.6175 35.1906C11.5474 35.2594 11.4915 35.3414 11.4531 35.4319C11.4148 35.5224 11.3947 35.6196 11.3941 35.7179C11.3934 35.8162 11.4122 35.9137 11.4494 36.0047C11.4866 36.0957 11.5414 36.1784 11.6107 36.2482C16.1683 40.8063 21.3548 43.2159 26.6087 43.2159C31.8519 43.2159 37.0335 40.8063 41.5921 36.2482C42.5928 35.2429 43.1543 33.8819 43.1536 32.4634C43.1529 31.045 42.59 29.6846 41.5882 28.6803Z" fill="#323232"/>
<path d="M26.6089 43.7161C21.2192 43.7161 15.9107 41.2561 11.2573 36.6019C11.1417 36.4872 11.05 36.3506 10.9877 36.2001C10.9253 36.0496 10.8935 35.8883 10.8941 35.7254C10.8932 35.4787 10.9658 35.2373 11.1028 35.0321C11.2397 34.8268 11.4347 34.667 11.6628 34.5731C11.8909 34.4792 12.1419 34.4553 12.3836 34.5046C12.6254 34.5539 12.8469 34.6741 13.0201 34.8499C21.6568 43.4666 31.5533 43.4647 40.1724 34.8441C40.4851 34.532 40.7331 34.1613 40.9024 33.7533C41.0716 33.3453 41.1587 32.9079 41.1587 32.4661C41.1587 32.0244 41.0716 31.587 40.9024 31.1789C40.7331 30.7709 40.4851 30.4003 40.1724 30.0882C40.0569 29.9728 39.9653 29.8358 39.9028 29.685C39.8403 29.5342 39.8081 29.3725 39.8081 29.2093C39.8081 29.0461 39.8403 28.8844 39.9028 28.7336C39.9653 28.5828 40.0569 28.4458 40.1724 28.3304C40.4069 28.0977 40.7235 27.9666 41.0538 27.9653C41.3841 27.9641 41.7017 28.0927 41.938 28.3236L41.9439 28.3289C43.0386 29.4271 43.6535 30.9144 43.6539 32.465C43.6543 34.0156 43.0401 35.5032 41.9459 36.6019C37.2915 41.2562 31.9878 43.7161 26.6089 43.7161ZM12.1362 35.4681C12.1061 35.4683 12.0763 35.4747 12.0487 35.487C12.0212 35.4993 11.9964 35.5171 11.9761 35.5394C11.9506 35.5633 11.9302 35.5921 11.9161 35.624C11.9021 35.656 11.8945 35.6905 11.8941 35.7254C11.8941 35.7568 11.9003 35.7879 11.9123 35.8169C11.9244 35.8459 11.9421 35.8722 11.9644 35.8943C16.4263 40.3572 21.4908 42.7161 26.6089 42.7161C31.7163 42.7161 36.7759 40.3572 41.2388 35.8948C42.1456 34.9835 42.6544 33.7501 42.6538 32.4645C42.6533 31.1789 42.1434 29.946 41.2359 29.0354C41.188 28.9886 41.1236 28.9626 41.0566 28.9631C40.9897 28.9635 40.9257 28.9904 40.8785 29.0379C40.8332 29.0836 40.808 29.1454 40.8082 29.2097C40.8084 29.274 40.834 29.3357 40.8795 29.3811C41.285 29.786 41.6067 30.2669 41.8262 30.7962C42.0458 31.3256 42.1588 31.893 42.1588 32.4661C42.1588 33.0392 42.0458 33.6066 41.8262 34.1359C41.6067 34.6653 41.285 35.1462 40.8795 35.5511C31.8111 44.6214 21.398 44.6214 12.3082 35.552C12.287 35.5268 12.2608 35.5062 12.2311 35.4918C12.2015 35.4773 12.1692 35.4692 12.1362 35.4681Z" fill="#323232"/>
<path d="M44.7073 25.5552L44.7063 25.5542C43.6412 24.4967 42.3479 23.6974 40.9257 23.2177C39.5035 22.738 37.9902 22.5907 36.5022 22.7871L35.9983 22.855L35.7483 22.4121C34.8723 20.8536 33.5928 19.5598 32.0442 18.6665L31.9504 18.6265L31.4105 18.3872C27.9681 16.939 22.2493 14.5318 20.5394 8.39406C20.4108 7.94097 20.2428 7.5 20.0374 7.07619C19.9191 6.79057 19.7814 6.51339 19.6252 6.2466C18.5402 4.34635 16.8573 2.85823 14.8385 2.01401C12.8197 1.16978 10.5784 1.01684 8.46363 1.57899C6.34887 2.14114 4.47936 3.38684 3.14624 5.12207C1.81313 6.8573 1.09125 8.98467 1.09302 11.1729C1.09302 17.7149 2.88795 23.5171 6.28443 27.9522L6.54712 28.2959L6.38114 28.6958C5.63318 30.4842 5.43352 32.4546 5.80753 34.3567C6.18153 36.2588 7.11233 38.0068 8.48172 39.3789C13.9056 44.7886 20.1741 47.6489 26.6087 47.6489C33.0335 47.6489 39.2962 44.7886 44.722 39.3775C45.6286 38.4689 46.3475 37.3907 46.8374 36.2044C47.3274 35.018 47.5788 33.7468 47.5775 32.4633C47.5761 31.1797 47.322 29.9091 46.8295 28.7238C46.337 27.5385 45.6159 26.4618 44.7073 25.5552ZM19.9397 11.1026L20.4427 11.9624C21.9852 14.4759 24.1866 16.519 26.8079 17.8701L27.4593 18.2324L27.1009 18.8858C26.8139 19.442 26.3768 19.9066 25.8391 20.2269C25.3013 20.5472 24.6846 20.7103 24.0589 20.6977H24.0481C22.7199 20.6404 21.4369 20.1981 20.3555 19.4247C19.2741 18.6513 18.4409 17.5802 17.9573 16.3418C17.7203 15.5434 17.7162 14.694 17.9457 13.8934C18.1751 13.0928 18.6284 12.3744 19.2522 11.8227L19.9397 11.1026ZM2.58817 11.1729C2.58546 9.31306 3.1986 7.50469 4.33185 6.03003C5.46511 4.55537 7.05471 3.49741 8.85254 3.0213C10.6504 2.54519 12.5553 2.67772 14.2698 3.39819C15.9844 4.11867 17.4122 5.38655 18.3304 7.00392C18.4463 7.19139 18.5491 7.38669 18.638 7.58839C18.8273 7.98098 18.984 8.38844 19.1067 8.80666L19.3831 9.71046L19.0022 10.0274C16.6497 11.9824 15.7718 14.3887 16.5276 16.8037C17.1063 18.3371 18.124 19.6659 19.4536 20.6243C20.7831 21.5827 22.3655 22.1281 24.0032 22.1924C24.9253 22.2207 25.836 21.9828 26.6264 21.5072C27.4168 21.0315 28.0534 20.3382 28.4602 19.5103L28.7854 18.8882L29.427 19.1719C29.6633 19.2764 29.8938 19.374 30.1155 19.4683C30.3733 19.5777 30.6194 19.6826 30.8538 19.7876L31.3762 20.0054C32.4478 20.6387 33.3641 21.5037 34.0579 22.5371L34.5803 23.3091L33.7141 23.6543C29.8831 25.1797 24.8733 26.5865 20.1008 23.8951C19.6969 23.6662 19.2721 23.476 18.8323 23.3272C18.5477 23.2119 18.2557 23.1156 17.9583 23.0391C15.7164 22.4395 13.3347 22.6512 11.2337 23.6368L10.6438 23.9126L10.2874 23.3677C8.04781 19.7043 6.93272 15.4641 7.08039 11.1729C7.08146 11.0745 7.06289 10.9768 7.02573 10.8857C6.98857 10.7945 6.9336 10.7117 6.86402 10.6421C6.79444 10.5724 6.71165 10.5174 6.62052 10.4802C6.52939 10.443 6.43175 10.4243 6.33332 10.4253C6.13518 10.4256 5.94524 10.5045 5.80518 10.6446C5.66512 10.7848 5.58639 10.9748 5.58625 11.1729C5.44842 15.7499 6.67157 20.265 9.10089 24.1465L9.47003 24.7061L8.80402 25.2593C8.69112 25.3472 8.5829 25.4409 8.4798 25.5401C8.36555 25.6548 8.2601 25.7754 8.15561 25.8946C8.0765 25.9854 7.9974 26.0752 7.91635 26.1631L7.27475 26.854L6.74546 26.0738C3.88155 21.6429 2.43173 16.4464 2.58817 11.1729ZM31.3059 29.8027L31.303 29.8057C30.1412 30.8387 28.6348 31.3995 27.0804 31.3775C26.1713 31.3875 25.2726 31.1841 24.4564 30.7837C23.8186 30.467 23.2707 29.995 22.863 29.4111C22.4553 28.8273 22.201 28.1503 22.1234 27.4424L21.9593 26.3633L23.0257 26.5977C25.847 27.1407 28.7608 26.9444 31.4837 26.0278L32.348 25.7686L32.4456 26.6656C32.5216 27.2416 32.4576 27.8274 32.2593 28.3735C32.0609 28.9195 31.7339 29.4098 31.3059 29.8027ZM43.6556 38.3272C38.3929 43.5811 32.4954 46.2095 26.6009 46.2095C20.7005 46.2095 14.803 43.5772 9.54618 38.312C8.77705 37.5434 8.16694 36.6307 7.75071 35.6262C7.33448 34.6216 7.1203 33.5449 7.1204 32.4576C7.12049 31.3702 7.33485 30.2935 7.75125 29.2891C8.16766 28.2846 8.77793 27.372 9.54718 26.6035C10.5869 25.5814 11.8749 24.8478 13.2844 24.4749C14.6938 24.102 16.1762 24.1028 17.5853 24.4771C17.811 24.5309 18.0309 24.6072 18.2415 24.7046C18.6228 24.8354 18.9934 24.9956 19.3499 25.1836C19.5935 25.3267 19.8463 25.4535 20.1068 25.563L20.5609 25.7656L20.5598 26.2671C20.4575 27.4532 20.7094 28.6429 21.2836 29.6858C21.8578 30.7287 22.7285 31.5777 23.7854 32.1255C24.8033 32.6253 25.924 32.88 27.0579 32.8692C29.0049 32.8957 30.8905 32.1879 32.3391 30.8867C33.0166 30.2668 33.5129 29.4745 33.775 28.5945C34.0372 27.7144 34.0553 26.7797 33.8274 25.8902L33.6927 25.2832L34.264 25.0381C34.5384 24.9209 34.8128 24.8145 35.0589 24.7188L35.7229 24.4468C37.483 23.9907 39.3442 24.1263 41.0196 24.8327C42.6949 25.539 44.0914 26.777 44.9935 28.3556C45.8957 29.9342 46.2535 31.7657 46.0117 33.5677C45.7699 35.3698 44.9419 37.0422 43.6556 38.3272Z" fill="#323232"/>
<path d="M26.6089 48.1487C20.0395 48.1487 13.6489 45.2386 8.12842 39.7328C6.68885 38.2907 5.7103 36.4534 5.31699 34.454C4.92368 32.4547 5.13337 30.3837 5.91943 28.5038L5.9751 28.3705L5.88721 28.2557C2.42432 23.7333 0.593262 17.826 0.593262 11.1727C0.596232 8.87676 1.35709 6.64602 2.75772 4.82679C4.15835 3.00756 6.1204 1.70162 8.33926 1.1117C10.5581 0.52178 12.9097 0.680886 15.0288 1.56432C17.148 2.44776 18.9163 4.00609 20.0591 5.99741C20.2286 6.28797 20.378 6.58978 20.5063 6.90073C20.7173 7.33668 20.8892 7.79046 21.02 8.25673C22.6665 14.1659 28.2612 16.5199 31.605 17.9262L32.2408 18.2064C33.8896 19.1449 35.2526 20.5136 36.1841 22.1664L36.2671 22.3144L36.4361 22.2914C38.0003 22.0851 39.591 22.24 41.086 22.7443C42.581 23.2486 43.9405 24.0889 45.0601 25.2006C46.0153 26.1536 46.7734 27.2858 47.2912 28.5318C47.809 29.7778 48.0762 31.1135 48.0776 32.4628C48.0791 33.8121 47.8147 35.1484 47.2997 36.3955C46.7846 37.6426 46.0289 38.776 45.0757 39.7309C39.5532 45.2381 33.1685 48.1487 26.6089 48.1487ZM11.02 1.74592C8.52075 1.74872 6.12464 2.74279 4.35739 4.51005C2.59014 6.2773 1.59607 8.6734 1.59326 11.1727C1.59326 17.6043 3.35303 23.3011 6.68115 27.6478L7.11963 28.221L6.84326 28.8875C6.13337 30.5848 5.94383 32.4547 6.29871 34.2598C6.65358 36.065 7.53688 37.724 8.83643 39.0262C14.1636 44.3397 20.3101 47.1487 26.6089 47.1487C32.8979 47.1487 39.0386 44.3392 44.3687 39.0233C46.1058 37.2823 47.0802 34.9226 47.0776 32.4633C47.0751 30.0039 46.0957 27.6463 44.355 25.909L44.354 25.9085C43.343 24.9054 42.1157 24.1472 40.7662 23.692C39.4167 23.2368 37.9808 23.0967 36.5688 23.2825L35.7299 23.3953L35.313 22.6575C34.4812 21.1772 33.2661 19.9483 31.7954 19.0999L31.7544 19.0862L31.2085 18.844C27.7075 17.3714 21.8335 14.9002 20.0581 8.52811C19.9386 8.10582 19.7821 7.69489 19.5903 7.30012C19.4759 7.02334 19.3428 6.75466 19.1919 6.49592C18.3616 5.05855 17.1702 3.86298 15.7358 3.02764C14.3039 2.19313 12.6773 1.75102 11.02 1.74592ZM26.6011 46.7093C20.4663 46.7093 14.4468 43.9276 9.19287 38.6653C8.37723 37.8502 7.73024 36.8823 7.28888 35.817C6.84752 34.7517 6.62042 33.6098 6.62061 32.4567C6.62079 31.3035 6.84824 30.1618 7.28995 29.0966C7.73165 28.0314 8.37895 27.0637 9.19485 26.2488C10.2964 25.1642 11.6619 24.3858 13.1563 23.9904C14.6508 23.595 16.2226 23.5964 17.7164 23.9945C17.9709 24.0554 18.2185 24.142 18.4556 24.2528C18.8438 24.3849 19.2206 24.548 19.5826 24.7405C19.8094 24.8747 20.0449 24.9934 20.2877 25.096L21.0621 25.4412L21.0601 26.2679C20.9615 27.3604 21.1891 28.4577 21.7142 29.4208C22.2394 30.384 23.0385 31.1697 24.0103 31.6785C24.9584 32.1434 26.0022 32.3799 27.0582 32.369C28.8779 32.3958 30.641 31.7365 31.9966 30.5223C32.6095 29.9607 33.0581 29.2432 33.2946 28.4463C33.5312 27.6495 33.5466 26.8033 33.3394 25.9984L33.1148 24.9871L34.0669 24.5784C34.3404 24.4617 34.6138 24.3553 34.86 24.2596L35.5338 23.9837C37.4015 23.4836 39.3821 23.6139 41.1682 24.3544C42.9544 25.0949 44.4462 26.4043 45.4121 28.0792C46.3781 29.7542 46.7642 31.7012 46.5105 33.618C46.2569 35.5349 45.3777 37.3144 44.0094 38.6805C38.7486 43.9324 32.729 46.7093 26.6011 46.7093ZM15.439 24.6951C13.3671 24.6858 11.3761 25.4987 9.90283 26.9554C9.1796 27.6773 8.60578 28.5348 8.21417 29.4786C7.82257 30.4225 7.62088 31.4343 7.62061 32.4562C7.62033 33.4781 7.82148 34.4901 8.21259 35.4341C8.60369 36.3782 9.17706 37.236 9.8999 37.9583C14.9624 43.0291 20.7378 45.7093 26.6011 45.7093C32.4585 45.7093 38.2329 43.0345 43.3022 37.9735C44.5112 36.766 45.2892 35.1942 45.5164 33.5007C45.7435 31.8071 45.4071 30.0859 44.5591 28.6025C43.7111 27.1191 42.3985 25.9559 40.8239 25.2924C39.2493 24.6289 37.5001 24.5019 35.8462 24.931L35.2485 25.1815C34.9858 25.2835 34.7231 25.3856 34.4604 25.4979L34.271 25.579L34.3159 25.7816C34.565 26.7552 34.5448 27.7781 34.2573 28.741C33.9699 29.704 33.4261 30.5707 32.6841 31.2484C31.1423 32.6379 29.1334 33.3951 27.0581 33.369C25.8458 33.3798 24.6478 33.1065 23.5601 32.5711C22.4171 31.9835 21.4744 31.0697 20.8513 29.9456C20.2282 28.8216 19.9528 27.5379 20.0601 26.2571V26.0897L19.9029 26.0194C19.624 25.9015 19.3532 25.7653 19.0923 25.6116C18.7675 25.4428 18.4307 25.2982 18.0845 25.179C17.8907 25.0896 17.689 25.0183 17.482 24.9661C16.816 24.7856 16.129 24.6945 15.439 24.6951ZM27.0806 31.8773C26.0928 31.887 25.1165 31.6651 24.23 31.2293C23.5199 30.8783 22.9095 30.3544 22.4551 29.7056C22.0006 29.0569 21.7167 28.3042 21.6294 27.5169L21.356 25.7186L23.1333 26.1092C25.8715 26.6331 28.6987 26.44 31.3403 25.5487L32.7798 25.1165L32.9428 26.6112C33.0288 27.2633 32.9564 27.9266 32.7318 28.5449C32.5073 29.1632 32.1372 29.7183 31.6528 30.1634C30.3955 31.2844 28.765 31.8953 27.0806 31.8773ZM22.563 27.0076L22.6177 27.367C22.6845 27.9948 22.9082 28.5957 23.2681 29.1144C23.628 29.6331 24.1126 30.0529 24.6772 30.3353C25.4249 30.7014 26.2481 30.887 27.0806 30.8773C28.507 30.8983 29.89 30.3868 30.9595 29.4427C31.3337 29.1038 31.6194 28.6776 31.7918 28.2031C31.9642 27.7286 32.0181 27.2191 31.9487 26.7191L31.9165 26.4202L31.6274 26.5067C28.823 27.4478 25.8228 27.6473 22.9184 27.0858L22.563 27.0076ZM7.21338 27.6546L6.33154 26.3543C3.4111 21.8408 1.93132 16.5463 2.08835 11.1727C2.0856 9.20267 2.73509 7.28717 3.93549 5.72513C5.13588 4.16309 6.81965 3.0424 8.72397 2.53794C10.6283 2.03348 12.646 2.17363 14.4623 2.93654C16.2786 3.69945 17.7912 5.04219 18.7641 6.75519C18.8892 6.95876 19.0004 7.1705 19.0971 7.38898C19.2947 7.80117 19.4587 8.22867 19.5873 8.6673L19.9584 9.88215L19.3217 10.4114C17.1362 12.2279 16.3139 14.4451 17.0053 16.6541C17.5475 18.0887 18.5005 19.3317 19.7451 20.2278C20.9898 21.1238 22.4709 21.6332 24.0034 21.6922C24.8343 21.7216 25.6558 21.5091 26.3683 21.0806C27.0808 20.652 27.6535 20.0259 28.017 19.2781L28.5591 18.2415L30.2661 18.9886C30.5717 19.1185 30.8207 19.2249 31.058 19.3309L31.5688 19.5438C32.7301 20.2157 33.723 21.1435 34.4721 22.2567L35.3432 23.5433L33.8998 24.1185C29.9633 25.6859 24.8119 27.1253 19.8549 24.3304C19.4806 24.1176 19.0869 23.9411 18.6791 23.803C18.4032 23.6908 18.12 23.5972 17.8315 23.5228C15.7024 22.9567 13.442 23.1572 11.4457 24.0892L10.4633 24.5492L9.86957 23.6415C7.57573 19.897 6.43205 15.5614 6.58051 11.1727C6.58051 10.8934 6.08636 10.8915 6.08636 11.1727C5.94911 15.6517 7.14335 20.0708 9.51801 23.8709L10.1342 24.8045L9.12347 25.6439C9.0053 25.7401 8.91647 25.8109 8.83347 25.8934C8.72995 25.9974 8.63425 26.1078 8.53854 26.2162C8.45065 26.3172 8.36862 26.4105 8.28366 26.5018L7.21338 27.6546ZM11.02 3.24058C8.91709 3.24304 6.90102 4.07954 5.41406 5.56658C3.92711 7.05361 3.0907 9.06975 3.08835 11.1727C2.93277 16.346 4.35256 21.4445 7.15964 25.7928L7.3364 26.053L7.77878 25.5657C7.89597 25.4324 8.00632 25.307 8.12546 25.1868C8.23337 25.0821 8.34682 24.9831 8.4653 24.8904L8.80612 24.6072L8.68405 24.4217C6.19984 20.4588 4.94774 15.8478 5.0864 11.1727C5.08672 10.842 5.21818 10.5249 5.45197 10.2911C5.68575 10.0572 6.00278 9.92559 6.33347 9.92515C6.49776 9.9234 6.66074 9.95448 6.81287 10.0166C6.96499 10.0786 7.10317 10.1705 7.21933 10.2867C7.33549 10.4029 7.4273 10.5411 7.48932 10.6933C7.55134 10.8454 7.58235 11.0084 7.58054 11.1727C7.4336 15.3668 8.5205 19.5118 10.7065 23.0941L10.8247 23.2757L11.022 23.1834C13.2304 22.1511 15.7316 21.9289 18.0874 22.5555C18.8691 22.7789 19.626 23.0816 20.3462 23.4588C24.9321 26.0462 29.8013 24.6742 33.5298 23.1898L33.8179 23.0746L33.644 22.8173C32.9915 21.8456 32.13 21.032 31.1226 20.4359L30.6616 20.2489C30.4185 20.14 30.1753 20.0365 29.9204 19.9286C29.6646 19.8197 29.4477 19.7274 29.2251 19.6293L29.0122 19.5346L28.9038 19.7416C28.4552 20.6495 27.7559 21.4099 26.8887 21.9328C26.0215 22.4558 25.0226 22.7193 24.0103 22.6923C22.2667 22.6249 20.5817 22.0448 19.1662 21.0246C17.7507 20.0043 16.6675 18.5892 16.0522 16.9564C15.23 14.3314 16.1645 11.7352 18.6831 9.64243L18.8081 9.53843L18.6284 8.95249C18.5135 8.55884 18.3661 8.17538 18.188 7.80601C18.1087 7.62379 18.0167 7.4474 17.9126 7.27817C17.2204 6.05833 16.2187 5.04269 15.0085 4.33378C13.7983 3.62486 12.4225 3.24779 11.02 3.24058ZM24.0659 21.1976C22.6301 21.1374 21.2429 20.6605 20.0736 19.8251C18.9043 18.9898 18.0034 17.8322 17.4809 16.4935C17.2132 15.6099 17.2036 14.6682 17.4535 13.7795C17.7033 12.8907 18.2022 12.0919 18.8911 11.4773L20.0366 10.2772L20.8745 11.7098C22.3722 14.1457 24.5084 16.125 27.0512 17.4329L28.1372 18.0369L27.5395 19.1263C27.2078 19.7582 26.7078 20.2861 26.0948 20.6517C25.4817 21.0172 24.7796 21.2061 24.0659 21.1976ZM19.8433 11.9276L19.6138 12.1678C19.0506 12.6537 18.6396 13.2919 18.4304 14.0057C18.2211 14.7196 18.2224 15.4786 18.4341 16.1917C18.881 17.3317 19.6496 18.3172 20.6463 19.0284C21.643 19.7396 22.825 20.1458 24.0483 20.1976C24.5865 20.2135 25.118 20.0759 25.5809 19.8011C26.0438 19.5262 26.419 19.1254 26.6626 18.6453L26.7817 18.4276L26.5649 18.307C23.8648 16.9131 21.5982 14.806 20.0112 12.2147L19.8433 11.9276Z" fill="#323232"/>
</svg>
