<svg width="15" height="14" viewBox="0 0 15 14" fill="none" xmlns="http://www.w3.org/2000/svg">
<path d="M13.5236 9.76654L10.2034 8.36337C10.0747 8.31077 9.93417 8.28929 9.79446 8.30088C9.65475 8.31248 9.52031 8.35678 9.40329 8.42978C9.39393 8.43538 9.385 8.44159 9.37657 8.44837L7.63282 9.8522C7.59402 9.87456 7.54997 9.88752 7.50459 9.88996C7.45921 9.89239 7.4139 9.88421 7.37266 9.86615C6.23079 9.34552 5.04884 8.23787 4.49759 7.17205C4.47809 7.1334 4.46903 7.09078 4.47124 7.04802C4.47345 7.00526 4.48685 6.96368 4.51024 6.92701L6.00087 5.25291C6.0079 5.24494 6.01423 5.2363 6.02055 5.22767C6.09761 5.11731 6.14438 4.99057 6.15666 4.85888C6.16893 4.72719 6.14632 4.59468 6.09087 4.4733L4.60235 1.34291C4.53049 1.18436 4.40611 1.05211 4.24788 0.966014C4.08965 0.879921 3.90612 0.844631 3.72485 0.865445C2.84002 0.975626 2.02791 1.38624 1.44021 2.02061C0.852507 2.65497 0.529408 3.46969 0.531258 4.31259C0.531258 9.43916 4.94688 13.6095 10.375 13.6095C11.2675 13.6112 12.1301 13.3061 12.8018 12.751C13.4735 12.196 13.9083 11.429 14.0249 10.5933C14.0468 10.4229 14.0098 10.2503 13.9195 10.1014C13.8292 9.9524 13.6903 9.83496 13.5236 9.76654ZM13.4688 10.5269C13.3695 11.2346 13.0007 11.884 12.4313 12.3535C11.8619 12.8231 11.1309 13.0807 10.375 13.0782C5.25766 13.0782 1.09376 9.14564 1.09376 4.31259C1.09114 3.59869 1.36392 2.90833 1.8611 2.37057C2.35827 1.83282 3.04581 1.48449 3.79516 1.39072C3.8064 1.39006 3.81767 1.39006 3.82891 1.39072C3.8844 1.39116 3.93851 1.4071 3.98442 1.43653C4.03034 1.46595 4.06602 1.50754 4.08696 1.55607L5.57126 4.68646C5.58858 4.72472 5.59614 4.76629 5.59333 4.80781C5.59052 4.84934 5.57742 4.88966 5.55509 4.92552L4.06516 6.59896C4.05813 6.60759 4.0511 6.61556 4.04477 6.62486C3.9654 6.7395 3.91865 6.87153 3.90904 7.0082C3.89943 7.14488 3.92729 7.28159 3.98993 7.40513C4.60094 8.5865 5.86094 9.76787 7.12587 10.3449C7.25757 10.4037 7.40314 10.4293 7.54841 10.4192C7.69369 10.409 7.83371 10.3636 7.95485 10.2872L7.98087 10.2686L9.72673 8.86607C9.76407 8.84452 9.80631 8.83166 9.84995 8.82854C9.89359 8.82542 9.93739 8.83214 9.97774 8.84814L13.2972 10.2533C13.3532 10.2753 13.4002 10.3139 13.4311 10.3632C13.462 10.4125 13.4752 10.4699 13.4688 10.5269Z" fill="#717171"/>
</svg>
