<svg width="10" height="12" viewBox="0 0 10 12" fill="none" xmlns="http://www.w3.org/2000/svg">
<path fill-rule="evenodd" clip-rule="evenodd" d="M5 11.3601L5.42067 10.8861C5.898 10.3394 6.32733 9.82075 6.70933 9.32742L7.02467 8.91141C8.34133 7.13741 9 5.72941 9 4.68875C9 2.46741 7.20933 0.666748 5 0.666748C2.79067 0.666748 1 2.46741 1 4.68875C1 5.72941 1.65867 7.13741 2.97533 8.91141L3.29067 9.32742C3.83563 10.0257 4.40578 10.7032 5 11.3601Z" stroke="#717171" stroke-linecap="round" stroke-linejoin="round"/>
<path d="M5.00004 6.33333C5.92052 6.33333 6.66671 5.58714 6.66671 4.66667C6.66671 3.74619 5.92052 3 5.00004 3C4.07957 3 3.33337 3.74619 3.33337 4.66667C3.33337 5.58714 4.07957 6.33333 5.00004 6.33333Z" stroke="#717171" stroke-linecap="round" stroke-linejoin="round"/>
</svg>
