<svg width="15" height="12" viewBox="0 0 15 12" fill="none" xmlns="http://www.w3.org/2000/svg">
<path d="M1.34583 12C0.9625 12 0.6425 11.868 0.385833 11.604C0.128611 11.3394 0 11.01 0 10.6157V1.38429C0 0.99 0.128611 0.660857 0.385833 0.396857C0.6425 0.132286 0.9625 0 1.34583 0H13.6542C14.0375 0 14.3575 0.132286 14.6142 0.396857C14.8714 0.660857 15 0.99 15 1.38429V10.6157C15 11.01 14.8717 11.3391 14.615 11.6031C14.3578 11.8677 14.0375 12 13.6542 12H1.34583ZM7.5 6.09857L0.833333 1.61571V10.6157C0.833333 10.7694 0.881389 10.8957 0.9775 10.9946C1.07361 11.0934 1.19639 11.1429 1.34583 11.1429H13.6542C13.8036 11.1429 13.9264 11.0934 14.0225 10.9946C14.1186 10.8957 14.1667 10.7694 14.1667 10.6157V1.61571L7.5 6.09857ZM7.5 5.14286L13.91 0.857143H1.09L7.5 5.14286ZM0.833333 1.61571V0.857143V10.6157C0.833333 10.7694 0.881389 10.8957 0.9775 10.9946C1.07361 11.0934 1.19639 11.1429 1.34583 11.1429H0.833333V1.61571Z" fill="#717171"/>
</svg>
