<svg width="15" height="15" viewBox="0 0 15 15" fill="none" xmlns="http://www.w3.org/2000/svg">
<path d="M12.4 2.53005C11.7586 1.88379 10.995 1.37151 10.1538 1.02301C9.31264 0.674514 8.41053 0.496745 7.5 0.500045C6.28275 0.501233 5.08717 0.822216 4.033 1.43085C2.97883 2.03948 2.10307 2.9144 1.49342 3.96799C0.883778 5.02157 0.561648 6.21684 0.559292 7.4341C0.556937 8.65135 0.874438 9.84786 1.48 10.9038L0.5 14.5L4.175 13.5375C5.18978 14.1021 6.33003 14.403 7.49125 14.4125C9.3372 14.4126 11.1085 13.6835 12.4195 12.384C13.7305 11.0845 14.4751 9.31968 14.4912 7.4738C14.4851 6.55269 14.2972 5.64185 13.9383 4.7935C13.5795 3.94515 13.0567 3.17597 12.4 2.53005ZM7.5 13.2138C6.46548 13.2145 5.44988 12.9364 4.56 12.4088L4.35 12.2775L2.17125 12.855L2.74875 10.7288L2.60875 10.51C1.86434 9.30838 1.58652 7.87541 1.82792 6.48262C2.06932 5.08983 2.81316 3.83394 3.91854 2.95287C5.02392 2.0718 6.41406 1.62675 7.82561 1.70202C9.23717 1.77729 10.5721 2.36766 11.5775 3.3613C12.6765 4.43596 13.3056 5.90184 13.3275 7.4388C13.3137 8.97523 12.6936 10.444 11.6022 11.5256C10.5108 12.6071 9.0365 13.2139 7.5 13.2138ZM10.6587 8.8913C10.4837 8.8038 9.635 8.38379 9.4775 8.33129C9.32 8.27879 9.1975 8.2438 9.08375 8.4188C8.91256 8.65337 8.72853 8.8783 8.5325 9.09254C8.43625 9.21504 8.33125 9.22379 8.15625 9.09254C7.15852 8.69825 6.32723 7.97203 5.8025 7.0363C5.61875 6.73005 5.9775 6.74755 6.31 6.0913C6.33455 6.04399 6.34736 5.99147 6.34736 5.93817C6.34736 5.88487 6.33455 5.83235 6.31 5.78505C6.31 5.69755 5.91625 4.84004 5.77625 4.49879C5.63625 4.15754 5.49625 4.21004 5.3825 4.20129H5.04125C4.95283 4.20265 4.86573 4.22287 4.78575 4.26059C4.70578 4.29832 4.63478 4.35268 4.5775 4.42004C4.38117 4.61095 4.22803 4.84172 4.12841 5.0968C4.0288 5.35189 3.98501 5.62536 4 5.8988C4.05486 6.55336 4.30138 7.17726 4.70875 7.69255C5.45443 8.80884 6.47631 9.71316 7.675 10.3175C8.30366 10.6846 9.0343 10.838 9.7575 10.755C9.99832 10.7073 10.2264 10.6093 10.4269 10.4676C10.6274 10.3259 10.7958 10.1436 10.9212 9.93254C11.0374 9.67497 11.074 9.38855 11.0263 9.11005C10.9475 9.02255 10.8337 8.9788 10.6587 8.8913Z" fill="#717171"/>
</svg>
