<svg width="19" height="19" viewBox="0 0 19 19" fill="none" xmlns="http://www.w3.org/2000/svg">
<path d="M9.50004 12.6666C10.3399 12.6666 11.1453 12.333 11.7392 11.7391C12.3331 11.1452 12.6667 10.3398 12.6667 9.49992C12.6667 8.66007 12.3331 7.85461 11.7392 7.26075C11.1453 6.66688 10.3399 6.33325 9.50004 6.33325C8.66019 6.33325 7.85473 6.66688 7.26087 7.26075C6.667 7.85461 6.33337 8.66007 6.33337 9.49992C6.33337 10.3398 6.667 11.1452 7.26087 11.7391C7.85473 12.333 8.66019 12.6666 9.50004 12.6666Z" stroke="#717171" stroke-width="1.5" stroke-linecap="round" stroke-linejoin="round"/>
<path d="M2.375 12.6667V6.33333C2.375 5.28352 2.79204 4.2767 3.53437 3.53437C4.2767 2.79204 5.28352 2.375 6.33333 2.375H12.6667C13.7165 2.375 14.7233 2.79204 15.4656 3.53437C16.208 4.2767 16.625 5.28352 16.625 6.33333V12.6667C16.625 13.7165 16.208 14.7233 15.4656 15.4656C14.7233 16.208 13.7165 16.625 12.6667 16.625H6.33333C5.28352 16.625 4.2767 16.208 3.53437 15.4656C2.79204 14.7233 2.375 13.7165 2.375 12.6667Z" stroke="#717171" stroke-width="1.5"/>
<path d="M13.8541 5.15533L13.8635 5.14502" stroke="#717171" stroke-width="1.5" stroke-linecap="round" stroke-linejoin="round"/>
</svg>
