<svg width="20" height="18" viewBox="0 0 20 18" fill="none" xmlns="http://www.w3.org/2000/svg">
<path d="M18.5402 3.63C19.2302 4.57 19.6902 5.67 19.8902 6.82C20.1002 8.07 20.0002 9.34 19.5802 10.54C19.1819 11.7122 18.494 12.7647 17.5802 13.6C16.9115 14.2384 16.1494 14.7712 15.3202 15.18C15.7302 16.25 15.1902 17.45 14.1202 17.86C13.8802 17.95 13.6302 18 13.3802 18C12.8439 17.9978 12.3291 17.7885 11.9434 17.4159C11.5577 17.0432 11.3308 16.5359 11.3102 16H8.24019C8.13019 17.14 7.11019 18 5.97019 17.87C4.91019 17.77 4.11019 16.89 4.09019 15.83C4.10019 15.64 4.13019 15.44 4.19019 15.26C2.60186 14.7314 1.20852 13.7386 0.190188 12.41C-0.139812 11.97 -0.0398116 11.34 0.420188 11C0.600188 10.86 0.820188 10.78 1.05019 10.78C1.77019 10.78 2.05019 10.53 2.22019 10.15C2.46019 9.43 2.60019 8.68 2.61019 7.92C2.64019 7.39 2.70019 6.87 2.78019 6.35C3.13128 4.6189 4.09755 3.07358 5.50019 2C7.16019 0.7 9.19019 0 11.2902 0C12.7202 0 14.1302 0.35 15.4002 1C16.6419 1.6133 17.7186 2.51513 18.5402 3.63ZM14.7202 14.31C16.5002 13.5 17.9002 12.04 18.5902 10.21C20.2102 5.27 16.0002 1.05 11.2902 1.05C10.9402 1.05 10.5802 1.07 10.2302 1.12C7.36019 1.5 4.40019 3.5 3.81019 6.5C3.43019 8.5 4.00019 11.79 1.05019 11.79C2.00019 13 3.32019 13.93 4.81019 14.37C5.66019 13.61 6.97019 13.69 7.74019 14.55C7.85019 14.67 7.94019 14.8 8.00019 14.94H11.5502C12.0702 13.92 13.3302 13.5 14.3502 14.04C14.5002 14.12 14.6002 14.21 14.7202 14.31ZM8.97019 7.31C8.39019 7.34 7.88019 6.9 7.85019 6.31C7.82019 5.73 8.27019 5.23 8.85019 5.19C9.43019 5.16 9.94019 5.61 9.97019 6.25C9.97567 6.38219 9.95484 6.51416 9.90891 6.63824C9.86297 6.76231 9.79285 6.87603 9.7026 6.97278C9.61236 7.06954 9.5038 7.1474 9.38322 7.20186C9.26264 7.25631 9.13244 7.28627 9.00019 7.29L8.97019 7.31ZM13.6602 7.31C13.0802 7.34 12.5702 6.9 12.5402 6.31C12.5002 5.73 12.9602 5.23 13.5402 5.19C14.1202 5.16 14.6302 5.61 14.6602 6.25C14.6802 6.8 14.2502 7.27 13.6602 7.29V7.31ZM7.71019 9.07C7.65019 8.79 7.84019 8.5 8.12019 8.45C8.40019 8.4 8.68019 8.58 8.74019 8.86C8.91041 9.39885 9.2581 9.86417 9.72661 10.1801C10.1951 10.4961 10.7568 10.6441 11.3202 10.6C12.4602 10.66 13.5002 9.96 13.8902 8.88C14.0302 8.62 14.3502 8.5 14.6002 8.65C14.7802 8.75 14.8902 8.92 14.8902 9.12C14.7002 9.83 14.2602 10.45 13.6602 10.88C12.9702 11.36 12.1602 11.63 11.3202 11.64H11.2102C9.58019 11.71 8.11019 10.64 7.68019 9.06L7.71019 9.07Z" fill="#00BDF2"/>
</svg>
