<svg width="19" height="19" viewBox="0 0 19 19" fill="none" xmlns="http://www.w3.org/2000/svg">
<path d="M14.2421 1.2635C13.4435 1.17878 12.6409 1.13755 11.8378 1.14C9.17542 1.14 7.52084 2.83575 7.52084 5.56541V7.4187H5.28438C5.1794 7.4187 5.07872 7.46041 5.00449 7.53464C4.93025 7.60887 4.88855 7.70955 4.88855 7.81454V10.8625C4.88855 10.9674 4.93025 11.0681 5.00449 11.1423C5.07872 11.2166 5.1794 11.2583 5.28438 11.2583H7.52084V17.37C7.52084 17.4749 7.56254 17.5756 7.63678 17.6498C7.71101 17.7241 7.81169 17.7658 7.91667 17.7658H11.0659C11.1709 17.7658 11.2716 17.7241 11.3458 17.6498C11.4201 17.5756 11.4618 17.4749 11.4618 17.37V11.2583H13.6911C13.7872 11.2583 13.88 11.2234 13.9523 11.16C14.0245 11.0967 14.0713 11.0092 14.0838 10.9139L14.4772 7.86599C14.4845 7.81013 14.4799 7.75334 14.4635 7.69943C14.4471 7.64553 14.4194 7.59574 14.3822 7.55339C14.345 7.51105 14.2993 7.47713 14.2479 7.4539C14.1966 7.43068 14.1409 7.41868 14.0846 7.4187H11.4618V5.86783C11.4618 5.09991 11.6161 4.77929 12.5764 4.77929H14.1906C14.2956 4.77929 14.3963 4.73758 14.4705 4.66335C14.5448 4.58912 14.5865 4.48844 14.5865 4.38345V1.65616C14.5865 1.56006 14.5516 1.46722 14.4882 1.39497C14.4249 1.32272 14.3374 1.27599 14.2421 1.2635ZM13.7948 3.98683L12.5756 3.98762C10.868 3.98762 10.6701 5.06112 10.6701 5.86783V7.81533C10.6701 7.92017 10.7117 8.02073 10.7857 8.09495C10.8598 8.16916 10.9603 8.21095 11.0651 8.21116H13.6349L13.3428 10.4674H11.0659C10.9609 10.4674 10.8603 10.5091 10.786 10.5833C10.7118 10.6576 10.6701 10.7583 10.6701 10.8632V16.9733H8.31251V10.8632C8.31251 10.7583 8.2708 10.6576 8.19657 10.5833C8.12234 10.5091 8.02166 10.4674 7.91667 10.4674H5.68101V8.21116H7.91667C8.02166 8.21116 8.12234 8.16946 8.19657 8.09522C8.2708 8.02099 8.31251 7.92031 8.31251 7.81533V5.56541C8.31251 3.29016 9.63063 1.93166 11.8378 1.93166C12.6366 1.93166 13.3578 1.9752 13.7948 2.0132V3.98683Z" fill="#717171"/>
</svg>
