<svg width="19" height="19" viewBox="0 0 19 19" fill="none" xmlns="http://www.w3.org/2000/svg">
<path d="M15.6699 2.7476H13.8127V1.39827C13.8127 1.14718 13.5922 0.907599 13.3335 0.919099C13.2071 0.921315 13.0865 0.97251 12.9971 1.0619C12.9077 1.15128 12.8565 1.27188 12.8543 1.39827V2.7476H6.14599V1.39827C6.14599 1.14718 5.92557 0.907599 5.66682 0.919099C5.54043 0.921315 5.41984 0.97251 5.33045 1.0619C5.24106 1.15128 5.18987 1.27188 5.18765 1.39827V2.7476H3.3304C2.69522 2.74836 2.08628 3.00102 1.63713 3.45016C1.18799 3.8993 0.935331 4.50825 0.93457 5.14343V15.6851C0.93457 17.0066 2.00982 18.0809 3.3304 18.0809H15.6689C16.9905 18.0809 18.0648 17.0066 18.0648 15.6851V5.14343C18.0643 4.50834 17.8118 3.89939 17.3628 3.45022C16.9138 3.00105 16.305 2.74836 15.6699 2.7476ZM3.3304 3.70593H5.18765V4.27327C5.18765 4.52435 5.40807 4.76393 5.66682 4.75243C5.92653 4.74093 6.14599 4.5416 6.14599 4.27327V3.70593H12.8543V4.27327C12.8543 4.52435 13.0747 4.76393 13.3335 4.75243C13.5932 4.74093 13.8127 4.5416 13.8127 4.27327V3.70593H15.6689C16.4615 3.70593 17.1064 4.35089 17.1064 5.14343V6.66143H1.8929V5.14343C1.8929 4.35089 2.53786 3.70593 3.3304 3.70593ZM15.6699 17.1226H3.3304C2.53786 17.1226 1.8929 16.4776 1.8929 15.6851V7.61977H17.1064V15.6851C17.1064 16.0662 16.9551 16.4317 16.6858 16.7012C16.4164 16.9708 16.051 17.1223 15.6699 17.1226Z" fill="#323232"/>
</svg>
