<svg width="21" height="21" viewBox="0 0 21 21" fill="none" xmlns="http://www.w3.org/2000/svg">
<path d="M19.5845 14.0936L14.7999 11.9496L14.7866 11.9436C14.5383 11.8373 14.2673 11.7947 13.9983 11.8195C13.7293 11.8443 13.4707 11.9358 13.2459 12.0857C13.2195 12.1032 13.1941 12.1222 13.1698 12.1426L10.6977 14.25C9.13165 13.4893 7.51477 11.8846 6.75407 10.3389L8.86454 7.82926C8.88485 7.80387 8.90415 7.77848 8.92243 7.75105C9.06911 7.52691 9.15811 7.26997 9.1815 7.00312C9.20489 6.73627 9.16195 6.46777 9.05649 6.22152V6.20934L6.90641 1.4166C6.76701 1.09492 6.52731 0.826944 6.22309 0.652687C5.91887 0.47843 5.56645 0.407233 5.21845 0.449726C3.84224 0.630819 2.57902 1.30668 1.66471 2.35107C0.750395 3.39547 0.247521 4.73697 0.250009 6.12504C0.250009 14.1891 6.81095 20.75 14.875 20.75C16.2631 20.7525 17.6046 20.2497 18.649 19.3353C19.6934 18.421 20.3692 17.1578 20.5503 15.7816C20.5929 15.4337 20.5218 15.0814 20.3478 14.7772C20.1737 14.473 19.906 14.2332 19.5845 14.0936ZM14.875 19.125C11.4283 19.1213 8.12393 17.7504 5.68678 15.3133C3.24962 12.8761 1.87877 9.5717 1.87501 6.12504C1.87119 5.13327 2.2285 4.17402 2.88021 3.42643C3.53192 2.67884 4.43347 2.19403 5.41649 2.06254C5.41609 2.06659 5.41609 2.07067 5.41649 2.07473L7.54931 6.84816L5.45001 9.36082C5.4287 9.38534 5.40935 9.41148 5.39212 9.43902C5.23928 9.67355 5.14962 9.94358 5.13183 10.2229C5.11403 10.5023 5.16871 10.7815 5.29056 11.0336C6.21071 12.9155 8.10688 14.7975 10.0091 15.7166C10.263 15.8373 10.5439 15.8901 10.8242 15.8698C11.1046 15.8495 11.3749 15.7568 11.6088 15.6008C11.6348 15.5833 11.6599 15.5643 11.6839 15.5439L14.1529 13.4375L18.9263 15.5754H18.9375C18.8076 16.5598 18.3235 17.4632 17.5758 18.1165C16.8281 18.7699 15.8679 19.1284 14.875 19.125Z" fill="#0072BC"/>
</svg>
