<svg width="22" height="23" viewBox="0 0 22 23" fill="none" xmlns="http://www.w3.org/2000/svg">
<mask id="path-1-inside-1_347_6709" fill="white">
<path d="M0.194776 11.5234C0.194244 13.444 0.696086 15.3194 1.65033 16.9723L0.103516 22.62L5.8832 21.1046C7.48179 21.9748 9.27289 22.4308 11.093 22.4309H11.0978C17.1063 22.4309 21.9974 17.5416 22 11.532C22.0012 8.61991 20.8681 5.88158 18.8095 3.82141C16.7513 1.76141 14.0139 0.626329 11.0973 0.625C5.08809 0.625 0.197345 5.51406 0.194864 11.5234"/>
</mask>
<path d="M1.65033 16.9723L2.61481 17.2365L2.72508 16.8339L2.51638 16.4724L1.65033 16.9723ZM0.103516 22.62L-0.860964 22.3559L-1.31858 24.0267L0.357145 23.5873L0.103516 22.62ZM5.8832 21.1046L6.36134 20.2263L6.0131 20.0367L5.62957 20.1373L5.8832 21.1046ZM11.093 22.4309L11.0929 23.4309H11.093V22.4309ZM22 11.532L23 11.5324V11.5324L22 11.532ZM18.8095 3.82141L18.1021 4.52821L18.1021 4.52824L18.8095 3.82141ZM11.0973 0.625L11.0978 -0.375H11.0973V0.625ZM-0.805224 11.5231C-0.805804 13.6187 -0.258104 15.6667 0.784283 17.4723L2.51638 16.4724C1.65028 14.9721 1.19429 13.2694 1.19478 11.5237L-0.805224 11.5231ZM0.68585 16.7082L-0.860964 22.3559L1.068 22.8842L2.61481 17.2365L0.68585 16.7082ZM0.357145 23.5873L6.13683 22.0719L5.62957 20.1373L-0.150113 21.6527L0.357145 23.5873ZM5.40507 21.9828C7.15034 22.933 9.1058 23.4308 11.0929 23.4309L11.0931 21.4309C9.43997 21.4308 7.81323 21.0167 6.36134 20.2263L5.40507 21.9828ZM11.093 23.4309H11.0978V21.4309H11.093V23.4309ZM11.0978 23.4309C17.6586 23.4309 22.9972 18.0941 23 11.5324L21 11.5316C20.9977 16.9892 16.5541 21.4309 11.0978 21.4309V23.4309ZM23 11.5324C23.0013 8.35507 21.7629 5.36234 19.5169 3.11457L18.1021 4.52824C19.9733 6.40082 21.001 8.88476 21 11.5316L23 11.5324ZM19.5169 3.1146C17.2711 0.866806 14.2793 -0.37355 11.0978 -0.375L11.0969 1.625C13.7486 1.62621 16.2315 2.65601 18.1021 4.52821L19.5169 3.1146ZM11.0973 -0.375C4.53592 -0.375 -0.802427 4.96157 -0.805136 11.523L1.19486 11.5238C1.19712 6.06655 5.64026 1.625 11.0973 1.625V-0.375Z" fill="#0072BC" mask="url(#path-1-inside-1_347_6709)"/>
<path d="M8.27649 6.80017C8.06508 6.33032 7.8426 6.32084 7.64157 6.3126C7.47694 6.30551 7.28875 6.30604 7.10074 6.30604C6.91255 6.30604 6.60678 6.37683 6.34833 6.65903C6.08961 6.94149 5.3606 7.62408 5.3606 9.01239C5.3606 10.4008 6.37181 11.7425 6.51278 11.9309C6.65392 12.119 8.46494 15.0592 11.3332 16.1903C13.7169 17.1303 14.202 16.9433 14.7194 16.8962C15.2368 16.8492 16.389 16.2138 16.624 15.5548C16.8593 14.896 16.8593 14.3313 16.7888 14.2132C16.7182 14.0957 16.53 14.025 16.2478 13.884C15.9655 13.7428 14.5782 13.0602 14.3196 12.966C14.0609 12.8719 13.8728 12.8249 13.6846 13.1075C13.4964 13.3896 12.956 14.025 12.7913 14.2132C12.6268 14.4019 12.462 14.4254 12.1799 14.2842C11.8976 14.1426 10.9888 13.845 9.91058 12.8838C9.07169 12.1358 8.50535 11.2121 8.34072 10.9296C8.1761 10.6474 8.32309 10.4945 8.46459 10.3539C8.59138 10.2275 8.74688 10.0244 8.88811 9.85969C9.02881 9.69489 9.07577 9.57731 9.16986 9.38912C9.26405 9.20076 9.21691 9.03596 9.14647 8.89481C9.07577 8.75367 8.52741 7.3581 8.27649 6.80017Z" fill="#0072BC"/>
</svg>
