<svg width="50" height="12" viewBox="0 0 50 12" fill="none" xmlns="http://www.w3.org/2000/svg">
<path d="M7.72262 5.97619H7.64382L5.26661 0.725329C5.20095 0.560812 5.04334 0.464844 4.8726 0.464844H0.433411C0.197004 0.464844 0 0.670491 0 0.917268V10.7746C0 11.0214 0.197004 11.227 0.433411 11.227H3.6249C3.86131 11.227 4.05832 11.0214 4.05832 10.7746V5.67457H4.13712L6.68506 10.9803C6.76386 11.1311 6.90833 11.227 7.06593 11.227H11.3475C11.5839 11.227 11.7809 11.0214 11.7809 10.7746V0.917268C11.7809 0.670491 11.5839 0.464844 11.3475 0.464844H8.15603C7.91962 0.464844 7.72262 0.670491 7.72262 0.917268V5.97619Z" fill="#717171" fill-opacity="0.6"/>
<path d="M17.507 6.51083H23.207C23.3515 6.51083 23.4565 6.38744 23.4565 6.25034V5.45517C23.4565 5.30437 23.3383 5.19469 23.207 5.19469H17.507V3.6729H23.4697C23.7061 3.6729 23.9031 3.46725 23.9031 3.22048V0.930938C23.9031 0.684161 23.7061 0.478516 23.4697 0.478516H13.5406C13.3042 0.478516 13.1072 0.684161 13.1072 0.930938V10.802C13.1072 11.0488 13.3042 11.2407 13.5275 11.2407H23.5222C23.7586 11.2407 23.9556 11.0351 23.9556 10.7883V8.63585C23.9556 8.38908 23.7586 8.18343 23.5222 8.18343H17.4938V6.51083H17.507Z" fill="#717171" fill-opacity="0.6"/>
<path d="M37.09 4.7286C37.09 0.985817 35.0412 0.464844 32.3225 0.464844H25.7425C25.5061 0.464844 25.3091 0.670491 25.3091 0.917268V10.7746C25.3091 11.0214 25.5061 11.227 25.7425 11.227H29.2755C29.5119 11.227 29.7089 11.0214 29.7089 10.7746V8.86895H30.4575C30.6939 10.048 31.6001 10.9666 32.7559 11.1722C32.8872 11.1996 33.0317 11.227 33.1893 11.227H36.6697C36.9061 11.227 37.1032 11.0214 37.1032 10.7746V8.86895C37.1032 8.62218 36.9061 8.41653 36.6697 8.41653H35.2513C36.4333 7.90927 37.09 6.85362 37.09 4.7286ZM29.6957 3.63181H31.6789C32.1649 3.63181 32.572 4.02939 32.6114 4.53666C32.7034 5.7157 32.3488 6.11328 31.3769 6.1407H29.6957V3.63181V3.63181Z" fill="#717171" fill-opacity="0.6"/>
<path d="M50 5.78425C50 1.87695 48.1875 0.464844 44.6808 0.464844H38.8626C38.6262 0.464844 38.4292 0.670491 38.4292 0.917268V10.7198C38.4292 11.0077 38.6525 11.227 38.9152 11.227H44.6808C48.2007 11.227 50 9.81493 50 5.90764C50 5.88022 50 5.86651 50 5.8528C50 5.82538 50 5.81167 50 5.78425ZM43.9322 7.92298H42.7502V6.71652V3.76891H43.9322C45.2456 3.76891 45.5871 4.52295 45.6002 5.83909C45.5871 7.18265 45.2456 7.92298 43.9322 7.92298Z" fill="#717171" fill-opacity="0.6"/>
</svg>
