<svg width="11" height="10" viewBox="0 0 11 10" fill="none" xmlns="http://www.w3.org/2000/svg">
<path d="M5.50024 8.75C5.36224 8.74984 5.22749 8.71193 5.11352 8.64121C3.42506 7.59922 2.69395 6.88477 2.29069 6.43809C1.43131 5.48594 1.01989 4.5084 1.03149 3.4498C1.04502 2.23672 2.11559 1.25 3.41797 1.25C4.365 1.25 5.02092 1.73496 5.40291 2.13887C5.41501 2.15153 5.42997 2.16169 5.44676 2.16865C5.46355 2.17561 5.48178 2.17921 5.50024 2.17921C5.51869 2.17921 5.53693 2.17561 5.55372 2.16865C5.57051 2.16169 5.58546 2.15153 5.59756 2.13887C5.97955 1.73457 6.63547 1.25 7.5825 1.25C8.88489 1.25 9.95545 2.23672 9.96899 3.45C9.98059 4.50879 9.56873 5.48633 8.70979 6.43828C8.30653 6.88496 7.57541 7.59941 5.88696 8.64141C5.77296 8.71206 5.63821 8.7499 5.50024 8.75Z" fill="#0072BC"/>
</svg>
