<svg width="53" height="54" viewBox="0 0 53 54" fill="none" xmlns="http://www.w3.org/2000/svg">
<path d="M18.1453 47.7609C17.8153 47.7609 17.4953 47.6308 17.2553 47.3908C17.2053 47.3408 12.2553 42.3508 7.2153 37.6608C6.9353 37.4008 6.7853 37.0209 6.8153 36.6309C6.8453 36.2409 7.0553 35.8909 7.3753 35.6809C12.1653 32.5109 12.3853 31.2808 13.3053 26.0908C13.5953 24.4808 13.9453 22.4709 14.5153 19.9809C17.0253 9.04085 25.0453 2.91083 25.3853 2.65083C25.9453 2.23083 26.7353 2.34083 27.1553 2.90083C27.5753 3.46083 27.4653 4.25085 26.9053 4.67085C26.8253 4.73085 19.2753 10.5308 16.9753 20.5408C16.4153 22.9808 16.0653 24.9508 15.7853 26.5308C14.9653 31.1308 14.5853 33.3009 11.0553 36.1309C10.5453 36.5409 10.5053 37.3009 10.9753 37.7409C13.2353 39.8809 15.3353 41.9408 16.8253 43.4108C17.2253 43.8108 17.8853 43.7608 18.2153 43.2908C20.0253 40.7208 24.2253 37.3509 33.9653 36.6909C42.2053 36.1309 48.4553 27.8809 48.5153 27.8009C48.9353 27.2409 49.7253 27.1308 50.2853 27.5408C50.8453 27.9608 50.9653 28.7509 50.5453 29.3109C50.2653 29.6909 43.5553 38.5708 34.1353 39.2108C20.5453 40.1408 19.4253 46.4009 19.3853 46.6709C19.3153 47.1409 18.9753 47.5409 18.5253 47.6909C18.4153 47.7409 18.2753 47.7609 18.1453 47.7609Z" fill="#323232"/>
<path d="M47.5053 29.3809C43.4253 29.3809 37.7453 26.1108 32.6353 20.4608C25.7153 12.8108 23.2453 4.56083 26.8853 1.27083C30.5253 -2.01917 38.4853 1.27086 45.3953 8.92086C52.3153 16.5709 54.7853 24.8209 51.1453 28.1109C50.2053 28.9709 48.9553 29.3809 47.5053 29.3809ZM30.5353 2.52083C29.7053 2.52083 29.0453 2.72083 28.5853 3.14083C26.4553 5.07083 28.3653 11.9609 34.5153 18.7609C40.6653 25.5709 47.3253 28.1609 49.4653 26.2409C51.5953 24.3109 49.6853 17.4209 43.5353 10.6209C38.6953 5.27087 33.5453 2.52083 30.5353 2.52083Z" fill="#323232"/>
<path d="M42.2054 20.2709C41.6054 20.2709 40.9054 20.0209 40.1054 19.5209C39.1454 18.9209 38.0554 17.9709 37.0454 16.8609C36.0254 15.7309 32.8554 11.9309 34.7554 10.2109C36.6554 8.49091 40.1254 12.0309 41.1354 13.1609C42.1454 14.2809 42.9754 15.4509 43.4754 16.4809C44.2154 17.9909 44.1954 19.1109 43.4254 19.8109C43.0854 20.1109 42.6754 20.2709 42.2054 20.2709ZM37.3154 13.0409C37.6754 13.6309 38.2054 14.3609 38.9254 15.1609C39.6454 15.9609 40.3154 16.5509 40.8754 16.9709C40.5154 16.3809 39.9854 15.6409 39.2654 14.8509C38.5354 14.0609 37.8654 13.4609 37.3154 13.0409Z" fill="#323232"/>
<path d="M9.05533 53.691C8.99533 53.691 8.92532 53.691 8.86532 53.691C7.36532 53.621 6.12532 52.991 5.39532 51.941C4.86532 51.181 4.61533 50.241 4.66533 49.151C3.03533 49.301 1.75533 48.531 1.01533 47.601C-0.414666 45.801 -0.324674 43.171 1.22533 41.501C2.37533 40.261 3.56533 40.001 4.35533 40.001C5.28533 40.001 6.08533 40.341 6.66533 40.701L9.55533 38.021C10.0653 37.551 10.8653 37.581 11.3453 38.091C11.8253 38.601 11.7853 39.401 11.2753 39.881L7.58533 43.291C7.33533 43.521 7.00534 43.641 6.67534 43.631C6.33534 43.621 6.02533 43.471 5.79533 43.221C5.61533 43.031 4.98534 42.531 4.34534 42.531H4.33533C3.91533 42.531 3.49533 42.761 3.07533 43.221C2.29533 44.061 2.41534 45.311 2.98534 46.031C3.58534 46.781 4.52533 46.841 5.65533 46.201C6.10533 45.941 6.66533 45.991 7.07533 46.311C7.47533 46.641 7.64534 47.171 7.48534 47.671C7.08534 48.941 7.08533 49.941 7.46533 50.491C7.83533 51.031 8.57534 51.141 8.98534 51.161C9.45534 51.171 10.1653 50.921 10.6253 50.281C11.1353 49.561 11.1553 48.571 10.6853 47.411C10.5053 46.971 10.5853 46.471 10.8953 46.111C13.0253 43.621 13.8653 42.511 13.8753 42.501C14.2953 41.941 15.0853 41.831 15.6453 42.251C16.2053 42.671 16.3153 43.461 15.8953 44.021C15.8653 44.061 15.1353 45.031 13.2853 47.201C13.9453 49.441 13.2153 50.981 12.6853 51.741C11.8453 52.941 10.4253 53.691 9.05533 53.691Z" fill="#323232"/>
</svg>
