<svg width="67" height="65" viewBox="0 0 67 65" fill="none" xmlns="http://www.w3.org/2000/svg">
<path d="M39.8745 30.2134C39.582 30.2157 39.2895 30.202 38.9985 30.1723C38.6438 30.1306 38.3201 29.9499 38.0983 29.6699C37.8766 29.3898 37.775 29.0333 37.8157 28.6784C37.8564 28.3236 38.0361 27.9993 38.3155 27.7768C38.5949 27.5542 38.9512 27.4515 39.3061 27.4912C39.4897 27.5122 43.5327 27.9057 45.6821 24.8096C45.783 24.6635 45.9117 24.5388 46.0608 24.4426C46.2099 24.3464 46.3765 24.2805 46.5512 24.2488C46.7258 24.2171 46.9049 24.2201 47.0784 24.2577C47.2518 24.2953 47.4161 24.3668 47.5619 24.468C47.7077 24.5692 47.8321 24.6982 47.928 24.8475C48.0238 24.9969 48.0893 25.1637 48.1206 25.3384C48.1519 25.5131 48.1484 25.6922 48.1104 25.8656C48.0724 26.0389 48.0005 26.2031 47.8989 26.3486C46.9708 27.5906 45.7567 28.5905 44.3598 29.2633C42.9629 29.9361 41.4243 30.262 39.8745 30.2134Z" fill="#323232"/>
<path d="M40.3705 33.8182C40.0131 33.8187 39.67 33.6773 39.4167 33.4251C39.1634 33.1729 39.0205 32.8305 39.0193 32.473C39.0181 32.1156 39.1588 31.7723 39.4105 31.5184C39.6622 31.2646 40.0043 31.1209 40.3617 31.119C40.5463 31.1161 44.3139 30.9999 47.724 27.0443C47.9581 26.7741 48.2897 26.6077 48.6462 26.5817C49.0028 26.5557 49.3551 26.6722 49.6258 26.9056C49.8966 27.139 50.0637 27.4702 50.0906 27.8267C50.1174 28.1832 50.0017 28.5357 49.769 28.807C45.5033 33.7543 40.5795 33.8178 40.3725 33.8182H40.3705Z" fill="#323232"/>
<path d="M53.9087 31.2304C52.8439 31.2821 51.7799 31.1132 50.7834 30.7345C49.7869 30.3557 48.8794 29.7751 48.1177 29.0292C46.6388 27.3544 45.826 25.1951 45.8335 22.9609C45.8364 22.8532 45.8522 22.7464 45.8804 22.6425C46.8238 19.1835 49.6441 15.0756 57.7154 15.0756C57.7692 15.0756 57.8228 15.0761 57.8765 15.0761L57.9742 15.0766C58.441 14.7694 59.6901 12.5649 59.8346 7.85929C59.8429 7.59118 59.9308 7.33161 60.0873 7.11372C60.2437 6.89583 60.4616 6.72949 60.713 6.63596C60.9644 6.54243 61.238 6.52595 61.4988 6.5886C61.7596 6.65125 61.9959 6.79019 62.1774 6.98771C66.4967 11.6903 67.6588 17.7245 65.2838 23.1303C63.1558 27.975 58.5845 31.2304 53.9087 31.2304ZM48.5337 23.1767C48.5661 24.642 49.1075 26.0504 50.065 27.1601C50.579 27.6376 51.1849 28.0055 51.8458 28.2412C52.5066 28.4769 53.2085 28.5756 53.9087 28.5312C57.5308 28.5312 61.1089 25.9247 62.813 22.0448C63.5633 20.3678 63.8975 18.5344 63.7873 16.7004C63.6772 14.8665 63.1258 13.0863 62.1802 11.5111C61.5787 14.9804 60.2242 17.7763 58.0542 17.7763L57.8579 17.7753C52.7525 17.7045 49.6031 19.5585 48.5337 23.1767Z" fill="#323232"/>
<path d="M47.433 23.5622C47.0847 23.5618 46.75 23.427 46.4987 23.1858C46.2474 22.9446 46.099 22.6157 46.0844 22.2677C45.7846 14.9401 54.3354 6.72135 54.6996 6.37516C54.8819 6.20193 55.109 6.08308 55.3553 6.03202C55.6015 5.98096 55.8572 5.9997 56.0933 6.08616C56.3295 6.17262 56.5368 6.32336 56.6919 6.52134C56.847 6.71933 56.9437 6.9567 56.9711 7.20671C57.2623 10.3484 57.263 13.5102 56.9731 16.652C56.9384 17.0085 56.7637 17.3367 56.4871 17.5643C56.2106 17.7919 55.855 17.9004 55.4985 17.8659C52.9418 17.6174 52.3676 18.3288 49.9262 21.3161C49.4907 21.8488 49.0102 22.4377 48.4633 23.0837C48.3368 23.2336 48.179 23.3541 48.001 23.4367C47.8231 23.5194 47.6292 23.5622 47.433 23.5622ZM54.4682 10.5739C52.7231 12.5452 51.2365 14.731 50.0443 17.0783C50.5991 16.4768 51.27 15.9941 52.0166 15.6593C52.7632 15.3246 53.57 15.1447 54.3881 15.1305C54.4994 13.4357 54.5023 11.8537 54.4682 10.5739Z" fill="#323232"/>
<path d="M54.144 41.7905C53.9383 41.7909 53.7352 41.7441 53.5504 41.6538C53.3655 41.5635 53.2038 41.432 53.0776 41.2695L50.1978 37.5684H41.3862C41.0283 37.5684 40.685 37.4262 40.4319 37.1731C40.1788 36.92 40.0366 36.5767 40.0366 36.2188C40.0366 35.8608 40.1788 35.5175 40.4319 35.2644C40.685 35.0113 41.0283 34.8691 41.3862 34.8691H50.8579C51.0634 34.8692 51.2662 34.9162 51.4508 35.0065C51.6355 35.0968 51.7971 35.228 51.9233 35.3901L55.2085 39.6123C55.3635 39.8117 55.4595 40.0506 55.4856 40.3018C55.5116 40.553 55.4666 40.8065 55.3557 41.0334C55.2448 41.2604 55.0725 41.4516 54.8583 41.5854C54.6441 41.7193 54.3966 41.7903 54.144 41.7905Z" fill="#323232"/>
<path d="M54.1441 47.7354C53.9245 47.7357 53.7082 47.6824 53.514 47.58C53.3198 47.4776 53.1536 47.3293 53.0298 47.1479L50.3804 43.2769H42.3521C41.9941 43.2769 41.6508 43.1347 41.3977 42.8816C41.1446 42.6285 41.0024 42.2852 41.0024 41.9272C41.0024 41.5693 41.1446 41.226 41.3977 40.9729C41.6508 40.7198 41.9941 40.5776 42.3521 40.5776H51.0924C51.3117 40.5776 51.5278 40.631 51.7218 40.7334C51.9158 40.8358 52.0819 40.9839 52.2057 41.165L55.2564 45.6235C55.3951 45.8262 55.4759 46.0628 55.49 46.3079C55.5042 46.5531 55.4512 46.7974 55.3368 47.0147C55.2223 47.2319 55.0508 47.4138 54.8406 47.5408C54.6305 47.6678 54.3896 47.7351 54.1441 47.7354Z" fill="#323232"/>
<path d="M54.6919 54.1494C54.4899 54.1497 54.2904 54.1046 54.1082 54.0173C53.9259 53.9301 53.7656 53.803 53.6392 53.6455L50.2114 49.3843H41.9819C41.624 49.3843 41.2807 49.2421 41.0276 48.989C40.7745 48.7359 40.6323 48.3926 40.6323 48.0347C40.6323 47.6767 40.7745 47.3335 41.0276 47.0804C41.2807 46.8273 41.624 46.6851 41.9819 46.6851H50.8579C51.0598 46.6851 51.259 46.7305 51.441 46.8177C51.623 46.9049 51.7832 47.0317 51.9097 47.189L55.7427 51.9541C55.9021 52.1524 56.0023 52.3917 56.0316 52.6444C56.0608 52.8971 56.0181 53.153 55.9083 53.3825C55.7984 53.612 55.6259 53.8057 55.4107 53.9414C55.1955 54.0771 54.9463 54.1492 54.6919 54.1494Z" fill="#323232"/>
<path d="M38.0991 25.4937C37.2831 25.4936 36.4855 25.2516 35.807 24.7982C35.1286 24.3448 34.5998 23.7004 34.2876 22.9465C33.9754 22.1926 33.8937 21.3631 34.053 20.5628C34.2122 19.7625 34.6052 19.0274 35.1822 18.4504C35.7593 17.8735 36.4944 17.4806 37.2947 17.3214C38.095 17.1623 38.9246 17.244 39.6785 17.5563C40.4323 17.8687 41.0766 18.3975 41.5299 19.076C41.9832 19.7545 42.2252 20.5522 42.2251 21.3682C42.2239 22.462 41.7888 23.5107 41.0152 24.2842C40.2417 25.0576 39.193 25.4926 38.0991 25.4937ZM38.0991 19.9414C37.817 19.9415 37.5412 20.0252 37.3067 20.1819C37.0721 20.3387 36.8893 20.5615 36.7814 20.8221C36.6734 21.0828 36.6452 21.3696 36.7002 21.6463C36.7553 21.923 36.8912 22.1771 37.0907 22.3766C37.2901 22.5761 37.5443 22.712 37.821 22.767C38.0977 22.8221 38.3845 22.7939 38.6451 22.6859C38.9058 22.578 39.1286 22.3952 39.2854 22.1606C39.4421 21.9261 39.5258 21.6503 39.5259 21.3682C39.5255 20.9899 39.375 20.6272 39.1076 20.3597C38.8401 20.0922 38.4774 19.9418 38.0991 19.9414Z" fill="#323232"/>
<path d="M36.2348 18.6122C35.9334 18.6124 35.6405 18.5117 35.403 18.3262C35.1654 18.1407 34.9968 17.8809 34.924 17.5884C34.8512 17.2959 34.8784 16.9875 35.0013 16.7122C35.1241 16.437 35.3356 16.2108 35.602 16.0697C35.7406 15.9852 39.6117 13.4798 40.0375 1.43884C40.0507 1.08151 40.2052 0.74404 40.467 0.500514C40.7288 0.256988 41.0766 0.127331 41.4339 0.14001C41.7913 0.152688 42.129 0.306671 42.3729 0.568141C42.6168 0.82961 42.747 1.17718 42.7348 1.53454C42.2446 15.392 37.3861 18.1972 36.8334 18.4716C36.6475 18.5641 36.4425 18.6123 36.2348 18.6122Z" fill="#323232"/>
<path d="M33.2574 57.5912C32.9043 57.5911 32.5653 57.4526 32.3132 57.2054C32.0611 56.9583 31.9159 56.6221 31.9087 56.2691C31.9016 55.9161 32.033 55.5744 32.2749 55.3172C32.5168 55.06 32.8499 54.9079 33.2027 54.8935C39.3521 54.6396 40.648 51.0961 40.9839 44.2079C41.1138 41.5404 40.6255 36.6332 37.5601 28.4062L37.4673 28.1576C37.1124 27.0567 36.9341 25.9066 36.939 24.7499L36.9097 24.2216C36.8895 23.8644 37.0119 23.5138 37.25 23.2468C37.4882 22.9798 37.8226 22.8182 38.1798 22.7976C38.537 22.7771 38.8877 22.8991 39.155 23.137C39.4222 23.3749 39.5841 23.7092 39.605 24.0663L39.6343 24.6034C39.6219 25.4905 39.7454 26.3743 40.0005 27.224L40.0894 27.4638C43.315 36.1205 43.8218 41.4194 43.6792 44.3398C43.3765 50.5561 42.3013 57.2192 33.314 57.5898C33.2954 57.5908 33.2759 57.5912 33.2574 57.5912Z" fill="#323232"/>
<path d="M29.2837 20.2402C29.0529 20.24 28.8259 20.1807 28.6246 20.0677C28.4233 19.9548 28.2543 19.7922 28.1338 19.5953C28.0133 19.3984 27.9453 19.1739 27.9363 18.9432C27.9273 18.7126 27.9777 18.4835 28.0825 18.2778C29.204 16.2626 30.6528 14.448 32.3696 12.9082C32.6156 12.6929 32.9314 12.5742 33.2583 12.5742C33.5852 12.5742 33.901 12.6929 34.147 12.9082C35.863 14.4485 37.3116 16.2626 38.4341 18.2769C38.5146 18.4347 38.5633 18.6069 38.5773 18.7836C38.5913 18.9602 38.5703 19.1379 38.5156 19.3065C38.461 19.4751 38.3736 19.6313 38.2586 19.7661C38.1436 19.9009 38.0031 20.0117 37.8452 20.0923C37.6874 20.1728 37.5152 20.2215 37.3385 20.2355C37.1618 20.2495 36.9841 20.2285 36.8156 20.1738C36.647 20.1191 36.4908 20.0318 36.356 19.9168C36.2212 19.8017 36.1103 19.6613 36.0298 19.5034C35.2839 18.1458 34.351 16.8997 33.2583 15.8018C32.1654 16.8995 31.2324 18.1456 30.4868 19.5034C30.3738 19.7253 30.2017 19.9116 29.9893 20.0417C29.7769 20.1717 29.5327 20.2404 29.2837 20.2402Z" fill="#323232"/>
<path d="M33.2593 57.591C33.2407 57.591 33.2212 57.5905 33.2027 57.5896C24.2163 57.2189 23.1401 50.5559 22.8364 44.3396C22.6939 41.4187 23.2017 36.1203 26.4273 27.4636L26.5161 27.2238C26.7723 26.3713 26.8958 25.4845 26.8823 24.5944L26.9058 24.1677C26.9263 23.8106 27.0878 23.4763 27.3546 23.2382C27.6215 23.0001 27.9719 22.8776 28.329 22.8976C28.6861 22.9177 29.0206 23.0786 29.2591 23.3451C29.4976 23.6116 29.6206 23.9619 29.6011 24.319L29.5777 24.7404C29.5831 25.9002 29.4048 27.0535 29.0493 28.1574L28.9566 28.406C25.8911 36.6335 25.4019 41.5402 25.5318 44.2082C25.8687 51.0954 27.1646 54.6394 33.314 54.8933C33.6667 54.9077 33.9998 55.0598 34.2417 55.317C34.4836 55.5742 34.6151 55.9159 34.6079 56.2689C34.6008 56.6219 34.4556 56.958 34.2034 57.2052C33.9513 57.4524 33.6124 57.5909 33.2593 57.591Z" fill="#323232"/>
<path d="M26.6421 30.2131C25.0923 30.2618 23.5537 29.9359 22.1568 29.2631C20.7598 28.5903 19.5458 27.5904 18.6177 26.3484C18.4136 26.0544 18.3346 25.6914 18.3982 25.3392C18.4617 24.987 18.6626 24.6745 18.9565 24.4704C19.2505 24.2663 19.6135 24.1874 19.9657 24.2509C20.3179 24.3145 20.6304 24.5153 20.8345 24.8093C22.9858 27.9099 27.0376 27.5085 27.2115 27.4909C27.5662 27.4518 27.922 27.5548 28.201 27.7775C28.48 28.0001 28.6594 28.3242 28.7 28.6788C28.7405 29.0334 28.6389 29.3897 28.4174 29.6695C28.1959 29.9494 27.8725 30.1301 27.5181 30.1721C27.2271 30.2017 26.9346 30.2154 26.6421 30.2131Z" fill="#323232"/>
<path d="M26.146 33.8182H26.144C25.937 33.8178 21.0132 33.7542 16.7476 28.807C16.5148 28.5357 16.3991 28.1832 16.4259 27.8267C16.4528 27.4702 16.6199 27.139 16.8907 26.9056C17.1615 26.6722 17.5137 26.5557 17.8703 26.5817C18.2268 26.6077 18.5585 26.7741 18.7925 27.0443C22.2144 31.014 25.9976 31.1166 26.1567 31.119C26.5129 31.1232 26.8529 31.2679 27.1028 31.5217C27.3527 31.7755 27.4921 32.1178 27.4907 32.474C27.4893 32.8301 27.3471 33.1713 27.0952 33.4231C26.8434 33.6749 26.5022 33.8169 26.146 33.8182Z" fill="#323232"/>
<path d="M12.6078 31.2304C7.93107 31.2304 3.35977 27.975 1.23182 23.1298C-1.14218 17.724 0.0199051 11.6898 4.33925 6.98771C4.52074 6.79019 4.75701 6.65125 5.01783 6.5886C5.27866 6.52595 5.55222 6.54243 5.80363 6.63596C6.05504 6.7295 6.27288 6.89583 6.42933 7.11372C6.58579 7.33161 6.67375 7.59118 6.68202 7.85929C6.82655 12.5649 8.07557 14.7694 8.54237 15.0766L8.64003 15.0761C8.69374 15.0761 8.74843 15.0756 8.80116 15.0756C16.8734 15.0756 19.6928 19.183 20.6362 22.6425C20.6644 22.7464 20.6802 22.8532 20.6831 22.9609C20.6906 25.1951 19.8778 27.3544 18.3989 29.0292C17.6372 29.7751 16.7297 30.3557 15.7332 30.7345C14.7367 31.1132 13.6727 31.2821 12.6078 31.2304ZM4.33635 11.5111C3.39036 13.0861 2.83872 14.8662 2.72837 16.7001C2.61803 18.5339 2.95224 20.3674 3.70256 22.0444C5.40764 25.9242 8.98575 28.5312 12.6078 28.5312C13.3112 28.576 14.0164 28.4763 14.6798 28.2382C15.3432 28.0002 15.9508 27.6287 16.4653 27.1469C17.4128 26.0378 17.9487 24.6359 17.9828 23.1777C16.9145 19.559 13.7836 17.7294 8.65861 17.7753L8.46232 17.7763C6.2924 17.7763 4.93791 14.9804 4.33635 11.5111Z" fill="#323232"/>
<path d="M19.0834 23.5622C18.8872 23.5622 18.6934 23.5194 18.5154 23.4367C18.3375 23.3541 18.1797 23.2336 18.0531 23.0837C17.5063 22.4377 17.0258 21.8488 16.5902 21.3161C14.1479 18.3268 13.5648 17.6178 11.018 17.8659C10.6615 17.9004 10.3059 17.7919 10.0293 17.5643C9.75279 17.3367 9.57798 17.0085 9.54336 16.652C9.25343 13.5102 9.25411 10.3484 9.54537 7.20671C9.57276 6.9567 9.66943 6.71933 9.82452 6.52134C9.9796 6.32336 10.1869 6.17262 10.4231 6.08616C10.6593 5.9997 10.9149 5.98096 11.1612 6.03202C11.4074 6.08308 11.6345 6.20193 11.8168 6.37516C12.1811 6.72135 20.7318 14.9401 20.4321 22.2677C20.4175 22.6157 20.269 22.9446 20.0178 23.1858C19.7665 23.427 19.4317 23.5618 19.0834 23.5622ZM12.1283 15.1305C12.9464 15.1445 13.7532 15.3242 14.4998 15.6589C15.2464 15.9936 15.9174 16.4763 16.4721 17.0778C15.2796 14.7308 13.7931 12.5452 12.0482 10.5739C12.0141 11.8537 12.017 13.4357 12.1283 15.1305Z" fill="#323232"/>
<path d="M12.3726 41.7905C12.1201 41.7904 11.8726 41.7193 11.6584 41.5855C11.4442 41.4516 11.2719 41.2604 11.161 41.0334C11.0501 40.8065 11.0051 40.553 11.0311 40.3018C11.0571 40.0506 11.1531 39.8117 11.3082 39.6123L14.5933 35.3901C14.7196 35.228 14.8812 35.0968 15.0658 35.0065C15.2505 34.9162 15.4532 34.8692 15.6588 34.8691H25.1304C25.4884 34.8691 25.8316 35.0113 26.0847 35.2644C26.3378 35.5175 26.48 35.8608 26.48 36.2188C26.48 36.5767 26.3378 36.92 26.0847 37.1731C25.8316 37.4262 25.4884 37.5684 25.1304 37.5684H16.3189L13.439 41.2695C13.3128 41.4319 13.151 41.5633 12.9662 41.6536C12.7814 41.7439 12.5783 41.7907 12.3726 41.7905Z" fill="#323232"/>
<path d="M12.3726 47.7354C12.1271 47.7351 11.8863 47.6678 11.6762 47.5409C11.4661 47.414 11.2945 47.2322 11.18 47.015C11.0655 46.7979 11.0124 46.5536 11.0264 46.3085C11.0403 46.0634 11.1209 45.8268 11.2593 45.624L14.3091 41.1655C14.4332 40.9844 14.5994 40.8362 14.7936 40.7338C14.9877 40.6314 15.2039 40.5778 15.4234 40.5776H24.1636C24.5216 40.5776 24.8648 40.7198 25.1179 40.9729C25.371 41.226 25.5132 41.5693 25.5132 41.9272C25.5132 42.2852 25.371 42.6285 25.1179 42.8816C24.8648 43.1347 24.5216 43.2769 24.1636 43.2769H16.1353L13.4878 47.1475C13.3639 47.3289 13.1975 47.4773 13.0032 47.5798C12.8088 47.6822 12.5923 47.7356 12.3726 47.7354Z" fill="#323232"/>
<path d="M11.8247 54.1494C11.5703 54.1492 11.3211 54.0771 11.1059 53.9414C10.8907 53.8057 10.7182 53.612 10.6083 53.3825C10.4985 53.153 10.4558 52.8971 10.4851 52.6444C10.5143 52.3917 10.6145 52.1524 10.7739 51.9541L14.6069 47.189C14.7334 47.0317 14.8936 46.9049 15.0756 46.8177C15.2576 46.7305 15.4568 46.6851 15.6587 46.6851H24.5347C24.8926 46.6851 25.2359 46.8273 25.489 47.0804C25.7421 47.3335 25.8843 47.6767 25.8843 48.0347C25.8843 48.3926 25.7421 48.7359 25.489 48.989C25.2359 49.2421 24.8926 49.3843 24.5347 49.3843H16.3052L12.8774 53.6455C12.751 53.803 12.5907 53.9301 12.4085 54.0173C12.2262 54.1046 12.0267 54.1497 11.8247 54.1494Z" fill="#323232"/>
<path d="M28.4175 25.4937C27.6015 25.4936 26.8038 25.2516 26.1254 24.7982C25.4469 24.3448 24.9182 23.7004 24.6059 22.9465C24.2937 22.1926 24.2121 21.3631 24.3713 20.5628C24.5306 19.7625 24.9236 19.0274 25.5006 18.4504C26.0776 17.8735 26.8128 17.4806 27.6131 17.3214C28.4134 17.1623 29.243 17.244 29.9968 17.5563C30.7507 17.8687 31.395 18.3975 31.8483 19.076C32.3016 19.7545 32.5435 20.5522 32.5435 21.3682C32.5422 22.462 32.1071 23.5107 31.3336 24.2842C30.5601 25.0576 29.5113 25.4926 28.4175 25.4937ZM28.4175 19.9414C28.1353 19.9415 27.8596 20.0252 27.625 20.1819C27.3905 20.3387 27.2077 20.5615 27.0997 20.8221C26.9918 21.0828 26.9635 21.3696 27.0186 21.6463C27.0736 21.923 27.2095 22.1771 27.409 22.3766C27.6085 22.5761 27.8627 22.712 28.1394 22.767C28.4161 22.8221 28.7028 22.7939 28.9635 22.6859C29.2241 22.578 29.4469 22.3952 29.6037 22.1606C29.7605 21.9261 29.8442 21.6503 29.8442 21.3682C29.8438 20.9899 29.6934 20.6272 29.4259 20.3597C29.1584 20.0922 28.7957 19.9418 28.4175 19.9414Z" fill="#323232"/>
<path d="M30.2699 18.6103C30.0662 18.6102 29.8652 18.5627 29.683 18.4716C29.1303 18.1972 24.2719 15.392 23.7816 1.53458C23.7753 1.35747 23.8039 1.18086 23.8659 1.01481C23.9278 0.848758 24.0219 0.696525 24.1427 0.56684C24.2635 0.437155 24.4087 0.332542 24.5699 0.258979C24.7311 0.185415 24.9053 0.144333 25.0824 0.138098C25.439 0.129434 25.7848 0.260736 26.0458 0.503852C26.3068 0.746968 26.4623 1.08258 26.4789 1.43888C26.9105 13.6371 30.8773 16.0492 30.9174 16.0722C31.224 16.2471 31.4512 16.5338 31.5513 16.8724C31.6514 17.2109 31.6167 17.575 31.4545 17.8886C31.3412 18.1051 31.1711 18.2867 30.9624 18.4139C30.7537 18.541 30.5143 18.6089 30.2699 18.6103Z" fill="#323232"/>
<path d="M33.5775 64.9673C32.4677 64.9042 31.3999 64.5209 30.5033 63.8638C29.7998 64.3741 28.9616 64.666 28.0932 64.7029C27.2249 64.7399 26.3649 64.5204 25.6205 64.0718C24.895 63.5976 24.3061 62.9421 23.9121 62.1701C23.5181 61.3981 23.3327 60.5366 23.3744 59.6709C24.1064 57.6527 24.9485 55.6761 25.8969 53.75C26.0494 53.4263 26.3243 53.1764 26.6611 53.0553C26.9979 52.9342 27.369 52.9519 27.6928 53.1045C28.0165 53.257 28.2664 53.532 28.3875 53.8687C28.5085 54.2055 28.4908 54.5766 28.3383 54.9004C27.3578 56.9815 26.2367 59.5039 26.0336 60.165C26.1031 60.518 26.2449 60.8526 26.4501 61.148C26.6553 61.4434 26.9195 61.6931 27.226 61.8814C27.9945 62.2437 28.9994 61.6856 29.7035 61.1509C29.9371 60.9734 30.2223 60.8768 30.5157 60.8759C30.8091 60.8751 31.0948 60.9699 31.3295 61.146C33.4418 62.73 34.0063 62.4595 34.975 61.3428C35.2035 61.0778 35.5262 60.9122 35.8747 60.8809C36.2232 60.8497 36.5702 60.9552 36.8422 61.1753C37.211 61.4805 37.6405 61.7038 38.1021 61.8306C38.5637 61.9573 39.047 61.9846 39.5199 61.9106C39.9389 61.7544 40.2426 61.2998 40.4252 60.5571C39.7556 58.564 38.9741 56.6102 38.0844 54.7051C37.9226 54.3859 37.8942 54.0155 38.0055 53.6753C38.1168 53.3352 38.3587 53.0532 38.6779 52.8914C38.9971 52.7296 39.3675 52.7012 39.7077 52.8125C40.0478 52.9238 40.3298 53.1657 40.4916 53.4849C41.4914 55.6094 42.3618 57.7924 43.0981 60.022C43.1743 60.2413 43.1928 60.4766 43.1518 60.7051C42.7153 63.1255 41.4487 64.0718 40.4633 64.4395C39.7533 64.6551 39.0064 64.7219 38.2694 64.6356C37.5324 64.5493 36.8211 64.3118 36.1801 63.938C35.4649 64.5835 34.5407 64.949 33.5775 64.9673Z" fill="#323232"/>
<path d="M38.4263 27.793H28.0874C27.7295 27.793 27.3862 27.6508 27.1331 27.3977C26.88 27.1446 26.7378 26.8013 26.7378 26.4434C26.7378 26.0854 26.88 25.7421 27.1331 25.489C27.3862 25.2359 27.7295 25.0938 28.0874 25.0938H38.4263C38.7842 25.0937 39.1275 25.2359 39.3806 25.489C39.6337 25.7421 39.7759 26.0854 39.7759 26.4434C39.7759 26.8013 39.6337 27.1446 39.3806 27.3977C39.1275 27.6508 38.7842 27.793 38.4263 27.793Z" fill="#323232"/>
<path d="M33.2583 38.1141C27.4273 38.1141 24.7525 35.2352 24.6412 35.1127C24.4015 34.8483 24.2763 34.4998 24.293 34.1434C24.3096 33.7869 24.4668 33.4516 24.73 33.2108C24.9933 32.9699 25.3413 32.8431 25.6978 32.8581C26.0543 32.8732 26.3903 33.0287 26.6324 33.2909C26.7359 33.3993 28.7251 35.4149 33.2584 35.4149C37.8179 35.4149 39.8033 33.3768 39.8853 33.2899C40.1303 33.0315 40.467 32.8797 40.8229 32.8673C41.1788 32.8549 41.5253 32.9828 41.7877 33.2235C42.0487 33.4633 42.2044 33.7964 42.2208 34.1505C42.2373 34.5045 42.1132 34.8507 41.8756 35.1136C41.7642 35.2362 39.0893 38.1141 33.2583 38.1141Z" fill="#323232"/>
<path d="M32.6908 45.1625C26.8451 45.1625 23.7758 42.5292 23.644 42.4135C23.3757 42.1778 23.2117 41.8453 23.188 41.489C23.1644 41.1326 23.2829 40.7814 23.5177 40.5123C23.7524 40.2432 24.0843 40.078 24.4405 40.0531C24.7968 40.0282 25.1484 40.1455 25.4184 40.3793C25.5395 40.4823 28.1205 42.6147 33.2104 42.4555C36.1134 42.4587 38.9679 41.711 41.4965 40.2851C41.7916 40.0847 42.154 40.0094 42.5046 40.0755C42.8551 40.1416 43.1652 40.3438 43.367 40.6378C43.5689 40.9319 43.6461 41.294 43.5818 41.6448C43.5175 41.9957 43.3169 42.3068 43.0238 42.5102C40.0754 44.2471 36.7145 45.1602 33.2924 45.1537C33.0893 45.1596 32.8881 45.1625 32.6908 45.1625Z" fill="#323232"/>
<path d="M33.5337 52.1366C33.438 52.1366 33.3423 52.1361 33.2456 52.1351C26.9263 52.0741 24.1675 50.1571 23.8735 49.9389C23.587 49.7263 23.3963 49.4089 23.3432 49.0561C23.29 48.7033 23.3788 48.3439 23.59 48.0563C23.8012 47.7688 24.1177 47.5766 24.4703 47.5219C24.8228 47.4671 25.1827 47.5542 25.4712 47.764C25.5366 47.8085 27.8755 49.3842 33.271 49.4359C38.7212 49.495 40.9946 47.8617 41.0171 47.8451C41.305 47.6359 41.6635 47.5481 42.0154 47.6007C42.3674 47.6532 42.6847 47.8418 42.8989 48.1259C43.1122 48.4085 43.205 48.7639 43.1573 49.1147C43.1096 49.4654 42.9251 49.7831 42.6441 49.9984C42.355 50.2201 39.6724 52.1366 33.5337 52.1366Z" fill="#323232"/>
</svg>
