<svg width="54" height="55" viewBox="0 0 54 55" fill="none" xmlns="http://www.w3.org/2000/svg">
<path d="M53.1042 50.6075L51.0834 44.1405L52.2737 34.9481C52.3334 34.4917 52.2746 34.0276 52.1029 33.6005C51.9312 33.1734 51.6525 32.7977 51.2935 32.5095C50.9345 32.2214 50.5074 32.0306 50.0533 31.9554C49.5992 31.8802 49.1333 31.9231 48.7006 32.0802C44.6292 33.5399 40.4092 34.5463 36.1171 35.0812C31.9762 35.6168 28.8493 35.0755 27.0719 33.5144C26.5963 33.1115 26.2112 32.6127 25.9415 32.0508C25.6719 31.4889 25.5239 30.8764 25.5071 30.2533C25.5071 28.675 25.5071 24.9792 32.6845 24.9792C38.9736 24.9792 50.6793 24.9792 50.8863 13.3182C51.0626 3.33797 43.2045 0.71185 40.1614 0.5418C38.5337 0.45132 31.1088 0.53504 30.6897 0.5408C24.933 0.4576 13.2398 3.61415 6.09834 12.1997C1.17477 18.1186 -0.512192 25.2809 1.08324 33.4879C1.59963 36.2701 2.50067 38.967 3.76045 41.5009C3.76389 41.5105 3.77033 41.5188 3.77416 41.5284C4.24783 42.4677 4.78439 43.3739 5.38016 44.2408C8.78786 49.1556 15.6854 54.7463 29.1566 53.4806C29.3745 53.4598 29.5383 53.4442 29.6407 53.439C31.4483 53.3532 40.1364 52.036 41.517 51.8259L49.6767 54.1301C49.9296 54.2021 50.1912 54.2389 50.4541 54.2393C50.891 54.2356 51.321 54.1297 51.7096 53.9301C52.0983 53.7305 52.4348 53.4427 52.6923 53.0897C52.9499 52.7368 53.1212 52.3285 53.1927 51.8975C53.2642 51.4664 53.234 51.0247 53.1042 50.6075ZM40.0724 2.1373C40.1665 2.1425 49.4744 2.78317 49.2888 13.2902C49.1239 22.6017 40.6315 23.3818 32.6845 23.3818C32.0155 23.3818 31.4137 23.4207 30.8429 23.477C22.4099 10.707 30.8563 3.26868 32.3197 2.12229C34.6872 2.10103 38.9399 2.07334 40.0724 2.1373ZM29.968 2.15597C27.1223 5.16833 22.1639 12.6857 29.1237 23.7565C24.8119 24.7583 24.0623 27.5836 23.9382 29.3356C18.1494 28.5511 13.8874 26.4174 11.2996 22.9538C9.04982 19.7115 8.0784 15.7518 8.57221 11.8364C14.3271 6.1694 21.9123 2.73752 29.968 2.15597ZM6.84843 13.829C6.79718 17.4353 7.90441 20.9628 10.0073 23.893C12.8971 27.7724 17.6012 30.1352 23.9622 30.9517C24.1705 32.413 24.9006 33.7494 26.0177 34.7141C27.2127 35.7134 28.6548 36.3722 30.1925 36.6212C28.9875 37.4899 27.8475 38.4454 26.7817 39.4801C24.4275 41.6512 21.9933 43.8966 18.9761 44.3272C10.542 45.5328 5.84063 41.3994 5.17896 40.768C3.98924 38.369 3.13864 35.8163 2.65158 33.1831C1.20602 25.7483 2.62348 19.2434 6.84843 13.829ZM29.5648 51.8436C29.4468 51.8493 29.258 51.8665 29.0068 51.8899C17.0529 53.0158 10.648 48.4903 7.29472 44.1507C9.96177 45.499 12.9145 46.1845 15.9028 46.1494C17.0067 46.1475 18.1092 46.0672 19.2018 45.9091C22.7114 45.4073 25.4493 42.8826 27.8648 40.6543C29.9776 38.7053 31.974 36.8644 33.9834 36.8644C34.006 36.8644 34.0251 36.8534 34.0473 36.8515C34.7746 36.8215 35.5242 36.7685 36.3224 36.6652C37.7778 36.4765 39.1476 36.2499 40.4274 36.001C41.4745 38.2234 42.0637 40.6339 42.1599 43.0888C42.256 45.5437 41.8572 47.9929 40.987 50.2904C39.0018 50.5913 31.1771 51.7671 29.5648 51.8436ZM51.2945 52.2758C51.1449 52.4316 50.9555 52.5435 50.7469 52.5995C50.5383 52.6554 50.3183 52.6531 50.1109 52.593L42.624 50.4786C44.3618 45.6519 44.1515 40.3381 42.0378 35.6638C44.4854 35.1292 46.8951 34.433 49.2507 33.5799C49.4233 33.5146 49.6101 33.496 49.7922 33.526C49.9743 33.556 50.1452 33.6337 50.2877 33.751C50.435 33.8673 50.5495 34.02 50.62 34.1939C50.6904 34.3679 50.7145 34.5572 50.6897 34.7432L49.4765 44.1093C49.4615 44.2237 49.4716 44.3399 49.5061 44.4499L51.5794 51.0839C51.6455 51.2896 51.6539 51.5095 51.6037 51.7197C51.5534 51.9298 51.4465 52.1222 51.2945 52.2758Z" fill="#323232"/>
<path d="M50.4543 54.7395C50.1453 54.7389 49.8379 54.6959 49.5407 54.6116L41.485 52.3367C39.5876 52.6253 31.4435 53.8543 29.6647 53.9387C29.5744 53.9436 29.4299 53.9572 29.2385 53.9753C15.4821 55.2663 8.45281 49.5495 4.96892 44.5256C4.36081 43.64 3.81286 42.7146 3.3288 41.7556C2.0424 39.1716 1.12148 36.4213 0.592467 33.5837C-1.03302 25.2214 0.690129 17.9192 5.71405 11.8801C13.0197 3.09839 24.9196 -0.0134385 30.697 0.0407615C30.7604 0.0402715 38.486 -0.0520196 40.1891 0.0427604C43.3659 0.2205 51.5695 2.9539 51.3864 13.3274C51.1706 25.4793 39.1447 25.4793 32.6843 25.4793C26.007 25.4793 26.007 28.7039 26.007 30.2537C26.0232 30.8058 26.1558 31.3482 26.3962 31.8454C26.6366 32.3426 26.9794 32.7834 27.402 33.139C29.068 34.6023 32.0563 35.1028 36.0529 34.5852C40.3079 34.0554 44.4916 33.058 48.528 31.6111C49.0413 31.4245 49.5941 31.3732 50.133 31.4622C50.6719 31.5511 51.1789 31.7773 51.605 32.119C52.0312 32.4607 52.3622 32.9063 52.5661 33.413C52.7701 33.9197 52.8402 34.4704 52.7697 35.012L51.5929 44.0965L53.5812 50.4588C53.7344 50.9508 53.7703 51.4719 53.6859 51.9802C53.6015 52.4886 53.3992 52.9701 53.0952 53.3863C52.7913 53.8024 52.3941 54.1415 51.9354 54.3765C51.4768 54.6115 50.9696 54.7358 50.4543 54.7395ZM41.5485 51.3152L49.8122 53.6492C50.21 53.7617 50.6309 53.7646 51.0302 53.6576C51.4296 53.5507 51.7926 53.3378 52.081 53.0415C52.3694 52.7453 52.5724 52.3766 52.6685 51.9745C52.7646 51.5724 52.7503 51.1518 52.6271 50.7571L50.5734 44.1853L51.7775 34.8836C51.8261 34.5124 51.7784 34.135 51.6389 33.7877C51.4994 33.4403 51.2728 33.1347 50.981 32.9003C50.6892 32.6658 50.342 32.5104 49.9728 32.449C49.6036 32.3876 49.2247 32.4222 48.8727 32.5496C44.7665 34.0223 40.5103 35.0376 36.1813 35.5769C31.8932 36.1321 28.6296 35.5486 26.7419 33.8899C26.2133 33.4398 25.7856 32.8834 25.4867 32.2568C25.1877 31.6302 25.0243 30.9477 25.007 30.2537C25.007 28.6746 25.007 24.4793 32.6843 24.4793C38.8014 24.4793 50.1882 24.4793 50.3864 13.3098C50.5558 3.72584 43.0427 1.20383 40.1335 1.04083C38.4919 0.95098 30.7727 1.03983 30.696 1.04083C25.111 0.95391 13.5651 4.00518 6.4826 12.5198C1.66033 18.3167 0.00849032 25.3397 1.57392 33.3929C2.08304 36.1291 2.9689 38.7817 4.20624 41.2747C4.67368 42.2031 5.20304 43.099 5.79071 43.9564C9.12226 48.7601 15.8669 54.2274 29.1096 52.9827C29.3547 52.9598 29.5134 52.9451 29.6144 52.9397C31.4196 52.8543 40.4211 51.4871 41.4416 51.3318L41.5485 51.3152ZM50.4455 53.1394C50.287 53.1393 50.1293 53.1175 49.9768 53.0745L41.9641 50.8118L42.1564 50.302C43.8515 45.5999 43.6455 40.422 41.5822 35.8694L41.3293 35.3088L41.9294 35.1755C44.3553 34.6457 46.7435 33.9559 49.0783 33.1106C49.3314 33.0148 49.6053 32.9874 49.8723 33.0312C50.1394 33.075 50.3901 33.1884 50.5993 33.3601C50.8141 33.5299 50.981 33.7525 51.0838 34.0063C51.1866 34.26 51.2217 34.536 51.1857 34.8074L49.9724 44.1741C49.9666 44.217 49.9705 44.2607 49.9836 44.302L52.0564 50.9348C52.1502 51.2264 52.1622 51.5381 52.0911 51.836C52.02 52.1339 51.8685 52.4066 51.653 52.6243C51.4968 52.787 51.3093 52.9164 51.1018 53.005C50.8943 53.0935 50.6711 53.1392 50.4455 53.1394ZM43.2771 50.1433L50.2468 52.1121C50.3677 52.1472 50.4959 52.1485 50.6175 52.1158C50.739 52.0831 50.8493 52.0176 50.9362 51.9265C51.0256 51.8377 51.0884 51.7257 51.1178 51.6032C51.1471 51.4806 51.1417 51.3523 51.1022 51.2327L49.029 44.5989C48.973 44.4203 48.9563 44.2318 48.9802 44.0462L50.1935 34.679C50.2077 34.5782 50.195 34.4755 50.1568 34.3812C50.1185 34.2869 50.0561 34.2043 49.9758 34.1419C49.9007 34.078 49.8097 34.0356 49.7124 34.0192C49.6152 34.0029 49.5154 34.0132 49.4235 34.0491C47.2365 34.8418 45.0028 35.4995 42.735 36.0183C44.6118 40.5075 44.8043 45.5235 43.2771 50.1433ZM25.4299 52.5633C15.4016 52.5633 9.85274 48.2791 6.89913 44.4563L5.52169 42.6741L7.52363 43.7063C11.1184 45.4779 15.1789 46.0754 19.1315 45.4143C22.4875 44.9343 25.1643 42.4656 27.5261 40.2869C29.6926 38.2884 31.74 36.3992 33.9231 36.365L34.0041 36.3533C34.8498 36.3181 35.5588 36.26 36.258 36.1697C37.6208 35.9929 38.9914 35.7713 40.3318 35.5105L40.7126 35.4363L40.8791 35.7869C41.9554 38.0719 42.5607 40.5503 42.6588 43.0742C42.757 45.5982 42.346 48.1161 41.4504 50.4778L41.344 50.742L41.0622 50.7844C38.7815 51.1306 31.2151 52.2659 29.5896 52.343C29.4763 52.3484 29.2947 52.365 29.0535 52.388C27.7854 52.5071 26.5778 52.5633 25.4299 52.5633ZM9.13302 45.4998C12.611 49.0438 18.6701 52.3635 28.9602 51.3924C29.2214 51.3679 29.4177 51.3504 29.5398 51.344H29.5412C31.0769 51.2718 38.5105 50.159 40.6277 49.8391C42.1843 45.5174 42.0081 40.7609 40.136 36.5662C38.8986 36.7991 37.6394 36.9988 36.3864 37.1614C35.6579 37.2556 34.9211 37.3162 34.0681 37.3508C32.1687 37.3645 30.2429 39.1409 28.2038 41.0222C25.7351 43.2991 22.9367 45.8801 19.2727 46.4046C15.8699 46.9446 12.3864 46.6338 9.13302 45.4998ZM15.9314 45.0496C11.8712 45.183 7.9095 43.7838 4.8337 41.1301L4.73311 40.9944C3.5234 38.5536 2.65775 35.957 2.16085 33.2786C0.68819 25.7063 2.13302 19.0593 6.45431 13.5218L7.34884 12.3753L7.34835 13.8294C7.29285 17.3285 8.36585 20.7524 10.4084 23.594C13.2028 27.3465 17.7844 29.655 24.0256 30.4558L24.4045 30.5047L24.4572 30.8826C24.6466 32.2261 25.3186 33.4546 26.3479 34.3386C27.4768 35.2776 28.8372 35.8963 30.2869 36.1301L31.4739 36.3586L30.4729 37.0354C29.2891 37.8909 28.1686 38.8308 27.1203 39.8479C24.7082 42.072 22.217 44.3699 19.0471 44.8225C18.0152 44.9718 16.974 45.0477 15.9314 45.0496ZM5.58517 40.4641C6.32394 41.1438 10.9001 44.9768 18.9055 43.8323C21.7678 43.4241 24.1428 41.2332 26.4401 39.115C27.281 38.3396 28.1418 37.5457 29.0256 36.8552C27.7962 36.5204 26.6563 35.9174 25.6877 35.0896C24.5779 34.1338 23.8189 32.8348 23.531 31.3987C17.197 30.5183 12.5134 28.0945 9.60665 24.1917C7.71053 21.5891 6.59842 18.4985 6.40156 15.2845C2.925 20.3485 1.82833 26.3299 3.14229 33.0882C3.61684 35.6466 4.43875 38.1282 5.58517 40.4641ZM24.3992 29.9026L23.8708 29.8313C17.9221 29.0247 13.5574 26.8118 10.8992 23.2532C8.57859 19.9029 7.57366 15.8151 8.07638 11.7707L8.09785 11.6081L8.21163 11.49C14.055 5.72699 21.764 2.23982 29.9504 1.65652L31.1682 1.61352L30.3312 2.49927C27.1965 5.81812 22.9255 12.9578 29.5471 23.4905L29.9206 24.0847L29.237 24.2434C26.2433 24.9392 24.6286 26.6643 24.4367 29.3709L24.3992 29.9026ZM9.04755 12.0642C8.61722 15.7992 9.55993 19.5632 11.6999 22.6545C14.1169 25.8894 18.0832 27.9441 23.4948 28.7668C23.6584 27.4887 24.212 26.2921 25.0802 25.3399C25.9483 24.3877 27.0888 23.7262 28.3464 23.4455C22.2785 13.3069 26.0627 6.08908 28.7922 2.73898C24.112 3.20629 15.3762 5.56714 9.04755 12.0642ZM30.592 24.0046L30.426 23.7526C21.635 10.4411 30.923 2.58125 32.011 1.72871L32.1452 1.62372L32.3152 1.62224C35.2742 1.59685 39.0266 1.57733 40.1008 1.63836C40.1999 1.64374 49.9827 2.3283 49.7888 13.299C49.6155 23.0641 40.8689 23.882 32.6843 23.882C32.0858 23.8826 31.4877 23.9136 30.8923 23.9748L30.592 24.0046ZM32.4963 2.62084C30.6149 4.14916 23.4333 11.0998 31.0969 22.9519C31.6491 22.9045 32.1603 22.8821 32.6843 22.8821C40.7468 22.8821 48.632 22.1409 48.7888 13.2815C48.9645 3.3308 40.4245 2.66136 40.0436 2.63648C39.238 2.59152 36.5612 2.58568 32.4963 2.62084Z" fill="#323232"/>
</svg>
