<svg width="15" height="15" viewBox="0 0 15 15" fill="none" xmlns="http://www.w3.org/2000/svg">
<path d="M14.2239 11.2361L3.11412 0.126248C2.94579 -0.0420827 2.60913 -0.0420827 2.44079 0.126248C0.841653 1.72539 0 3.82952 0 6.01782C0 10.6469 3.70327 14.3502 8.33237 14.3502C10.5207 14.3502 12.6248 13.5085 14.2239 11.9094C14.3923 11.7411 14.3923 11.4044 14.2239 11.2361ZM8.33237 13.4244C4.29243 13.4244 0.925819 10.1419 0.925819 6.01782C0.925819 4.25035 1.59914 2.48288 2.77746 1.13623L6.90156 5.26033H3.78744C3.53494 5.26033 3.36661 5.51283 3.36661 5.76533C3.36661 6.01782 3.61911 6.27032 3.87161 6.27032H6.98572L4.46076 8.79528C4.29243 8.96361 4.29243 9.30027 4.46076 9.4686C4.54493 9.55276 4.71326 9.63693 4.79742 9.63693C4.88159 9.63693 5.04992 9.55276 5.13409 9.4686L7.65905 6.94364V10.5627C7.65905 10.8152 7.91154 11.0677 8.16404 11.0677C8.41653 11.0677 8.66903 10.8152 8.66903 10.5627V7.02781L13.214 11.5727C11.8673 12.751 10.0998 13.4244 8.33237 13.4244Z" fill="#323232"/>
<path d="M8.33271 11.9936C5.05026 11.9936 2.44114 9.30029 2.44114 6.102C2.44114 5.00785 2.7778 3.9137 3.36695 2.98789C3.45112 2.65122 3.36695 2.39873 3.11446 2.2304C2.94613 2.06207 2.60947 2.14623 2.5253 2.39873C1.76781 3.49288 1.43115 4.75536 1.43115 6.01784C1.43115 9.80528 4.54527 12.9194 8.33271 12.9194C9.59519 12.9194 10.9418 12.5827 11.9518 11.9094C12.2043 11.7411 12.2043 11.4886 12.1201 11.2361C11.9518 10.9836 11.6993 10.9836 11.4468 11.0678C10.521 11.6569 9.42686 11.9936 8.33271 11.9936Z" fill="#323232"/>
</svg>
