<svg width="17" height="17" viewBox="0 0 17 17" fill="none" xmlns="http://www.w3.org/2000/svg">
<path d="M16.8275 10.4662C16.7834 10.422 16.7281 10.3906 16.6675 10.3755C16.607 10.3604 16.5434 10.362 16.4837 10.3802C15.1133 10.7944 13.6561 10.8291 12.2675 10.4805C10.879 10.1319 9.61096 9.4131 8.59866 8.4007C7.58635 7.38831 6.86767 6.12025 6.51919 4.73164C6.17071 3.34302 6.20549 1.88588 6.61982 0.515466C6.63821 0.45574 6.63997 0.392131 6.62491 0.331479C6.60985 0.270827 6.57855 0.215428 6.53436 0.171239C6.49017 0.127049 6.43477 0.0957424 6.37411 0.0806846C6.31346 0.0656267 6.24985 0.0673878 6.19013 0.0857783C4.44746 0.620474 2.91792 1.69139 1.81935 3.14601C0.57816 4.80093 -0.0244269 6.84802 0.122217 8.91147C0.268862 10.9749 1.1549 12.9162 2.61765 14.379C4.0804 15.8417 6.0217 16.7277 8.08515 16.8744C10.1486 17.021 12.1957 16.4184 13.8506 15.1773C15.3047 14.0782 16.375 12.5484 16.9091 10.8056C16.9271 10.7469 16.929 10.6845 16.9146 10.6248C16.9002 10.5651 16.8702 10.5103 16.8275 10.4662ZM13.4398 14.6316C11.9174 15.7773 10.0324 16.3347 8.1317 16.2012C6.231 16.0676 4.44245 15.2522 3.09514 13.9049C1.74783 12.5576 0.932397 10.769 0.798884 8.86835C0.665371 6.96765 1.22276 5.08266 2.36849 3.56023C3.2507 2.39361 4.43614 1.49145 5.79568 0.952028C5.48448 2.36285 5.53365 3.82933 5.93867 5.21614C6.34369 6.60294 7.09149 7.86539 8.11308 8.88697C9.13466 9.90855 10.3971 10.6564 11.7839 11.0614C13.1707 11.4664 14.6372 11.5156 16.048 11.2044C15.5086 12.5639 14.6064 13.7493 13.4398 14.6316Z" fill="#323232"/>
</svg>
