<svg width="64" height="63" viewBox="0 0 64 63" fill="none" xmlns="http://www.w3.org/2000/svg">
<path d="M61.9523 9.36866L61.9273 9.42503C61.9147 9.45635 61.9022 9.48767 61.8959 9.53151V9.53778C61.8897 9.54404 61.8897 9.54404 61.8897 9.5503C59.2653 14.3293 54.0917 23.6055 53.2211 24.5951C51.9684 26.0357 50.4276 27.4637 48.0349 26.1422C46.989 25.5597 46.2248 24.6076 45.8866 23.4426C45.8365 23.2735 45.8052 23.0981 45.7676 22.929L45.5985 22.096L44.922 22.4029C41.8154 23.8247 38.9029 24.7454 36.7357 24.9959C36.6292 25.0085 36.5165 24.9834 36.4037 24.9083C36.4037 24.9083 36.3724 24.8895 36.3223 24.8268L35.9277 24.3633L35.4768 24.7767C35.1511 25.0774 34.769 25.3029 34.3556 25.4281C33.6102 25.6661 32.8148 25.591 32.1195 25.2277C31.7625 25.0335 31.4431 24.7642 31.18 24.426L30.9295 24.1065L30.5412 24.2318C29.6142 24.5199 28.4554 25.0899 27.1526 25.8979C25.7371 26.8875 24.7287 28.3469 24.3153 29.9566C23.9395 31.0026 23.6952 31.4974 23.0877 31.4974C22.8622 31.5099 22.643 31.4723 22.4488 31.3972C22.2484 31.322 22.073 31.1968 21.9227 31.0339L21.3089 30.3762L20.9518 31.203C20.8266 31.4723 20.6575 31.7166 20.4382 31.9233C20.219 32.1237 19.9622 32.2803 19.743 32.368C19.5739 32.4181 19.4048 32.4181 19.2607 32.3931C19.0853 32.3555 18.9287 32.2866 18.7784 32.1738C18.5279 32.0047 18.3212 31.7855 18.1646 31.5225C18.008 31.2594 17.9141 30.9587 17.889 30.7145C17.889 30.6393 17.8827 30.5704 17.8765 30.4827L17.7637 29.3616L16.9057 30.0944C16.605 30.3449 16.2417 30.5015 15.8722 30.5266C15.6342 30.5391 15.4024 30.4827 15.1644 30.3762C14.9515 30.276 14.7573 30.132 14.5882 29.9127C14.3815 29.6873 14.2312 29.4305 14.1435 29.1549C14.0245 28.7791 14.0119 28.3782 14.1122 27.9899C14.4003 26.781 15.6404 25.3404 17.6009 23.9249L18.9788 22.9353L17.2815 22.8601C14.9577 22.7599 13.0474 22.215 12.158 21.3819C11.8824 21.1439 11.6819 20.8308 11.5817 20.4925C11.4815 20.1355 11.4878 19.766 11.6005 19.3839C11.6694 19.0833 11.8072 18.7951 11.9889 18.5509C12.1768 18.3066 12.4085 18.0999 12.6528 17.9558C12.8282 17.8619 13.0161 17.8055 13.2102 17.7617L13.9305 17.6239L13.6424 16.9537C13.5798 16.8034 13.5234 16.628 13.4921 16.4338C13.4107 16.0016 13.4733 15.5695 13.6737 15.1874C13.8741 14.7991 14.1998 14.4859 14.6195 14.2917C14.845 14.1665 15.083 14.0976 15.3586 14.0788C15.6091 14.0537 15.8659 14.0913 16.1102 14.179L16.486 14.3168L16.7491 14.0161C18.2022 12.3626 20.0186 13.4587 21.8851 14.8179C22.3298 15.1749 22.8309 15.5006 23.382 15.7887L23.4322 15.8137C24.6222 16.2898 27.1338 15.3064 27.6287 15.106L27.9919 14.9557V14.5611C27.9919 14.2416 28.0358 13.941 28.1109 13.6842C28.2738 13.1267 28.6058 12.6319 29.0442 12.2624C29.4952 11.8866 30.0401 11.6486 30.6101 11.5984C30.8418 11.5671 31.0798 11.5797 31.3429 11.6172L31.9316 11.6987L32.0068 11.1099C32.0193 11.0347 32.0319 10.9721 32.0569 10.9283C32.107 10.8155 32.2072 10.7341 32.3262 10.6902C32.3638 10.6777 35.7398 9.48141 40.3998 8.40409L41.0575 8.25377L40.7819 7.52095C40.7193 7.35184 40.6504 7.17646 40.5877 6.95724C40.0553 5.52917 40.0866 3.96958 40.6566 2.61668C41.878 0.161406 43.8635 0.430734 45.8052 0.919283C46.9639 1.2074 54.9936 5.10952 61.5264 8.36651C61.6266 8.41662 61.708 8.50431 61.7456 8.59826C61.7644 8.64837 61.7769 8.69848 61.7769 8.76737L61.7832 8.92396L61.8772 9.08055C61.8959 9.11186 61.9085 9.13065 61.921 9.15571V9.30603L61.9335 9.31856C61.9523 9.33735 61.9523 9.34987 61.9523 9.36866Z" fill="white"/>
<path d="M62.5348 9.46905C62.5473 9.38762 62.541 9.3062 62.5348 9.22477C62.5285 9.18093 62.541 9.13082 62.5348 9.08698C62.5348 9.08072 62.5285 9.08071 62.5285 9.07445C62.5285 9.06819 62.5285 9.06819 62.5285 9.06192C62.5034 8.96171 62.4596 8.87402 62.4095 8.78633C62.4032 8.77381 62.397 8.75502 62.3907 8.74249C62.3844 8.62348 62.3656 8.51074 62.3218 8.398C62.2278 8.15373 62.0399 7.9533 61.8082 7.83429C59.4281 6.64424 47.5213 0.731549 45.9679 0.343216C44.471 -0.0325906 41.6775 -0.727833 40.1492 2.34125C39.5103 3.8758 39.479 5.59824 40.0553 7.15784C40.1242 7.38332 40.2056 7.60254 40.2933 7.82176C35.84 8.84897 32.489 10.0014 32.1508 10.1204C31.894 10.2081 31.6748 10.396 31.5558 10.6403C31.4931 10.7593 31.4618 10.8846 31.4493 11.0161C31.1612 10.9723 30.8668 10.9597 30.5787 10.9911C29.8834 11.0662 29.232 11.3418 28.6934 11.7928C28.161 12.2375 27.7664 12.8325 27.5722 13.5027C27.472 13.8472 27.4282 14.1979 27.4282 14.5487C26.1817 15.056 24.4029 15.5508 23.6701 15.2502C23.1753 14.9934 22.7055 14.6928 22.2671 14.342C20.7639 13.2459 18.246 11.417 16.3294 13.6092C16.0099 13.4964 15.6654 13.4463 15.3209 13.4714C14.9764 13.4964 14.6445 13.5967 14.3438 13.7595C13.8302 13.9975 13.4169 14.3984 13.1538 14.8995C12.897 15.4005 12.8156 15.9768 12.9158 16.5279C12.9534 16.7472 13.016 16.9601 13.1037 17.1606C12.8531 17.2107 12.6089 17.2921 12.3834 17.4111C12.0452 17.6053 11.7508 17.8683 11.519 18.1752C11.2873 18.4884 11.1182 18.8454 11.0305 19.2212C10.8927 19.6785 10.8864 20.1607 11.018 20.618C11.1495 21.0752 11.4126 21.4823 11.7758 21.7955C12.8531 22.7976 14.9952 23.3175 17.2626 23.4177C15.4274 24.7393 13.9054 26.2989 13.5421 27.8209C13.4169 28.3095 13.4294 28.8168 13.5797 29.2928C13.6924 29.6561 13.8929 29.9943 14.1497 30.2762C14.3564 30.533 14.6257 30.7397 14.9263 30.8838C15.227 31.0215 15.5589 31.0904 15.8909 31.0842C16.4045 31.0466 16.8931 30.8462 17.2877 30.5142C17.2939 30.5706 17.2939 30.627 17.3002 30.6833C17.3315 31.0717 17.4568 31.4475 17.6509 31.7857C17.8514 32.1239 18.1207 32.412 18.4401 32.6312C18.6468 32.7816 18.8786 32.8881 19.1291 32.9319C19.3796 32.9757 19.6364 32.9695 19.8807 32.9068C20.2315 32.7753 20.5572 32.5749 20.8265 32.3181C21.1021 32.0613 21.3213 31.7544 21.4716 31.4099C21.6783 31.6354 21.9351 31.8045 22.217 31.9172C22.4988 32.03 22.8057 32.0801 23.1064 32.0613C24.1649 32.0613 24.5157 31.0779 24.8539 30.1321C25.2485 28.6039 26.1817 27.2635 27.4783 26.3553C29.1256 25.3469 30.1653 24.9335 30.7102 24.7644C31.0171 25.1527 31.3929 25.4847 31.8439 25.7164C32.6707 26.1486 33.6352 26.2363 34.5309 25.9607C35.032 25.8041 35.4955 25.5348 35.8775 25.1778C35.9464 25.2592 36.0153 25.3281 36.103 25.3907C36.3097 25.5222 36.5603 25.5786 36.8045 25.5536C39.1157 25.2905 42.0658 24.3259 45.1662 22.9167C45.2101 23.1484 45.2539 23.3739 45.3228 23.5994C45.6986 24.8896 46.563 25.9795 47.7405 26.6309C50.7532 28.2844 52.6448 26.1235 53.6657 24.9585C54.718 23.756 61.138 12.1122 62.4157 9.78848C62.4471 9.73211 62.4533 9.66321 62.4784 9.60684C62.5034 9.57553 62.5285 9.52542 62.5348 9.46905ZM42.26 7.01378C41.8779 6.00537 41.4959 4.42072 42.0596 3.2933C42.7548 1.90281 43.6254 1.95292 45.4481 2.41015C46.0807 2.56674 49.726 4.28918 53.697 6.21832C52.4757 6.18074 51.2105 6.21206 49.9452 6.29975C47.371 6.30601 44.7967 6.54402 42.26 7.01378ZM29.7143 13.8535C29.8396 13.6092 30.04 13.4088 30.278 13.2772C30.5223 13.1457 30.7916 13.0893 31.0672 13.1144C31.3428 13.1394 31.5996 13.2459 31.8188 13.415C32.0318 13.5904 32.1884 13.8221 32.2761 14.0852C32.3825 14.436 32.3512 14.818 32.1821 15.1437C32.013 15.4694 31.7186 15.7137 31.3679 15.8264C31.1048 15.9079 30.8229 15.9079 30.5599 15.8327C30.2968 15.7575 30.0588 15.601 29.8834 15.388C29.7081 15.175 29.5953 14.9182 29.5703 14.6426C29.5327 14.3733 29.5891 14.0977 29.7143 13.8535ZM15.0516 15.8828C15.0955 15.7951 15.1769 15.7262 15.2708 15.6886C15.4525 15.601 15.5402 15.5571 15.8533 15.7388C15.8721 15.7951 15.8909 15.8452 15.916 15.9016C16.3419 16.9288 17.6008 17.7932 18.9475 18.4383C18.365 18.2692 17.8138 18.0938 17.2939 17.9247C16.962 17.8182 16.6425 17.718 16.3356 17.624C16.0287 17.48 15.7594 17.2796 15.5339 17.029C15.3084 16.7785 15.133 16.4904 15.0203 16.1709C14.9952 16.0707 15.0078 15.9705 15.0516 15.8828ZM17.6134 26.9065C17.1123 27.6706 16.511 28.3596 15.822 28.9546C15.7907 28.9296 15.7594 28.8982 15.7281 28.8669C15.6592 28.798 15.6153 28.7103 15.5965 28.6164C15.5777 28.5224 15.584 28.4285 15.6153 28.3345C15.8659 27.2948 17.5131 25.7477 19.5989 24.4387C18.8974 25.2279 18.2334 26.0484 17.6134 26.9065ZM13.2289 20.2484C13.0223 20.0543 13.0473 19.954 13.0786 19.8413C13.135 19.6409 13.2352 19.3903 13.3855 19.3089C14.0933 19.2087 14.8136 19.3089 15.4713 19.5908C17.0872 20.4238 18.841 20.9374 20.6511 21.1003C17.8889 21.57 14.2875 21.2318 13.2289 20.2484ZM20.5008 28.6477C20.1939 29.3367 19.8431 30.0006 19.4548 30.6457C19.436 30.5894 19.4235 30.5267 19.4172 30.4704C19.3734 30.0758 19.4861 28.6665 22.1042 25.5285C21.4591 26.6559 20.9455 27.727 20.5008 28.6477ZM26.3696 24.5577C25.5303 25.0713 24.81 25.754 24.2463 26.562C24.4718 26.0609 24.7349 25.4972 25.0543 24.8583C25.1733 24.6203 25.1984 24.3385 25.1232 24.0817C25.0481 23.8249 24.8789 23.6056 24.6472 23.4678C24.5094 23.5242 24.3528 23.5367 24.2025 23.5054C24.0522 23.4741 23.9206 23.3989 23.8142 23.2925C23.7077 23.186 23.6388 23.0482 23.6075 22.8979C23.5824 22.7475 23.5949 22.5972 23.6576 22.4594C23.6263 22.4218 23.5949 22.3843 23.5574 22.3467C23.7077 22.165 23.7891 21.9396 23.8016 21.7078C23.8142 21.4761 23.739 21.2443 23.6012 21.0501C23.4634 20.856 23.2692 20.7182 23.0438 20.6493C22.8183 20.5804 22.5803 20.5867 22.361 20.6681C22.2734 20.6994 22.1857 20.7307 22.098 20.762C22.2232 20.5992 22.3047 20.4113 22.3235 20.2046C22.3423 20.0042 22.3047 19.7975 22.2107 19.6158C22.4613 19.6847 22.7181 19.7286 22.9749 19.7599C23.2317 19.7787 23.4822 19.7035 23.6889 19.5469C23.8956 19.3903 24.0396 19.1711 24.0898 18.9206C24.1461 18.67 24.1085 18.407 23.9833 18.1815C23.858 17.956 23.6576 17.7806 23.4196 17.6929C21.5343 17.0228 19.768 16.0457 18.1959 14.8055C18.6844 14.5612 19.411 14.912 21.0081 16.0707C21.5781 16.5279 22.2045 16.9163 22.8684 17.2294C24.453 17.8683 26.8707 17.0729 28.1234 16.5718C28.4366 16.9977 28.8374 17.3672 29.3197 17.6178C30.1465 18.05 31.1111 18.1376 32.0067 17.8621C32.464 17.718 32.8836 17.48 33.2469 17.1668C33.3283 17.4361 33.416 17.7117 33.5037 17.9936C33.6164 18.3569 33.7354 18.7389 33.8607 19.121C33.6164 19.096 33.3659 19.0834 33.1216 19.1147C32.4264 19.1899 31.775 19.4655 31.2363 19.9165C30.7039 20.3612 30.3093 20.9562 30.1152 21.6264C30.0024 22.0085 29.9649 22.3968 29.9837 22.7914C29.1819 23.0419 28.0169 23.5493 26.3696 24.5577ZM34.7188 23.2674C34.5497 23.5931 34.2553 23.8374 33.9046 23.9501C33.6415 24.0315 33.3596 24.0315 33.0966 23.9564C32.8335 23.8812 32.5955 23.7246 32.4201 23.5117C32.2448 23.2987 32.132 23.0419 32.107 22.7663C32.0756 22.4907 32.132 22.2152 32.2573 21.9709C32.3825 21.7266 32.583 21.5262 32.821 21.3946C33.0653 21.2631 33.3346 21.2067 33.6102 21.2318C33.8858 21.2568 34.1426 21.3633 34.3618 21.5324C34.5748 21.7078 34.7313 21.9396 34.819 22.2026C34.9255 22.5596 34.8879 22.9417 34.7188 23.2674ZM33.8231 11.8116C36.2784 11.0286 43.0116 9.03061 49.4629 8.46063C52.294 8.42305 55.7577 8.6548 59.5972 9.47531C59.6661 9.50663 59.735 9.53795 59.8039 9.56926C57.4802 12.1435 54.9247 14.4861 52.1688 16.5655C47.2269 19.9165 41.4395 22.6035 37.4309 23.33C35.721 18.0124 34.3931 13.6843 33.8231 11.8116ZM52.0685 23.5806C50.8284 24.9961 50.1457 25.541 48.7802 24.7894C48.3543 24.5326 47.991 24.1881 47.7217 23.7685C47.4524 23.3488 47.2833 22.8791 47.2269 22.3843C49.3565 21.1879 51.3921 19.8288 53.34 18.3569C54.4612 17.599 55.5385 16.8035 56.5469 15.9956C54.4299 19.7411 52.4882 23.0983 52.0685 23.5806Z" fill="#323232"/>
<path d="M46.1308 44.469C46.1308 45.8657 45.3917 47.2186 44.02 48.2208C41.5271 50.0434 37.5185 50.9892 34.4056 47.6383C33.9922 47.1873 33.6101 46.7676 33.2594 46.3793L33.0527 46.1538C30.7352 43.5733 29.8458 42.7152 28.1484 43.3854L27.8979 43.4856L27.8102 43.7487C27.2152 45.5713 28.28 46.4232 30.8668 48.4901C31.3365 48.8596 31.8626 49.273 32.4201 49.7428C35.9464 52.6428 35.2512 56.7077 33.5851 59.3133C33.3909 59.6202 33.1466 59.9209 32.8648 60.2278C32.3575 60.8165 31.6873 61.2487 30.9357 61.4742C30.184 61.6997 29.3886 61.7059 28.6244 61.493C28.5242 61.4617 28.4365 61.4116 28.3614 61.3427C28.2862 61.2738 28.2361 61.1861 28.2048 61.0733C28.1672 60.9857 28.161 60.8792 28.186 60.7727C28.2048 60.6725 28.2424 60.5723 28.2987 60.5034C28.9376 59.7267 29.3322 58.7747 29.4199 57.7537C29.4512 57.5533 29.4825 57.3403 29.5264 57.1211C29.8583 55.5114 28.28 53.3004 25.2986 51.1834C25.0042 50.9767 24.6973 50.7261 24.3089 50.3629L24.1085 50.175L23.8392 50.2125C23.313 50.2752 22.8057 50.4568 22.361 50.7512C21.8286 51.1082 21.4152 51.603 21.1835 52.1292C20.864 52.6929 20.6824 53.2941 20.6386 53.908C20.5884 54.5468 20.6636 55.1669 20.8828 55.7745C21.6908 57.8038 24.0271 58.7809 24.4906 58.9626C24.5908 59.0001 24.6785 59.0628 24.7411 59.1505C24.81 59.2319 24.8539 59.3384 24.8601 59.4261C24.8664 59.52 24.8601 59.6077 24.8288 59.6829C24.8037 59.758 24.7599 59.8332 24.6973 59.9021C24.666 59.9334 24.6346 59.9647 24.5908 59.9898C23.1753 60.8854 20.3379 61.9815 17.25 59.2382C15.1205 57.3466 15.5025 54.5406 16.2291 51.7847L16.4671 50.8827L15.5526 51.0518C14.1058 51.3149 10.5043 51.6719 8.34342 49.1728C5.91321 46.348 2.1113 47.2311 1.37221 47.4378C1.28453 47.4629 1.19684 47.4692 1.10915 47.4504C1.0152 47.4378 0.92751 47.4003 0.864875 47.3627C0.777187 47.3063 0.714553 47.2374 0.670709 47.1685C0.620601 47.0871 0.589284 46.9994 0.583021 46.9493C0.52665 45.9158 0.846085 44.9074 1.49748 44.0869C4.04044 40.7923 7.22853 42.6087 10.5607 44.9512L10.6358 45.0014C10.9991 45.2957 11.4188 45.5087 11.8572 45.6214C12.3019 45.7342 12.7591 45.7592 13.2352 45.6778C13.993 45.5275 14.7259 45.0765 15.4023 44.3437L15.9347 43.7675L15.2332 43.4167C15.1894 43.3979 15.1643 43.3791 15.0829 43.3353C13.8553 42.6588 12.6777 41.8383 11.5941 40.9176C10.7862 40.2224 10.141 39.3893 9.67754 38.4373C9.2203 37.4915 8.95724 36.433 8.93219 35.3682C8.75055 32.6561 9.71512 29.6559 11.3248 27.9147C12.9658 26.1985 15.8909 25.0523 18.628 25.0523H18.6718C19.7241 25.0272 20.7638 25.2151 21.7535 25.616C22.718 26.0169 23.62 26.6244 24.3465 27.376C25.3236 28.397 26.213 29.5119 27.0085 30.7646C27.0335 30.7896 27.0523 30.8147 27.0899 30.8836L27.497 31.4911L27.9918 30.9587C28.6808 30.2384 29.0879 29.4931 29.1944 28.7101C29.2445 28.2529 29.2007 27.7894 29.0504 27.351C28.9063 26.9125 28.6683 26.5117 28.3864 26.1985L27.8728 25.5659C25.9562 23.2234 23.5824 20.3109 26.4385 17.2167L26.4573 17.1917C26.9396 16.7595 27.5096 16.4338 28.1234 16.2522C28.756 16.058 29.4136 16.0142 30.0275 16.1081C30.1089 16.1332 30.1778 16.1833 30.2154 16.2334C30.2655 16.2835 30.303 16.3586 30.3156 16.4275C30.3218 16.4589 30.3156 16.4902 30.303 16.534C30.2905 16.5841 29.0441 21.0875 32.395 23.643C35.0257 25.6473 34.8879 29.2613 34.7062 30.7207L34.5872 31.6414L35.4704 31.3533C38.1825 30.4639 40.9697 29.919 42.9802 31.9296C45.9053 34.8421 44.8781 37.8235 44.2956 38.9697C44.2455 39.0887 44.1515 39.1826 44.0513 39.2453C43.807 39.3893 43.5064 39.3768 43.3059 39.2515C43.1932 39.1826 43.0993 39.0761 43.0429 38.9571C42.7485 38.3558 41.6273 36.339 39.6606 35.7315C39.0781 35.5686 38.4393 35.531 37.8442 35.625C37.2179 35.7252 36.6416 35.9444 36.1782 36.2451C35.6207 36.5394 35.1447 36.9842 34.8252 37.5353C34.5622 37.9863 34.3993 38.5124 34.3743 39.0511L34.3618 39.3141L34.5559 39.5021C34.8315 39.7651 35.1509 40.0908 35.4391 40.4478C37.719 43.2852 40.0239 44.7258 41.6211 44.3061C41.8466 44.2497 42.0658 44.1934 42.2349 44.1558C43.2872 44.0055 44.2517 43.5294 45.0096 42.7904C45.0785 42.734 45.1599 42.6839 45.2414 42.6651C45.3228 42.64 45.4167 42.6338 45.4856 42.6526C45.5733 42.6776 45.6547 42.7152 45.7111 42.759C45.7737 42.8154 45.8301 42.8906 45.8614 42.9657C46.0305 43.4605 46.1308 43.9742 46.1308 44.469Z" fill="white"/>
<path d="M46.3814 42.7469C46.3187 42.584 46.2122 42.4337 46.0744 42.3209C45.9366 42.2082 45.7801 42.1268 45.6047 42.0829C45.4293 42.0454 45.2414 42.0454 45.066 42.0955C44.8907 42.1456 44.7278 42.2333 44.59 42.3585C43.9198 43.0162 43.0617 43.4421 42.1285 43.5736C41.903 43.6237 41.6775 43.6739 41.4395 43.7365C40.3935 44.0183 38.3829 43.1978 35.8776 40.0786C35.5894 39.7216 35.2763 39.3897 34.9443 39.0765C34.9694 38.638 35.0946 38.2121 35.3138 37.8301C35.5769 37.3791 35.9652 37.0095 36.435 36.7653C36.886 36.4772 37.387 36.2893 37.9194 36.2078C38.4456 36.1264 38.9842 36.1577 39.4978 36.2955C41.2015 36.8279 42.2287 38.6694 42.5043 39.2205C42.6108 39.4398 42.7736 39.6214 42.9803 39.7467C43.187 39.8719 43.425 39.9408 43.663 39.9408C43.901 39.9408 44.139 39.8782 44.3395 39.7529C44.5462 39.6277 44.709 39.446 44.8155 39.2331C45.4481 37.9741 46.5755 34.6921 43.3874 31.5103C41.1326 29.2554 38.0447 29.888 35.2825 30.7962C35.5456 28.6792 35.364 25.1779 32.7458 23.1799C29.7206 20.8687 30.8543 16.7536 30.8668 16.7097C30.9044 16.5907 30.9107 16.4717 30.8919 16.3465C30.8605 16.1586 30.7729 15.9832 30.6476 15.8391C30.5161 15.6951 30.3532 15.5948 30.1653 15.5447C29.4262 15.4257 28.6683 15.4758 27.948 15.6951C27.2277 15.9143 26.5701 16.2901 26.0252 16.8037L26.0064 16.8225C22.8058 20.2862 25.474 23.5557 27.4219 25.9483C27.5973 26.1613 27.7664 26.368 27.9293 26.5747C28.1861 26.8503 28.374 27.1822 28.493 27.5392C28.612 27.8962 28.6495 28.2783 28.612 28.6541C28.4992 29.4496 27.9919 30.1198 27.566 30.5645C27.5347 30.5144 27.5033 30.4643 27.4658 30.4079C26.6828 29.174 25.7746 28.0278 24.76 26.9755C23.9708 26.155 23.0187 25.5099 21.9665 25.0777C20.9142 24.6455 19.7805 24.4388 18.6468 24.4701C15.7719 24.4576 12.6652 25.6727 10.9052 27.5142C9.18904 29.3744 8.15557 32.55 8.34348 35.4186C8.38106 36.5586 8.65665 37.6735 9.15146 38.6944C9.64627 39.7216 10.3478 40.6298 11.2121 41.3689C12.3208 42.321 13.5233 43.154 14.8011 43.8618C14.8575 43.8931 14.9076 43.9244 14.9639 43.9557C14.5505 44.4067 13.9117 44.9516 13.1225 45.1144C12.7529 45.1771 12.3709 45.1583 12.0076 45.0643C11.6443 44.9704 11.3061 44.795 11.0117 44.557L10.9115 44.4818C8.21821 42.584 4.14697 39.7154 1.0403 43.7427C0.313745 44.6635 -0.0557974 45.8222 0.00683696 46.9935C0.0256273 47.1689 0.0882617 47.3317 0.17595 47.482C0.269901 47.6323 0.388907 47.7576 0.532966 47.8516C0.677025 47.9518 0.846138 48.0144 1.02151 48.0395C1.19689 48.0645 1.37227 48.0583 1.54138 48.0082C2.21783 47.8203 5.7003 47.006 7.90503 49.5615C10.0534 52.0543 13.5672 52.023 15.6592 51.6347C14.9201 54.447 14.4754 57.5662 16.8618 59.6832C20.3755 62.7961 23.6576 61.2866 24.9103 60.4912C24.9917 60.4411 25.0669 60.3784 25.1358 60.3033C25.2485 60.1843 25.3362 60.0402 25.3926 59.8836C25.4489 59.7271 25.4677 59.5579 25.4489 59.3951C25.4301 59.1759 25.3487 58.9692 25.2109 58.8001C25.0794 58.6247 24.8977 58.4932 24.6973 58.418C24.2777 58.2551 22.1356 57.3595 21.4278 55.5681C21.2462 55.0545 21.1773 54.5096 21.2274 53.9709C21.2712 53.4323 21.4341 52.9062 21.7034 52.4301C21.9163 51.9541 22.2608 51.5407 22.6993 51.2526C23.0626 51.0083 23.4822 50.858 23.9207 50.8079C24.2526 51.1211 24.6034 51.4155 24.9792 51.6785C28.2487 53.996 29.1819 55.9565 28.9627 57.015C28.9126 57.2593 28.875 57.491 28.8375 57.7165C28.7686 58.6059 28.4241 59.4515 27.8541 60.1342C27.7288 60.2908 27.6474 60.4787 27.6098 60.6791C27.5722 60.8795 27.591 61.08 27.6474 61.2741C27.71 61.4683 27.8165 61.6374 27.9606 61.7752C28.1046 61.913 28.28 62.0195 28.4742 62.0696C29.3323 62.3139 30.2467 62.3076 31.1048 62.0508C31.9629 61.794 32.727 61.2992 33.3158 60.629C33.6039 60.3221 33.8607 59.9901 34.0862 59.6394C35.8838 56.8459 36.6292 52.4615 32.8022 49.3047C32.2322 48.8349 31.7124 48.4153 31.2363 48.0395C28.4992 45.8535 27.9355 45.2773 28.374 43.9494C29.6705 43.4358 30.2843 43.962 32.6331 46.5613C33.0402 47.0123 33.4912 47.5071 33.9923 48.052C37.3683 51.6785 41.7026 50.6764 44.3833 48.7097C46.4565 47.1688 47.2332 44.889 46.3814 42.7469ZM27.2403 17.9624L27.2465 17.9499C27.7539 17.5115 28.3802 17.2359 29.0441 17.167C28.7748 19.0648 28.9627 22.4095 31.7186 24.514C34.224 26.4243 33.7417 30.3014 33.4724 31.41C31.9253 31.9487 30.3908 32.4498 29.6204 32.1366C29.2571 31.9925 28.9815 31.8673 28.756 31.742C29.3573 31.1157 30.0964 30.126 30.2718 28.8921C30.3469 28.2908 30.2968 27.677 30.1152 27.0945C29.9398 26.512 29.6392 25.9734 29.2383 25.5161C29.0692 25.3032 28.8938 25.0902 28.7184 24.871C26.426 22.0587 25.1796 20.186 27.2403 17.9624ZM9.17025 48.4529C6.74004 45.6406 3.23877 45.9287 1.69797 46.2293C1.79818 45.6969 2.02366 45.1896 2.35563 44.7574C4.31608 42.2207 6.73377 43.5987 9.92186 45.841L10.0283 45.9162C10.5106 46.2857 11.0618 46.555 11.6568 46.6991C12.2456 46.8432 12.8657 46.8557 13.4607 46.7429C14.6883 46.4924 15.6279 45.6969 16.2166 45.0581C16.3482 45.2773 16.4922 45.5466 16.6613 45.8974C17.0183 46.649 16.6112 48.2086 16.1665 49.7807C15.0328 50.1377 11.2184 50.833 9.17025 48.4529ZM43.3749 47.338C42.9051 47.6825 38.6648 50.6012 35.2136 46.887C34.7188 46.3546 34.2741 45.8661 33.8733 45.4213C31.443 42.7281 30.1089 41.2436 27.3405 42.5464C27.1463 42.6404 26.996 42.797 26.9146 42.9974C25.7809 45.841 27.3405 47.0874 30.1778 49.3485C30.6476 49.7243 31.1612 50.1377 31.7249 50.6012C35.6333 53.8269 32.9776 58.2301 32.6582 58.7186C31.8564 59.9713 30.7729 60.6102 29.6079 60.5538C30.0901 59.7709 30.3908 58.8877 30.491 57.9733C30.5223 57.7666 30.5536 57.5599 30.6037 57.3469C30.8042 56.3636 30.7478 53.7079 25.9437 50.3006C24.9479 49.6053 24.1211 48.6971 23.5135 47.6449C22.906 46.5926 22.5427 45.4151 22.4487 44.2062C22.4487 44.0935 22.4237 43.987 22.3798 43.8868C22.336 43.7866 22.2734 43.6926 22.1919 43.6175C22.1105 43.5423 22.0166 43.4797 21.9163 43.4421C21.8161 43.4045 21.7034 43.3795 21.5907 43.3857C21.4779 43.3857 21.3714 43.4108 21.2712 43.4546C21.171 43.4985 21.077 43.5611 21.0019 43.6425C20.9267 43.724 20.8641 43.8179 20.8265 43.9181C20.7889 44.0183 20.7639 44.1311 20.7701 44.2438C20.8766 45.7157 21.3088 47.1501 22.0354 48.4403C22.2233 48.7723 22.4362 49.098 22.6617 49.4049C22.3736 49.5176 22.0855 49.6429 21.8224 49.8183C21.1084 50.2818 20.5384 50.9394 20.1814 51.7098C19.8118 52.3926 19.5926 53.1442 19.5362 53.9208C19.4799 54.6975 19.5926 55.4742 19.8619 56.2007C20.5259 57.6601 21.6721 58.8376 23.1064 59.5454C21.8412 60.0528 19.9872 60.2093 17.9829 58.4368C15.9723 56.6517 16.843 53.6014 17.6885 50.6513C18.3149 48.4654 18.8535 46.5864 18.1959 45.1959C17.3503 43.4171 16.7991 43.0538 15.6341 42.3961C14.4441 41.7385 13.3292 40.9618 12.2957 40.0786C11.613 39.4836 11.0555 38.7508 10.6672 37.9303C10.2789 37.1098 10.0597 36.2204 10.0283 35.3122C9.85923 34.1158 9.95944 32.9007 10.329 31.7545C10.6923 30.6021 11.3123 29.5498 12.1391 28.6729C12.9659 27.796 13.9806 27.1133 15.108 26.6811C16.2354 26.249 17.4443 26.0736 18.6468 26.1675C19.555 26.1425 20.457 26.3053 21.2963 26.6436C22.1356 26.9818 22.8997 27.4891 23.5386 28.1405C24.4844 29.1176 25.3299 30.1887 26.0565 31.3349C26.783 32.456 27.1776 32.9822 29.0003 33.7212C30.4221 34.2975 32.2698 33.6461 34.4119 32.8882C37.3056 31.8673 40.2995 30.815 42.1974 32.7128C44.0514 34.5668 44.0764 36.3832 43.6129 37.7612C42.8112 36.3456 41.5272 35.2621 39.9989 34.6983C39.2661 34.4854 38.4957 34.4353 37.7441 34.5418C36.9862 34.6482 36.2659 34.9113 35.6145 35.3122C34.8629 35.713 34.2428 36.3206 33.8232 37.0597C33.6666 37.3352 33.5538 37.6234 33.4661 37.9178C33.1467 37.7111 32.8085 37.5232 32.464 37.354C31.1361 36.7026 29.683 36.3582 28.2048 36.3394C27.9794 36.3456 27.7727 36.4458 27.6223 36.6087C27.472 36.7715 27.3906 36.9908 27.3969 37.21C27.4031 37.4355 27.5033 37.6422 27.6662 37.7925C27.829 37.9428 28.0483 38.0242 28.2675 38.018C29.4826 38.043 30.6789 38.3374 31.7687 38.8761C32.8586 39.4147 33.8169 40.1914 34.5685 41.1434C38.2639 45.7408 40.9134 45.6343 41.8842 45.3775C42.0972 45.3211 42.3038 45.2773 42.5043 45.2272C43.4125 45.0769 44.2768 44.7261 45.0284 44.1937C45.1475 45.3399 44.5775 46.4611 43.3749 47.338Z" fill="#323232"/>
<path d="M15.6215 37.5609C15.2582 37.943 15.277 38.5505 15.659 38.9138C16.0411 39.2771 16.6487 39.2583 17.012 38.8762C17.3752 38.4942 17.3564 37.8866 16.9744 37.5233C16.5923 37.16 15.9847 37.1788 15.6215 37.5609Z" fill="#323232"/>
<path d="M21.2587 31.5726C20.8954 31.9547 20.9142 32.5622 21.2963 32.9255C21.6783 33.2888 22.2859 33.27 22.6492 32.8879C23.0124 32.5059 22.9936 31.8983 22.6116 31.535C22.2295 31.1718 21.622 31.1906 21.2587 31.5726Z" fill="#323232"/>
<path d="M63.2739 37.5293C63.2739 38.995 62.7478 40.6548 61.2321 42.3522C57.1733 46.8681 52.8203 43.7615 49.0434 40.4919C45.6298 37.5419 44.0076 39.3958 43.3812 40.1224C43.1307 40.4481 42.9365 40.8176 42.8426 41.1872C42.7299 41.5755 42.7048 42.0014 42.7737 42.396C42.9741 43.8554 44.1955 45.3774 46.3188 46.7804C48.4609 48.2085 50.7533 49.4048 53.1272 50.3255C53.3401 50.407 53.5218 50.5385 53.6658 50.7076C53.8099 50.8705 53.9038 51.0772 53.9414 51.2964C53.9853 51.5219 53.9665 51.7411 53.8913 51.9415C53.8161 52.1545 53.6909 52.3361 53.5343 52.4802L49.4004 56.1568L47.7844 59.8648C47.6905 60.0652 47.5652 60.2343 47.4024 60.3721C47.2458 60.5099 47.0454 60.6039 46.8449 60.6477C46.632 60.6978 46.4253 60.6978 46.2123 60.6414C46.0119 60.5913 45.8177 60.4911 45.6737 60.3721C45.5609 60.2719 45.4795 60.1717 45.4169 60.0715L42.6422 55.8499L42.3916 55.6933C39.1284 53.6201 37.218 52.3674 36.7107 51.9666L36.4789 51.81C30.1028 47.2439 29.2008 42.2081 29.5704 38.7883C29.6393 38.1682 29.752 37.5669 29.9023 37.0032C30.3157 35.406 30.9421 33.8778 31.7751 32.4622C34.1803 28.2782 37.6189 25.7917 42.0096 25.0714C42.899 24.921 43.7821 24.8584 44.6527 24.8584C50.0894 24.8584 55.0751 27.4076 57.2172 29.3117C57.38 29.4495 60.7185 32.2743 61.4012 32.9445C62.134 33.6585 63.2739 35.3747 63.2739 37.5293Z" fill="white"/>
<path d="M48.3167 60.1087L49.8888 56.5134L53.9162 52.9245C54.1542 52.7115 54.3359 52.4359 54.4424 52.1353C54.5488 51.8284 54.5739 51.5027 54.5113 51.1895C54.4486 50.8763 54.3171 50.5757 54.1104 50.3314C53.9037 50.0809 53.6406 49.893 53.34 49.7802C50.9849 48.8658 48.7426 47.6945 46.6444 46.2915C44.6651 44.9824 43.5314 43.6045 43.3561 42.308C43.306 41.9885 43.3247 41.6566 43.4062 41.3434C43.4939 41.0302 43.6442 40.7358 43.8446 40.4853C44.4396 39.7963 45.6861 38.362 48.6549 40.9363C51.5299 43.4291 56.8788 48.0703 61.6641 42.7464C65.7479 38.2054 63.1548 33.821 61.8082 32.5182C61.0879 31.8167 57.6179 28.8791 57.5866 28.8541C55.0374 26.5992 48.5422 23.3924 41.9092 24.4822C37.3432 25.2276 33.7605 27.8144 31.2551 32.1612C30.397 33.6268 29.7456 35.2052 29.3197 36.8525C29.1631 37.4663 29.0504 38.0864 28.9815 38.719C28.5931 42.2954 29.5139 47.5505 36.1343 52.2856C36.2283 52.3545 36.2972 52.3984 36.341 52.4359C37.1678 53.0873 41.2641 55.6804 42.2161 56.2817L44.9219 60.403C45.0221 60.5534 45.1411 60.6912 45.2789 60.8102C45.5107 61.0043 45.7863 61.1484 46.0807 61.2173C46.375 61.2924 46.682 61.2924 46.9763 61.2235C47.2707 61.1546 47.5463 61.0169 47.7843 60.829C48.0098 60.6348 48.1977 60.3905 48.3167 60.1087ZM49.0683 49.5047C50.2772 50.1498 51.5236 50.7198 52.8013 51.2083C52.8577 51.2271 52.9016 51.2647 52.9391 51.3085C52.9767 51.3524 53.0018 51.4087 53.008 51.4651C53.0206 51.5215 53.0143 51.5841 52.9955 51.6405C52.9767 51.6969 52.9391 51.747 52.8953 51.7845L48.7426 55.48C48.6612 55.5551 48.5923 55.6428 48.5485 55.743L46.9137 59.4948C46.8824 59.5637 46.8385 59.6201 46.7759 59.664C46.7133 59.7078 46.6444 59.7328 46.5692 59.7391C46.4941 59.7454 46.4189 59.7328 46.3563 59.7015C46.2874 59.6702 46.231 59.6201 46.1934 59.5575L43.8509 55.9936C46.3187 54.5279 48.1664 52.223 49.0683 49.5047ZM57.3924 30.6955C59.2151 32.2489 60.4052 33.2823 60.7434 33.6143C60.9062 33.7709 64.4451 37.3661 60.5242 41.7255C57.0354 45.6088 53.246 42.8905 49.6571 39.7838C49.4253 39.5834 49.1873 39.3955 48.9243 39.2013C50.0955 30.9711 55.9706 30.6517 57.3924 30.6955ZM34.6248 45.0701C36.46 46.2477 38.6961 46.185 40.6753 46.1224C42.3101 46.0723 43.8509 46.0222 44.7027 46.7487C45.0973 47.0619 45.4481 47.3187 45.8051 47.5567C46.4252 47.9701 47.064 48.3647 47.7029 48.7405C46.92 51.3273 45.1599 53.5133 42.7986 54.8348C41.7338 54.1584 37.9946 51.7845 37.2868 51.2271C37.2304 51.1833 37.1365 51.1144 37.0112 51.0267C32.0568 47.4878 30.6475 43.6734 30.4659 40.7546C31.4681 42.5209 32.9024 43.9991 34.6248 45.0701ZM47.515 38.362C46.8448 37.9987 46.0869 37.8547 45.329 37.9423C44.5774 38.03 43.8697 38.3495 43.2997 38.8568C41.2077 36.4015 40.2369 33.9588 40.4123 31.5849C40.6503 29.3865 41.6837 27.3446 43.3185 25.8539C48.6424 25.4029 53.4339 27.7267 55.7013 29.3238C53.1959 29.756 48.7301 31.5098 47.515 38.362ZM41.8403 42.5146C41.9531 43.2537 42.2286 43.9615 42.642 44.5879C41.9844 44.5565 41.2954 44.5753 40.6189 44.5941C38.7775 44.6505 36.8797 44.7069 35.4453 43.7861C31.443 41.2056 30.8856 37.7356 30.8167 37.1469C31.205 35.6687 31.8 34.2469 32.5767 32.9253C34.5998 29.4115 37.3933 27.1755 40.8945 26.261C39.7421 27.7642 39.0468 29.5681 38.884 31.4597C38.671 34.3158 39.8172 37.2033 42.2975 40.0343C41.8779 40.7922 41.715 41.6628 41.8403 42.5146Z" fill="#323232"/>
</svg>
