<svg width="18" height="17" viewBox="0 0 18 17" fill="none" xmlns="http://www.w3.org/2000/svg">
<path d="M5.34982 10.5C4.46982 9.62005 4.75982 7.93 5.97982 6.7C7.19982 5.47 8.89981 5.18987 9.77981 6.06987C10.6598 6.94987 10.3699 8.63991 9.13986 9.85991C7.90986 11.0799 6.22982 11.37 5.34982 10.5Z" fill="#323232"/>
<path d="M5.3498 12.5398C5.87839 13.0481 6.54114 13.3949 7.26008 13.5393C7.97902 13.6837 8.72424 13.6197 9.40809 13.355C10.0919 13.0903 10.686 12.6358 11.1203 12.0449C11.5546 11.4541 11.8112 10.7515 11.8598 10.0198C12.0841 8.07467 12.9252 6.25248 14.2598 4.81982C14.3185 4.75996 14.3885 4.7124 14.4658 4.67993C14.543 4.64746 14.626 4.63086 14.7098 4.63086C14.7936 4.63086 14.8766 4.64746 14.9539 4.67993C15.0311 4.7124 15.1011 4.75996 15.1598 4.81982C15.2783 4.93963 15.3447 5.10128 15.3447 5.26978C15.3447 5.43827 15.2783 5.60016 15.1598 5.71997C14.0344 6.9326 13.3084 8.46134 13.0798 10.0999C13.0288 11.0799 12.6961 12.0244 12.1216 12.8201C11.5471 13.6157 10.7552 14.2289 9.84101 14.5857C8.92679 14.9425 7.92901 15.0279 6.96742 14.8318C6.00582 14.6356 5.12125 14.1664 4.41981 13.48C4.36071 13.4215 4.31374 13.352 4.2815 13.2754C4.24927 13.1988 4.23241 13.1166 4.23194 13.0334C4.23148 12.9503 4.24738 12.868 4.27876 12.791C4.31013 12.7141 4.35637 12.6441 4.4148 12.585C4.47324 12.5259 4.54279 12.4788 4.61939 12.4465C4.696 12.4143 4.77817 12.3974 4.86128 12.397C4.94439 12.3965 5.02675 12.4125 5.10371 12.4438C5.18067 12.4752 5.25073 12.5214 5.30982 12.5798L5.3498 12.5398Z" fill="#323232"/>
<path d="M0.909662 9.82985C0.865901 11.6864 1.56144 13.4842 2.84326 14.8279C4.12507 16.1716 5.88817 16.9511 7.74468 16.9949C9.6012 17.0387 11.399 16.3431 12.7427 15.0613C14.0864 13.7795 14.8659 12.0164 14.9097 10.1599C15.1466 8.96099 15.7148 7.85246 16.5497 6.95998C16.5755 6.93924 16.5989 6.9157 16.6197 6.88991C17.0336 6.33309 17.283 5.67147 17.3397 4.98C17.3447 4.92011 17.3447 4.85972 17.3397 4.79983C17.3921 4.42559 17.3684 4.04474 17.2697 3.67995C17.0603 3.19958 16.8163 2.7349 16.5397 2.28982C16.1946 1.69492 15.6885 1.20972 15.0797 0.889914C14.4 0.57789 13.6572 0.427358 12.9097 0.449972C12.1943 0.50941 11.5059 0.750289 10.9097 1.14992C10.795 1.21609 10.6849 1.28955 10.5797 1.36989C9.95971 1.80989 8.47971 2.85988 7.57971 2.85988C5.78615 2.94452 4.09365 3.71522 2.85223 5.01247C1.61081 6.30973 0.915361 8.03431 0.909662 9.82985ZM2.17968 9.82985C2.1731 8.3517 2.73903 6.92851 3.75878 5.85842C4.77853 4.78833 6.17289 4.15446 7.64965 4.08986C8.76965 4.08986 10.1197 3.19989 11.3097 2.36989L11.6097 2.15993C12.1587 1.78262 12.8267 1.61917 13.488 1.70022C14.1492 1.78126 14.758 2.10114 15.1997 2.59987C15.6793 3.03037 15.987 3.61994 16.066 4.25954C16.1451 4.89914 15.9901 5.54557 15.6297 6.07986C14.5675 7.17577 13.8691 8.57257 13.6297 10.0799C13.5899 11.6022 12.947 13.0464 11.8424 14.0947C10.7378 15.1431 9.26202 15.7097 7.73968 15.6699C6.21734 15.6302 4.77318 14.9872 3.72485 13.8826C2.67652 12.778 2.10987 11.3021 2.14965 9.77981L2.17968 9.82985Z" fill="#323232"/>
</svg>
