<svg width="41" height="54" viewBox="0 0 41 54" fill="none" xmlns="http://www.w3.org/2000/svg">
<path d="M24.3686 53.1279C19.0251 53.1494 13.8401 51.3136 9.70057 47.9346C4.47792 43.5513 1.57704 36.9585 1.07948 28.3389C0.440809 17.2827 2.17958 9.44092 6.24748 5.03223C7.54426 3.65671 9.11342 2.56648 10.8549 1.83104C12.5964 1.0956 14.472 0.731094 16.3622 0.760746C19.3478 0.693259 22.2703 1.62574 24.6651 3.40998C27.0599 5.19421 28.7895 7.72778 29.579 10.6079C30.1911 12.5712 30.6849 14.5694 31.0575 16.5918C31.8359 20.502 32.3984 23.3276 37.2265 30.0381C40.5361 34.6382 41.2548 39.6753 39.2504 44.2217C38.1292 46.6028 36.4171 48.6573 34.277 50.1893C32.1369 51.7213 29.6403 52.6799 27.0248 52.9737C26.1432 53.0767 25.2562 53.1283 24.3686 53.1279ZM16.4237 3.45899C14.8956 3.41846 13.376 3.70066 11.9643 4.28717C10.5526 4.87369 9.28044 5.75132 8.23088 6.8628C4.67863 10.7124 3.17912 17.8857 3.77388 28.1836C4.22749 36.0312 6.80513 41.981 11.436 45.8672C13.5564 47.5892 16.0009 48.8681 18.6246 49.6284C21.2483 50.3886 23.9978 50.6146 26.7104 50.293C28.8605 50.058 30.9148 49.2767 32.6775 48.0234C34.4403 46.7701 35.8531 45.0865 36.7812 43.1328C38.3837 39.4976 37.7636 35.4067 35.0351 31.6143C29.8657 24.4287 29.2236 21.2026 28.4101 17.1187C28.058 15.1945 27.5894 13.2936 27.0068 11.4263C24.601 3.86573 18.2953 3.42285 16.4237 3.45899Z" fill="#323232"/>
<path d="M20.8828 10.7275H17.6758C17.3178 10.7275 16.9746 10.5853 16.7215 10.3322C16.4684 10.0791 16.3262 9.73587 16.3262 9.37793C16.3262 9.01999 16.4684 8.67672 16.7215 8.42361C16.9746 8.17051 17.3178 8.02832 17.6758 8.02832H20.8828C21.2407 8.02832 21.584 8.17051 21.8371 8.42361C22.0902 8.67672 22.2324 9.01999 22.2324 9.37793C22.2324 9.73587 22.0902 10.0791 21.8371 10.3322C21.584 10.5853 21.2407 10.7275 20.8828 10.7275Z" fill="#323232"/>
<path d="M10.3364 24.1953H6.91603C6.73849 24.1958 6.5626 24.1612 6.39844 24.0936C6.23427 24.026 6.08505 23.9267 5.95934 23.8013C5.83362 23.676 5.73389 23.527 5.66583 23.363C5.59778 23.1991 5.56274 23.0233 5.56274 22.8457C5.56274 22.6682 5.59778 22.4924 5.66583 22.3284C5.73389 22.1644 5.83362 22.0155 5.95934 21.8901C6.08505 21.7647 6.23427 21.6654 6.39844 21.5978C6.5626 21.5302 6.73849 21.4956 6.91603 21.4961H10.3364C10.514 21.4956 10.6899 21.5302 10.854 21.5978C11.0182 21.6654 11.1674 21.7647 11.2931 21.8901C11.4188 22.0155 11.5186 22.1644 11.5866 22.3284C11.6547 22.4924 11.6897 22.6682 11.6897 22.8457C11.6897 23.0233 11.6547 23.1991 11.5866 23.363C11.5186 23.527 11.4188 23.676 11.2931 23.8013C11.1674 23.9267 11.0182 24.026 10.854 24.0936C10.6899 24.1612 10.514 24.1958 10.3364 24.1953Z" fill="#323232"/>
<path d="M24.8726 29.9668H21.5947C21.2368 29.9668 20.8935 29.8246 20.6404 29.5715C20.3873 29.3184 20.2451 28.9751 20.2451 28.6172C20.2451 28.2592 20.3873 27.916 20.6404 27.6629C20.8935 27.4098 21.2368 27.2676 21.5947 27.2676H24.8726C25.2305 27.2676 25.5738 27.4098 25.8269 27.6629C26.08 27.916 26.2222 28.2592 26.2222 28.6172C26.2222 28.9751 26.08 29.3184 25.8269 29.5715C25.5738 29.8246 25.2305 29.9668 24.8726 29.9668Z" fill="#323232"/>
<path d="M15.4668 37.7339H11.9038C11.5459 37.7339 11.2026 37.5917 10.9495 37.3386C10.6964 37.0855 10.5542 36.7422 10.5542 36.3843C10.5542 36.0263 10.6964 35.6831 10.9495 35.43C11.2026 35.1769 11.5459 35.0347 11.9038 35.0347H15.4668C15.8248 35.0347 16.168 35.1769 16.4211 35.43C16.6742 35.6831 16.8164 36.0263 16.8164 36.3843C16.8164 36.7422 16.6742 37.0855 16.4211 37.3386C16.168 37.5917 15.8248 37.7339 15.4668 37.7339Z" fill="#323232"/>
<path d="M28.1504 43.7197H24.8726C24.5146 43.7197 24.1713 43.5775 23.9182 43.3244C23.6651 43.0713 23.5229 42.7281 23.5229 42.3701C23.5229 42.0122 23.6651 41.6689 23.9182 41.4158C24.1713 41.1627 24.5146 41.0205 24.8726 41.0205H28.1504C28.5083 41.0205 28.8516 41.1627 29.1047 41.4158C29.3578 41.6689 29.5 42.0122 29.5 42.3701C29.5 42.7281 29.3578 43.0713 29.1047 43.3244C28.8516 43.5775 28.5083 43.7197 28.1504 43.7197Z" fill="#323232"/>
<path d="M7.55748 15.7875C7.34625 15.7874 7.13801 15.7377 6.94946 15.6425C6.76091 15.5473 6.59732 15.4092 6.47181 15.2393C6.34631 15.0694 6.2624 14.8724 6.22682 14.6642C6.19124 14.456 6.20499 14.2424 6.26695 14.0404C7.31343 10.7237 9.47416 7.87053 12.3832 5.96427C12.6839 5.77015 13.0494 5.70343 13.3992 5.7788C13.7491 5.85416 14.0548 6.06542 14.2489 6.36612C14.443 6.66682 14.5097 7.03233 14.4344 7.38222C14.359 7.73211 14.1477 8.03772 13.847 8.23184C11.4798 9.80199 9.71672 12.1302 8.84703 14.8344C8.76206 15.1102 8.59103 15.3515 8.35898 15.523C8.12692 15.6945 7.84604 15.7872 7.55748 15.7875Z" fill="#323232"/>
<path d="M6.34717 20.7032C6.30811 20.7032 6.26854 20.7013 6.22851 20.6979C6.05197 20.6825 5.88018 20.6325 5.72296 20.5508C5.56574 20.469 5.42616 20.3571 5.31221 20.2214C5.19826 20.0857 5.11217 19.9288 5.05885 19.7598C5.00553 19.5908 4.98603 19.413 5.00146 19.2365C5.03644 18.4347 5.15474 17.6387 5.35446 16.8615C5.46951 16.5265 5.71162 16.2501 6.02858 16.0921C6.34553 15.934 6.71191 15.9068 7.0487 16.0165C7.38549 16.1261 7.6657 16.3638 7.82886 16.6781C7.99202 16.9925 8.02506 17.3584 7.92087 17.6969C7.8024 18.2821 7.7252 18.8748 7.68986 19.4708C7.66063 19.8069 7.50656 20.1198 7.25802 20.348C7.00949 20.5761 6.68452 20.7028 6.34717 20.7032Z" fill="#323232"/>
</svg>
