<svg width="84" height="47" viewBox="0 0 84 47" fill="none" xmlns="http://www.w3.org/2000/svg">
<path d="M41.0841 31.9412C28.0141 31.9412 13.514 30.1812 10.484 26.7512C9.81405 25.9912 9.74407 25.2512 9.81407 24.7612C10.3341 20.8412 15.484 19.9812 15.704 19.9512C16.414 19.8412 17.084 20.3212 17.194 21.0312C17.304 21.7412 16.8241 22.4112 16.1141 22.5212C16.0641 22.5312 12.774 23.1312 12.414 25.0112C13.424 26.6112 24.234 29.4612 41.914 29.3412C62.294 29.2212 72.164 26.0912 72.704 24.5212C72.824 24.1812 72.7341 24.0512 72.6841 23.9712C72.1841 23.2112 70.014 22.6512 68.634 22.5412C67.914 22.4812 67.3841 21.8612 67.4341 21.1412C67.4941 20.4212 68.1141 19.8912 68.8341 19.9412C69.5941 20.0012 73.464 20.4112 74.854 22.5412C75.404 23.3812 75.504 24.3512 75.164 25.3712C73.024 31.5912 45.104 31.9312 41.924 31.9512C41.654 31.9412 41.3641 31.9412 41.0841 31.9412Z" fill="#323232"/>
<path d="M42.004 38.5408C41.774 38.5408 41.544 38.5408 41.324 38.5408C32.404 38.5108 5.81399 36.8108 0.873988 29.7308C-0.0360122 28.4208 -0.246029 26.9608 0.293971 25.4908C3.53397 16.5508 16.764 15.4708 17.334 15.4308C18.044 15.3708 18.674 15.9108 18.734 16.6308C18.784 17.3508 18.254 17.9708 17.534 18.0308C17.414 18.0408 5.42396 19.0308 2.75396 26.3808C2.51396 27.0508 2.59398 27.6208 3.02398 28.2408C6.29398 32.9208 25.464 35.8808 41.354 35.9408C41.584 35.9408 41.814 35.9408 42.044 35.9408C59.714 35.9408 79.074 33.3508 81.214 26.0708C81.384 25.4908 81.294 24.9608 80.944 24.3808C78.864 21.0108 69.464 18.6408 66.024 18.0208C65.314 17.8908 64.844 17.2108 64.974 16.5008C65.104 15.7908 65.774 15.3208 66.494 15.4508C67.874 15.7008 80.104 18.0508 83.164 23.0108C83.904 24.2108 84.094 25.5208 83.714 26.8008C80.604 37.3208 54.044 38.5408 42.004 38.5408Z" fill="#323232"/>
<path d="M35.6242 28.2911C35.3542 28.2911 35.0841 28.2111 34.8541 28.0411C34.2741 27.6111 34.1541 26.8011 34.5741 26.2211C39.2741 19.8411 41.0541 13.2011 39.0041 9.70111C37.5141 7.17111 34.2542 7.01108 31.7842 7.33108C20.9942 8.70108 16.5141 24.8211 16.4741 24.9911C16.2841 25.6811 15.5642 26.0911 14.8742 25.9111C14.1742 25.7211 13.7642 25.0111 13.9542 24.3111C14.1542 23.5811 18.9242 6.3411 31.4542 4.7511C37.3442 4.0011 40.0342 6.32111 41.2442 8.39111C43.8642 12.8511 42.0641 20.4611 36.6641 27.7811C36.4141 28.1011 36.0242 28.2911 35.6242 28.2911Z" fill="#323232"/>
<path d="M21.914 27.2312C21.874 27.2312 21.844 27.2312 21.804 27.2312C21.084 27.1712 20.554 26.5511 20.614 25.8311C20.624 25.6711 22.094 9.89115 39.294 6.90115C40.004 6.77115 40.674 7.25114 40.804 7.96114C40.924 8.67114 40.454 9.34115 39.744 9.47115C24.564 12.1112 23.264 25.4811 23.214 26.0511C23.154 26.7211 22.584 27.2312 21.914 27.2312Z" fill="#323232"/>
<path d="M28.614 28.2907C28.494 28.2907 28.364 28.2708 28.234 28.2308C27.544 28.0208 27.154 27.3007 27.364 26.6107C27.534 26.0307 31.754 12.3607 41.184 14.1507C41.894 14.2807 42.354 14.9707 42.224 15.6807C42.094 16.3907 41.414 16.8407 40.704 16.7207C33.574 15.3607 29.904 27.2507 29.874 27.3707C29.694 27.9207 29.174 28.2907 28.614 28.2907Z" fill="#323232"/>
<path d="M41.8239 28.8308C41.4639 28.8308 41.104 28.6808 40.844 28.3808C40.374 27.8408 40.424 27.0208 40.964 26.5408C42.204 25.4608 45.314 19.7208 45.314 12.6108C45.314 6.63082 42.124 2.70082 37.184 2.61082C32.974 2.54082 31.134 6.81084 31.114 6.85084C30.834 7.51084 30.064 7.82085 29.404 7.54085C28.744 7.26085 28.434 6.49083 28.714 5.83083C28.814 5.59083 31.344 -0.0791614 37.234 0.000838587C42.554 0.100839 47.9139 4.04082 47.9139 12.6108C47.9139 20.5008 44.4439 26.9508 42.6639 28.5008C42.4339 28.7308 42.1339 28.8308 41.8239 28.8308Z" fill="#323232"/>
<path d="M49.9242 28.2912C49.7142 28.2912 49.5142 28.2412 49.3142 28.1412C48.6742 27.8012 48.4342 27.0112 48.7742 26.3812C48.8242 26.2812 54.2342 15.9212 51.6442 10.3812C49.2442 5.26117 44.8542 6.16115 44.6642 6.21115C43.9642 6.36115 43.2642 5.93117 43.1042 5.23117C42.9442 4.53117 43.3742 3.84118 44.0642 3.67118C46.3442 3.13118 51.3442 3.61116 53.9942 9.28116C57.1342 15.9912 51.3142 27.1312 51.0642 27.6012C50.8442 28.0312 50.3942 28.2912 49.9242 28.2912Z" fill="#323232"/>
<path d="M68.634 25.3312C68.024 25.3312 67.484 24.9112 67.354 24.2912C64.444 10.0912 53.434 11.0712 52.964 11.1212C52.254 11.1912 51.604 10.6812 51.534 9.9612C51.454 9.2512 51.974 8.60121 52.684 8.53121C52.824 8.51121 66.514 7.1912 69.914 23.7712C70.064 24.4812 69.604 25.1612 68.904 25.3112C68.814 25.3212 68.724 25.3312 68.634 25.3312Z" fill="#323232"/>
<path d="M63.6342 27.2309C62.9442 27.2309 62.3742 26.7009 62.3342 26.0009C61.7142 15.4409 53.9742 15.2909 53.6442 15.2909C52.9242 15.2909 52.3442 14.7109 52.3442 13.9909C52.3442 13.2709 52.9142 12.6909 53.6342 12.6909C53.8042 12.6909 64.1742 12.8209 64.9342 25.8609C64.9742 26.5809 64.4242 27.2009 63.7142 27.2409C63.6842 27.2309 63.6642 27.2309 63.6342 27.2309Z" fill="#323232"/>
<path d="M58.2339 27.7312C57.6039 27.7312 57.0539 27.2812 56.9539 26.6412C56.0139 20.9412 52.8239 19.8812 52.6939 19.8312C52.0139 19.6212 51.6239 18.9012 51.8239 18.2112C52.0239 17.5312 52.7239 17.1312 53.4139 17.3212C53.6139 17.3712 58.3039 18.7712 59.5239 26.2112C59.6439 26.9212 59.1639 27.5912 58.4539 27.7112C58.3739 27.7312 58.3039 27.7312 58.2339 27.7312Z" fill="#323232"/>
<path d="M42.504 46.161C36.504 46.131 30.7541 46.051 30.7041 46.051C14.2041 46.051 10.8841 34.431 10.8541 34.311C10.6641 33.611 11.0741 32.901 11.7741 32.711C12.4641 32.521 13.1841 32.931 13.3741 33.631C13.4841 34.021 16.2841 43.441 30.7341 43.441C30.8141 43.441 36.5441 43.531 42.5141 43.551C48.4741 43.521 54.2041 43.441 54.2641 43.441C68.7241 43.441 71.5341 34.021 71.6441 33.621C71.8341 32.931 72.5541 32.521 73.2441 32.711C73.9341 32.901 74.3441 33.611 74.1641 34.301C74.1341 34.421 70.8041 46.0411 54.2941 46.0411C54.2341 46.0411 48.484 46.131 42.504 46.161Z" fill="#323232"/>
</svg>
