<svg width="66" height="67" viewBox="0 0 66 67" fill="none" xmlns="http://www.w3.org/2000/svg">
<path d="M31.7686 61.246C31.5278 61.246 31.2891 61.2426 31.0464 61.2363C10.0659 60.6689 4.5244 41.1372 4.30274 37.3154C4.04786 32.9194 5.04396 26.0283 10.9209 17.4921C7.75929 18.1669 3.3755 18.9623 0.72169 17.1757C0.553185 17.0621 0.4125 16.912 0.310114 16.7365C0.207728 16.5609 0.146278 16.3645 0.130366 16.162C0.114453 15.9594 0.144486 15.7558 0.218211 15.5664C0.291935 15.3771 0.407457 15.2068 0.556162 15.0683L5.5586 10.413C5.12429 8.24559 5.53011 5.99409 6.69386 4.11469C8.11086 2.03608 10.5576 0.841687 13.9668 0.564397C15.755 0.402774 17.5507 0.779384 19.1232 1.64588C20.6958 2.51237 21.9734 3.82919 22.792 5.42719C25.8452 10.7299 25.4355 18.6127 21.958 24.9267C22.1928 24.9326 22.4297 24.9369 22.6699 24.9413C26.602 25.0141 31.0586 25.0961 38.789 32.0605C47.4883 39.8969 54.6968 40.9111 58.2261 39.3984C60.1993 38.596 61.9775 37.3798 63.4409 35.832C63.6564 35.5732 63.961 35.4043 64.2947 35.3585C64.6283 35.3128 64.9671 35.3934 65.2443 35.5847C65.5216 35.7759 65.7173 36.0639 65.7931 36.3921C65.8689 36.7203 65.8192 37.0649 65.6538 37.3583C65.0981 38.3447 51.9556 61.2436 31.7686 61.246ZM13.5005 14.3056C13.7741 14.2802 14.0494 14.3318 14.2952 14.4545C14.5411 14.5772 14.7478 14.7661 14.8921 14.9999C15.0633 15.2707 15.1442 15.5888 15.1234 15.9085C15.1025 16.2282 14.9808 16.533 14.7759 16.7792L14.5239 17.1137C7.85353 25.9223 6.74903 32.8764 6.99708 37.1591C7.19532 40.5737 12.1861 58.0258 31.1196 58.538C43.9028 58.8867 54.0015 48.6674 59.2769 41.8842C54.8081 43.789 46.6079 42.7358 36.9824 34.0654C30.001 27.7763 26.2485 27.707 22.6201 27.6401C21.5587 27.6422 20.4982 27.5755 19.4453 27.4404C19.2181 27.4068 19.0032 27.3159 18.8209 27.1761C18.6386 27.0363 18.4951 26.8523 18.4038 26.6415C18.3125 26.4307 18.2765 26.2002 18.2993 25.9716C18.322 25.743 18.4027 25.524 18.5337 25.3354C23.0107 18.8901 22.8643 10.9618 20.4531 6.77384C19.881 5.62704 18.9777 4.67849 17.8602 4.05106C16.7427 3.42363 15.4625 3.14625 14.1856 3.25486C11.6382 3.46186 9.8711 4.25778 8.93409 5.62058C8.10012 7.10183 7.8848 8.85248 8.33497 10.4917C8.40561 10.7327 8.40807 10.9885 8.34205 11.2308C8.27603 11.4731 8.14411 11.6924 7.96098 11.8642L4.04397 15.5092C6.38417 15.581 8.72245 15.3143 10.9863 14.7172C11.8097 14.5017 12.6514 14.3639 13.5005 14.3056Z" fill="#323232"/>
<path d="M30.7777 54.7099C27.6341 54.6072 24.5732 53.6763 21.9047 52.0112C21.7513 51.9226 21.6168 51.8046 21.5089 51.6641C21.4011 51.5235 21.322 51.363 21.2762 51.1918C21.2303 51.0207 21.2186 50.8421 21.2418 50.6665C21.2649 50.4908 21.3225 50.3214 21.4111 50.168C21.4997 50.0145 21.6177 49.88 21.7583 49.7722C21.8989 49.6643 22.0593 49.5852 22.2305 49.5394C22.4016 49.4935 22.5802 49.4819 22.7558 49.505C22.9315 49.5282 23.1009 49.5857 23.2543 49.6743C27.1005 51.895 30.6039 52.5342 33.665 51.5737C37.3535 50.417 39.7944 47.1245 41.1747 44.623C36.7065 42.622 33.6957 38.1304 33.476 37.1435C33.3998 36.8011 33.46 36.4425 33.6437 36.1437C33.8274 35.8449 34.1203 35.6293 34.4602 35.5427C34.8001 35.4561 35.1604 35.5053 35.4647 35.6798C35.769 35.8543 35.9933 36.1404 36.0903 36.4776C36.4448 37.2984 39.4506 41.4307 43.4413 42.5894C43.6286 42.6437 43.8019 42.738 43.9493 42.8657C44.0966 42.9935 44.2145 43.1517 44.2948 43.3294C44.3751 43.5071 44.4159 43.7002 44.4144 43.8952C44.4129 44.0902 44.3691 44.2825 44.2861 44.459C41.9365 49.46 38.4516 52.9014 34.4731 54.1494C33.2771 54.5235 32.0309 54.7125 30.7777 54.7099ZM36.0966 36.5005C36.102 36.5195 36.1064 36.5386 36.1107 36.5576C36.1068 36.5415 36.1029 36.522 36.0966 36.5005Z" fill="#323232"/>
<path d="M40.0904 49.9715C39.9468 49.9714 39.8042 49.9484 39.668 49.9031C38.153 49.3715 36.7806 48.4982 35.6573 47.3509C35.4141 47.0883 35.2852 46.7399 35.2988 46.3823C35.3125 46.0246 35.4677 45.6871 35.7303 45.4439C35.9929 45.2007 36.3413 45.0718 36.6989 45.0855C37.0565 45.0992 37.3941 45.2544 37.6373 45.5169C38.4497 46.3291 39.4316 46.9515 40.5128 47.3397C40.8175 47.4402 41.0764 47.6459 41.2432 47.92C41.4099 48.1941 41.4736 48.5187 41.4228 48.8355C41.3719 49.1523 41.2099 49.4406 40.9657 49.6488C40.7216 49.857 40.4112 49.9714 40.0904 49.9715Z" fill="#323232"/>
<path d="M31.083 66.8027H25.8262C25.4682 66.8027 25.125 66.6605 24.8719 66.4074C24.6188 66.1543 24.4766 65.8111 24.4766 65.4531C24.4766 65.0952 24.6188 64.7519 24.8719 64.4988C25.125 64.2457 25.4682 64.1035 25.8262 64.1035H29.7334V59.8872C29.7334 59.5293 29.8756 59.186 30.1287 58.9329C30.3818 58.6798 30.7251 58.5376 31.083 58.5376C31.4409 58.5376 31.7842 58.6798 32.0373 58.9329C32.2904 59.186 32.4326 59.5293 32.4326 59.8872V65.4531C32.4325 65.811 32.2903 66.1543 32.0372 66.4073C31.7841 66.6604 31.4409 66.8026 31.083 66.8027Z" fill="#323232"/>
</svg>
