<svg width="19" height="16" viewBox="0 0 19 16" fill="none" xmlns="http://www.w3.org/2000/svg">
<path d="M18.8665 5.63908C18.8665 5.55491 18.8665 5.38658 18.7823 5.30242C18.6981 5.21825 18.614 5.21825 18.4456 5.21825C17.2673 5.30242 16.089 6.81739 15.4999 7.74321C14.7424 6.48073 12.9749 4.03994 9.60828 3.45078C9.60828 3.02995 9.52412 2.01997 9.60828 0.420827C9.60828 0.252496 9.52412 0.168331 9.43995 0.0841653C9.27162 0 9.18746 0 9.01913 0C6.49417 0.757488 5.73668 2.77746 5.56835 3.53494C3.04339 4.20827 1.27592 5.89157 0.350098 8.58486C0.350098 8.66903 0.350098 8.75319 0.350098 8.83736C0.770924 9.93151 2.45423 12.2881 5.23169 13.3823C5.23169 13.3823 5.23169 13.3823 5.23169 13.4665C5.23169 13.5506 5.73668 14.9814 7.84081 15.6548C7.92498 15.6548 7.92498 15.6548 8.00914 15.6548C8.09331 15.6548 8.17747 15.6548 8.26164 15.5706C8.34581 15.4864 8.42997 15.3181 8.42997 15.1498C8.3458 14.4764 8.26164 14.1398 8.17747 13.8873C8.26164 13.8873 8.3458 13.8873 8.42997 13.8873C12.0491 13.7189 14.2374 11.4465 15.2474 10.3523C15.3315 10.2682 15.3315 10.184 15.4157 10.184C16.4257 11.7831 17.5198 12.0356 18.1931 12.204H18.3615C18.4456 12.204 18.614 12.204 18.6981 12.1198C18.7823 12.0356 18.8665 11.9515 18.8665 11.7831C18.8665 11.699 18.7823 6.90156 18.8665 5.63908ZM8.76663 1.00998C8.76663 2.10413 8.76663 2.86162 8.76663 3.28245C8.5983 3.28245 8.3458 3.28245 8.17747 3.28245C7.58832 3.28245 7.08333 3.28245 6.57833 3.36661C6.74666 2.69329 7.33582 1.59914 8.76663 1.00998ZM6.41 13.7189C6.6625 13.8031 6.99916 13.8031 7.25166 13.8873C7.25166 13.9714 7.33582 14.1398 7.41999 14.5606C6.91499 14.3081 6.57833 13.9714 6.41 13.7189ZM15.8365 9.25819C15.7524 9.17402 15.6682 9.08986 15.584 9.08986C15.4999 9.08986 15.3315 9.08986 15.2474 9.17402C15.079 9.25819 14.9107 9.51068 14.574 9.76318C13.4799 10.8573 11.5441 12.9615 8.26164 13.0456C7.58832 13.0456 6.91499 12.9615 6.32583 12.8773C6.74666 12.3723 7.33582 11.5307 7.58831 10.3523C7.92498 9.08986 7.75665 7.91154 7.58831 7.32238V7.15405C7.58831 6.90156 7.33582 6.73323 7.08332 6.81739C6.83083 6.81739 6.6625 7.06989 6.74666 7.32238V7.57488C6.83083 8.16404 6.99916 9.17402 6.74666 10.2682C6.41 11.5307 5.73668 12.3723 5.40002 12.709C3.04339 11.7831 1.44425 9.76318 1.02342 8.83736C1.44425 7.57488 2.70673 4.20827 7.92498 4.20827C12.8907 4.20827 14.8265 8.66903 14.8265 8.83736C14.9107 9.00569 14.9949 9.08986 15.1632 9.08986C15.3315 9.08986 15.4999 9.00569 15.584 8.83736C16.1732 7.99571 17.1832 6.64906 18.0248 6.14407C18.0248 7.49071 18.0248 10.0998 18.0248 11.194C17.3515 11.1098 16.594 10.7732 15.8365 9.25819Z" fill="#323232"/>
<path d="M4.47391 6.14404C3.71642 6.14404 3.21143 6.7332 3.21143 7.40652C3.21143 8.16401 3.80058 8.75317 4.47391 8.75317C5.23139 8.75317 5.73639 8.16401 5.73639 7.40652C5.82055 6.7332 5.23139 6.14404 4.47391 6.14404ZM4.47391 7.91151C4.22141 7.91151 3.96891 7.65902 3.96891 7.40652C3.96891 7.15403 4.22141 6.90153 4.47391 6.90153C4.7264 6.90153 4.9789 7.15403 4.9789 7.40652C4.9789 7.65902 4.7264 7.91151 4.47391 7.91151Z" fill="#323232"/>
</svg>
