<svg width="61" height="32" viewBox="0 0 61 32" fill="none" xmlns="http://www.w3.org/2000/svg">
<g clip-path="url(#clip0_494_1303)">
<mask id="mask0_494_1303" style="mask-type:alpha" maskUnits="userSpaceOnUse" x="0" y="1" width="60" height="31">
<rect y="1" width="60" height="31" fill="#D9D9D9"/>
</mask>
<g mask="url(#mask0_494_1303)">
</g>
<g clip-path="url(#clip1_494_1303)">
<path d="M58.9059 12.5293C57.9288 11.5801 56.5 11.1945 55.3022 10.7059C53.8513 10.0318 52.4814 9.30034 51.2159 8.37318C49.9387 7.51518 48.7424 6.5998 47.4534 5.81097C46.2218 5.10307 44.8974 4.52172 43.5024 4.35534C43.0183 4.2729 42.5798 4.34056 42.153 4.33905L42.1648 4.26989C41.2805 3.19414 39.909 2.88943 38.6185 2.52734C37.0631 2.04898 35.5078 1.57062 33.9862 1.31152C32.8796 1.12309 31.127 0.96698 30.6148 2.3031C30.4632 2.77545 30.5191 3.28313 30.887 3.63044C31.1975 3.89681 31.4388 4.15141 31.5874 4.53254C31.736 4.91368 31.7462 5.27127 31.8139 5.70979C31.8903 6.93264 31.643 8.38503 32.6318 9.26508C31.9961 9.65499 31.3604 10.0449 30.7364 10.3657C29.153 11.3059 27.5578 12.3152 25.7801 12.7242C25.0414 12.883 24.3144 12.9728 23.6111 12.9241C20.8446 12.4531 18.3711 10.6797 15.9888 9.2065C15.3443 8.81209 14.6998 8.41767 13.9508 8.21896C13.2018 8.02025 12.4292 7.95986 11.6684 7.83031C9.92762 7.60504 8.25597 7.39155 6.50338 7.23544C5.5925 7.1515 4.61247 7.05578 3.68981 7.041C2.77894 6.95706 1.92545 6.95405 1.09401 7.23947C0.967464 7.14676 0.874748 7.2733 0.862971 7.34246C0.76575 8.74924 1.75456 9.62929 2.60505 10.4858C3.01851 10.9832 3.4202 11.5498 3.92638 11.9206C4.48995 12.3724 5.14623 12.6977 5.79074 13.0921C8.05828 14.4034 10.4068 15.6573 12.8715 16.6464C10.9658 17.3894 9.43827 18.8372 8.62438 20.6913C8.06658 21.8773 8.11946 23.2385 7.63082 24.4363C7.14219 25.6341 6.26214 26.6229 5.63518 27.7972C5.33348 28.3151 5.10094 28.8448 4.92578 29.4555C4.77418 29.9279 4.58725 30.6077 4.79323 31.0698C4.99921 31.5319 5.42596 31.5334 5.8527 31.5349C6.56787 31.5143 7.23743 31.3437 7.91877 31.1039C10.4131 30.2476 12.6102 28.6291 14.5425 26.8943C15.63 25.9408 16.6719 24.8372 17.7021 23.8028C18.6513 22.8258 19.5431 21.7678 20.7218 21.1145C21.7725 20.7953 22.7997 20.6143 23.8842 20.5143C24.1035 20.4805 24.2418 20.5041 24.4611 20.4702C24.8966 21.2561 25.1702 22.1567 25.1554 23.0793C25.1407 24.002 24.9302 24.8201 24.7197 25.6383C24.6255 26.1916 24.3797 27.2172 24.7931 27.7146C25.1492 28.1311 25.9115 27.8339 26.3618 27.6971C27.8628 27.241 29.0548 26.0918 30.0511 24.8382C30.5956 24.148 31.0018 23.4344 31.4772 22.7325C31.6626 22.4794 31.8481 22.2263 32.0453 21.9041C32.0305 22.8267 32.1422 23.8421 32.4277 24.6735C32.6439 25.4932 33.1722 26.1525 34.0374 26.0863C34.5451 26.0304 35.0072 25.8244 35.4693 25.6185C35.9431 25.3433 36.4744 25.1491 36.9482 24.874C37.503 24.5414 38.1387 24.1515 38.2565 23.4599C41.3775 24.7742 44.6384 25.6853 47.7699 24.0124C48.7986 23.4047 49.7125 22.6352 50.569 21.7847C51.4372 20.8651 52.1907 19.7835 53.4607 19.4305C54.1185 19.329 54.7071 19.2157 55.2501 18.9523C56.1051 18.5286 56.788 17.862 57.54 17.2073C58.1301 16.6672 58.6393 16.1846 59.2294 15.6446C59.2986 15.6564 59.3795 15.599 59.4604 15.5416C59.9947 14.4939 59.6298 13.2931 58.9059 12.5293ZM32.1509 4.98435C32.0495 4.32656 31.7743 3.85271 31.2799 3.41268C30.8429 3.0536 30.787 2.54591 31.2153 2.12067C31.5626 1.75281 32.0702 1.69693 32.5779 1.64105C34.2157 1.63528 35.9668 2.21813 37.5222 2.69649C39.0894 3.10569 40.6565 3.51489 42.0029 4.38466C41.5644 4.45232 41.1141 4.58914 40.6638 4.72596C40.2268 4.36688 39.6161 4.19172 39.0746 4.02834C38.4639 3.85318 37.9224 3.68981 37.2999 3.58381C35.9285 3.27911 34.6262 2.98618 33.2312 2.81979C33.162 2.80802 33.1503 2.87718 33.2194 2.88896C34.4526 3.17011 35.7548 3.46303 36.988 3.74419C37.5986 3.91934 38.2211 4.02534 38.8892 4.28143C39.4307 4.44481 39.9486 4.74651 40.4901 4.90989C40.1782 5.07027 39.878 5.16148 39.4851 5.37924L39.4041 5.43662C37.3882 4.7375 35.1868 4.29147 33.0545 3.85721C32.9854 3.84544 32.9618 3.98376 33.031 3.99554C35.0013 4.54456 37.0291 5.17452 39.0112 5.65438C38.7802 5.75737 38.6183 5.87214 38.3872 5.97513C37.6956 5.85736 36.9113 5.86613 36.2197 5.74836C35.3897 5.60704 34.629 5.47749 33.8108 5.267C33.7417 5.25522 33.7181 5.39355 33.7873 5.40532C34.6054 5.61581 35.4236 5.8263 36.2653 5.89846C36.8186 5.99268 37.441 6.09868 38.0061 6.12373C37.6941 6.28411 37.3012 6.50187 36.9892 6.66224C36.4242 6.63719 35.8591 6.61213 35.3058 6.51791C34.6142 6.40014 33.9108 6.35153 33.2192 6.23376C33.15 6.22198 33.1383 6.29114 33.2074 6.30292C34.2213 6.6179 35.3852 6.88727 36.5154 6.93739C36.2726 7.10954 36.0415 7.21253 35.7295 7.3729C35.0953 7.33607 34.4493 7.3684 33.896 7.27418C33.8269 7.2624 33.8033 7.40073 33.8725 7.4125C34.3566 7.49494 34.8407 7.57738 35.3366 7.59066C35.1056 7.69365 34.8628 7.86581 34.6317 7.9688C33.9857 8.00113 33.3397 8.03345 32.7055 7.99662C32.6363 7.98484 32.6128 8.12317 32.6819 8.13494C33.1779 8.14822 33.662 8.23066 34.1579 8.24394C33.765 8.4617 33.3603 8.74862 32.9674 8.96638C31.8402 8.06278 32.3657 6.23075 32.1509 4.98435ZM31.7819 21.361C31.5729 21.7525 31.3757 22.0747 31.1093 22.3852C30.7267 22.9605 30.3323 23.605 29.8805 24.1686C29.0342 25.3767 27.9923 26.4802 26.6061 27.0982C26.2941 27.2586 25.913 27.4072 25.5554 27.4174C24.9094 27.4498 24.9344 26.8847 24.9477 26.3888C24.9963 25.6854 25.2642 24.9482 25.382 24.2566C25.6057 22.9425 25.4145 21.5578 24.8304 20.3908C25.1188 20.3688 25.4764 20.3585 25.7649 20.3364C26.3224 22.4952 26.1648 24.6745 25.3847 26.7479C25.373 26.817 25.4421 26.8288 25.4539 26.7597C26.3605 24.779 26.5535 22.3922 25.9841 20.3026C26.2034 20.2688 26.48 20.3159 26.6993 20.282C26.9581 22.1053 26.7785 23.9962 26.2648 25.7591C26.253 25.8282 26.3222 25.84 26.334 25.7709C27.0669 23.9742 27.2348 22.1524 26.9877 20.26C27.126 20.2835 27.3453 20.2497 27.4836 20.2733C27.5528 20.2851 27.6219 20.2968 27.6911 20.3086C27.9044 21.9818 27.6791 23.7226 27.1889 25.3471C27.1772 25.4163 27.2463 25.428 27.2581 25.3589C27.9557 23.7697 28.1118 22.0171 27.8986 20.3439C28.1061 20.3793 28.3253 20.3454 28.5328 20.3808C28.4268 21.0032 28.4474 21.7184 28.3414 22.3408C28.2236 23.0325 28.175 23.7358 27.9881 24.4157C27.9763 24.4848 28.0454 24.4966 28.0572 24.4275C28.2441 23.7476 28.4311 23.0678 28.4915 22.2952C28.5975 21.6728 28.7152 20.9812 28.6137 20.3234C28.7521 20.3469 28.9713 20.3131 29.1097 20.3367C29.1272 21.9053 28.718 23.4725 28.3897 24.9823C28.378 25.0514 28.4471 25.0632 28.4589 24.994C28.9255 23.5078 29.3347 21.9407 29.3289 20.3028C29.3981 20.3146 29.5364 20.3382 29.6056 20.3499C29.7056 21.4345 29.5171 22.5411 29.2713 23.5667C29.2595 23.6359 29.3287 23.6476 29.3405 23.5785C29.7364 22.5072 29.8439 21.458 29.8248 20.3161C30.0323 20.3514 30.2398 20.3868 30.3781 20.4103C30.3192 20.7561 30.2721 21.0328 30.2132 21.3786C30.1426 21.7936 30.0719 22.2085 30.0012 22.6235C29.9895 22.6927 30.1278 22.7162 30.1396 22.647C30.3957 21.979 30.537 21.1491 30.5856 20.4457C30.7239 20.4692 30.8622 20.4928 30.9314 20.5045C30.8961 20.712 30.9417 20.8621 30.9063 21.0696C30.8946 21.1388 31.0329 21.1623 31.0447 21.0932C31.08 20.8857 31.1036 20.7474 31.0697 20.5281C31.2772 20.5634 31.4729 20.6679 31.6804 20.7033C31.9217 20.9579 31.8864 21.1653 31.7819 21.361ZM36.3493 24.6297C35.6444 25.0078 34.8468 25.5125 34.1081 25.6713C33.0118 25.8405 32.7499 24.8707 32.6028 24.0628C32.4793 23.1166 32.5058 22.1248 32.4515 21.1904C32.4632 21.1212 32.4632 21.1212 32.3941 21.1095C32.4058 21.0403 32.4058 21.0403 32.4176 20.9711C32.6251 21.0065 32.8208 21.111 33.0165 21.2155C32.9576 21.5613 33.0135 22.0689 32.9782 22.2764C32.9634 23.1991 33.0296 24.0643 33.3032 24.9649C33.2914 25.0341 33.3724 24.9767 33.3724 24.9767C33.2709 24.3189 33.2268 23.7421 33.1944 23.0961C33.1724 22.8077 33.1621 22.4501 33.1401 22.1617C33.1518 22.0925 33.0842 21.654 33.1313 21.3773C33.327 21.4818 33.6036 21.5289 33.7994 21.6334C33.7169 22.1176 33.6919 22.6826 33.6786 23.1785C33.6535 23.7436 33.6741 24.4588 33.8683 24.99C33.8565 25.0592 33.9374 25.0018 33.9374 25.0018C33.9743 24.3675 33.861 23.7789 33.8978 23.1447C33.9111 22.6488 33.9818 22.2338 34.0642 21.7497C34.1908 21.8424 34.3982 21.8777 34.5248 21.9705C34.4085 22.2353 34.4306 22.5237 34.3835 22.8004C34.382 23.2271 34.3805 23.6539 34.3672 24.1498C34.3554 24.2189 34.4363 24.1616 34.4363 24.1616C34.4952 23.8158 34.5659 23.4008 34.6248 23.055C34.6837 22.7092 34.6616 22.4208 34.7205 22.0749L34.7897 22.0867C34.9162 22.1794 35.0545 22.203 35.1811 22.2957C35.0059 22.9064 34.819 23.5862 34.7822 24.2205C34.7704 24.2896 34.8395 24.3014 34.8513 24.2322C34.9573 23.6098 35.0633 22.9873 35.3194 22.3193C35.5151 22.4238 35.6534 22.4473 35.8491 22.5518C35.7446 22.7475 35.6401 22.9432 35.6048 23.1507C35.4768 23.4847 35.3487 23.8188 35.2325 24.0836C35.2207 24.1528 35.3472 24.2455 35.3708 24.1072C35.4988 23.7732 35.6269 23.4391 35.7431 23.1743C35.8476 22.9786 35.9521 22.7828 36.0566 22.5871C36.1258 22.5989 36.2523 22.6916 36.3215 22.7034C36.0433 23.083 35.88 23.6246 35.7284 24.0969C35.7166 24.1661 35.7857 24.1778 35.7975 24.1087C35.9138 23.8438 36.111 23.5216 36.2964 23.2685C36.3891 23.1419 36.4936 22.9462 36.5864 22.8197C36.6555 22.8315 36.7247 22.8432 36.7821 22.9242C36.7011 22.9816 36.6776 23.1199 36.5966 23.1773C36.4921 23.373 36.3759 23.6378 36.2714 23.8335C36.2596 23.9027 36.3288 23.9145 36.3405 23.8453C36.4568 23.5805 36.5613 23.3847 36.735 23.2008C36.8159 23.1434 36.9086 23.0169 36.9204 22.9477C36.9895 22.9595 37.0469 23.0404 37.1161 23.0522C37.0234 23.1788 36.988 23.3862 36.8953 23.5128C36.8836 23.582 37.0101 23.6747 37.0219 23.6055C37.1146 23.479 37.2073 23.3524 37.3 23.2259L37.3118 23.1567C37.5075 23.2612 37.6458 23.2848 37.8415 23.3893C37.5398 23.9072 37.0542 24.2515 36.3493 24.6297ZM58.9793 14.6057C57.7991 15.6857 56.607 16.8349 55.312 17.753C54.5836 18.2695 53.8448 18.4284 52.9678 18.5637C52.2409 18.6534 51.5831 18.7549 50.8561 18.8446C50.141 18.8652 49.3684 18.8048 48.6312 18.5369C47.7674 18.1763 47.2274 17.5862 47.173 16.6518C47.0628 15.2096 47.4955 13.5042 48.146 12.1916C48.1578 12.1224 48.1004 12.0415 48.0195 12.0989C47.1379 13.5144 46.5786 15.1272 46.7227 16.7886C46.8668 18.4499 48.456 19.1476 49.9894 19.3375C50.5426 19.4317 51.0503 19.3758 51.558 19.32C51.2343 19.5495 50.9679 19.86 50.7015 20.1704C49.9142 21.0327 49.1269 21.895 48.2247 22.5954C46.1895 24.0991 43.8012 24.3329 41.3349 23.7706C39.007 23.2319 36.866 22.0133 34.6779 21.0714C32.4206 20.1176 30.1619 19.5907 27.7397 19.6052C26.3903 19.5889 24.96 19.63 23.6562 19.7638C22.7909 19.83 21.8329 20.0227 20.9897 20.3773L20.9206 20.3655C18.7147 21.1997 17.3004 23.2362 15.6801 24.8107C13.9671 26.5116 12.0466 28.1773 9.92018 29.3808C8.82237 29.9767 7.58624 30.5491 6.32806 30.833C6.03963 30.855 5.5084 31.0492 5.25531 30.8638C5.00221 30.6784 5.14204 30.2752 5.18915 29.9985C5.29514 29.3761 5.52768 28.8464 5.82938 28.3284C6.36363 27.2807 7.16274 26.3493 7.76614 25.3134C8.38132 24.2083 8.44321 23.009 8.71259 21.845C9.40143 19.4715 11.2881 17.5866 13.6087 16.9142C13.9089 16.823 13.7721 16.3727 13.4145 16.383C11.0999 15.3483 8.797 14.2445 6.59862 12.945C5.43616 12.2489 4.19275 11.6102 3.29666 10.6036C2.52711 9.68968 1.18072 8.81991 1.25438 7.55145C2.07405 7.33519 2.98492 7.41913 3.82663 7.4913C4.66835 7.56346 5.4409 7.62385 6.28261 7.69602C7.96604 7.84035 9.63769 8.05384 11.2402 8.25555C12.001 8.3851 12.8427 8.45727 13.5917 8.65598C14.4098 8.86647 15.1809 9.3536 15.8828 9.82896C17.1718 10.6178 18.4608 11.4066 19.7616 12.1263C21.1315 12.8578 22.606 13.3935 24.1864 13.3068L24.2556 13.3186C25.5476 13.2539 26.8985 12.8434 28.1346 12.2711C29.5326 11.584 30.8732 10.816 32.2139 10.0479C33.6236 9.29164 34.976 8.45443 36.3858 7.69816C37.7265 6.93011 39.0097 6.08113 40.3841 5.53234C41.7586 4.98356 43.2581 4.95423 44.6752 5.40904C47.4401 6.30687 49.6355 8.45989 52.087 9.94484C53.4451 10.7455 54.896 11.4195 56.3587 12.0244C57.0959 12.2923 57.8331 12.5602 58.3731 13.1503C58.8911 13.452 59.0735 14.0524 58.9793 14.6057Z" fill="#0072BC"/>
<path d="M18.9177 19.1705C18.4659 19.7341 18.0715 20.3786 17.6771 21.0231C17.2826 21.6676 16.8308 22.2312 16.379 22.7947C15.4754 23.9219 14.4335 25.0254 13.346 25.9789C11.1709 27.8859 8.6162 29.5147 5.85552 30.6814C5.77458 30.7388 5.82019 30.8889 5.90112 30.8315C8.71919 29.7457 11.2621 28.1861 13.5873 26.2335C14.6748 25.28 15.7167 24.1765 16.6895 23.0611C17.1413 22.4975 17.6049 21.8648 18.0567 21.3012C18.4393 20.7259 18.9147 20.024 19.1708 19.356C19.1252 19.2059 18.9986 19.1131 18.9177 19.1705Z" fill="#0072BC"/>
<path d="M17.6259 19.235C16.8621 19.959 16.2823 20.8566 15.5067 21.6497C14.6502 22.5002 13.8511 23.4316 12.9372 24.2011C11.2478 25.7638 9.22433 27.1984 6.939 27.6632C6.86984 27.6515 6.84629 27.7898 6.98461 27.8133C9.32732 27.4294 11.2698 26.0522 13.0284 24.5013C13.8732 23.72 14.7297 22.8695 15.517 22.0073C16.2925 21.2142 17.2991 20.3181 17.8334 19.2704C17.8334 19.2704 17.7068 19.1777 17.6259 19.235Z" fill="#0072BC"/>
<path d="M16.5886 19.0586C16.0221 19.4603 15.582 19.9547 15.0155 20.3563C14.4489 20.758 13.8823 21.1597 13.2584 21.4805C11.9987 22.1911 10.6934 22.7517 9.4337 23.4624C9.35276 23.5197 9.41015 23.6007 9.49109 23.5433C10.8538 23.0637 12.1826 22.3648 13.4423 21.6541C14.5519 20.9891 15.8925 20.221 16.7152 19.1513C16.8653 19.1057 16.7387 19.013 16.5886 19.0586Z" fill="#0072BC"/>
<path d="M15.0654 19.2261C14.4179 19.6852 13.8278 20.2252 13.0537 20.5916C12.3488 20.9697 11.5292 21.186 10.7213 21.3331C10.6521 21.3213 10.7095 21.4022 10.7095 21.4022C12.3017 21.2463 14.1147 20.6299 15.1228 19.3071C15.2037 19.2497 15.1463 19.1687 15.0654 19.2261Z" fill="#0072BC"/>
<path d="M15.3806 18.2122C13.9134 18.8875 12.4698 19.4245 10.9232 19.7305C10.854 19.7187 10.8304 19.857 10.9688 19.8806C12.561 19.7247 14.1429 19.2112 15.4953 18.374C15.5763 18.3167 15.4615 18.1548 15.3806 18.2122Z" fill="#0072BC"/>
<path d="M15.4877 17.163C14.8638 17.4838 14.1706 17.7927 13.5585 18.0443C12.9463 18.2959 12.2296 18.7432 11.5145 18.7638L11.5027 18.8329C12.1251 18.9389 12.7491 18.6182 13.3613 18.3666C14.1235 18.0694 14.8284 17.6912 15.5333 17.3131C15.6143 17.2557 15.5687 17.1056 15.4877 17.163Z" fill="#0072BC"/>
<path d="M19.8736 13.1418C17.5148 11.5303 14.8661 10.3676 12.0776 9.60807C10.6488 9.22243 9.20818 8.90594 7.73224 8.79695C6.12975 8.59523 4.54931 8.68194 2.97038 8.3419C2.90122 8.33013 2.88944 8.39929 2.9586 8.41106C4.4566 8.80849 6.01348 8.8601 7.55859 8.98088C8.95359 9.14726 10.406 9.39458 11.7657 9.76845C14.6233 10.5397 17.2602 11.7716 19.7573 13.4067C19.8956 13.4302 20.0001 13.2345 19.8736 13.1418Z" fill="#0072BC"/>
<path d="M18.9445 14.8339C15.0923 11.5447 9.8375 10.2229 4.99621 9.39848C4.92705 9.3867 4.90349 9.52503 4.97265 9.5368C9.94049 10.4539 14.7332 11.9817 18.7709 15.0178C18.8974 15.1105 19.0711 14.9266 18.9445 14.8339Z" fill="#0072BC"/>
<path d="M18.2381 15.6387C16.8932 14.3421 15.0509 13.4591 13.2998 12.8762C11.4913 12.2125 9.63573 11.8253 7.72277 11.3572C7.65361 11.3454 7.64183 11.4146 7.71099 11.4264C9.55479 11.8827 11.3986 12.339 13.2071 13.0028C14.0134 13.2824 14.8654 13.7122 15.6483 14.1302C16.4885 14.6291 17.3169 15.1971 18.1453 15.7652C18.2027 15.8462 18.2954 15.7196 18.2381 15.6387Z" fill="#0072BC"/>
<path d="M17.2552 16.3965C16.5768 15.7828 15.6675 15.2721 14.8155 14.8424C13.8943 14.4009 12.9732 13.9593 12.0402 13.587C10.1626 12.9114 8.24964 12.4433 6.2793 11.8943L6.26752 11.9634C8.16871 12.5007 10.0581 13.1071 11.924 13.8518C12.7877 14.2124 13.7207 14.5848 14.5727 15.0145C15.4938 15.4561 16.3105 16.0933 17.1625 16.523C17.2198 16.604 17.3125 16.4774 17.2552 16.3965Z" fill="#0072BC"/>
<path d="M16.1707 16.4965C14.5359 15.6488 12.7966 14.9968 11.0572 14.3448C10.9881 14.333 10.9763 14.4022 11.0455 14.4139C12.7848 15.0659 14.4314 15.8445 16.1589 16.5657C16.1471 16.6348 16.2281 16.5775 16.1707 16.4965Z" fill="#0072BC"/>
<path d="M53.3303 13.9283C53.2258 14.124 53.0639 14.2388 52.9138 14.2844C52.8446 14.2726 52.6945 14.3182 52.7063 14.2491C52.568 14.2255 52.3605 14.1902 52.2222 14.1666C52.0147 14.1313 51.8308 13.9576 51.716 13.7957C51.613 13.5647 51.5792 13.3454 51.6837 13.1497C51.719 12.9423 51.8353 12.6774 52.0663 12.5744C52.2282 12.4596 52.5048 12.5067 52.7241 12.4729C52.9316 12.5082 53.139 12.5436 53.323 12.7172C53.4834 13.0292 53.5392 13.5369 53.3303 13.9283Z" fill="#0072BC"/>
<path d="M52.2647 15.1703C52.6914 15.1718 53.1653 14.8967 53.5582 14.6789C53.8819 14.4494 54.2175 14.1507 54.2072 13.7931C54.2307 13.6548 54.1851 13.5047 54.2087 13.3664C54.1749 13.1471 54.0719 12.9161 53.9571 12.7542C53.9571 12.7542 53.9571 12.7542 53.8879 12.7424C53.785 12.5114 53.601 12.3377 53.4053 12.2332C53.0831 12.036 52.6563 12.0345 52.287 12.114C51.9176 12.1934 51.5365 12.342 51.2583 12.7216C51.0611 13.0439 50.9095 13.5162 50.908 13.943C50.9521 14.5198 51.5495 15.1909 52.2647 15.1703ZM51.223 12.9291C51.3628 12.5259 51.6866 12.2964 51.9868 12.2052C52.3679 12.0566 52.7373 11.9771 53.1404 12.117C53.4745 12.245 53.6466 12.4878 53.807 12.7998C54.013 13.2619 53.9762 13.8961 53.698 14.2757C53.6171 14.3331 53.6171 14.3331 53.5361 14.3905C53.2933 14.5627 52.9696 14.7922 52.6694 14.8834C51.988 15.1232 51.2744 14.717 51.1037 14.0475C51.0125 13.7473 51.0832 13.3323 51.223 12.9291Z" fill="#0072BC"/>
</g>
</g>
<defs>
<clipPath id="clip0_494_1303">
<rect width="61" height="32" fill="white"/>
</clipPath>
<clipPath id="clip1_494_1303">
<rect width="59.1423" height="34.5172" fill="white" transform="translate(2.79443 -4) rotate(9.66397)"/>
</clipPath>
</defs>
</svg>
