<svg width="97" height="38" viewBox="0 0 97 38" fill="none" xmlns="http://www.w3.org/2000/svg">
<g clip-path="url(#clip0_494_1302)">
<path d="M94.8477 34.304C94.757 33.8229 94.492 33.4744 94.0527 33.2583C93.4377 32.9558 92.8242 32.8722 92.3388 32.3061C91.6764 31.4347 90.8842 30.8268 89.8314 30.5272C87.4622 29.7982 84.7947 30.341 82.6401 28.9539C82.5955 28.8228 82.5955 28.8228 82.5076 28.7796C82.2441 28.6499 82.7209 27.9024 82.7626 27.5957C82.8477 27.201 82.8448 26.7632 82.7987 26.4132C82.708 25.9321 82.5295 25.4078 82.6577 24.9253C82.7413 24.3118 83.2641 23.9143 83.6113 23.4304C84.2191 22.6383 84.7392 21.8029 85.2592 20.9676C85.7792 20.1323 86.3424 19.2091 86.511 18.2009C86.7242 17.3238 86.1928 16.4077 86.625 15.5291C87.0585 14.8695 87.6246 14.3842 88.1028 13.8556C89.2753 12.3592 88.6518 10.7432 88.2472 9.1257C87.7519 7.02715 88.658 4.96328 88.2938 2.82009C88.0188 0.939038 85.9174 0.996496 84.4296 1.13753C82.2417 1.37071 80.231 1.90923 78.0893 2.49239C77.0839 2.76165 75.9907 2.9877 75.03 3.38803C73.895 3.92086 72.979 4.45226 72.0629 4.98366C69.8822 6.31146 67.7893 7.68247 65.6965 9.05348C65.3479 9.31846 64.9115 9.54024 64.5197 9.89308C62.7526 7.4963 60.2452 5.71735 57.5246 4.81553C55.8567 4.21336 54.1918 4.04905 52.3957 3.92937C50.6875 3.85291 48.9361 3.8643 47.1415 3.96355C45.5226 4.14923 43.8605 4.42277 42.2877 4.95844C40.7148 5.49412 39.2759 6.423 37.837 7.35189C36.3548 8.36863 34.7388 8.99216 32.9456 9.31034C31.1524 9.62851 29.401 9.6399 27.651 9.87022C25.5942 10.0588 23.5389 10.4662 21.5282 11.0047C20.5229 11.274 19.5175 11.5433 18.6 11.8557C15.9758 12.3107 13.3544 13.2035 10.9073 13.9638C9.8587 14.3209 8.89799 14.7212 7.93871 15.3405C7.11049 15.9151 6.28228 16.4897 5.45407 17.0643C4.62586 17.6389 3.75443 18.3014 2.74908 18.5707C2.53016 18.5721 2.04909 18.6628 1.91944 18.9264C1.7898 19.1899 1.79122 19.4089 1.96836 19.7142C1.66728 20.5481 1.41083 21.5131 1.41653 22.3888C1.42223 23.2645 2.03863 23.7859 2.74147 24.1317C4.63107 25.1702 6.69494 26.0763 8.75882 26.9824C10.9538 27.8439 13.2798 28.6607 15.6476 29.1708C16.2683 30.349 17.4565 31.2608 18.4675 31.8672C19.9178 32.6897 21.5842 33.073 23.2045 33.1062C25.1317 33.1812 26.9695 32.9941 28.8087 33.0259C30.2102 33.0606 31.7873 33.1817 32.974 33.8746C33.1944 34.0921 33.4579 34.2217 33.6783 34.4392C33.7661 34.4825 33.7661 34.4825 33.854 34.5257C33.9418 34.5689 34.0729 34.5242 34.0283 34.3932C33.8079 34.1757 33.6754 34.0014 33.4119 33.8717C32.4412 32.7396 31.1652 31.7846 29.8906 31.0485C29.1431 30.5717 28.3092 30.2706 27.5631 30.0128C27.1238 29.7967 26.7292 29.7117 26.2899 29.4956C27.8685 29.8356 29.4888 29.8689 31.0227 30.0778C33.0823 30.3271 35.0555 30.7522 37.0733 31.3083C38.7843 31.8226 40.5372 32.0301 42.3289 31.493C44.2085 30.9991 45.9096 29.981 47.6121 29.1817C47.7432 29.1371 47.5675 29.0507 47.5675 29.0507C47.3053 29.1399 47.131 29.2724 46.8689 29.3617C46.9121 29.2739 47 29.3171 47.0432 29.2292C47.0432 29.2292 47.0864 29.1414 46.9553 29.186C44.4232 30.3409 41.5715 29.4838 39.028 28.8873C37.7562 28.5891 36.5723 28.334 35.3437 27.9479C34.422 27.6036 33.4556 27.1283 32.5338 26.784C36.3334 25.2705 40.0438 23.4949 44.0233 22.7246C46.3408 22.2279 48.6165 22.0379 50.9397 22.4169C53.0871 22.7094 55.1064 23.4845 56.9081 24.4798C58.9763 26.0427 61.1308 27.4299 63.3286 28.7292C65.7468 30.246 68.2082 31.675 70.7127 33.0161C73.0862 34.4018 75.3272 35.6132 77.9572 36.034C80.5439 36.5426 83.2171 36.8755 85.7996 36.7274C87.2442 36.6742 88.6874 36.4021 90.0859 35.9989C91.5277 35.5078 92.9681 34.7979 94.5005 34.7879C94.7195 34.7865 94.8491 34.5229 94.8477 34.304ZM26.4296 10.5788C29.6674 10.2074 33.0838 10.3603 36.097 9.11469C37.6252 8.44794 38.8884 7.43262 40.2841 6.59159C41.7676 5.79378 43.3405 5.2581 44.9148 4.94135C46.5769 4.66782 48.2836 4.52535 49.904 4.5586C51.6554 4.5472 53.4946 4.57902 55.2921 4.91762C58.6681 5.59625 61.658 7.50342 63.8211 10.2041C62.3822 11.133 60.9001 12.1498 59.6369 13.1651C56.013 14.765 52.2537 15.7527 48.2266 15.9541C45.732 16.1455 43.1914 15.9869 40.6939 15.7404C41.9182 15.4697 43.0992 15.2869 44.4128 15.2783C46.3831 15.2655 48.3102 15.3405 50.2805 15.3277C50.3684 15.3709 50.367 15.152 50.2359 15.1966C48.1331 15.0352 46.1181 14.9169 44.0599 14.8865C42.5275 14.8965 41.0843 15.1686 39.5546 15.6164C38.8532 15.4896 38.2397 15.4061 37.5382 15.2793C38.2814 15.0993 38.98 14.7882 39.6354 14.565C41.0339 14.1618 42.565 13.933 44.0528 13.7919C46.9406 13.4666 49.8745 13.4913 52.5937 14.1742C52.6816 14.2174 52.637 14.0864 52.637 14.0864C49.9595 13.0967 47.0256 13.072 44.1378 13.3973C42.7378 13.5815 41.3379 13.7658 39.9825 14.0811C39.3272 14.3043 38.584 14.4843 37.9286 14.7075C37.4043 14.886 36.7922 15.0214 36.2233 15.0689C35.9165 15.0271 35.6529 14.8974 35.3461 14.8556C34.9515 14.7706 34.469 14.6424 34.0744 14.5574C34.3365 14.4681 34.5987 14.3789 34.8608 14.2896C35.6472 14.0217 36.4336 13.7539 37.2201 13.4861C38.924 12.9057 40.7157 12.3687 42.5089 12.0505C46.3142 11.4127 50.2145 11.9128 54.027 12.3696C54.1148 12.4128 54.158 12.325 54.0702 12.2818C50.5617 11.4289 46.8817 11.1463 43.2507 11.6516C41.5886 11.9251 39.8833 12.2865 38.3104 12.8222C37.4361 13.0468 36.6065 13.4025 35.8201 13.6703C35.0769 13.8503 34.204 14.2939 33.4162 14.3428C32.8458 14.1713 32.2755 13.9999 31.7051 13.8285C33.1066 13.8631 34.5051 13.4599 35.8158 13.0135C37.4751 12.3022 39.179 11.7218 40.9275 11.2726C44.4679 10.2863 48.3178 9.77955 51.9545 10.15C52.0424 10.1932 52.041 9.97427 51.9978 10.0621C50.2449 9.85459 48.4489 9.73492 46.6543 9.83417C44.8597 9.93341 43.1543 10.2948 41.4058 10.744C39.6572 11.1933 37.8222 11.8182 36.0751 12.4864C35.2455 12.8421 34.4158 13.1978 33.4969 13.2914C32.5348 13.4728 31.5266 13.3042 30.6091 13.6166C30.1266 13.4884 29.6441 13.3602 29.2048 13.1441C31.0427 12.957 32.8777 12.3321 34.4937 11.7085C36.7651 10.8618 38.904 9.8408 41.1769 9.213C46.0711 7.6924 51.2821 7.74607 56.2395 9.20258C56.3273 9.24579 56.2827 9.11472 56.2827 9.11472C51.7171 7.30537 46.5507 7.38277 41.874 8.68302C39.6012 9.31082 37.3744 10.2886 35.103 11.1353C34.0112 11.5803 32.8316 11.9821 31.6952 12.296C30.5588 12.6099 29.5088 12.7481 28.3277 12.9309C27.6695 12.7162 27.0992 12.5448 26.5288 12.3734C28.2788 12.1431 30.0288 11.9127 31.6463 11.5081C34.007 10.9235 36.2351 10.1647 38.4619 9.18687C42.9587 7.14342 47.8068 5.27283 52.8896 5.80899C55.4749 6.09868 57.9334 7.08978 60.0016 8.65266C60.0894 8.69587 60.1327 8.60802 60.0448 8.5648C56.741 5.52121 52.1393 4.89435 47.8083 5.49176C45.2272 5.85884 42.8248 6.75021 40.4669 7.77265C38.1091 8.79509 35.7959 9.94859 33.392 10.621C30.7259 11.3828 28.1002 11.6188 25.3881 12.0305C24.511 11.8173 23.7217 11.6473 22.8893 11.5651C22.2757 11.4815 21.75 11.4412 21.1811 11.4886C23.1932 11.169 24.7675 10.8523 26.4296 10.5788ZM29.5866 31.4446C30.3773 31.8335 31.1694 32.4414 31.8737 33.006C31.9616 33.0492 31.9616 33.0492 32.0062 33.1803C29.8112 32.3188 27.0991 32.7306 24.9099 32.7448C23.0274 32.8008 21.1435 32.6379 19.4311 31.9047C18.7282 31.559 17.9807 31.0822 17.3643 30.5608C17.0115 30.169 16.6586 29.7772 16.3058 29.3854C16.6126 29.4272 17.0072 29.5122 17.314 29.554C17.8022 30.5579 19.1632 31.1183 19.9986 31.6383C20.0864 31.6815 20.1296 31.5937 20.0418 31.5504C19.4268 31.2479 18.9861 30.8129 18.4575 30.3347C18.2372 30.1172 18.0168 29.8997 17.8397 29.5944C18.0586 29.5929 18.2343 29.6794 18.4533 29.6779C19.205 30.8115 20.5675 31.5908 21.7514 31.8458C21.8392 31.889 21.8825 31.8012 21.7946 31.758C20.6093 31.284 19.7293 30.633 18.8479 29.7629C19.0668 29.7615 19.3736 29.8033 19.5925 29.8019C19.9022 30.2815 20.4739 30.6719 20.9578 31.019C21.7932 31.5391 22.4514 31.7537 23.3285 31.9669C23.4164 32.0101 23.3717 31.8791 23.3717 31.8791C22.5824 31.7091 21.835 31.2323 21.1753 30.7987C20.7793 30.4948 20.3832 30.1908 20.1182 29.8423C20.3372 29.8408 20.4682 29.7962 20.6439 29.8826C21.4821 30.8405 22.7999 31.4887 24.0717 31.7869C24.1596 31.8302 24.2028 31.7423 24.1149 31.6991C22.9742 31.3562 22.0943 30.7051 21.2575 29.9662C21.3454 30.0094 21.3886 29.9216 21.4764 29.9648C21.5643 30.008 21.6953 29.9634 21.6953 29.9634C22.1375 30.6173 23.0592 30.9616 23.8053 31.2195L23.8485 31.1316C23.4971 30.9587 23.0578 30.7427 22.7496 30.4819C22.486 30.3523 22.3535 30.178 22.1332 29.9605C22.3521 29.9591 22.7021 29.913 22.921 29.9116C24.8121 31.1691 27.1381 31.9859 29.3302 32.4095C29.418 32.4528 29.3734 32.3217 29.3734 32.3217C27.2245 31.8102 25.2485 30.9473 23.4021 29.8209C23.8832 29.7302 24.2332 29.6841 24.7142 29.5934C24.7142 29.5934 24.7142 29.5934 24.8021 29.6366C26.2078 30.3281 28.0484 30.5788 29.5866 31.4446ZM39.6458 29.6276C41.4433 29.9662 43.4611 30.5223 45.2975 30.1163C44.2935 30.6045 43.3328 31.0048 42.2396 31.2309C40.2289 31.7694 38.3868 31.2997 36.4569 30.7868C34.7458 30.2725 32.9916 29.8461 31.2388 29.6386C29.5738 29.4742 27.952 29.2221 26.3303 28.9699C28.2099 28.476 30.0449 27.8511 31.9231 27.1382C34.252 28.3929 36.928 29.1637 39.6458 29.6276ZM57.212 24.0838L57.1242 24.0406C54.0032 22.178 50.4068 21.2819 46.8176 21.4804C43.0095 21.6803 39.4273 22.9735 35.8899 24.3976C32.3524 25.8218 28.8596 27.3771 25.0557 28.2338C23.9625 28.4599 23.0004 28.6413 21.9057 28.6484C21.9057 28.6484 21.9057 28.6484 21.8179 28.6052C18.7543 28.844 15.6419 28.2951 12.7023 27.3947C10.3331 26.6657 8.0935 25.6732 5.85391 24.6806C4.79965 24.1621 3.65896 23.8192 2.64792 23.2127C1.9883 22.7792 2.07188 22.1656 2.19868 21.4642C2.3269 20.9817 2.32405 20.5438 2.45227 20.0614C2.49549 19.9735 2.5387 19.8856 2.49406 19.7546C2.49406 19.7546 2.49406 19.7546 2.44942 19.6235C2.49264 19.5356 2.49264 19.5356 2.448 19.4046C4.06548 19 5.45977 17.94 6.76762 17.0558C8.33619 15.8633 9.99546 15.1519 11.8304 14.527C15.8072 13.3189 20.0014 11.8904 24.1667 12.739C26.1831 13.0762 28.1145 13.808 30.0891 14.452C32.0637 15.0959 34.0369 15.521 36.0979 15.9892C40.0442 16.8393 44.031 17.1636 48.058 16.9623C52.2594 16.6285 56.5444 15.681 60.2533 13.6865C60.3858 13.8608 60.5183 14.0351 60.6508 14.2094C60.6075 14.2972 60.6954 14.3404 60.7832 14.3837C61.45 15.9119 60.8521 18.2365 60.5107 19.5961C60.3824 20.0786 60.2988 20.6921 60.1706 21.1746L60.1274 21.2625C60.0424 21.6571 59.8263 22.0964 59.7413 22.491C59.5685 22.8424 59.3077 23.1506 58.9592 23.4156C58.8713 23.3724 58.8281 23.4603 58.7849 23.5481C58.3499 23.9888 57.8256 24.1674 57.212 24.0838ZM87.1521 35.9742C84.4832 36.2981 81.6789 36.0098 79.049 35.589C77.734 35.3787 76.5501 35.1236 75.2337 34.6943C73.9605 34.1772 72.7738 33.4843 71.587 32.7914C69.2135 31.4057 66.9278 30.0632 64.5543 28.6774C62.2687 27.3349 60.0695 25.8167 57.7406 24.562C58.1784 24.5592 58.6149 24.3374 59.0513 24.1156C60.2798 24.5017 61.5516 24.7999 62.6505 25.4496C63.7926 26.0114 64.7172 26.7935 65.6418 27.5757C67.4911 29.14 69.2957 30.5732 71.492 31.6536C75.7537 33.859 80.3236 36.3251 85.2653 35.3734C85.3964 35.3288 85.3517 35.1977 85.2639 35.1545C80.145 35.8008 75.3548 33.1172 70.9606 30.7375C68.8075 29.5693 67.1772 28.0036 65.2847 26.5271C63.5248 25.225 61.6366 24.4053 59.5742 23.7181C59.7484 23.5856 59.8349 23.4099 59.9645 23.1464C62.462 23.3928 64.8758 24.2529 66.8994 25.6847C68.835 27.0733 70.3789 28.8147 72.3578 30.1154C74.4245 31.4594 76.9694 32.2748 79.4251 32.828C81.9686 33.4245 84.4661 33.671 87.0053 33.6106C87.0932 33.6539 87.0485 33.5228 86.9607 33.4796C84.2889 33.3656 81.5711 32.9016 78.9398 32.2619C76.3962 31.6655 73.8067 30.719 71.7385 29.1561C69.8028 27.7675 68.3022 25.9383 66.1922 24.6822C64.258 23.5125 62.1077 22.7821 59.917 22.5774L59.9602 22.4896C62.0198 22.7389 63.9887 22.5072 66.0498 22.9754C68.023 23.4004 69.7368 24.3526 71.3643 25.4805C72.9917 26.6083 74.4881 27.7809 76.1588 28.8209C77.8295 29.8609 79.5866 30.7252 81.5165 31.2381C81.6044 31.2813 81.6476 31.1934 81.5597 31.1502C77.5673 29.9502 74.5717 27.1673 71.1857 24.9562C69.6908 24.0026 68.0648 23.0937 66.3105 22.6672C64.2495 22.199 62.1927 22.3875 60.1331 22.1382C60.2195 21.9625 60.2613 21.6557 60.3478 21.48C61.8356 21.3389 63.4127 21.46 64.9898 21.5811C66.7859 21.7008 68.3644 22.0408 69.989 22.7308C71.4379 23.3344 72.8436 24.0259 74.2493 24.7173C75.6982 25.3209 77.2349 25.9677 78.7284 26.7024C78.8163 26.7456 78.8595 26.6577 78.7717 26.6145C77.3646 25.7042 75.7399 25.0141 74.2464 24.2795C72.7097 23.6327 71.2593 22.8102 69.7226 22.1633C68.2737 21.5598 66.8709 21.3062 65.2938 21.1851C63.7166 21.064 62.1395 20.9429 60.5206 21.1285C60.607 20.9528 60.5624 20.8218 60.6488 20.6461C63.9731 20.099 67.303 20.4276 70.5465 20.932C72.0804 21.1409 73.659 21.4809 75.1497 21.7777C76.6403 22.0746 78.1743 22.2835 79.7499 22.1857C79.8378 22.2289 79.8364 22.01 79.7053 22.0546C77.9985 22.1971 76.3321 21.8138 74.6657 21.4306C73.0872 21.0906 71.3776 20.7952 69.7558 20.543C66.688 20.1251 63.6217 19.9261 60.5163 20.4718C60.5596 20.3839 60.5596 20.3839 60.5149 20.2528C60.5135 20.0339 60.6431 19.7704 60.6849 19.4636C63.3985 19.2708 66.0213 18.5969 68.7348 18.4041C71.5794 18.1667 74.4673 17.8414 77.224 17.5607C77.3551 17.5161 77.3104 17.385 77.1794 17.4296C74.3348 17.6671 71.4902 17.9045 68.6455 18.142C66.0199 18.378 63.3524 18.9208 60.7267 19.1568C60.7685 18.85 60.8549 18.6743 60.8967 18.3675C62.2535 18.2711 63.5628 17.6058 64.8735 17.1594C66.4031 16.7116 67.9327 16.2638 69.4624 15.8159C72.5663 15.0514 75.7162 14.6368 78.954 14.2654C79.0419 14.3087 79.0405 14.0897 78.9094 14.1344C75.9309 13.9786 72.7823 14.6121 69.8974 15.3752C68.411 15.7352 66.8813 16.183 65.4396 16.6741C63.9978 17.1651 62.5574 17.8751 61.0696 18.0161C61.0682 17.7972 61.1546 17.6215 61.1964 17.3147C64.6907 15.9783 67.786 13.9002 71.2803 12.5639C74.8177 11.1397 78.6245 10.7208 82.3866 10.1709C82.3866 10.1709 82.4298 10.0831 82.3419 10.0399C78.6216 10.283 74.7285 10.8776 71.2774 12.126C67.8264 13.3745 64.731 15.4526 61.2368 16.789C61.2353 16.5701 61.2771 16.2633 61.2757 16.0444C63.2403 15.1558 64.8075 13.7445 66.595 12.5506C68.2514 11.4013 69.9971 10.5143 71.8307 9.67037C73.6642 8.82649 75.6303 8.1569 77.641 7.61837C79.6517 7.07985 81.6652 6.97918 83.6327 6.52851C81.7056 6.45347 79.6949 6.992 77.8585 7.39803C75.8478 7.93655 73.8817 8.60614 71.9603 9.40681C70.17 10.1628 68.381 11.1378 66.7678 12.1992C64.8925 13.3498 63.1943 14.8058 61.1864 15.7822C61.1404 15.4322 61.0497 14.9511 61.0036 14.6012C62.9682 13.7126 64.6232 12.3445 66.3229 11.1074C68.0225 9.8703 69.8979 8.71963 71.8178 7.70004C73.7811 6.5926 75.8335 5.7473 78.0185 5.07628C80.3346 4.36062 82.6535 4.08281 84.9724 3.80501C85.0602 3.84822 85.0156 3.71715 84.9277 3.67393C82.6492 3.42604 80.2439 3.87956 78.0589 4.55057C75.9171 5.13374 73.9525 6.02225 71.9446 6.99863C69.9368 7.975 68.1061 9.25674 66.2754 10.5385C64.4447 11.8202 62.7897 13.1884 60.7818 14.1647C60.6493 13.9904 60.56 13.7283 60.3843 13.6419C61.9543 12.6683 63.4797 11.5637 65.0497 10.5902C66.925 9.43956 68.8436 8.20105 70.6311 7.00718C71.4593 6.43256 72.3754 5.90116 73.2914 5.36975C74.2954 4.88157 75.2993 4.39338 76.3478 4.03626C78.3139 3.36667 80.3246 2.82815 82.3799 2.42069C83.7785 2.01751 84.8285 1.87932 85.8799 1.96005C86.3177 1.9572 86.9313 2.04079 87.1963 2.38936C87.637 2.82436 87.5102 3.52578 87.5577 4.0947C87.4769 5.14611 87.3083 6.1543 87.2276 7.20571C87.1469 8.25712 87.3715 9.1314 87.5529 10.0935C87.7775 10.9678 88.0468 11.9732 87.7457 12.8071C87.4878 13.5531 86.7907 14.0831 86.3125 14.6116C85.8775 15.0523 85.6182 15.5795 85.5346 16.193C85.4496 16.5877 85.5835 16.9809 85.6296 17.3309C85.7217 18.0309 85.5071 18.6891 85.2046 19.3041C84.686 20.3583 84.0795 21.3694 83.4284 22.2493C82.9517 22.9968 81.9938 23.835 81.7806 24.7121C81.612 25.7203 82.2312 26.6796 81.8437 27.6892C81.5412 28.3042 81.3266 28.9624 81.9862 29.396C82.074 29.4392 82.1619 29.4824 82.293 29.4378C84.0097 30.8278 86.4165 30.5932 88.4328 30.9304C89.6167 31.1854 90.7574 31.5283 91.4646 32.5307C91.7295 32.8793 91.9945 33.2279 92.3906 33.5318C92.8299 33.7479 93.4434 33.8315 93.8395 34.1354C91.6084 34.4564 89.471 35.6964 87.1521 35.9742Z" fill="#0072BC"/>
<path d="M13.4347 18.8077C13.1711 18.6781 12.9536 18.8984 12.9551 19.1173C13.0458 19.5984 13.3986 19.9902 13.6204 20.4266C13.8436 21.082 13.8911 21.6509 13.6764 22.3091C13.4214 23.493 12.7271 24.4608 12.2964 25.5583C12.2532 25.6462 12.341 25.6894 12.3842 25.6015C13.3853 24.6755 14.12 23.1819 14.2871 21.9548C14.5882 21.1209 14.489 19.3263 13.4347 18.8077Z" fill="#0072BC"/>
<path d="M10.6921 21.2774C10.5624 21.541 10.3003 21.6303 10.0382 21.7196C9.90709 21.7642 9.81923 21.721 9.73138 21.6778C9.51245 21.6792 9.24889 21.5496 9.02996 21.551C8.72318 21.5092 8.54605 21.2038 8.45677 20.9417C8.36749 20.6796 8.40928 20.3728 8.45107 20.066C8.58072 19.8024 8.75358 19.451 9.01572 19.3617C9.27786 19.2725 9.58464 19.3142 9.89142 19.356C10.1536 19.2668 10.4171 19.3964 10.6375 19.6139C11.0782 20.0489 11.0392 20.7935 10.6921 21.2774Z" fill="#0072BC"/>
<path d="M9.0816 22.7768C9.69516 22.8604 10.3059 22.5061 10.8734 22.2397C11.3098 22.0179 11.7894 21.7083 11.873 21.0947C11.9594 20.919 11.958 20.7001 11.9134 20.569C11.8673 20.219 11.8213 19.869 11.6009 19.6515C11.5116 19.3894 11.3345 19.084 11.0709 18.9544C10.6749 18.6504 10.0613 18.5669 9.58024 18.6576C9.09918 18.7483 8.48704 18.8836 8.09525 19.2365C7.79132 19.6325 7.48882 20.2475 7.44845 20.7732C7.32308 21.6935 8.0734 22.6082 9.0816 22.7768ZM11.6973 21.0083C11.7405 20.9204 11.6959 20.7894 11.6959 20.7894C11.7837 20.8326 11.7405 20.9204 11.6973 21.0083ZM8.01025 19.6311C8.26954 19.104 8.70597 18.8822 9.18703 18.7915C9.71131 18.6129 10.2802 18.5654 10.7195 18.7815C11.0709 18.9544 11.3806 19.434 11.5145 19.8272C11.7377 20.4826 11.6555 21.3151 11.1773 21.8436C11.1341 21.9315 11.003 21.9761 11.003 21.9761C10.5666 22.1979 10.1302 22.4197 9.73695 22.5536C8.86267 22.7782 7.85163 22.1718 7.80129 21.165C7.53488 20.5975 7.79417 20.0704 8.01025 19.6311Z" fill="#0072BC"/>
</g>
<defs>
<clipPath id="clip0_494_1302">
<rect width="97" height="38" fill="white"/>
</clipPath>
</defs>
</svg>
