<svg width="60" height="61" viewBox="0 0 60 61" fill="none" xmlns="http://www.w3.org/2000/svg">
<path d="M58.693 23.473C58.6566 23.1856 58.5453 22.9128 58.3701 22.682C58.195 22.4512 57.9622 22.2705 57.6952 22.158C56.4557 21.6305 54.5076 22.4854 53.3117 23.1372C53.2771 22.5831 53.0514 22.058 52.6732 21.6516C52.2949 21.2451 51.7875 20.9823 51.2372 20.9079C50.9807 20.8538 50.7156 20.8544 50.4592 20.9095C50.2029 20.9645 49.961 21.073 49.7492 21.2277C48.578 22.0864 48.3172 24.258 48.1077 26.003L48.0301 26.6289C47.802 28.3362 45.8835 30.5828 45.3641 30.5671C45.0278 30.2088 45.2212 29.0307 45.4264 27.7832C45.7311 26.2052 45.8664 24.5993 45.8301 22.9926C45.7512 21.2061 45.1978 20.1327 44.1856 19.8028C43.683 19.7019 43.1629 19.7299 42.674 19.8843C42.1851 20.0387 41.7433 20.3144 41.3898 20.6857C40.1999 18.5803 38.957 18.7253 38.4388 18.9093C38.0361 19.0946 37.6883 19.3812 37.4295 19.7411C37.1707 20.101 37.0097 20.5219 36.9622 20.9626C36.3622 20.4973 35.6162 20.2605 34.8576 20.2947C34.4142 20.2744 33.9746 20.3857 33.5944 20.6147C33.2141 20.8438 32.9101 21.1802 32.7208 21.5818C32.5139 22.2594 33.0545 23.1169 34.4077 25.1634C35.7225 26.9449 36.7776 28.9043 37.5411 30.9827C37.7528 31.9623 37.7681 32.9741 37.5861 33.9596C37.404 34.9451 37.0282 35.8847 36.4804 36.724C33.2013 38.299 30.6463 41.0652 29.3362 44.4589C28.0807 37.2559 26.2121 29.6887 23.6886 27.3679C24.9218 21.4419 26.6021 20.5787 28.23 19.7562C28.5625 19.5883 28.8911 19.4212 29.2126 19.224C29.5238 19.0328 29.8024 18.867 30.0509 18.719C31.4507 17.8853 32.153 17.4672 32.4307 16.1102C32.5048 15.846 32.5178 15.5684 32.4685 15.2984C32.4193 15.0284 32.3092 14.7733 32.1466 14.5522C31.7517 14.1267 31.2121 13.8639 30.6336 13.8152C31.3656 13.0061 31.8268 11.9887 31.9529 10.9049C31.9834 10.6007 31.9493 10.2934 31.8528 10.0032C31.7562 9.71309 31.5994 9.44665 31.3927 9.22137C31.1684 8.98452 30.8954 8.79914 30.5925 8.67797C30.2897 8.55681 29.9641 8.50276 29.6383 8.51956C28.9044 8.57852 28.2059 8.85988 27.636 9.32611C27.666 8.81285 27.5619 8.30062 27.3338 7.83984C27.1058 7.37905 26.7617 6.98562 26.3354 6.69824C25.9421 6.46323 25.4893 6.34693 25.0315 6.36334C24.5737 6.37974 24.1304 6.52813 23.755 6.79068C23.1551 7.51742 22.6922 8.34705 22.3887 9.23919C21.6101 10.9316 19.7985 14.9029 18.6731 14.6752C17.8581 14.5145 17.9276 11.9078 17.9781 10.0042C18.0294 8.07768 18.0828 6.08548 17.5188 4.8612C17.3502 4.36223 17.0379 3.92427 16.621 3.60244C16.2041 3.28062 15.7013 3.08929 15.1759 3.05258C14.5536 3.10584 13.9515 3.30019 13.4155 3.62085C12.8795 3.9415 12.4236 4.38004 12.0824 4.90319C10.8331 2.93301 8.74504 0.548109 6.14429 0.992519C5.81612 1.0329 5.50435 1.15889 5.24026 1.35784C4.97618 1.5568 4.76907 1.82174 4.63973 2.12603C3.99173 3.64161 5.14988 6.15288 5.93905 7.57687C5.25022 7.56907 4.58212 7.81228 4.05951 8.26107C3.53689 8.70986 3.19551 9.33353 3.09913 10.0156C3.03617 10.3105 3.03599 10.6153 3.09861 10.9103C3.16122 11.2052 3.28523 11.4837 3.46255 11.7275C4.47562 13.1151 7.10436 13.4361 9.21702 13.6935C9.48969 13.727 9.74836 13.7584 9.98502 13.7906C11.6889 14.0217 14.5428 15.9329 14.9109 17.0889C14.9643 17.2573 14.9274 17.292 14.8914 17.3255C14.3982 17.7882 12.9861 17.5515 11.3517 17.2801C9.42595 16.9057 7.46591 16.7363 5.50442 16.7747C3.38031 16.8642 2.10771 17.5062 1.72142 18.6829C1.60447 19.3065 1.65065 19.9496 1.8555 20.55C2.06034 21.1505 2.41688 21.6877 2.89054 22.1098C0.233398 23.5363 0.393269 25.0243 0.609959 25.6362C0.851199 26.1424 1.22504 26.5738 1.69177 26.8845C2.1585 27.1953 2.70069 27.3738 3.26075 27.4011C2.60811 28.1352 2.26683 29.0944 2.30916 30.0757C2.28672 30.5886 2.41365 31.097 2.67456 31.5392C2.93546 31.9813 3.31912 32.3383 3.77895 32.5666C3.87941 32.5972 3.98393 32.6124 4.08895 32.6116C4.8442 32.6116 5.94802 31.9085 8.05177 30.5236C10.2535 29.0746 12.9938 27.2706 15.2434 26.6739C16.5023 26.4097 17.8016 26.4025 19.0633 26.6528C20.3251 26.9031 21.5233 27.4058 22.5859 28.1306L22.5899 28.1322L22.5936 28.1361C26.6162 31.0061 29.3153 51.7129 30.0159 59.4494C30.0306 59.6111 30.1053 59.7615 30.2251 59.8711C30.345 59.9807 30.5015 60.0416 30.6639 60.0418C30.6838 60.0418 30.7033 60.041 30.7237 60.0393C30.8957 60.0235 31.0544 59.9401 31.165 59.8074C31.2756 59.6747 31.329 59.5036 31.3135 59.3315C31.2679 58.8289 30.7665 53.4177 29.7802 47.1388C31.5933 40.5866 36.1057 38.3133 36.9751 37.9312C41.8487 38.9174 42.5443 40.2702 43.2092 41.58C43.3483 41.8535 43.4865 42.1241 43.6498 42.3887C43.8059 42.6419 43.9416 42.8683 44.0624 43.0706C44.7621 44.2401 45.1137 44.827 46.2718 45.0611C46.4193 45.0921 46.5696 45.1082 46.7204 45.109C47.0537 45.1181 47.3795 45.0097 47.641 44.8029C47.9651 44.5148 48.1784 44.1226 48.244 43.6939C48.8931 44.2369 49.6888 44.575 50.5301 44.6655C50.7949 44.6908 51.062 44.66 51.3141 44.575C51.5661 44.4901 51.7974 44.3528 51.9927 44.1723C52.1977 43.9774 52.3579 43.7405 52.4625 43.4777C52.567 43.215 52.6134 42.9327 52.5983 42.6503C52.5583 42.1012 52.365 41.5744 52.0406 41.1296C52.4424 41.1255 52.8371 41.0222 53.1894 40.829C53.5417 40.6358 53.8409 40.3586 54.0604 40.022C54.263 39.6798 54.3624 39.2864 54.3466 38.8892C54.3309 38.4919 54.2008 38.1076 53.9718 37.7825C53.3688 37.2766 52.6762 36.8884 51.93 36.638C50.6913 36.071 47.4019 34.5648 47.5613 33.7506C47.6716 33.1857 49.9097 33.2421 51.2455 33.274C52.6724 33.4315 54.1164 33.2975 55.4899 32.8799C55.9172 32.7331 56.2915 32.463 56.5657 32.1038C56.8398 31.7446 57.0016 31.3123 57.0305 30.8614C56.998 30.3622 56.8527 29.8768 56.6057 29.4417C56.3587 29.0066 56.0164 28.6332 55.6044 28.3493C57.2063 27.2997 59.0628 25.5942 58.693 23.473ZM14.909 25.4144C12.4542 26.0658 9.61595 27.9341 7.33536 29.4353C6.34097 30.1652 5.2781 30.7969 4.16171 31.3215C3.97608 31.1618 3.82978 30.9613 3.73417 30.7358C3.63856 30.5103 3.59622 30.2659 3.61043 30.0214C3.58669 29.4468 3.75249 28.0219 5.80324 27.198C5.94365 27.1417 6.06008 27.0382 6.13253 26.9055C6.20499 26.7727 6.22895 26.6188 6.20031 26.4702C6.17166 26.3217 6.0922 26.1878 5.97556 26.0914C5.85892 25.9951 5.71238 25.9424 5.5611 25.9423C5.50175 25.9423 5.44267 25.9504 5.38554 25.9665C3.53538 26.4805 2.07322 25.8677 1.83787 25.2015C1.65934 24.6982 2.19408 23.7885 4.28681 22.8819C4.3898 22.8373 4.47952 22.7669 4.54728 22.6774C4.61504 22.588 4.65854 22.4825 4.67356 22.3713C4.68857 22.2601 4.6746 22.1469 4.63299 22.0427C4.59138 21.9384 4.52356 21.8467 4.43608 21.7764C3.38908 20.9359 2.74027 19.7553 2.95866 19.0896C3.15288 18.4984 4.07647 18.1388 5.55941 18.0765C7.43097 18.0409 9.301 18.2047 11.1379 18.565C13.273 18.9199 14.817 19.1773 15.7809 18.2771C15.9933 18.08 16.1421 17.8241 16.2082 17.542C16.2743 17.2599 16.2547 16.9645 16.1519 16.6936C15.5939 14.941 12.1955 12.7762 10.1604 12.4997C9.91829 12.4666 9.65368 12.4344 9.37465 12.4005C7.70979 12.1974 5.19428 11.8903 4.51452 10.9591C4.44227 10.8593 4.39269 10.745 4.36925 10.624C4.34581 10.5031 4.34908 10.3785 4.37882 10.259C4.59424 9.12716 5.37747 8.7133 6.91935 8.91769L7.06862 8.93548C7.19074 8.94439 7.31294 8.91928 7.42164 8.86291C7.53033 8.80654 7.62127 8.72113 7.68435 8.61618C7.74632 8.51029 7.7772 8.3891 7.77345 8.26647C7.7697 8.14385 7.73148 8.02475 7.66315 7.92285C6.61615 6.36529 5.39953 3.66234 5.83758 2.63824C5.88239 2.53419 5.95577 2.44497 6.04923 2.38095C6.14268 2.31692 6.25238 2.28072 6.36558 2.27652C8.75258 1.85458 10.8916 5.37552 11.4916 6.46112C11.5479 6.56299 11.6304 6.64792 11.7306 6.70706C11.8309 6.7662 11.9451 6.79738 12.0615 6.79739H12.0662C12.1834 6.79655 12.2982 6.76408 12.3986 6.70339C12.4989 6.64271 12.581 6.55608 12.6361 6.45263C13.3078 5.19445 14.3489 4.34252 15.1376 4.35482C15.6176 4.36882 16.0205 4.72249 16.3356 5.40649C16.7724 6.35426 16.7232 8.19213 16.6757 9.96936C16.599 12.8542 16.5265 15.5792 18.4203 15.9532C20.552 16.3676 22.2216 12.7189 23.5718 9.78402C23.8555 9.10578 24.1856 8.44792 24.5598 7.81512C24.7264 7.71564 24.9167 7.66298 25.1107 7.66268C25.3046 7.66239 25.4951 7.71447 25.6619 7.81344C26.2963 8.19636 26.4948 9.31673 26.2064 10.8874C26.1804 11.0294 26.2022 11.176 26.2685 11.3042C26.3348 11.4324 26.4418 11.5349 26.5727 11.5957C26.7035 11.6565 26.8509 11.6722 26.9916 11.6401C27.1323 11.6081 27.2585 11.5302 27.3501 11.4188C27.8932 10.6023 28.7327 10.0293 29.6909 9.82095C29.8334 9.81256 29.9759 9.83572 30.1084 9.88879C30.2408 9.94186 30.3599 10.0235 30.4572 10.128C30.5347 10.2263 30.5919 10.339 30.6254 10.4597C30.6589 10.5803 30.668 10.7064 30.6523 10.8306C30.4362 12.049 29.7527 13.1348 28.7474 13.8563C28.6443 13.941 28.5697 14.0553 28.5337 14.1837C28.4976 14.3122 28.5019 14.4487 28.546 14.5746C28.59 14.7006 28.6716 14.81 28.7799 14.888C28.8881 14.966 29.0177 15.0089 29.1511 15.011C30.567 15.0317 31.0093 15.2166 31.1315 15.368C31.1973 15.5202 31.2055 15.6912 31.1543 15.8489C30.9966 16.6203 30.7634 16.7784 29.3848 17.5994C29.1312 17.7504 28.8479 17.9192 28.5307 18.1138C28.2402 18.2923 27.943 18.4416 27.6427 18.5934C25.8778 19.4852 23.8889 20.4902 22.5264 26.5597C20.2268 25.2192 17.5013 24.8094 14.909 25.4144ZM54.067 27.7556C53.9646 27.8126 53.8794 27.8961 53.8204 27.9974C53.7614 28.0988 53.7309 28.2141 53.732 28.3314C53.7332 28.4486 53.7659 28.5634 53.8268 28.6635C53.8877 28.7637 53.9745 28.8456 54.078 28.9006C55.0504 29.4167 55.7442 30.2266 55.728 30.8258C55.7187 31.1672 55.4545 31.4606 54.9423 31.6977C53.7463 32.0035 52.5057 32.0962 51.2775 31.9716C48.8731 31.9118 46.6035 31.8567 46.2826 33.5003C45.9263 35.3217 48.9541 36.7083 51.3874 37.8223C51.9217 38.0487 52.4429 38.3047 52.9487 38.589C53.0139 38.7056 53.0477 38.8371 53.0468 38.9707C53.0459 39.1043 53.0104 39.2353 52.9437 39.351C52.66 39.8234 51.7915 39.9668 50.5638 39.7429C50.4218 39.717 50.2753 39.7391 50.1472 39.8055C50.0191 39.872 49.9167 39.9792 49.8561 40.1102C49.7955 40.2411 49.7801 40.3885 49.8123 40.5292C49.8445 40.6699 49.9226 40.7959 50.0342 40.8874C50.6732 41.3081 51.1253 41.9592 51.2962 42.7049C51.3078 42.7974 51.2976 42.8914 51.2662 42.9792C51.2349 43.067 51.1833 43.1462 51.1157 43.2104C51.0481 43.2747 50.9664 43.3221 50.8771 43.3489C50.7878 43.3757 50.6934 43.3811 50.6016 43.3647C49.642 43.1925 48.7873 42.653 48.2192 41.8606C48.1344 41.7576 48.0199 41.6832 47.8913 41.6474C47.7627 41.6116 47.6262 41.6162 47.5003 41.6605C47.3744 41.7048 47.2652 41.7867 47.1874 41.8952C47.1096 42.0037 47.067 42.1334 47.0654 42.2669C47.0497 43.5098 46.8754 43.7464 46.8224 43.7892C46.7268 43.818 46.6247 43.8162 46.5302 43.7841C45.9577 43.6684 45.85 43.5212 45.18 42.4013C45.0562 42.1948 44.9179 41.9633 44.7581 41.7041C44.6143 41.4709 44.4935 41.2317 44.3709 40.99C43.6369 39.5448 42.8108 37.9173 37.9439 36.805C38.9907 34.9317 39.2961 32.7337 38.7996 30.646C38.0056 28.429 36.892 26.3398 35.4941 24.4446C34.9195 23.6525 34.4174 22.8103 33.9938 21.9282C34.2946 21.6895 34.6732 21.5708 35.0565 21.5949C35.5326 21.6325 35.9853 21.8171 36.3519 22.1232C36.7185 22.4293 36.981 22.8417 37.103 23.3035C37.1654 23.4579 37.2846 23.5825 37.436 23.6517C37.5875 23.7209 37.7597 23.7295 37.9173 23.6757C38.0749 23.6219 38.2059 23.5098 38.2834 23.3624C38.3609 23.215 38.379 23.0435 38.334 22.8832C37.9354 21.4664 38.3891 20.31 38.8764 20.1366C39.255 20.0022 39.9594 20.5475 40.6197 22.0635C40.6644 22.1665 40.735 22.2561 40.8247 22.3238C40.9143 22.3914 41.0199 22.4347 41.1312 22.4495C41.2425 22.4642 41.3557 22.45 41.4599 22.408C41.5641 22.3661 41.6556 22.298 41.7257 22.2102C42.3795 21.3927 43.2841 20.8804 43.7819 21.0415C44.2064 21.1798 44.4786 21.9121 44.5287 23.0503C44.5595 24.567 44.4294 26.0827 44.1407 27.572C43.8599 29.2818 43.6382 30.632 44.4142 31.4585C44.5915 31.6468 44.8203 31.7787 45.0721 31.8379C45.3239 31.897 45.5875 31.8807 45.8301 31.791C47.322 31.3127 49.0903 28.5295 49.321 26.802C49.3477 26.6035 49.3736 26.3868 49.4011 26.1583C49.5521 24.9035 49.804 22.8027 50.5194 22.2785C50.5869 22.2285 50.6649 22.1944 50.7475 22.1787C50.8301 22.163 50.9152 22.1661 50.9964 22.1878C51.8539 22.3494 52.1528 22.9282 51.9968 24.1228L51.9819 24.2504C51.972 24.3727 51.9969 24.4953 52.0536 24.6041C52.1103 24.7128 52.1965 24.8034 52.3024 24.8653C52.4083 24.9272 52.5296 24.9579 52.6522 24.9539C52.7748 24.95 52.8937 24.9114 52.9954 24.8428C54.3995 23.8946 56.4625 23.0525 57.1856 23.3569C57.2716 23.3938 57.3675 23.4532 57.4099 23.697C57.7347 25.5607 54.9334 27.2747 54.067 27.7556Z" fill="#323232"/>
<path d="M30.6635 60.5417C30.3761 60.5426 30.0987 60.4355 29.8865 60.2416C29.6743 60.0477 29.5426 59.7812 29.5175 59.4948C28.5561 48.8752 25.7631 31.1506 22.3481 28.5763L22.2177 28.4743C21.2203 27.813 20.1017 27.3561 18.9266 27.13C17.7514 26.9038 16.5431 26.913 15.3715 27.1569C13.2031 27.7321 10.5039 29.508 8.33444 30.9357C5.70749 32.6652 4.59811 33.341 3.63229 33.0446C3.0698 32.7899 2.59597 32.3734 2.27131 31.8482C1.94665 31.3229 1.78588 30.7129 1.80954 30.0959C1.77144 29.2642 1.98005 28.4397 2.40915 27.7262C1.9056 27.608 1.43726 27.372 1.04258 27.0376C0.647897 26.7033 0.338104 26.2802 0.138635 25.8029C-0.0952453 25.1437 -0.332554 23.5119 2.12399 21.9758C1.70624 21.5169 1.40769 20.9624 1.2546 20.361C1.10151 19.7596 1.09858 19.1298 1.24606 18.527C1.70406 17.1315 3.12985 16.3742 5.48337 16.275C7.47931 16.2339 9.47395 16.4055 11.4336 16.7868C12.3878 17.0033 13.3665 17.0926 14.3442 17.0524C13.2135 15.6679 11.6574 14.6954 9.91745 14.2858L9.15572 14.1891C6.9482 13.9205 4.20017 13.5856 3.05856 12.0221C2.84025 11.7232 2.6873 11.3817 2.60966 11.0198C2.53201 10.6579 2.53141 10.2837 2.60788 9.92153C2.70396 9.25898 3.00045 8.64168 3.45755 8.15254C3.91465 7.66341 4.51048 7.32586 5.16501 7.1852C4.30026 5.48256 3.56052 3.37758 4.17966 1.92885C4.34344 1.54902 4.60248 1.21789 4.93173 0.967517C5.26097 0.717139 5.64927 0.555991 6.05904 0.499652C8.66646 0.0528817 10.7471 2.07436 12.1303 4.06996C12.5069 3.62603 12.9693 3.26275 13.4898 3.00197C14.0103 2.74119 14.5781 2.58827 15.1592 2.55239H15.1791C15.8001 2.58717 16.3969 2.80516 16.8941 3.17885C17.3912 3.55254 17.7666 4.06516 17.9726 4.652C18.5854 5.98159 18.5307 8.03188 18.478 10.0153C18.4472 11.173 18.376 13.8649 18.8022 14.1974C19.0058 14.1871 19.7876 13.6964 21.9047 9.09441C22.6752 7.42058 22.9936 6.75359 23.4453 6.39763C23.9 6.07063 24.4407 5.88421 25.0003 5.86147C25.5599 5.83873 26.1139 5.98067 26.5937 6.2697C26.9787 6.51215 27.307 6.8346 27.5563 7.21517C27.8056 7.59573 27.97 8.0255 28.0385 8.47527C28.5237 8.20565 29.0639 8.04987 29.6181 8.0197C30.0141 8.00159 30.4094 8.06842 30.7774 8.21572C31.1455 8.36301 31.4777 8.58734 31.7519 8.87368C32.0073 9.14805 32.2017 9.4734 32.3223 9.8283C32.4429 10.1832 32.4869 10.5596 32.4516 10.9328C32.3649 11.8647 32.031 12.7565 31.4843 13.5163C31.8955 13.6539 32.2599 13.9041 32.5361 14.2384C32.7465 14.5159 32.8905 14.8379 32.9571 15.1797C33.0237 15.5215 33.0111 15.8739 32.9204 16.2101C32.5986 17.7833 31.7363 18.297 30.3076 19.1476C30.0463 19.3034 29.7758 19.4645 29.4741 19.6496C29.1406 19.8547 28.8002 20.028 28.4555 20.2023C26.9604 20.9572 25.4155 21.738 24.2343 27.2028C26.2226 29.2653 28.0092 34.5192 29.5532 42.84C30.9886 40.0161 33.2984 37.7318 36.1382 36.3278C37.1194 34.7781 37.4499 32.9039 37.0581 31.112C36.3062 29.0868 35.2737 27.1772 33.9907 25.4392C32.5952 23.3288 31.9585 22.3654 32.2427 21.4357C32.4579 20.9319 32.821 20.5053 33.284 20.2123C33.747 19.9193 34.288 19.7739 34.8355 19.7951C35.4666 19.7649 36.0948 19.8988 36.6587 20.1838C36.7807 19.7912 36.9889 19.4307 37.2679 19.1287C37.5469 18.8268 37.8898 18.5908 38.2715 18.4382C38.8345 18.2385 40.2173 18.0202 41.521 19.9475C41.9096 19.6305 42.3673 19.4092 42.8571 19.3015C43.3469 19.1938 43.8551 19.2027 44.3408 19.3273C45.5713 19.7282 46.2403 20.9543 46.3296 22.9704C46.3682 24.6081 46.2313 26.2452 45.9214 27.8537C45.7993 28.5049 45.7181 29.1631 45.6782 29.8244C46.5796 28.9241 47.221 27.797 47.5347 26.5622L47.6118 25.9411C47.8325 24.1022 48.1074 21.8112 49.4536 20.8244C49.7204 20.6287 50.0253 20.4913 50.3485 20.4211C50.6718 20.3509 51.0062 20.3494 51.3301 20.4167C51.8653 20.4935 52.3679 20.7196 52.7805 21.069C53.193 21.4185 53.4988 21.8771 53.6626 22.3923C55.0196 21.7287 56.687 21.1858 57.8911 21.698C58.234 21.8443 58.5333 22.0766 58.7601 22.3725C58.9869 22.6684 59.1334 23.0178 59.1856 23.3869C59.4902 25.1345 58.5318 26.8596 56.4082 28.4021C56.7511 28.7183 57.027 29.1001 57.2197 29.5248C57.4124 29.9495 57.5181 30.4085 57.5303 30.8747C57.5016 31.4194 57.3124 31.9433 56.9867 32.3808C56.661 32.8182 56.2133 33.1496 55.6997 33.3332C54.2578 33.7907 52.736 33.9408 51.2324 33.7737C50.1871 33.7067 49.1376 33.7544 48.1026 33.9158C48.2945 34.1365 49.0806 34.7839 52.1377 36.1833C52.9627 36.4511 53.7215 36.8906 54.3643 37.4729C54.6573 37.8771 54.8253 38.3585 54.8475 38.8573C54.8696 39.3561 54.7449 39.8504 54.4888 40.279C54.1136 40.8883 53.5138 41.3256 52.8189 41.4963C52.9828 41.8527 53.0774 42.2369 53.0977 42.6287C53.1166 42.9815 53.0587 43.3342 52.9281 43.6626C52.7976 43.9909 52.5974 44.287 52.3413 44.5305C52.0969 44.7592 51.807 44.9338 51.4906 45.0431C51.1742 45.1524 50.8384 45.1938 50.5049 45.1648C49.7927 45.1036 49.1063 44.8693 48.5054 44.4822C48.3781 44.7574 48.1897 45.0001 47.9546 45.1916C47.7037 45.3823 47.4129 45.5137 47.104 45.5758C46.795 45.638 46.476 45.6293 46.1709 45.5505C44.7974 45.2732 44.3589 44.5408 43.6328 43.3274C43.5127 43.1257 43.3784 42.9016 43.2237 42.6506C43.0532 42.3743 42.9087 42.092 42.7632 41.8064C42.1602 40.6179 41.5367 39.3899 37.0342 38.4534C35.9351 38.9724 31.9776 41.2117 30.2906 47.1687C31.2573 53.3474 31.7573 58.6936 31.8116 59.2859C31.8387 59.59 31.7442 59.8925 31.5487 60.127C31.3531 60.3615 31.0726 60.5089 30.7686 60.5369L30.6635 60.5417ZM22.9609 27.7873C27.9463 31.6506 30.4883 59.1252 30.5137 59.404C30.5172 59.4414 30.5345 59.4761 30.5622 59.5015C30.5899 59.527 30.626 59.5413 30.6635 59.5417C30.6846 59.5413 30.7053 59.5367 30.7244 59.528C30.7436 59.5194 30.7608 59.507 30.775 59.4915C30.7892 59.476 30.8001 59.4578 30.807 59.438C30.814 59.4182 30.8168 59.3971 30.8154 59.3761C30.7612 58.7843 30.2588 53.4094 29.2856 47.216L29.269 47.1091L29.2978 47.0051C31.1708 40.2375 35.854 37.8776 36.7739 37.4733L36.9189 37.4093L37.0742 37.4406C42.1948 38.4772 42.9702 40.005 43.6547 41.3532C43.7876 41.6144 43.9194 41.8732 44.0752 42.1261C44.2329 42.382 44.3701 42.61 44.4917 42.8146C45.1733 43.9538 45.4282 44.3805 46.3706 44.5705C46.5313 44.6186 46.7009 44.6295 46.8664 44.6024C47.032 44.5752 47.1892 44.5107 47.3261 44.4137C47.5608 44.1966 47.7124 43.9044 47.7548 43.5875L47.9233 42.8117L48.5502 43.2985C49.1194 43.7789 49.8177 44.0807 50.5576 44.1662C50.7532 44.1858 50.9508 44.1647 51.1378 44.104C51.3248 44.0433 51.4972 43.9444 51.644 43.8136C51.7988 43.6681 51.9198 43.4903 51.9984 43.2929C52.0769 43.0955 52.1111 42.8832 52.0986 42.671C52.0616 42.2153 51.8983 41.7789 51.6269 41.4108L51.1504 40.7096L51.9946 40.6315C52.3173 40.6308 52.635 40.5515 52.9202 40.4004C53.2054 40.2493 53.4495 40.031 53.6313 39.7643C53.7818 39.5092 53.8568 39.2166 53.8476 38.9206C53.8383 38.6245 53.7452 38.3371 53.5791 38.0919C53.0133 37.6679 52.3872 37.331 51.7216 37.0924C48.1137 35.4415 46.8969 34.5416 47.0703 33.6544C47.2338 32.8194 48.4912 32.7086 51.2363 32.7731C52.5937 32.9234 53.9674 32.8054 55.2793 32.4259C55.6212 32.3171 55.9228 32.1087 56.1457 31.8275C56.3685 31.5463 56.5024 31.205 56.5303 30.8473C56.493 30.4261 56.3626 30.0184 56.1483 29.6538C55.9341 29.2892 55.6414 28.9769 55.2915 28.7394L54.7534 28.3087L55.3301 27.9308C56.8174 26.9567 58.523 25.4069 58.2002 23.5587C58.1769 23.354 58.0998 23.1591 57.9767 22.9938C57.8537 22.8285 57.689 22.6988 57.4995 22.6178C56.7178 22.2863 55.2783 22.6344 53.5508 23.5758L52.8979 23.9318L52.8144 23.193C52.7943 22.7446 52.6153 22.3179 52.3094 21.9892C52.0036 21.6606 51.5909 21.4514 51.145 21.3991C50.9558 21.3574 50.7599 21.3566 50.5703 21.3965C50.3807 21.4364 50.2018 21.5162 50.0454 21.6305C49.0488 22.361 48.8022 24.4133 48.6045 26.0622L48.5264 26.6901C48.2974 28.4006 46.2984 31.0685 45.3491 31.0671L45.1416 31.0608L44.9995 30.9094C44.5185 30.3967 44.6606 29.3567 44.9331 27.7019C45.2313 26.1579 45.3645 24.5866 45.3306 23.0144C45.2617 21.4573 44.8242 20.5369 44.0308 20.2781C43.6104 20.2061 43.1788 20.2402 42.775 20.3772C42.3712 20.5142 42.008 20.7498 41.7183 21.0627L41.2559 21.4656L40.9546 20.9319C39.9771 19.2034 39.064 19.2175 38.6064 19.3806C38.2874 19.5386 38.0141 19.7755 37.8123 20.0687C37.6106 20.362 37.4871 20.702 37.4536 21.0564L37.3013 21.8528L36.6582 21.3596C36.1507 20.9661 35.5199 20.7657 34.8784 20.7942C34.5386 20.7739 34.2001 20.8509 33.9026 21.0163C33.6051 21.1817 33.3609 21.4285 33.1987 21.7278C33.0591 22.1858 33.6602 23.1262 34.8247 24.8874C36.1716 26.7124 37.249 28.7216 38.0239 30.8533C38.2554 31.9 38.2753 32.9823 38.0825 34.0369C37.8897 35.0914 37.4882 36.0967 36.9014 36.9939L36.8179 37.1243L36.6753 37.1843C33.5196 38.7135 31.0615 41.3828 29.7969 44.6536L29.1358 46.2185L28.8438 44.5447C27.2471 35.385 25.3472 29.5725 23.3501 27.7361L23.1411 27.5437L23.1987 27.2659C24.4849 21.0876 26.355 20.1433 28.0044 19.3098C28.3247 19.1482 28.6416 18.9875 28.9507 18.7976C29.2568 18.6096 29.5312 18.4465 29.7769 18.3C31.1479 17.4836 31.7075 17.1501 31.9409 16.01C31.9994 15.8178 32.0133 15.6148 31.9814 15.4165C31.9495 15.2181 31.8727 15.0296 31.7568 14.8655C31.4376 14.5375 31.0084 14.3391 30.5518 14.3084L29.6899 14.1653L30.25 13.4949C30.9106 12.7663 31.3309 11.852 31.4536 10.8762C31.4792 10.6411 31.455 10.4031 31.3826 10.1779C31.3101 9.9527 31.1911 9.74528 31.0332 9.56911C30.8572 9.38416 30.6434 9.23929 30.4064 9.14434C30.1694 9.04938 29.9147 9.00656 29.6597 9.01882C29.0267 9.07421 28.4256 9.32078 27.936 9.72582L27.1763 10.2961L27.1363 9.34691C27.1639 8.91702 27.0811 8.48721 26.8956 8.09841C26.7101 7.7096 26.4282 7.37474 26.0767 7.12572C25.7702 6.9434 25.4182 6.852 25.0617 6.8622C24.7053 6.8724 24.3591 6.98379 24.0635 7.18334C23.548 7.8744 23.1367 8.63743 22.8428 9.44799C21.1221 13.1892 19.8326 15.4158 18.5738 15.1653C17.4337 14.9402 17.3995 12.9729 17.4781 9.99727C17.5279 8.12027 17.5797 6.1882 17.0645 5.07003C16.9339 4.65654 16.683 4.29134 16.3439 4.02104C16.0048 3.75075 15.5929 3.58762 15.1607 3.55245L15.148 3.55196C14.6087 3.61129 14.0894 3.79039 13.6281 4.07619C13.1668 4.36199 12.7753 4.74726 12.482 5.20381L12.0475 5.78096L11.6603 5.17061C10.4557 3.27168 8.53626 1.0959 6.22813 1.48506C5.98279 1.51258 5.7491 1.60455 5.55082 1.75164C5.35254 1.89872 5.19673 2.09566 5.09922 2.32247C4.68422 3.29317 5.14951 5.12032 6.37656 7.33467L6.75987 8.02706L5.96986 8.07588C5.3915 8.05846 4.82738 8.25706 4.38748 8.63295C3.94758 9.00885 3.66345 9.53508 3.59047 10.1091C3.53974 10.3366 3.53811 10.5723 3.58568 10.8005C3.63325 11.0286 3.72894 11.2441 3.86635 11.4323C4.75209 12.6452 7.26134 12.9509 9.27747 13.197L10.0524 13.2946C11.8151 13.5344 14.9274 15.4939 15.3874 16.9367C15.4402 17.0635 15.4537 17.2033 15.426 17.3378C15.3983 17.4724 15.3307 17.5955 15.2321 17.6911C14.5622 18.3195 13.1896 18.0925 11.2853 17.7756C9.38837 17.4053 7.45749 17.2372 5.52508 17.2741C3.63108 17.3537 2.51092 17.8801 2.19647 18.8386C2.10738 19.3774 2.15827 19.93 2.34424 20.4434C2.53021 20.9569 2.84502 21.4139 3.25847 21.7707L3.69547 22.2453L3.12711 22.55C0.791657 23.8039 0.918108 25.009 1.08121 25.469C1.29316 25.888 1.61379 26.2425 2.0096 26.4953C2.4054 26.7481 2.86184 26.8899 3.33121 26.906L4.23991 27.0354L3.63883 27.7287C3.07051 28.3667 2.77281 29.2008 2.80875 30.0544C2.78621 30.464 2.87898 30.8717 3.07651 31.2313C3.27404 31.5909 3.56843 31.8878 3.92625 32.0885C4.48191 32.2662 5.70359 31.4713 7.77684 30.1056C10.0146 28.6329 12.7895 26.8068 15.1147 26.1901C16.4404 25.911 17.8086 25.9014 19.138 26.1619C20.4674 26.4225 21.7308 26.9478 22.853 27.7067L22.9609 27.7873ZM46.7124 44.3058C46.6171 44.3046 46.5223 44.2938 46.4292 44.2736C45.6196 44.11 45.4184 43.7731 44.751 42.6579L44.3325 41.966C44.185 41.7277 44.0605 41.4826 43.9345 41.235C43.2094 39.8078 42.4697 38.3522 37.8325 37.2921L37.1948 37.1466L37.5029 36.5695C38.4881 34.8073 38.7784 32.7404 38.3169 30.775C37.5345 28.6112 36.4433 26.5719 35.0772 24.7204C34.4609 23.8915 33.9358 22.9986 33.5108 22.0573L33.44 21.7931L33.624 21.591C33.8185 21.4165 34.0459 21.2828 34.2929 21.1976C34.5399 21.1124 34.8014 21.0775 35.062 21.0949C35.6377 21.1298 36.1882 21.3431 36.637 21.7053C37.0859 22.0675 37.4107 22.5605 37.5664 23.1159C37.5802 23.1525 37.6079 23.1821 37.6435 23.1984C37.6791 23.2146 37.7197 23.216 37.7564 23.2023C37.7929 23.1896 37.8233 23.1635 37.8412 23.1291C37.859 23.0948 37.8631 23.0549 37.8526 23.0177C37.3867 21.3605 37.919 19.9464 38.709 19.6652C39.4776 19.3922 40.3599 20.216 41.0782 21.8634C41.0885 21.8876 41.105 21.9086 41.126 21.9244C41.147 21.9403 41.1717 21.9504 41.1978 21.9538C41.2236 21.9563 41.2497 21.9524 41.2737 21.9425C41.2977 21.9326 41.3189 21.9171 41.3355 21.8971C42 21.0666 43.0972 20.2931 43.9356 20.5656C44.5889 20.778 44.9663 21.6296 45.0283 23.028C45.0613 24.5793 44.9291 26.1297 44.6338 27.653C44.3755 29.2267 44.1714 30.4694 44.7783 31.1159C44.8914 31.2343 45.0372 31.3165 45.1971 31.352C45.357 31.3875 45.5238 31.3746 45.6763 31.3151C46.9571 30.9039 48.6197 28.276 48.8253 26.736L48.9029 26.112C49.1324 24.2101 49.4034 22.4758 50.2242 21.8752C50.3468 21.7837 50.4879 21.7203 50.6377 21.6894C50.7874 21.6586 50.9422 21.661 51.0909 21.6965C52.7765 22.0143 52.5626 23.6501 52.4923 24.1877L52.4786 24.3073C52.4798 24.3343 52.4881 24.3605 52.5027 24.3833C52.5173 24.406 52.5377 24.4245 52.5617 24.4368C52.5858 24.4491 52.6127 24.4548 52.6397 24.4533C52.6667 24.4518 52.6928 24.4433 52.7154 24.4284C54.0396 23.5334 56.3614 22.4645 57.3795 22.8957C57.5227 22.9574 57.6468 23.0564 57.7388 23.1824C57.8308 23.3084 57.8873 23.4567 57.9025 23.612C58.2736 25.7394 55.5138 27.5241 54.3097 28.1926C54.2858 28.2059 54.266 28.2255 54.2523 28.2492C54.2387 28.2729 54.2317 28.2999 54.2321 28.3273C54.2325 28.3546 54.2402 28.3814 54.2546 28.4047C54.269 28.428 54.2893 28.447 54.3136 28.4596C55.2838 28.9748 56.2531 29.9103 56.2282 30.839C56.2179 31.2155 56.0231 31.7487 55.1525 32.151C53.8881 32.5003 52.5693 32.609 51.2648 32.4713C48.6954 32.4073 46.9967 32.4518 46.7736 33.5958C46.4928 35.0314 49.442 36.3815 51.5953 37.3673C52.1784 37.5973 52.7399 37.8787 53.2731 38.2081C53.4274 38.4049 53.5194 38.6434 53.5371 38.8929C53.5549 39.1423 53.4976 39.3914 53.3727 39.6081C52.9703 40.2794 51.9415 40.5011 50.4743 40.2345C50.4413 40.2299 50.4077 40.2357 50.3782 40.2511C50.3487 40.2666 50.3248 40.2908 50.3097 40.3205C50.2957 40.351 50.2922 40.3853 50.2998 40.418C50.3074 40.4507 50.3257 40.4799 50.3517 40.5011C50.7259 40.7501 51.0464 41.0714 51.2945 41.4462C51.5425 41.8209 51.7131 42.2415 51.796 42.6832C51.8051 42.8526 51.7773 43.0219 51.7147 43.1796C51.6521 43.3372 51.556 43.4793 51.4333 43.5963C51.3179 43.6982 51.1825 43.7746 51.0357 43.8207C50.8889 43.8668 50.734 43.8815 50.5812 43.8639C50.0345 43.7786 49.5102 43.5857 49.0386 43.2964C48.5669 43.007 48.1574 42.627 47.8336 42.1784C47.8139 42.1544 47.7873 42.137 47.7574 42.1287C47.7274 42.1203 47.6957 42.1214 47.6664 42.1318C47.6371 42.1421 47.6117 42.1612 47.5937 42.1865C47.5756 42.2118 47.5658 42.242 47.5656 42.2731C47.548 43.6608 47.339 44.0148 47.1364 44.1784C47.0127 44.2658 46.8638 44.3106 46.7124 44.3058ZM38.6689 36.4655C43.2226 37.6262 44.0674 39.2883 44.8164 40.7624C44.9394 41.0055 45.0508 41.2262 45.1836 41.4406L45.6089 42.1437C46.1577 43.0612 46.2529 43.1979 46.4922 43.2634C46.5433 42.9315 46.5678 42.5962 46.5654 42.2604C46.5683 42.0245 46.6437 41.7951 46.7813 41.6034C46.9189 41.4117 47.112 41.2669 47.3347 41.1886C47.5573 41.1103 47.7986 41.1024 48.0259 41.1658C48.2532 41.2292 48.4555 41.3609 48.6054 41.5431C49.0862 42.2262 49.8102 42.6993 50.6289 42.8654C50.6765 42.8712 50.7248 42.8673 50.7709 42.8542C50.7928 42.8151 50.8019 42.7702 50.7968 42.7258C50.7851 42.4552 50.4955 41.9123 49.7172 41.2741C49.5199 41.1123 49.382 40.8897 49.325 40.641C49.2679 40.3923 49.2951 40.1317 49.4022 39.9002C49.5093 39.6686 49.6903 39.4792 49.9167 39.3617C50.1432 39.2441 50.4022 39.2051 50.6532 39.2507C51.9101 39.4801 52.4222 39.2477 52.5151 39.0934C52.542 39.0409 52.5522 38.9815 52.5443 38.923C52.2885 38.7848 51.5897 38.465 51.1918 38.2824C48.5863 37.09 45.3598 35.613 45.7919 33.404C46.1943 31.3464 48.7821 31.4098 51.2895 31.4714C52.4417 31.5831 53.6044 31.5062 54.7318 31.2438C55.0395 31.1017 55.2245 30.9401 55.2279 30.8117C55.2362 30.5085 54.7597 29.8283 53.8437 29.342C53.6606 29.2449 53.5071 29.1002 53.3994 28.9231C53.2917 28.7461 53.2338 28.5433 53.2318 28.336C53.2299 28.1288 53.2838 27.9249 53.3881 27.7458C53.4923 27.5667 53.643 27.4191 53.8241 27.3185C55.4525 26.4142 57.1166 25.0163 56.9193 23.7975C55.5989 23.9608 54.3434 24.4636 53.2753 25.257C53.0955 25.3782 52.8851 25.4462 52.6683 25.4531C52.4516 25.46 52.2373 25.4057 52.0501 25.2962C51.8629 25.1867 51.7103 25.0266 51.6101 24.8343C51.5098 24.642 51.4659 24.4253 51.4833 24.2092L51.4999 24.0656C51.6625 22.8219 51.2416 22.7429 50.9037 22.6789C50.2763 23.0763 50.0117 25.2702 49.8984 26.2067L49.8164 26.8688C49.5625 28.7697 47.6582 31.7292 45.9829 32.2668C45.6501 32.3848 45.2901 32.4035 44.9468 32.3207C44.6036 32.2379 44.2917 32.0572 44.0493 31.8005C43.1045 30.7941 43.3559 29.2634 43.6474 27.4909C43.9297 26.0354 44.0577 24.5543 44.0293 23.0719C43.9775 21.9035 43.6943 21.5431 43.6269 21.5168C43.4287 21.4504 42.7295 21.7551 42.1162 22.5221C41.9924 22.6773 41.8305 22.7978 41.6464 22.8719C41.4623 22.946 41.2621 22.9712 41.0654 22.9451C40.8686 22.9191 40.6819 22.8425 40.5235 22.7229C40.365 22.6034 40.2402 22.4449 40.1611 22.2629C39.5942 20.9601 39.0908 20.633 38.9873 20.6164C38.8045 20.9375 38.6944 21.2947 38.6647 21.663C38.635 22.0312 38.6864 22.4015 38.8154 22.7477C38.8951 23.0312 38.8631 23.3345 38.7261 23.5951C38.5891 23.8558 38.3574 24.054 38.0786 24.1491C37.7999 24.2442 37.4953 24.2288 37.2276 24.1062C36.9599 23.9836 36.7493 23.763 36.6391 23.4899C36.1841 22.3634 35.519 22.1091 35.0415 22.0949C34.9044 22.0839 34.7666 22.1015 34.6367 22.1467C34.9248 22.6769 35.5205 23.5778 35.9111 24.1687C37.3405 26.1075 38.4766 28.2464 39.2827 30.5163C39.7721 32.5107 39.5552 34.613 38.6689 36.4655ZM4.10493 31.8273L4.01362 31.799C3.71982 31.6136 3.4811 31.3529 3.32231 31.0439C3.16353 30.7349 3.09048 30.389 3.11079 30.0422C3.08296 29.361 3.27143 27.6759 5.61665 26.7341C5.64932 26.721 5.67645 26.6971 5.69336 26.6662C5.71028 26.6354 5.71593 26.5996 5.70934 26.5651C5.70276 26.5305 5.68435 26.4994 5.65727 26.4769C5.6302 26.4545 5.59616 26.4421 5.56099 26.4421C3.46528 27.0192 1.71333 26.3498 1.36665 25.3678C1.23921 25.0094 1.05854 23.735 4.08784 22.4225C4.11184 22.4126 4.13279 22.3964 4.14857 22.3757C4.16434 22.3551 4.17438 22.3306 4.17767 22.3049C4.18121 22.2789 4.17799 22.2524 4.16833 22.228C4.15866 22.2037 4.14288 22.1822 4.12251 22.1657C3.06099 21.3136 2.15669 19.9294 2.48335 18.9338C2.67035 18.3654 3.3515 17.6691 5.53851 17.5768C7.43371 17.5382 9.3276 17.7022 11.1879 18.0661C13.2158 18.4025 14.6562 18.6418 15.4394 17.9118C15.583 17.7794 15.6825 17.6063 15.7247 17.4156C15.7668 17.2249 15.7496 17.0259 15.6752 16.8454C15.1787 15.2848 11.9741 13.2507 10.0932 12.9953C9.86277 12.9635 9.61224 12.9328 9.34861 12.9006C6.99656 12.6135 4.85643 12.2756 4.11082 11.2536C3.99841 11.0984 3.92037 10.9211 3.88189 10.7334C3.84341 10.5457 3.84539 10.352 3.88768 10.1652C4.28855 8.06362 6.31834 8.33364 6.98533 8.42202L7.12742 8.43862C7.17738 8.42965 7.22226 8.40252 7.25342 8.36244C7.26757 8.33773 7.27455 8.30957 7.27361 8.28112C7.27266 8.25266 7.26381 8.22503 7.24805 8.20131C6.56105 7.17931 4.74267 3.92641 5.37743 2.44106C5.45544 2.26062 5.58047 2.10443 5.73946 1.98882C5.89844 1.87321 6.08556 1.80242 6.28125 1.78383C8.90674 1.31801 11.1069 4.73061 11.9292 6.21938C11.9437 6.24142 11.9635 6.25947 11.9868 6.2719C12.0101 6.28433 12.0361 6.29074 12.0625 6.29055C12.0889 6.29035 12.1149 6.28354 12.138 6.27077C12.1611 6.258 12.1806 6.23968 12.1948 6.21743C12.958 4.78823 14.1416 3.84975 15.1455 3.85463C15.6235 3.86879 16.2905 4.11293 16.7895 5.19741C17.2749 6.25014 17.2246 8.14565 17.1757 9.97866C17.1044 12.651 17.0376 15.1701 18.517 15.4621C20.2724 15.8078 21.9013 12.2194 23.103 9.60604C23.3919 8.85838 23.7583 8.14305 24.1962 7.47176C24.4429 7.2883 24.7384 7.18215 25.0454 7.16677C25.3524 7.15138 25.6571 7.22745 25.9209 7.38533C26.7544 7.88826 27.0307 9.16414 26.6982 10.9776C26.6922 11.0106 26.6973 11.0446 26.7127 11.0744C26.7281 11.1041 26.7529 11.128 26.7832 11.1422C26.8136 11.1568 26.848 11.1606 26.8808 11.1531C26.9136 11.1455 26.9429 11.127 26.9639 11.1007C27.2733 10.6383 27.6723 10.2426 28.1373 9.93703C28.6022 9.63143 29.1237 9.42208 29.6709 9.32137C29.8836 9.30987 30.0963 9.34493 30.294 9.42412C30.4918 9.50331 30.6699 9.62472 30.8159 9.77986C30.9442 9.92615 31.0404 10.0978 31.0981 10.2836C31.1559 10.4694 31.174 10.6653 31.1513 10.8585C31.0436 11.5322 30.8039 12.1779 30.4458 12.7587C30.0878 13.3394 29.6185 13.8436 29.0649 14.2423C29.0409 14.262 29.0236 14.2886 29.0152 14.3184C29.0068 14.3483 29.0078 14.38 29.018 14.4093C29.0282 14.4386 29.0472 14.4641 29.0724 14.4822C29.0975 14.5004 29.1276 14.5104 29.1586 14.5109C30.874 14.5358 31.3154 14.7995 31.5205 15.0539C31.6069 15.1843 31.6628 15.3326 31.6842 15.4876C31.7056 15.6426 31.6918 15.8004 31.644 15.9494C31.4375 16.9587 31.021 17.2067 29.6406 18.029C29.3886 18.1789 29.1069 18.3469 28.7919 18.5397C28.4985 18.7204 28.1977 18.8732 27.8939 19.0265C26.1259 19.9201 24.3246 20.8298 23.0141 26.6691L22.8676 27.3234L22.2821 26.9963C20.0969 25.7157 17.5036 25.3225 15.037 25.8976C12.6586 26.5285 9.85976 28.3717 7.61025 29.8527C5.44717 31.2775 4.60683 31.7887 4.2001 31.82L4.10493 31.8273ZM5.56099 25.4421C5.82846 25.442 6.08759 25.5351 6.29389 25.7054C6.50018 25.8756 6.64076 26.1124 6.69148 26.375C6.7422 26.6376 6.6999 26.9097 6.57184 27.1445C6.44378 27.3793 6.23795 27.5622 5.9897 27.6618C4.29878 28.341 4.08638 29.4186 4.10981 30.0007C4.11589 30.2608 4.18224 30.5161 4.30366 30.7463C4.85688 30.4684 6.26019 29.5446 7.06049 29.0177C9.37055 27.4967 12.2451 25.6037 14.7807 24.9308C17.2756 24.3269 19.9051 24.6417 22.187 25.8176C23.5971 20.0768 25.6225 19.0539 27.417 18.1471C27.7216 17.9933 27.9985 17.8537 28.2685 17.6877C28.5883 17.4914 28.874 17.3215 29.1289 17.1696C30.5136 16.3454 30.5547 16.2848 30.6645 15.7487C30.6714 15.7155 30.6758 15.6872 30.6792 15.6637C30.176 15.547 29.6598 15.4956 29.1435 15.5109C28.9077 15.5073 28.6786 15.4313 28.4873 15.2933C28.296 15.1553 28.1517 14.9619 28.0739 14.7392C27.9962 14.5165 27.9887 14.2752 28.0525 14.0481C28.1163 13.821 28.2483 13.619 28.4306 13.4694C29.3258 12.8339 29.9425 11.8787 30.1533 10.8014C30.1721 10.6895 30.1525 10.5745 30.0976 10.4752C30.0481 10.4221 29.9873 10.3806 29.9197 10.3538C29.8522 10.3271 29.7795 10.3156 29.707 10.3204C28.8957 10.5286 28.1921 11.034 27.7358 11.7364C27.5737 11.9334 27.3508 12.071 27.102 12.1276C26.8533 12.1841 26.5928 12.1564 26.3614 12.0488C26.1301 11.9412 25.9411 11.7598 25.8241 11.5332C25.707 11.3065 25.6686 11.0474 25.7148 10.7965C26.0034 9.22323 25.7275 8.4366 25.4038 8.24129C25.3275 8.19888 25.243 8.17306 25.1561 8.16548C25.0691 8.15791 24.9814 8.16879 24.8989 8.19738C24.7251 8.47423 24.2754 9.45076 24.0259 9.99275C22.5967 13.1016 20.8399 16.9405 18.3248 16.4434C16.0157 15.9874 16.0972 12.922 16.1758 9.95711C16.3246 8.50378 16.2251 7.03573 15.8814 5.6158C15.6524 5.11873 15.3975 4.86239 15.1231 4.85457L15.1138 4.85408C14.5957 4.85408 13.6919 5.5367 13.0772 6.68758C12.9797 6.87038 12.8346 7.02348 12.6574 7.13072C12.4801 7.23797 12.2772 7.2954 12.07 7.29695C11.8628 7.2985 11.659 7.24413 11.4802 7.13954C11.3013 7.03496 11.154 6.88404 11.0538 6.70272C9.89849 4.6119 8.08696 2.48399 6.45269 2.76866C6.40103 2.77353 6.35095 2.78914 6.30569 2.81453C6.00735 3.51278 6.87259 5.84971 8.07816 7.64366C8.19874 7.82303 8.2664 8.03269 8.27341 8.24871C8.28041 8.46472 8.22648 8.67836 8.11777 8.86516C8.00906 9.05196 7.84997 9.20438 7.65869 9.30501C7.46742 9.40564 7.25168 9.45039 7.03616 9.43416L6.86087 9.41417C5.22903 9.19933 4.98294 9.75889 4.87015 10.3522C4.85291 10.4042 4.84831 10.4596 4.85671 10.5138C4.86512 10.5679 4.88629 10.6193 4.91849 10.6637C5.47025 11.42 8.04788 11.7345 9.43314 11.9034C9.7388 11.941 9.99414 11.9723 10.2285 12.004C12.4419 12.3048 16.0113 14.6031 16.6285 16.5416C16.7597 16.9028 16.7816 17.2946 16.6916 17.6682C16.6015 18.0417 16.4035 18.3805 16.1221 18.6422C14.9781 19.7106 13.2495 19.423 11.0596 19.0582C9.25546 18.7052 7.41913 18.5435 5.58108 18.5758C4.03808 18.6408 3.5054 19.0274 3.43362 19.2457C3.31595 19.6041 3.7598 20.5919 4.74905 21.3859C4.90384 21.5101 5.02386 21.6723 5.09747 21.8567C5.17107 22.041 5.19575 22.2413 5.16911 22.438C5.14247 22.6347 5.06541 22.8212 4.94542 22.9793C4.82543 23.1375 4.66659 23.2619 4.48431 23.3405C2.49651 24.2019 2.27093 24.927 2.30901 25.0339C2.43157 25.3801 3.58002 25.9504 5.25189 25.4846C5.35248 25.4562 5.45648 25.4419 5.56099 25.4421Z" fill="#323232"/>
<path d="M19.5004 23.1442C13.0429 20.8547 9.7106 24.8964 9.57241 25.0699C9.46504 25.2046 9.41541 25.3763 9.43439 25.5475C9.45337 25.7188 9.53941 25.8755 9.67368 25.9834C9.80796 26.0913 9.97952 26.1416 10.1508 26.1233C10.3221 26.105 10.4792 26.0196 10.5876 25.8858C10.7042 25.7424 13.5072 22.4013 19.0654 24.3723C19.146 24.4009 19.2315 24.4133 19.3169 24.4088C19.4023 24.4043 19.4861 24.3831 19.5633 24.3463C19.6405 24.3095 19.7097 24.2578 19.767 24.1942C19.8242 24.1307 19.8684 24.0564 19.897 23.9758C19.9255 23.8952 19.9379 23.8097 19.9335 23.7243C19.929 23.6388 19.9077 23.5551 19.8709 23.4779C19.8341 23.4007 19.7824 23.3315 19.7189 23.2742C19.6553 23.217 19.581 23.1728 19.5004 23.1442Z" fill="#323232"/>
<path d="M10.0805 26.6261C9.86382 26.6262 9.6515 26.5651 9.46803 26.4498C9.28456 26.3345 9.13741 26.1696 9.04351 25.9744C8.94961 25.7791 8.9128 25.5612 8.93732 25.3459C8.96183 25.1306 9.04668 24.9266 9.18207 24.7574C9.32855 24.5738 12.8657 20.2623 19.6674 22.673C19.8824 22.7491 20.0704 22.8874 20.2066 23.0703C20.3429 23.2532 20.4217 23.4724 20.4332 23.7002C20.4446 23.9279 20.3882 24.154 20.271 24.3496C20.1538 24.5452 19.9811 24.7016 19.7748 24.799C19.6387 24.864 19.491 24.9014 19.3403 24.909C19.1896 24.9165 19.0389 24.8941 18.8969 24.8429C13.6621 22.986 11.0825 26.0695 10.9755 26.2013C10.8674 26.3343 10.731 26.4415 10.5761 26.515C10.4212 26.5885 10.2519 26.6264 10.0805 26.6261ZM15.6879 22.942C14.6145 22.9133 13.5474 23.1163 12.5595 23.5373C11.5716 23.9583 10.6861 24.5873 9.96329 25.3815C9.9383 25.4126 9.92669 25.4525 9.93099 25.4922C9.93529 25.5319 9.95516 25.5683 9.98624 25.5934C10.0001 25.6093 10.0176 25.6215 10.0372 25.6292C10.0569 25.6369 10.0781 25.6397 10.099 25.6373C10.12 25.635 10.1401 25.6277 10.1576 25.616C10.1751 25.6042 10.1895 25.5884 10.1996 25.5699C10.3251 25.4161 13.3436 21.8126 19.2323 23.901C19.2508 23.9077 19.2704 23.9108 19.29 23.9098C19.3096 23.9089 19.3289 23.9041 19.3466 23.8956C19.3739 23.8829 19.3968 23.8624 19.4123 23.8366C19.4279 23.8108 19.4354 23.781 19.434 23.7509C19.4325 23.7208 19.4221 23.6919 19.4041 23.6677C19.3861 23.6436 19.3613 23.6253 19.3329 23.6153C18.1654 23.1841 16.9325 22.9563 15.6879 22.942Z" fill="#323232"/>
<path d="M39.1393 25.8489C39.0031 25.7441 38.8309 25.6974 38.6603 25.719C38.4898 25.7406 38.3347 25.8288 38.2289 25.9643C38.123 26.0998 38.0751 26.2716 38.0954 26.4423C38.1157 26.613 38.2027 26.7688 38.3374 26.8756C38.4333 26.9523 40.6791 28.8097 39.9268 33.4434C39.9131 33.5278 39.9161 33.6141 39.9358 33.6974C39.9554 33.7806 39.9913 33.8592 40.0413 33.9286C40.0913 33.998 40.1545 34.0568 40.2272 34.1018C40.3 34.1467 40.3809 34.1769 40.4654 34.1906C40.5001 34.1963 40.5353 34.1992 40.5705 34.1991C40.725 34.1989 40.8744 34.1438 40.992 34.0436C41.1096 33.9434 41.1878 33.8046 41.2125 33.6521C42.0958 28.211 39.2606 25.9427 39.1393 25.8489Z" fill="#323232"/>
<path d="M40.5702 34.6991C40.5076 34.6991 40.445 34.6941 40.3832 34.684C40.0822 34.6347 39.8131 34.4679 39.635 34.2204C39.4568 33.9728 39.3842 33.6647 39.433 33.3637C40.139 29.0165 38.1112 27.3353 38.0248 27.266C37.787 27.0768 37.6335 26.8013 37.598 26.4995C37.5624 26.1977 37.6477 25.8941 37.835 25.6549C38.0224 25.4156 38.2968 25.2601 38.5983 25.2223C38.8998 25.1845 39.2041 25.2674 39.4447 25.453C39.577 25.5556 42.6376 27.9916 41.7059 33.7323C41.6631 34.0025 41.5251 34.2484 41.3168 34.4257C41.1085 34.603 40.8437 34.7 40.5702 34.6991ZM38.743 26.2142C38.7113 26.2139 38.6802 26.2237 38.6543 26.242C38.6284 26.2603 38.6089 26.2863 38.5986 26.3164C38.5882 26.3464 38.5876 26.3789 38.5968 26.4093C38.606 26.4397 38.6246 26.4664 38.6498 26.4857C38.7553 26.5697 41.2186 28.6073 40.4203 33.5238C40.4181 33.5627 40.4293 33.6011 40.452 33.6327C40.4748 33.6642 40.5077 33.687 40.5453 33.6972C40.6029 33.6849 40.7069 33.6449 40.7186 33.5722C41.5565 28.4115 38.9452 26.3309 38.8339 26.245C38.8081 26.2248 38.7758 26.214 38.743 26.2142Z" fill="#323232"/>
<path d="M11.0463 7.85687C10.9016 7.76245 10.7253 7.72937 10.5562 7.76492C10.3871 7.80046 10.2391 7.90172 10.1447 8.04641C10.0503 8.1911 10.0172 8.36739 10.0528 8.53646C10.0883 8.70554 10.1896 8.85354 10.3343 8.94796C11.8411 9.98107 13.1281 11.3026 14.1211 12.8361C14.2089 12.9848 14.3522 13.0925 14.5195 13.1356C14.6867 13.1786 14.8642 13.1534 15.0129 13.0656C15.1616 12.9777 15.2693 12.8344 15.3123 12.6672C15.3553 12.5 15.3301 12.3225 15.2423 12.1738C14.1513 10.4648 12.7236 8.99599 11.0463 7.85687Z" fill="#323232"/>
<path d="M14.682 13.6564C14.4817 13.656 14.2849 13.6036 14.1109 13.5042C13.937 13.4048 13.7918 13.2619 13.6898 13.0895C12.735 11.6229 11.5017 10.3578 10.0599 9.36585C9.80423 9.19899 9.62529 8.93738 9.56248 8.63858C9.49966 8.33979 9.55811 8.02828 9.72497 7.77259C9.89183 7.51689 10.1534 7.33794 10.4522 7.27512C10.751 7.2123 11.0625 7.27076 11.3182 7.43763L11.3192 7.43811C13.0602 8.62013 14.5416 10.1451 15.6727 11.9196C15.7759 12.0944 15.8311 12.2934 15.8326 12.4963C15.8341 12.6993 15.7819 12.8991 15.6813 13.0754C15.5808 13.2518 15.4354 13.3984 15.2599 13.5004C15.0844 13.6024 14.885 13.6562 14.682 13.6564ZM10.6908 8.25208C10.6657 8.25199 10.6409 8.25815 10.6187 8.26999C10.5966 8.28184 10.5777 8.299 10.5638 8.31995C10.5461 8.35463 10.5408 8.39432 10.5488 8.43244C10.5568 8.47055 10.5776 8.50479 10.6077 8.52942C12.1783 9.60499 13.519 10.9825 14.5516 12.5817C14.5649 12.6044 14.5839 12.6233 14.6068 12.6364C14.6297 12.6496 14.6556 12.6564 14.682 12.6564C14.8055 12.6075 14.8226 12.5656 14.8284 12.5426C14.8334 12.5235 14.8345 12.5036 14.8316 12.484C14.8288 12.4645 14.8221 12.4457 14.8118 12.4288C13.762 10.7849 12.3881 9.37202 10.7742 8.27649C10.7494 8.26049 10.7204 8.25201 10.6908 8.25208Z" fill="#323232"/>
<path d="M42.7409 35.8092C42.5723 35.8361 42.4211 35.9284 42.3202 36.066C42.2192 36.2037 42.1767 36.3757 42.2019 36.5446C42.2274 36.7144 42.3184 36.8674 42.4556 36.9707C42.5927 37.074 42.7649 37.1194 42.9351 37.0971C43.0093 37.0882 44.7573 36.8898 46.7868 39.2098C46.8431 39.2742 46.9116 39.3268 46.9882 39.3647C47.0649 39.4027 47.1482 39.4251 47.2336 39.4308C47.3189 39.4365 47.4045 39.4254 47.4855 39.398C47.5666 39.3706 47.6414 39.3275 47.7058 39.2712C47.7701 39.2149 47.8228 39.1465 47.8607 39.0699C47.8987 38.9932 47.9211 38.9099 47.9268 38.8245C47.9325 38.7392 47.9214 38.6536 47.894 38.5725C47.8666 38.4915 47.8235 38.4167 47.7672 38.3523C45.231 35.4535 42.8406 35.7927 42.7409 35.8092Z" fill="#323232"/>
<path d="M47.2774 39.9322C47.1132 39.9322 46.9508 39.8971 46.8013 39.8292C46.6517 39.7613 46.5184 39.6623 46.4102 39.5387C44.5689 37.4337 43.0572 37.585 42.9937 37.5933C42.6939 37.6325 42.3907 37.5521 42.1496 37.3695C41.9086 37.1869 41.7491 36.9168 41.7056 36.6176C41.6621 36.3183 41.7381 36.014 41.9172 35.7703C42.0963 35.5267 42.3641 35.3633 42.6627 35.3155C42.8238 35.2896 45.4371 34.9293 48.1436 38.023C48.2891 38.1895 48.3836 38.3943 48.4158 38.6131C48.448 38.8318 48.4166 39.0552 48.3252 39.2565C48.2339 39.4579 48.0865 39.6286 47.9007 39.7485C47.7149 39.8683 47.4985 39.9321 47.2774 39.9322ZM43.085 36.5904C43.6842 36.5904 45.3443 36.8014 47.1632 38.8804C47.1737 38.8986 47.1886 38.9139 47.2065 38.9251C47.2244 38.9362 47.2447 38.9428 47.2657 38.9442C47.2867 38.9456 47.3078 38.9419 47.327 38.9334C47.3462 38.9248 47.3631 38.9117 47.376 38.8951C47.4026 38.8666 47.4186 38.8299 47.4213 38.791C47.4241 38.7522 47.4134 38.7136 47.3912 38.6817C45.0391 35.9932 42.8443 36.2984 42.8218 36.3028L42.7408 35.8091L42.8189 36.3028C42.7997 36.3059 42.7812 36.3129 42.7646 36.3232C42.7481 36.3335 42.7337 36.347 42.7224 36.3629C42.711 36.3788 42.7029 36.3967 42.6986 36.4157C42.6942 36.4347 42.6936 36.4544 42.6968 36.4737C42.703 36.5133 42.7245 36.549 42.7568 36.5728C42.7891 36.5967 42.8295 36.6069 42.8692 36.6011C42.9409 36.5935 43.0129 36.5899 43.085 36.5904Z" fill="#323232"/>
</svg>
