<svg width="65" height="72" viewBox="0 0 65 72" fill="none" xmlns="http://www.w3.org/2000/svg">
<path d="M32.2967 60.6802C15.8767 60.6802 3.53666 44.6002 1.94666 41.6402C1.82666 41.4102 1.45668 40.7202 1.90668 40.0402C2.14668 39.6802 2.43667 39.4802 2.83667 39.2102C3.12667 39.0102 3.54667 38.7202 4.17667 38.2302C3.84667 38.0902 3.44666 37.9402 2.94666 37.7502C2.36666 37.5302 1.67668 37.2702 0.816684 36.9202C0.416684 36.7602 0.126685 36.4103 0.0366848 35.9903C-0.0533152 35.5703 0.0666616 35.1302 0.356662 34.8202C1.35666 33.7502 2.50667 32.7102 4.58667 32.1802C2.08667 29.6802 -0.843343 25.1002 0.226657 17.8902C0.306657 17.3702 0.686668 16.9402 1.20667 16.8202C1.71667 16.6902 2.25668 16.8902 2.56668 17.3202C5.81668 21.8002 16.2367 30.2202 24.5867 30.3402C32.8467 30.4702 36.6967 29.0802 39.0867 20.2102C41.4467 11.4502 44.8767 7.31025 50.2067 6.80025C52.8067 6.54025 55.3667 7.39025 57.5967 9.24025C58.8267 10.2603 59.9367 11.5902 60.7967 13.0902C63.1167 14.6502 64.3867 17.1402 64.4367 17.2502C64.6767 17.7202 64.5967 18.3002 64.2467 18.7002C63.6867 19.3302 62.7167 19.6202 60.8967 20.1202C59.8767 20.4002 58.7067 20.7202 57.7367 21.1302C56.6567 21.5902 56.0967 25.1102 56.3067 27.9702C56.3267 28.2202 56.5167 29.0602 56.7067 29.8702C57.5967 33.7502 59.2467 40.9702 57.4467 45.2202C55.8367 49.0402 50.8867 60.6802 32.2967 60.6802ZM4.67667 41.1102C7.09667 44.7402 18.2367 58.0702 32.2967 58.0702C49.1567 58.0702 53.4467 47.9902 55.0567 44.1902C56.5367 40.7102 54.9467 33.7702 54.1767 30.4402C53.8967 29.2302 53.7567 28.5802 53.7167 28.1602C53.6567 27.3502 53.2067 20.2102 56.7267 18.7202C57.8567 18.2402 59.1067 17.9002 60.2167 17.6002C60.5767 17.5002 61.0067 17.3802 61.3867 17.2702C60.8767 16.5802 60.1167 15.7102 59.1467 15.1202C58.9567 15.0002 58.7967 14.8302 58.6867 14.6402C57.9567 13.3002 57.0067 12.1302 55.9367 11.2502C54.2467 9.85023 52.3567 9.22024 50.4567 9.39024C47.7067 9.66024 44.2067 11.2002 41.6067 20.8802C38.8167 31.2402 33.7067 33.0602 24.5467 32.9402C16.6467 32.8302 7.44667 26.3702 2.61667 21.3702C2.83667 27.8402 7.05666 31.1003 8.50666 32.0203C8.99666 32.3303 9.21667 32.9302 9.05667 33.4802C8.89667 34.0402 8.38667 34.4202 7.80667 34.4202C5.82667 34.4202 4.62668 34.7703 3.78668 35.2703C3.81668 35.2803 3.84668 35.2902 3.87668 35.3002C5.38668 35.8702 6.21667 36.1903 7.26667 37.0203C7.56667 37.2603 7.74666 37.6303 7.75666 38.0203C7.76666 38.4103 7.59666 38.7802 7.29666 39.0302C6.03666 40.1302 5.20667 40.7402 4.67667 41.1102Z" fill="#323232"/>
<path d="M43.3167 12.73C42.9667 12.73 42.6167 12.59 42.3567 12.31C40.8667 10.71 38.9067 7.37001 40.9767 5.01001C42.2567 3.56001 43.7767 3.22002 44.9767 3.30002C45.4367 1.73002 46.5867 0 48.9867 0C51.0567 0 52.3567 1.12002 53.0667 2.24002C53.6667 2.03002 54.4067 1.89 55.2467 2C56.5867 2.17 57.7767 2.90999 58.7667 4.20999C59.9767 5.77999 60.0267 7.17 59.8567 8.06C59.4567 10.11 57.6367 11.24 57.4367 11.36C56.8167 11.72 56.0167 11.52 55.6467 10.9C55.2767 10.28 55.4867 9.48002 56.1067 9.11002C56.3867 8.94002 57.1567 8.32002 57.2967 7.55002C57.3967 7.03002 57.1967 6.44002 56.6967 5.80002C55.1767 3.83002 53.6467 4.73002 53.2167 5.05002C52.8667 5.31002 52.3967 5.39001 51.9767 5.23001C51.5667 5.08001 51.2467 4.73002 51.1467 4.30002C51.0767 4.03002 50.6367 2.60001 48.9667 2.60001C47.4567 2.60001 47.3167 4.68001 47.3067 4.92001C47.2867 5.36001 47.0467 5.77002 46.6667 5.99002C46.2867 6.21002 45.8167 6.23 45.4267 6.03C45.2167 5.93 44.0167 5.46999 42.9167 6.70999C42.0367 7.70999 43.7767 10 44.2467 10.51C44.7367 11.04 44.7067 11.86 44.1767 12.35C43.9467 12.61 43.6367 12.73 43.3167 12.73Z" fill="#323232"/>
<path d="M30.9666 60.6399C30.4266 60.6399 29.9166 60.2999 29.7366 59.7599C29.5066 59.0799 29.8666 58.3399 30.5466 58.1099C38.2166 55.4999 41.4966 52.2699 41.8966 46.9599C42.3166 41.2899 38.8866 39.2799 38.7466 39.1999C38.1266 38.8499 37.8966 38.0599 38.2466 37.4299C38.5966 36.7999 39.3766 36.5699 40.0066 36.9099C40.2166 37.0199 45.0566 39.7399 44.5066 47.1499C43.9066 55.2599 37.5466 58.4899 31.3966 60.5799C31.2466 60.6199 31.1066 60.6399 30.9666 60.6399Z" fill="#323232"/>
<path d="M29.1166 69.1901C28.3966 69.1901 27.8167 68.6101 27.8167 67.8901V59.1701C27.8167 58.4501 28.3966 57.8701 29.1166 57.8701C29.8366 57.8701 30.4166 58.4501 30.4166 59.1701V67.8901C30.4166 68.6101 29.8366 69.1901 29.1166 69.1901Z" fill="#323232"/>
<path d="M34.9368 71.1603C34.2168 71.1603 33.6367 70.5804 33.6367 69.8604V69.1903H23.2267C22.5067 69.1903 21.9268 68.6104 21.9268 67.8904C21.9268 67.1704 22.5067 66.5903 23.2267 66.5903H34.9368C35.6568 66.5903 36.2368 67.1704 36.2368 67.8904V69.8604C36.2368 70.5804 35.6568 71.1603 34.9368 71.1603Z" fill="#323232"/>
<path d="M54.6766 14.2401C54.6766 14.9001 54.1366 15.44 53.4766 15.44C52.8166 15.44 52.2766 14.9001 52.2766 14.2401C52.2766 13.5801 52.8166 13.04 53.4766 13.04C54.1366 13.04 54.6766 13.5801 54.6766 14.2401Z" fill="#323232"/>
</svg>
