<svg width="71" height="63" viewBox="0 0 71 63" fill="none" xmlns="http://www.w3.org/2000/svg">
<path d="M21.5525 62.4407C20.123 62.4961 18.707 62.1446 17.4694 61.427C16.2318 60.7094 15.2233 59.6552 14.5613 58.387C14.4128 58.1013 14.3371 57.7835 14.3407 57.4616C14.3443 57.1397 14.4273 56.8236 14.5822 56.5414C14.737 56.2592 14.9591 56.0195 15.2286 55.8435C15.4982 55.6675 15.807 55.5607 16.1277 55.5325C17.5506 55.4388 18.9104 54.9104 20.0232 54.0188C20.3269 53.8123 20.6375 53.6013 20.9744 53.3933C22.4451 52.4827 23.7019 49.2468 22.8162 42.8972C22.4807 40.5556 22.6701 38.1686 23.3707 35.9092C24.0713 33.6497 25.2655 31.5743 26.8669 29.8332C26.9933 29.7088 27.143 29.6105 27.3074 29.5439C27.4718 29.4773 27.6477 29.4439 27.8251 29.4454C28.0025 29.4469 28.1778 29.4833 28.3411 29.5526C28.5043 29.622 28.6524 29.7228 28.7766 29.8494C28.9009 29.9759 28.9989 30.1258 29.0652 30.2903C29.1316 30.4548 29.1648 30.6308 29.163 30.8081C29.1612 30.9855 29.1245 31.1608 29.0549 31.3239C28.9854 31.4871 28.8843 31.6349 28.7575 31.759C27.4547 33.2026 26.4864 34.9159 25.9216 36.7767C25.3568 38.6374 25.2094 40.5999 25.49 42.5241C26.7927 51.8694 23.7595 54.8435 22.3943 55.6882C22.0925 55.8752 21.8142 56.0652 21.5408 56.2507C20.3703 57.1439 19.0128 57.7607 17.57 58.0549C18.78 59.4719 20.7156 60.031 23.0544 59.5969C23.9744 59.426 32.0212 57.6921 31.4871 49.5979C31.4109 48.4363 31.324 47.3821 31.2459 46.4246C30.7712 40.6404 30.5105 37.4544 35.0632 35.6575C35.3814 35.532 35.7353 35.532 36.0534 35.6575C40.6072 37.4539 40.3464 40.6414 39.8718 46.427C39.7937 47.384 39.7068 48.4373 39.6306 49.5979C39.0964 57.6926 47.1423 59.426 48.0622 59.5969C50.407 60.0344 52.3396 59.4753 53.5476 58.0549C52.1048 57.7613 50.7472 57.1446 49.5769 56.2512C49.3035 56.0652 49.0242 55.8752 48.7224 55.6882C47.3572 54.843 44.324 51.8688 45.6277 42.5241C45.9083 40.599 45.7605 38.6356 45.1948 36.7741C44.6292 34.9127 43.6596 33.1991 42.3552 31.7556C42.1019 31.504 41.9586 31.1623 41.9566 30.8053C41.9547 30.4482 42.0943 30.105 42.3449 29.8507C42.5956 29.5964 42.9367 29.4518 43.2937 29.4485C43.6507 29.4452 43.9945 29.5836 44.2497 29.8332C45.8514 31.5742 47.0459 33.6495 47.7466 35.909C48.4474 38.1684 48.6369 40.5555 48.3015 42.8972C47.4148 49.2468 48.6716 52.4827 50.1423 53.3933C50.4792 53.6013 50.7898 53.8122 51.0935 54.0188C52.2651 54.9572 53.7076 55.4938 55.2078 55.5491C55.4998 55.5687 55.7827 55.6593 56.0318 55.8129C56.2809 55.9666 56.4888 56.1787 56.6375 56.4309C56.7822 56.6764 56.865 56.9535 56.8786 57.2381C56.8922 57.5228 56.8362 57.8065 56.7155 58.0647C55.1501 61.4041 51.6443 63.008 47.5681 62.2502C42.3376 61.2771 36.4148 57.3332 36.9372 49.4202C37.0154 48.2439 37.1023 47.1765 37.1824 46.2068C37.6394 40.6184 37.5827 39.3288 35.5584 38.3801C33.5349 39.3288 33.4773 40.6184 33.9353 46.2038C34.0154 47.1745 34.1023 48.2424 34.1804 49.4202C34.7029 57.3332 28.7791 61.2771 23.5486 62.2502C22.8905 62.3748 22.2223 62.4385 21.5525 62.4407Z" fill="#323232"/>
<path d="M55.7293 33.4424C55.4028 33.4421 55.0876 33.3235 54.8419 33.1085C54.5962 32.8936 54.4367 32.5969 54.393 32.2734C54.3493 31.9499 54.4242 31.6216 54.604 31.3491C54.7838 31.0766 55.0563 30.8786 55.3709 30.7915C56.1892 30.4761 62.4549 26.5381 61.8767 20.9786C61.3035 15.4586 64.9949 11.5787 67.4997 9.80619C66.6875 9.10784 65.6799 8.67652 64.614 8.57085L64.5935 8.57133C59.74 8.61527 58.9275 12.1187 58.1648 17.8838C58.1062 18.3272 58.0486 18.7657 57.987 19.1948C57.8931 20.1643 57.5949 21.1029 57.1119 21.9489C56.629 22.7948 55.9724 23.5288 55.1853 24.1026C52.362 26.0869 48.5779 25.334 48.4177 25.3018C48.2441 25.2661 48.0792 25.1966 47.9325 25.0972C47.7857 24.9979 47.66 24.8706 47.5624 24.7226C47.4649 24.5746 47.3974 24.4089 47.3639 24.2348C47.3304 24.0608 47.3315 23.8819 47.3672 23.7083C47.4028 23.5346 47.4723 23.3698 47.5717 23.223C47.6711 23.0762 47.7984 22.9505 47.9464 22.853C48.0944 22.7554 48.2601 22.688 48.4341 22.6545C48.6082 22.621 48.7871 22.6221 48.9607 22.6577C49.033 22.6719 51.7996 23.1919 53.6443 21.8867C54.1245 21.5217 54.5217 21.0589 54.8098 20.529C55.0978 19.999 55.2701 19.414 55.3152 18.8125C55.3748 18.3931 55.4324 17.9639 55.489 17.5298C56.1355 12.6392 57.0212 5.94043 64.5691 5.87207H64.613C65.8102 5.95122 66.9735 6.30275 68.0142 6.89983C69.0549 7.49692 69.9454 8.32379 70.6179 9.31738C70.765 9.58718 70.8308 9.89378 70.8074 10.2002C70.784 10.5065 70.6724 10.7996 70.4861 11.0439C70.3641 11.1963 70.2105 11.3204 70.0359 11.4077C69.9744 11.4385 63.9324 14.6377 64.5623 20.6992C65.3191 27.9883 57.5017 33.0029 56.0896 33.3931C55.9722 33.4254 55.851 33.442 55.7293 33.4424Z" fill="#323232"/>
<path d="M12.947 52.5615C12.7906 52.5613 12.6348 52.5418 12.4832 52.5033C10.1843 51.9184 4.81615 49.7475 4.59155 42.2411C4.41088 36.2392 10.1697 33.2665 14.7966 30.8783C17.3083 29.5815 19.906 28.2407 20.4265 26.9028C21.3064 24.6401 21.1931 24.1816 20.7732 22.4745C20.1979 20.2101 19.8524 17.8933 19.7419 15.5595C19.6542 13.741 19.9457 11.9241 20.598 10.2243C21.2503 8.52445 22.2491 6.97895 23.531 5.686C26.6687 2.32126 31.4968 0.0361 35.5457 0C39.6179 0.03516 44.447 2.31982 47.5847 5.68506C48.8668 6.97804 49.8659 8.52366 50.5184 10.2236C51.1709 11.9236 51.4625 13.7408 51.3747 15.5596C51.2642 17.8934 50.9187 20.2101 50.3434 22.4746C49.9235 24.1816 49.8102 24.6401 50.6901 26.9028C51.2106 28.2407 53.8083 29.5815 56.32 30.8784C60.947 33.2671 66.7057 36.2392 66.5261 42.2412C66.3102 49.4419 61.2565 51.7275 59.0934 52.3755C58.727 52.4875 58.3364 52.4942 57.9663 52.3947C57.5962 52.2953 57.2616 52.0937 57.0007 51.813C56.7354 51.5315 56.5544 51.1813 56.4782 50.8021C56.4021 50.4229 56.4339 50.03 56.57 49.668C56.9138 48.7436 57.9343 45.5303 56.6813 42.9594C56.2763 42.2077 55.7192 41.5486 55.0455 41.024C54.3718 40.4993 53.5963 40.1207 52.7682 39.9121C51.9762 39.6355 51.1222 39.5879 50.3043 39.7747C49.4864 39.9615 48.7377 40.3752 48.1443 40.9682C47.9069 41.2332 47.5746 41.3937 47.2195 41.415C46.8644 41.4362 46.5153 41.3163 46.2481 41.0815C45.9809 40.8467 45.8172 40.5159 45.7927 40.161C45.7681 39.8061 45.8846 39.4559 46.1169 39.1865C47.0556 38.1974 48.2579 37.4978 49.5817 37.1706C50.9054 36.8433 52.2952 36.9021 53.5866 37.3398C54.7656 37.6529 55.8659 38.2094 56.8167 38.9735C57.7675 39.7376 58.5477 40.6924 59.1071 41.7764C60.1324 44.1724 60.2729 46.8547 59.5036 49.3447C61.611 48.3745 63.7029 46.353 63.8288 42.1601C63.9577 37.8579 59.445 35.5288 55.0818 33.2768C51.8532 31.6103 49.0651 30.1709 48.1745 27.8813C47.0339 24.9468 47.2116 23.9048 47.7234 21.8286C48.2606 19.722 48.5816 17.5662 48.6814 15.3945C48.736 13.9426 48.4917 12.4949 47.9636 11.1413C47.4354 9.78767 46.6347 8.55708 45.611 7.52586C44.4041 6.01957 42.874 4.80377 41.134 3.96832C39.394 3.13288 37.4884 2.69915 35.5582 2.6992C33.628 2.69924 31.7224 3.13306 29.9824 3.96859C28.2424 4.80412 26.7125 6.02 25.5056 7.52635C24.4821 8.55752 23.6814 9.78804 23.1532 11.1415C22.625 12.495 22.3807 13.9426 22.4353 15.3945C22.535 17.5662 22.856 19.722 23.3933 21.8286C23.905 23.9048 24.0827 24.9468 22.9421 27.8813C22.0515 30.1709 19.2634 31.6098 16.0349 33.2768C11.6716 35.5288 7.15985 37.8579 7.28875 42.1601C7.41766 46.4424 9.63937 48.4263 11.615 49.3442C10.8615 46.8973 10.9809 44.2647 11.9528 41.896C12.5034 40.7823 13.2861 39.7994 14.2483 39.0135C15.2104 38.2276 16.3298 37.6569 17.531 37.3398C18.8224 36.9031 20.2117 36.8449 21.5351 37.1721C22.8585 37.4994 24.0606 38.1983 24.9997 39.1865C25.2346 39.4556 25.3532 39.807 25.3296 40.1634C25.3059 40.5199 25.1418 40.8524 24.8733 41.0881C24.6049 41.3238 24.2539 41.4435 23.8974 41.4208C23.5409 41.3981 23.2079 41.235 22.9714 40.9673C22.3773 40.3758 21.629 39.9633 20.8117 39.7767C19.9944 39.5902 19.1412 39.6371 18.3493 39.9121C17.5065 40.1228 16.7183 40.5107 16.037 41.0497C15.3557 41.5888 14.797 42.2668 14.3982 43.0386C13.0935 45.831 14.3933 49.3066 14.6667 49.9751C14.7998 50.2969 14.8405 50.6495 14.7843 50.9933C14.728 51.337 14.5771 51.6582 14.3483 51.9209C14.1744 52.122 13.9593 52.2833 13.7175 52.3938C13.4757 52.5043 13.2129 52.5615 12.947 52.5615Z" fill="#323232"/>
<path d="M15.3934 33.4431C15.2693 33.4431 15.1458 33.4263 15.0262 33.3933C13.615 33.0026 5.79766 27.9865 6.5545 20.6994C7.11309 15.3234 2.34356 12.1579 1.38165 11.5778C1.14041 11.4324 0.933472 11.2366 0.775019 11.0037C0.616566 10.7708 0.510348 10.5065 0.463649 10.2287C0.417043 9.95362 0.430614 9.67171 0.503443 9.40239C0.576273 9.13307 0.706606 8.88274 0.885493 8.66864C2.18104 7.30641 3.93045 6.46558 5.80349 6.30487C13.907 5.50164 15.0281 13.3933 15.7742 18.6125L15.8025 18.8127C15.8477 19.414 16.0199 19.999 16.3077 20.5289C16.5956 21.0588 16.9926 21.5217 17.4724 21.8869C19.3328 23.2033 22.1297 22.6632 22.157 22.6579C22.5072 22.5871 22.8712 22.658 23.1692 22.8552C23.4671 23.0523 23.6747 23.3596 23.7465 23.7096C23.8182 24.0596 23.7482 24.4238 23.5519 24.7223C23.3555 25.0208 23.0488 25.2292 22.699 25.3019C22.5388 25.3351 18.7556 26.0871 15.9314 24.1027C15.1446 23.5287 14.4882 22.7946 14.0055 21.9488C13.5228 21.1029 13.2246 20.1644 13.1306 19.195L13.1023 18.9943C12.2195 12.8166 11.1736 8.49038 6.06912 8.99038C5.20251 9.07823 4.36846 9.36751 3.63357 9.83512C5.6697 11.2956 9.85427 15.0592 9.24002 20.9787C8.66189 26.5368 14.9275 30.4762 15.7928 30.8063C15.9622 30.8536 16.1206 30.934 16.2587 31.043C16.3968 31.152 16.5119 31.2873 16.5973 31.4411C16.6827 31.5949 16.7367 31.7641 16.7562 31.939C16.7756 32.1138 16.7602 32.2908 16.7107 32.4596C16.6281 32.7446 16.4547 32.9948 16.217 33.1723C15.9792 33.3498 15.6901 33.4448 15.3934 33.4431Z" fill="#323232"/>
<path d="M29.007 19.6048C29.8531 19.6048 30.5389 18.919 30.5389 18.0729C30.5389 17.2269 29.8531 16.541 29.007 16.541C28.161 16.541 27.4751 17.2269 27.4751 18.0729C27.4751 18.919 28.161 19.6048 29.007 19.6048Z" fill="#323232"/>
<path d="M42.1667 19.6048C43.0127 19.6048 43.6986 18.919 43.6986 18.0729C43.6986 17.2269 43.0127 16.541 42.1667 16.541C41.3206 16.541 40.6348 17.2269 40.6348 18.0729C40.6348 18.919 41.3206 19.6048 42.1667 19.6048Z" fill="#323232"/>
</svg>
