<svg width="53" height="38" viewBox="0 0 53 38" fill="none" xmlns="http://www.w3.org/2000/svg">
<path d="M51.628 12.4499C51.6053 12.4149 51.5789 12.3825 51.5492 12.3533L39.2415 1.2362C38.9221 0.948424 38.5327 0.749769 38.1122 0.660199C37.6917 0.570629 37.2551 0.593301 36.8462 0.725934L1.5051 12.2321C1.49627 12.2349 1.48994 12.2416 1.48135 12.2449C1.45448 12.2567 1.4286 12.2706 1.40393 12.2866C1.30569 12.3427 1.22537 12.4255 1.17233 12.5255C1.14091 12.5913 1.12139 12.6622 1.11465 12.7349C1.11314 12.7519 1.10474 12.7665 1.10474 12.7839V36.5588C1.10478 36.7126 1.1659 36.8602 1.27469 36.9689C1.38348 37.0777 1.53102 37.1389 1.68488 37.1389H29.9789C30.1201 37.1387 30.2565 37.0871 30.3625 36.9937C30.4684 36.9003 30.5367 36.7714 30.5545 36.6313C30.5938 36.325 31.5901 29.1253 38.5126 29.1253C45.4206 29.1253 46.2093 36.3091 46.2395 36.615C46.2534 36.7584 46.3203 36.8915 46.4269 36.9883C46.5336 37.0851 46.6725 37.1388 46.8166 37.1389H51.2757C51.4295 37.1388 51.5771 37.0777 51.6859 36.9689C51.7946 36.8601 51.8558 36.7126 51.8558 36.5587V12.8991C51.8548 12.8118 51.8338 12.7259 51.7943 12.648C51.7547 12.5701 51.6978 12.5023 51.628 12.4499ZM50.6956 26.5369C50.6349 26.539 50.5761 26.5487 50.515 26.5487C49.8334 26.5497 49.1582 26.4162 48.5282 26.156C47.8981 25.8958 47.3255 25.5139 46.8432 25.0323C46.3609 24.5506 45.9782 23.9786 45.7171 23.3489C45.4561 22.7192 45.3217 22.0442 45.3217 21.3626C45.3217 20.6809 45.4561 20.0059 45.7171 19.3762C45.9782 18.7466 46.3609 18.1745 46.8432 17.6929C47.3255 17.2112 47.8981 16.8293 48.5282 16.5691C49.1582 16.3089 49.8334 16.1755 50.515 16.1764C50.5762 16.1764 50.6349 16.1862 50.6956 16.1882V26.5369ZM37.2057 1.8296C37.4205 1.76028 37.6497 1.74854 37.8704 1.79553C38.0911 1.84252 38.2956 1.94661 38.4635 2.09739L49.6523 12.2038H5.34097L37.2057 1.8296ZM47.3129 35.9787C46.9684 34.1197 45.3134 27.9651 38.5126 27.9651C31.7065 27.9651 29.886 34.1419 29.4955 35.9787H2.26501V13.364H50.6956V15.0279C50.6351 15.0262 50.5753 15.0161 50.515 15.0161C49.6809 15.015 48.8548 15.1784 48.0839 15.4969C47.313 15.8154 46.6124 16.2827 46.0223 16.8721C45.4321 17.4615 44.9639 18.1615 44.6445 18.932C44.325 19.7025 44.1606 20.5284 44.1606 21.3625C44.1606 22.1966 44.325 23.0225 44.6445 23.793C44.9639 24.5635 45.4321 25.2635 46.0223 25.8529C46.6124 26.4424 47.313 26.9097 48.0839 27.2282C48.8548 27.5466 49.6809 27.71 50.515 27.709C50.5753 27.709 50.6351 27.6989 50.6956 27.6972V35.9786L47.3129 35.9787Z" fill="#323232"/>
<path d="M51.2759 37.6391H46.8169C46.5481 37.64 46.2886 37.5404 46.0897 37.3596C45.8907 37.1789 45.7665 36.9302 45.7417 36.6625C45.7134 36.3769 44.9722 29.6254 38.5122 29.6254C32.0273 29.6254 31.0874 36.4057 31.0508 36.6948C31.017 36.9554 30.8897 37.1948 30.6925 37.3686C30.4954 37.5423 30.2418 37.6384 29.979 37.6391H1.68506C1.39864 37.6388 1.12402 37.525 0.921448 37.3225C0.718871 37.12 0.604876 36.8454 0.604492 36.559L0.630859 12.6132C0.633006 12.558 0.644395 12.5035 0.664551 12.4521L0.727051 12.2983C0.762737 12.2288 0.806139 12.1637 0.856445 12.1039L0.958496 11.9912C1.01864 11.9374 1.08485 11.8909 1.15576 11.8525L1.22607 11.8154C1.26372 11.7912 1.30423 11.7719 1.34668 11.7578L36.6914 0.250432C37.184 0.0910041 37.7099 0.063876 38.2163 0.171773C38.7227 0.279669 39.1918 0.518795 39.5767 0.865178L51.8843 11.9824C51.9259 12.0204 51.9638 12.0622 51.9976 12.1074C52.1096 12.2068 52.1994 12.3287 52.2612 12.4652C52.3229 12.6016 52.3552 12.7496 52.356 12.8994V36.559C52.3557 36.8454 52.2418 37.12 52.0393 37.3225C51.8368 37.5249 51.5623 37.6388 51.2759 37.6391ZM38.5122 28.6254C45.8677 28.6254 46.7056 36.2416 46.7378 36.5659C46.7394 36.5858 46.7484 36.6043 46.7631 36.6179C46.7777 36.6315 46.7969 36.639 46.8169 36.6391H51.2759C51.2971 36.639 51.3174 36.6305 51.3324 36.6155C51.3474 36.6005 51.3559 36.5802 51.356 36.559V12.8994L51.2153 12.7319L38.9067 1.60737C38.6525 1.37864 38.3426 1.22076 38.0081 1.14954C37.6737 1.07833 37.3263 1.09628 37.001 1.2016L1.67188 12.7075L1.66748 12.7587L1.60449 12.872V36.559C1.60462 36.5803 1.61314 36.6007 1.62823 36.6157C1.64333 36.6307 1.66377 36.6391 1.68506 36.6391H29.979C29.9987 36.6389 30.0176 36.6316 30.0322 36.6184C30.0468 36.6053 30.0562 36.5873 30.0586 36.5678C30.1001 36.2436 31.1567 28.6254 38.5122 28.6254ZM51.1958 36.4784H46.897L46.8218 36.0697C46.4907 34.2856 44.9136 28.4652 38.5122 28.4652C32.1011 28.4652 30.3643 34.2953 29.9849 36.0824L29.9004 36.4784H1.76514V12.8642H51.1958V15.54L50.5669 15.52H50.5591C49.7898 15.5143 49.0269 15.6605 48.3143 15.9503C47.6017 16.2401 46.9532 16.6677 46.4062 17.2087C45.8592 17.7496 45.4244 18.3932 45.1266 19.1026C44.8289 19.812 44.6742 20.5731 44.6713 21.3424C44.6684 22.1117 44.8174 22.8741 45.1098 23.5856C45.4022 24.2972 45.8322 24.9441 46.3751 25.4891C46.918 26.0341 47.5632 26.4667 48.2737 26.7618C48.9841 27.0569 49.7458 27.2089 50.5151 27.209L51.1958 27.1851V36.4784ZM47.7212 35.4784H50.1958V28.2016C48.4372 28.1195 46.7778 27.3631 45.5623 26.0895C44.3467 24.8159 43.6685 23.123 43.6685 21.3625C43.6685 19.6019 44.3467 17.909 45.5623 16.6354C46.7778 15.3619 48.4372 14.6055 50.1958 14.5234V13.8642H2.76514V35.4784H29.0977C29.6724 33.1606 31.7744 27.4652 38.5122 27.4652C45.2476 27.4653 47.2046 33.1493 47.7212 35.4784ZM50.5151 27.0488C49.007 27.0488 47.5607 26.4497 46.4943 25.3833C45.4279 24.3169 44.8289 22.8706 44.8289 21.3625C44.8289 19.8544 45.4279 18.4081 46.4943 17.3417C47.5607 16.2753 49.007 15.6762 50.5151 15.6762C50.5659 15.6762 50.6157 15.6802 50.6655 15.685L51.1187 15.727L51.1958 16.1884V27.0215L50.7124 27.0366L50.6958 26.5371L50.6606 27.041C50.6118 27.0449 50.564 27.0488 50.5151 27.0488ZM50.1958 16.6943C49.0112 16.7742 47.9012 17.3012 47.0904 18.1686C46.2796 19.0359 45.8286 20.1789 45.8286 21.3662C45.8286 22.5535 46.2796 23.6964 47.0904 24.5638C47.9012 25.4311 49.0112 25.9581 50.1958 26.0381V16.6943ZM50.9526 12.7036H2.18994L37.0508 1.35398C37.3494 1.25759 37.6681 1.24131 37.9749 1.30677C38.2818 1.37223 38.566 1.51712 38.7993 1.72696L50.9526 12.7036ZM8.4917 11.7036H48.353L38.1284 2.46871C38.0259 2.37656 37.9011 2.31295 37.7663 2.28425C37.6315 2.25554 37.4915 2.26274 37.3604 2.30513L8.4917 11.7036Z" fill="#323232"/>
<path d="M9.33546 22.5059C8.54404 22.5058 7.77035 22.7405 7.11228 23.1801C6.45422 23.6198 5.94131 24.2447 5.63841 24.9759C5.33551 25.7071 5.25623 26.5116 5.41059 27.2878C5.56496 28.0641 5.94603 28.7771 6.50563 29.3367C7.06522 29.8964 7.77821 30.2775 8.55442 30.432C9.33063 30.5864 10.1352 30.5072 10.8664 30.2044C11.5976 29.9015 12.2225 29.3887 12.6623 28.7307C13.102 28.0726 13.3367 27.299 13.3368 26.5076C13.3355 25.4467 12.9135 24.4297 12.1634 23.6795C11.4133 22.9293 10.3963 22.5073 9.33546 22.5059ZM9.33546 29.3486C8.7735 29.3486 8.22412 29.1821 7.75685 28.8699C7.28957 28.5577 6.92538 28.1139 6.71031 27.5948C6.49523 27.0756 6.43894 26.5043 6.54856 25.9531C6.65819 25.402 6.92878 24.8957 7.32615 24.4983C7.72352 24.101 8.22982 23.8304 8.78099 23.7207C9.33215 23.6111 9.90344 23.6674 10.4226 23.8824C10.9418 24.0975 11.3855 24.4617 11.6977 24.929C12.0099 25.3963 12.1765 25.9456 12.1765 26.5076C12.1755 27.2608 11.8758 27.9828 11.3432 28.5154C10.8107 29.048 10.0886 29.3476 9.33546 29.3486Z" fill="#323232"/>
<path d="M9.33546 31.0093C8.44515 31.0093 7.57484 30.7453 6.83457 30.2506C6.09431 29.756 5.51735 29.053 5.17664 28.2304C4.83594 27.4079 4.74679 26.5028 4.92048 25.6296C5.09417 24.7564 5.52287 23.9544 6.15241 23.3248C6.78195 22.6953 7.58405 22.2665 8.45725 22.0928C9.33045 21.9192 10.2355 22.0083 11.0581 22.349C11.8806 22.6897 12.5837 23.2667 13.0783 24.0069C13.5729 24.7472 13.8369 25.6175 13.8369 26.5078C13.8355 27.7012 13.3608 28.8454 12.5169 29.6892C11.673 30.5331 10.5289 31.0078 9.33546 31.0093ZM9.33546 23.0064C8.64293 23.0064 7.96596 23.2117 7.39015 23.5964C6.81433 23.9812 6.36552 24.528 6.1005 25.1679C5.83548 25.8077 5.76615 26.5117 5.90125 27.1909C6.03636 27.8701 6.36985 28.4941 6.85954 28.9837C7.34923 29.4734 7.97313 29.8069 8.65235 29.942C9.33157 30.0771 10.0356 30.0078 10.6754 29.7428C11.3152 29.4778 11.8621 29.0289 12.2468 28.4531C12.6315 27.8773 12.8369 27.2003 12.8369 26.5078C12.8358 25.5795 12.4666 24.6895 11.8102 24.0331C11.1537 23.3767 10.2638 23.0075 9.33546 23.0064ZM9.33546 29.8491C8.67461 29.8491 8.02861 29.6532 7.47913 29.286C6.92966 28.9189 6.50138 28.397 6.24848 27.7865C5.99559 27.1759 5.92943 26.5041 6.05836 25.856C6.18728 25.2078 6.5055 24.6124 6.97279 24.1452C7.44008 23.6779 8.03545 23.3596 8.6836 23.2307C9.33175 23.1018 10.0036 23.168 10.6141 23.4208C11.2247 23.6737 11.7465 24.102 12.1137 24.6515C12.4808 25.201 12.6768 25.847 12.6768 26.5078C12.6757 27.3937 12.3233 28.2429 11.6969 28.8693C11.0706 29.4957 10.2213 29.8481 9.33546 29.8491ZM9.33546 24.1665C8.87239 24.1665 8.41973 24.3038 8.03471 24.5611C7.64968 24.8184 7.34958 25.184 7.17237 25.6119C6.99516 26.0397 6.94879 26.5104 7.03913 26.9646C7.12947 27.4188 7.35247 27.836 7.67991 28.1634C8.00735 28.4908 8.42453 28.7138 8.8787 28.8041C9.33287 28.8945 9.80364 28.8481 10.2315 28.6709C10.6593 28.4937 11.0249 28.1936 11.2822 27.8086C11.5395 27.4235 11.6768 26.9709 11.6768 26.5078C11.6761 25.8871 11.4291 25.292 10.9902 24.8531C10.5513 24.4141 9.95619 24.1672 9.33546 24.1665Z" fill="#323232"/>
<path d="M25.51 17.2871C24.5818 17.2871 23.6743 17.5623 22.9025 18.078C22.1306 18.5937 21.529 19.3267 21.1737 20.1843C20.8185 21.0419 20.7255 21.9856 20.9066 22.896C21.0876 23.8065 21.5346 24.6428 22.191 25.2992C22.8473 25.9556 23.6836 26.4026 24.594 26.5838C25.5045 26.7649 26.4482 26.672 27.3058 26.3168C28.1634 25.9616 28.8965 25.3601 29.4122 24.5883C29.928 23.8164 30.2033 22.909 30.2033 21.9807C30.202 20.7364 29.7071 19.5434 28.8272 18.6635C27.9474 17.7836 26.7544 17.2886 25.51 17.2871ZM25.51 25.5137C24.8112 25.5137 24.1281 25.3066 23.5471 24.9183C22.966 24.5301 22.5131 23.9783 22.2457 23.3327C21.9783 22.6871 21.9083 21.9767 22.0446 21.2913C22.1809 20.6059 22.5174 19.9763 23.0116 19.4822C23.5057 18.9881 24.1353 18.6516 24.8207 18.5153C25.506 18.3789 26.2164 18.4489 26.862 18.7163C27.5076 18.9838 28.0594 19.4367 28.4477 20.0177C28.8359 20.5988 29.0431 21.2819 29.0431 21.9807C29.042 22.9174 28.6695 23.8154 28.0071 24.4778C27.3448 25.1401 26.4467 25.5127 25.51 25.5137Z" fill="#323232"/>
<path d="M25.5098 27.1743C24.4826 27.1744 23.4784 26.8698 22.6243 26.2992C21.7702 25.7285 21.1044 24.9174 20.7113 23.9683C20.3182 23.0193 20.2153 21.9751 20.4157 20.9676C20.6161 19.9601 21.1108 19.0346 21.8371 18.3083C22.5635 17.5819 23.4889 17.0873 24.4964 16.8869C25.5039 16.6865 26.5481 16.7894 27.4971 17.1825C28.4462 17.5756 29.2573 18.2414 29.828 19.0955C30.3986 19.9496 30.7032 20.9538 30.7031 21.981C30.7016 23.3579 30.154 24.678 29.1804 25.6516C28.2068 26.6252 26.8867 27.1728 25.5098 27.1743ZM25.5098 17.7871C24.6804 17.7871 23.8696 18.033 23.1799 18.4937C22.4902 18.9545 21.9527 19.6094 21.6352 20.3757C21.3178 21.142 21.2347 21.9851 21.3965 22.7986C21.5582 23.6121 21.9576 24.3594 22.544 24.9459C23.1305 25.5324 23.8777 25.9318 24.6912 26.0937C25.5047 26.2556 26.3479 26.1726 27.1142 25.8552C27.8805 25.5379 28.5354 25.0004 28.9963 24.3108C29.4571 23.6212 29.7031 22.8104 29.7031 21.981C29.702 20.8691 29.2599 19.8031 28.4737 19.0169C27.6876 18.2307 26.6216 17.7884 25.5098 17.7871ZM25.5098 26.0137C24.7121 26.0136 23.9324 25.7771 23.2692 25.3339C22.606 24.8907 22.0891 24.2608 21.7839 23.5239C21.4787 22.7869 21.3989 21.976 21.5545 21.1937C21.7102 20.4113 22.0943 19.6927 22.6584 19.1287C23.2225 18.5647 23.9411 18.1807 24.7234 18.0251C25.5058 17.8696 26.3167 17.9495 27.0536 18.2548C27.7905 18.5601 28.4203 19.0771 28.8635 19.7403C29.3066 20.4036 29.543 21.1833 29.543 21.981C29.5418 23.0502 29.1164 24.0753 28.3603 24.8314C27.6042 25.5874 26.579 26.0126 25.5098 26.0137ZM25.5098 18.9478C24.9099 18.9478 24.3236 19.1257 23.8248 19.459C23.3261 19.7923 22.9373 20.266 22.7078 20.8202C22.4783 21.3744 22.4182 21.9842 22.5353 22.5725C22.6523 23.1609 22.9412 23.7013 23.3653 24.1254C23.7895 24.5496 24.3299 24.8385 24.9182 24.9555C25.5066 25.0725 26.1164 25.0125 26.6706 24.7829C27.2248 24.5534 27.6985 24.1647 28.0318 23.6659C28.365 23.1672 28.5429 22.5808 28.543 21.981C28.5421 21.1768 28.2223 20.4058 27.6536 19.8371C27.085 19.2685 26.314 18.9486 25.5098 18.9478Z" fill="#323232"/>
</svg>
