<svg width="19" height="17" viewBox="0 0 19 17" fill="none" xmlns="http://www.w3.org/2000/svg">
<path d="M1.48989 7.50942C2.33989 4.60942 4.23987 1.30942 6.59987 0.509418C7.12203 0.319699 7.68308 0.262637 8.23281 0.342914C8.78253 0.423191 9.3038 0.638508 9.7499 0.969623C10.2659 1.36708 10.7091 1.85083 11.0599 2.39955C12.0423 1.28917 13.3771 0.551005 14.8399 0.309467C15.3135 0.269447 15.7904 0.325068 16.2421 0.472797C16.6939 0.620525 17.1114 0.857459 17.4699 1.16957C17.7381 1.42709 17.949 1.73824 18.0886 2.0829C18.2282 2.42757 18.2933 2.79796 18.2799 3.16957V3.25942C18.2799 3.87942 18.2799 5.03956 17.3399 5.40956C17.258 5.43855 17.1707 5.44897 17.0843 5.44033C16.9979 5.43168 16.9144 5.40414 16.8399 5.35952C16.7647 5.31358 16.7012 5.25077 16.6544 5.17617C16.6075 5.10156 16.5786 5.01725 16.5699 4.92958C16.5099 4.28958 16.3099 4.26946 15.6799 4.29946H15.4899C14.8748 4.77133 14.4662 5.46317 14.3499 6.22963C15.1931 6.61471 15.9307 7.1979 16.4999 7.92958C16.8327 8.37479 17.0498 8.89546 17.1318 9.44521C17.2138 9.99496 17.1582 10.5565 16.9699 11.0795C16.1399 13.4295 12.8399 15.3396 9.96987 16.1796L8.96987 16.4896C8.22831 16.7827 7.44554 16.9579 6.64986 17.0094C6.11968 17.0045 5.60249 16.8449 5.16188 16.5499C4.72128 16.255 4.37648 15.8378 4.16988 15.3495C4.13792 15.277 4.12142 15.1987 4.12142 15.1195C4.12142 15.0403 4.13792 14.962 4.16988 14.8895C3.80432 14.7952 3.47027 14.6057 3.20156 14.3405C2.93285 14.0753 2.73907 13.7438 2.63991 13.3795C2.55219 13.3765 2.46646 13.3524 2.38991 13.3095C0.0699112 12.0295 0.669897 10.2494 1.2499 8.51943C1.2999 8.16943 1.40989 7.83942 1.48989 7.50942ZM5.40987 6.65956C6.20094 5.87443 7.09597 5.20149 8.0699 4.65956C8.08362 4.59153 8.11078 4.52698 8.14986 4.46962C8.29469 4.23156 8.3713 3.95824 8.3713 3.67958C8.3713 3.40093 8.29469 3.1276 8.14986 2.88954C8.10921 2.82735 8.08135 2.75778 8.06789 2.68471C8.05443 2.61164 8.05567 2.5366 8.07149 2.46401C8.08731 2.39141 8.11741 2.3227 8.16005 2.26186C8.2027 2.20102 8.25706 2.14916 8.3199 2.10952C8.44783 2.02954 8.60185 2.00258 8.74935 2.03432C8.89684 2.06606 9.02617 2.15392 9.10988 2.27944C9.43344 2.80565 9.56751 3.42662 9.48989 4.03945C9.76599 3.94057 10.0505 3.86696 10.3399 3.81948C10.3299 3.74648 10.3299 3.6725 10.3399 3.59951V3.49965C10.0419 2.88344 9.60765 2.34305 9.0699 1.91957C8.77501 1.68652 8.42528 1.5328 8.05416 1.47328C7.68303 1.41376 7.30289 1.45034 6.94991 1.57949C4.94991 2.27949 3.28988 5.31952 2.54988 7.85952C2.45988 8.20952 2.33988 8.54951 2.22988 8.85952C1.69988 10.4595 1.47989 11.2994 2.42989 12.0294C2.79329 9.94524 3.84626 8.04363 5.41988 6.62954L5.40987 6.65956ZM6.28987 13.6596C7.67631 13.1431 8.92768 12.3192 9.94991 11.2497C12.3999 8.80965 13.1099 6.11965 12.2299 5.24965C11.9276 4.9918 11.5363 4.86246 11.1399 4.88954C9.22965 5.139 7.47633 6.07776 6.20986 7.52944C3.76986 9.96944 3.0499 12.6594 3.9399 13.5294C4.28866 13.7549 4.69135 13.8832 5.10628 13.9008C5.52121 13.9184 5.9333 13.8247 6.29988 13.6295L6.28987 13.6596ZM8.57991 15.4196C8.89991 15.3096 9.23991 15.1895 9.57991 15.0895C12.1199 14.3495 15.1699 12.6696 15.8599 10.6996C15.9889 10.3449 16.0255 9.96317 15.966 9.59047C15.9065 9.21778 15.753 8.86634 15.5199 8.56948C15.028 7.9429 14.3746 7.46243 13.6299 7.17958C13.1587 9.04631 12.1587 10.7372 10.7499 12.0495C9.60378 13.2488 8.1977 14.1693 6.63991 14.7396C6.19575 14.8988 5.73097 14.9929 5.25991 15.0194C6.03991 16.1594 6.87986 15.9395 8.58986 15.3795L8.57991 15.4196ZM13.0299 4.41957C13.2177 4.61124 13.3701 4.83462 13.4799 5.07949C13.6901 4.57983 13.9844 4.11999 14.3499 3.71962C14.4826 3.55482 14.648 3.41901 14.8355 3.32094C15.0231 3.22287 15.2288 3.16457 15.4399 3.14955H15.6299C16.1643 3.08599 16.7031 3.22504 17.1399 3.53945V3.15956C17.1522 2.94588 17.1174 2.73208 17.0379 2.53334C16.9584 2.33461 16.8362 2.15567 16.6799 2.00942C16.1806 1.60094 15.5431 1.40059 14.8999 1.4496C13.5843 1.72677 12.4128 2.46862 11.5999 3.53945C11.5999 3.61945 11.5999 3.69943 11.5999 3.76943C12.1348 3.81279 12.6407 4.03073 13.0399 4.38954L13.0299 4.41957ZM5.20986 12.2396C5.12935 12.2289 5.04749 12.2354 4.96975 12.2589C4.892 12.2824 4.82016 12.3221 4.75905 12.3756C4.69795 12.4291 4.64898 12.495 4.61544 12.569C4.58189 12.643 4.56453 12.7234 4.56453 12.8046C4.56453 12.8858 4.58189 12.966 4.61544 13.0399C4.64898 13.1139 4.69795 13.1798 4.75905 13.2333C4.82016 13.2868 4.892 13.3268 4.96975 13.3502C5.04749 13.3737 5.12935 13.3803 5.20986 13.3695C6.33986 13.3695 7.8499 12.4895 9.4399 10.8895C11.5999 8.73954 11.9199 6.88945 11.9199 6.03945C11.9173 5.88908 11.8564 5.74564 11.7501 5.6393C11.6437 5.53296 11.5002 5.47219 11.3499 5.46962C11.1987 5.46962 11.0538 5.52948 10.9469 5.63637C10.84 5.74327 10.7799 5.88827 10.7799 6.03945C10.7799 6.61945 10.5699 8.15945 8.63991 10.0394C7.06991 11.6294 5.83987 12.2096 5.21987 12.2096L5.20986 12.2396ZM10.0699 13.4296C9.95533 13.4868 9.8633 13.5808 9.80873 13.6967C9.75417 13.8125 9.74024 13.9433 9.76912 14.068C9.798 14.1928 9.86799 14.3043 9.96791 14.3844C10.0678 14.4645 10.1919 14.5084 10.3199 14.5094C10.4099 14.5085 10.4986 14.4882 10.5799 14.4496C12.1583 13.5583 13.6309 12.4913 14.9699 11.2694C15.2452 10.8588 15.4074 10.3829 15.4399 9.88954C15.4228 9.59871 15.3444 9.31478 15.21 9.05629C15.0756 8.79781 14.8881 8.5706 14.6599 8.38954C14.5431 8.30771 14.3999 8.27256 14.2585 8.29116C14.1171 8.30975 13.9878 8.38064 13.8961 8.48989C13.8045 8.59913 13.7571 8.73878 13.7633 8.88124C13.7696 9.02371 13.829 9.15861 13.9299 9.25942C14.1258 9.4 14.2586 9.61195 14.2999 9.84951C14.2769 10.1343 14.1767 10.4075 14.0099 10.6395C12.7841 11.6739 11.4689 12.5975 10.0799 13.3996L10.0699 13.4296Z" fill="#323232"/>
</svg>
