<svg width="18" height="18" viewBox="0 0 18 18" fill="none" xmlns="http://www.w3.org/2000/svg">
<path d="M8.61963 0.629889C10.3071 0.62791 11.9573 1.12642 13.3614 2.06251C14.7655 2.99859 15.8603 4.3302 16.5075 5.88868C17.1546 7.44716 17.325 9.16256 16.997 10.8179C16.669 12.4732 15.8573 13.9941 14.6648 15.188C13.4723 16.3819 11.9524 17.1952 10.2974 17.5252C8.6425 17.8551 6.92692 17.6868 5.36768 17.0415C3.80845 16.3962 2.47564 15.3029 1.53791 13.8999C0.600177 12.4969 0.0996164 10.8474 0.0996152 9.15992C0.098301 8.04021 0.317724 6.93109 0.745306 5.89625C1.17289 4.8614 1.80027 3.92113 2.59156 3.12891C3.38284 2.3367 4.32253 1.7081 5.35688 1.2793C6.39122 0.850507 7.49993 0.629888 8.61963 0.629889ZM16.0096 9.15992C16.0116 7.69789 15.5799 6.26811 14.769 5.05152C13.9582 3.83493 12.8048 2.88607 11.4546 2.3252C10.1044 1.76434 8.6182 1.61663 7.18403 1.90064C5.74985 2.18466 4.43216 2.88779 3.39765 3.9209C2.36314 4.95402 1.65834 6.2708 1.37238 7.7046C1.08643 9.13839 1.23217 10.6247 1.7912 11.9756C2.35024 13.3265 3.29745 14.4812 4.51295 15.2937C5.72844 16.1062 7.15761 16.5398 8.61963 16.5398C9.5901 16.5398 10.551 16.3487 11.4476 15.9773C12.3442 15.6059 13.1589 15.0617 13.8452 14.3755C14.5314 13.6893 15.0757 12.8746 15.4471 11.978C15.8185 11.0814 16.0096 10.1204 16.0096 9.14991V9.15992ZM14.5096 7.15992C14.9892 8.42258 14.9892 9.81718 14.5096 11.0798C14.4773 11.1714 14.4179 11.2512 14.3394 11.3084C14.2608 11.3655 14.1668 11.3974 14.0696 11.3999C13.9956 11.3988 13.9231 11.378 13.8596 11.3398L10.0197 9.57984C9.93924 9.53587 9.8724 9.47073 9.82654 9.39136C9.78069 9.312 9.75758 9.22152 9.75965 9.12989C9.75821 9.03567 9.78142 8.94281 9.82703 8.86036C9.87264 8.77791 9.93908 8.70877 10.0197 8.65992L13.8596 6.89991C13.9255 6.86928 13.997 6.85222 14.0696 6.84986C14.1645 6.85707 14.255 6.89242 14.3298 6.95118C14.4046 7.00993 14.4602 7.08951 14.4896 7.17994L14.5096 7.15992ZM13.7396 9.15992C13.7425 8.86465 13.7157 8.56971 13.6596 8.27979L11.7496 9.15992L13.6596 10.0298C13.7154 9.73984 13.7422 9.44517 13.7396 9.14991V9.15992ZM13.3196 12.3599C13.3778 12.3929 13.428 12.4381 13.4668 12.4924C13.5057 12.5468 13.5322 12.6091 13.5446 12.6748C13.5569 12.7405 13.5549 12.808 13.5385 12.8728C13.5221 12.9376 13.4918 12.9979 13.4497 13.0498C12.6509 14.135 11.4791 14.8866 10.1596 15.1599H10.0496C9.93454 15.1654 9.82192 15.1255 9.73591 15.0488C9.64989 14.9722 9.59733 14.865 9.58961 14.75L8.98963 10.5698C8.98509 10.4762 9.00593 10.3833 9.04993 10.3005C9.09394 10.2178 9.15948 10.1484 9.23963 10.0999C9.32463 10.0405 9.42595 10.009 9.52961 10.0098C9.61021 10.0093 9.68956 10.03 9.75965 10.0698L13.3196 12.3599ZM12.0797 12.9199L10.3196 11.7898L10.6096 13.8599C10.8821 13.7525 11.1434 13.6186 11.3897 13.46C11.6381 13.301 11.8693 13.1166 12.0797 12.9099V12.9199ZM13.2196 4.97999C13.2637 5.03013 13.2966 5.08898 13.3162 5.15284C13.3357 5.2167 13.3414 5.28411 13.3329 5.35035C13.3244 5.41658 13.3018 5.48003 13.2668 5.53687C13.2317 5.59371 13.185 5.64258 13.1296 5.67994L9.7096 8.15992C9.63139 8.20758 9.54122 8.23194 9.44965 8.22999C9.38005 8.23131 9.31085 8.21878 9.24604 8.19337C9.18123 8.16795 9.12205 8.13008 9.07191 8.08179C9.02176 8.0335 8.98165 7.97568 8.9538 7.91187C8.92596 7.84807 8.91091 7.77957 8.90961 7.70997L9.25965 3.50001C9.26092 3.44004 9.27414 3.38071 9.29859 3.32593C9.32304 3.27116 9.35819 3.22191 9.40198 3.18091C9.44577 3.13992 9.49733 3.10819 9.55359 3.08741C9.60986 3.06662 9.6697 3.05714 9.72962 3.05982H9.79963C10.4676 3.14434 11.111 3.36575 11.6896 3.70997C12.2745 4.02982 12.7936 4.45733 13.2196 4.96998V4.97999ZM10.1596 6.42994L11.8596 5.19996C11.6355 5.00681 11.3907 4.83911 11.1296 4.69996C10.8764 4.5521 10.6083 4.43132 10.3297 4.33985L10.1596 6.42994ZM8.33961 10.5999L7.98963 14.8098C7.98443 14.9301 7.93229 15.0435 7.84443 15.1257C7.75656 15.208 7.63999 15.2527 7.51966 15.25H7.48963C6.82405 15.1614 6.18208 14.9439 5.59962 14.6099C5.01241 14.2892 4.49558 13.8539 4.07966 13.3298C4.03409 13.2813 3.99982 13.2233 3.97938 13.1599C3.95893 13.0966 3.95282 13.0296 3.96143 12.9636C3.97004 12.8976 3.99317 12.8343 4.02918 12.7783C4.06519 12.7223 4.11314 12.6751 4.16962 12.6399L7.58961 10.1599C7.66721 10.1097 7.75722 10.082 7.84962 10.0798C7.94068 10.0817 8.02994 10.1058 8.10962 10.1499C8.18689 10.2025 8.24886 10.2746 8.28925 10.3589C8.32964 10.4432 8.347 10.5367 8.33961 10.6299V10.5999ZM6.91962 13.97L7.08961 11.8799L5.38965 13.1099C5.61466 13.3018 5.85934 13.4694 6.11963 13.6099C6.37236 13.7561 6.64069 13.8736 6.91962 13.96V13.97ZM8.24964 7.72999C8.25792 7.8216 8.2397 7.91357 8.19715 7.99512C8.1546 8.07667 8.08952 8.14433 8.00965 8.18995C7.92495 8.25114 7.82402 8.28578 7.71961 8.2898C7.63452 8.29016 7.55117 8.26602 7.47962 8.21998L3.91962 5.93995C3.86253 5.90714 3.81335 5.86201 3.77552 5.80811C3.73769 5.75421 3.71213 5.69278 3.70069 5.62794C3.68925 5.56309 3.6922 5.49646 3.7093 5.43287C3.72639 5.36927 3.75721 5.31014 3.79963 5.25977C4.59328 4.16727 5.76679 3.4112 7.08961 3.1399H7.19965C7.31438 3.14169 7.42449 3.18534 7.50922 3.2627C7.59396 3.34007 7.64742 3.44573 7.65961 3.55982L8.24964 7.72999ZM6.92963 6.51978L6.63965 4.44996C6.36623 4.55531 6.10474 4.6893 5.85962 4.84986C5.61168 5.00567 5.38045 5.18666 5.16962 5.3899L6.92963 6.51978ZM7.21961 8.68995C7.30275 8.73674 7.37173 8.80498 7.41926 8.8877C7.46678 8.97042 7.49109 9.06453 7.48963 9.15992C7.49192 9.25281 7.46773 9.3444 7.41993 9.42408C7.37212 9.50375 7.30265 9.56818 7.21961 9.60987L3.37964 11.3699C3.32037 11.4092 3.25076 11.4301 3.17963 11.4299C3.08115 11.428 2.98555 11.3964 2.90528 11.3394C2.82501 11.2823 2.76377 11.2023 2.72962 11.1099C2.25003 9.84721 2.25003 8.45261 2.72962 7.18995C2.76646 7.10018 2.82861 7.02307 2.90851 6.96802C2.98842 6.91298 3.08263 6.88233 3.17963 6.87989C3.24922 6.88121 3.31762 6.89835 3.37964 6.92994L7.21961 8.68995ZM3.58961 10.0298L5.49964 9.15992L3.58961 8.27979C3.48305 8.85826 3.48305 9.45132 3.58961 10.0298Z" fill="#323232"/>
</svg>
