<svg width="18" height="18" viewBox="0 0 18 18" fill="none" xmlns="http://www.w3.org/2000/svg">
<path d="M8.57812 2.8125V1.125C8.57812 1.01311 8.62257 0.905806 8.70169 0.826689C8.78081 0.747572 8.88811 0.703125 9 0.703125C9.11189 0.703125 9.21919 0.747572 9.29831 0.826689C9.37743 0.905806 9.42188 1.01311 9.42188 1.125V2.8125C9.42188 2.92439 9.37743 3.03169 9.29831 3.11081C9.21919 3.18993 9.11189 3.23438 9 3.23438C8.88811 3.23438 8.78081 3.18993 8.70169 3.11081C8.62257 3.03169 8.57812 2.92439 8.57812 2.8125ZM13.3594 9C13.3594 9.8622 13.1037 10.705 12.6247 11.4219C12.1457 12.1388 11.4648 12.6976 10.6683 13.0275C9.87169 13.3575 8.99516 13.4438 8.14953 13.2756C7.30389 13.1074 6.52713 12.6922 5.91746 12.0825C5.30779 11.4729 4.8926 10.6961 4.72439 9.85047C4.55618 9.00484 4.64251 8.12831 4.97246 7.33174C5.30241 6.53517 5.86117 5.85433 6.57806 5.37531C7.29496 4.8963 8.1378 4.64062 9 4.64062C10.1558 4.64193 11.2638 5.10164 12.0811 5.91889C12.8984 6.73615 13.3581 7.84422 13.3594 9ZM12.5156 9C12.5156 8.30468 12.3094 7.62497 11.9231 7.04682C11.5368 6.46868 10.9878 6.01808 10.3454 5.75199C9.70298 5.4859 8.9961 5.41628 8.31414 5.55193C7.63217 5.68758 7.00575 6.02241 6.51408 6.51408C6.02241 7.00575 5.68758 7.63217 5.55193 8.31414C5.41628 8.9961 5.4859 9.70298 5.75199 10.3454C6.01808 10.9878 6.46868 11.5368 7.04682 11.9231C7.62497 12.3094 8.30468 12.5156 9 12.5156C9.93206 12.5145 10.8256 12.1438 11.4847 11.4847C12.1438 10.8256 12.5145 9.93206 12.5156 9ZM4.20187 4.79812C4.2405 4.83957 4.28707 4.87282 4.33882 4.89588C4.39057 4.91893 4.44644 4.93133 4.50308 4.93233C4.55973 4.93333 4.61599 4.92291 4.66852 4.90169C4.72105 4.88048 4.76877 4.84889 4.80883 4.80883C4.84889 4.76877 4.88048 4.72105 4.90169 4.66852C4.92291 4.61599 4.93333 4.55973 4.93233 4.50308C4.93133 4.44644 4.91893 4.39057 4.89588 4.33882C4.87282 4.28707 4.83957 4.2405 4.79812 4.20187L3.67313 3.07687C3.59315 3.00235 3.48738 2.96179 3.37808 2.96371C3.26879 2.96564 3.16451 3.00992 3.08721 3.08721C3.00992 3.16451 2.96564 3.26879 2.96371 3.37808C2.96179 3.48738 3.00235 3.59315 3.07687 3.67313L4.20187 4.79812ZM4.20187 13.2019L3.07687 14.3269C3.03543 14.3655 3.00218 14.4121 2.97912 14.4638C2.95607 14.5156 2.94367 14.5714 2.94267 14.6281C2.94167 14.6847 2.95209 14.741 2.97331 14.7935C2.99452 14.8461 3.02611 14.8938 3.06617 14.9338C3.10623 14.9739 3.15395 15.0055 3.20648 15.0267C3.25901 15.0479 3.31527 15.0583 3.37192 15.0573C3.42856 15.0563 3.48443 15.0439 3.53618 15.0209C3.58793 14.9978 3.6345 14.9646 3.67313 14.9231L4.79812 13.7981C4.83957 13.7595 4.87282 13.7129 4.89588 13.6612C4.91893 13.6094 4.93133 13.5536 4.93233 13.4969C4.93333 13.4403 4.92291 13.384 4.90169 13.3315C4.88048 13.2789 4.84889 13.2312 4.80883 13.1912C4.76877 13.1511 4.72105 13.1195 4.66852 13.0983C4.61599 13.0771 4.55973 13.0667 4.50308 13.0677C4.44644 13.0687 4.39057 13.0811 4.33882 13.1041C4.28707 13.1272 4.2405 13.1604 4.20187 13.2019ZM13.5 4.92188C13.6119 4.92178 13.7191 4.87726 13.7981 4.79812L14.9231 3.67313C14.9976 3.59315 15.0382 3.48738 15.0363 3.37808C15.0344 3.26879 14.9901 3.16451 14.9128 3.08721C14.8355 3.00992 14.7312 2.96564 14.6219 2.96371C14.5126 2.96179 14.4068 3.00235 14.3269 3.07687L13.2019 4.20187C13.1429 4.26087 13.1028 4.33601 13.0866 4.4178C13.0703 4.49959 13.0787 4.58435 13.1106 4.66139C13.1425 4.73844 13.1965 4.8043 13.2658 4.85066C13.3351 4.89702 13.4166 4.9218 13.5 4.92188ZM13.7981 13.2019C13.7182 13.1274 13.6124 13.0868 13.5031 13.0887C13.3938 13.0906 13.2895 13.1349 13.2122 13.2122C13.1349 13.2895 13.0906 13.3938 13.0887 13.5031C13.0868 13.6124 13.1274 13.7182 13.2019 13.7981L14.3269 14.9231C14.4068 14.9976 14.5126 15.0382 14.6219 15.0363C14.7312 15.0344 14.8355 14.9901 14.9128 14.9128C14.9901 14.8355 15.0344 14.7312 15.0363 14.6219C15.0382 14.5126 14.9976 14.4068 14.9231 14.3269L13.7981 13.2019ZM3.23438 9C3.23438 8.88811 3.18993 8.78081 3.11081 8.70169C3.03169 8.62257 2.92439 8.57812 2.8125 8.57812H1.125C1.01311 8.57812 0.905806 8.62257 0.826689 8.70169C0.747572 8.78081 0.703125 8.88811 0.703125 9C0.703125 9.11189 0.747572 9.21919 0.826689 9.29831C0.905806 9.37743 1.01311 9.42188 1.125 9.42188H2.8125C2.92439 9.42188 3.03169 9.37743 3.11081 9.29831C3.18993 9.21919 3.23438 9.11189 3.23438 9ZM9 14.7656C8.88811 14.7656 8.78081 14.8101 8.70169 14.8892C8.62257 14.9683 8.57812 15.0756 8.57812 15.1875V16.875C8.57812 16.9869 8.62257 17.0942 8.70169 17.1733C8.78081 17.2524 8.88811 17.2969 9 17.2969C9.11189 17.2969 9.21919 17.2524 9.29831 17.1733C9.37743 17.0942 9.42188 16.9869 9.42188 16.875V15.1875C9.42188 15.0756 9.37743 14.9683 9.29831 14.8892C9.21919 14.8101 9.11189 14.7656 9 14.7656ZM16.875 8.57812H15.1875C15.0756 8.57812 14.9683 8.62257 14.8892 8.70169C14.8101 8.78081 14.7656 8.88811 14.7656 9C14.7656 9.11189 14.8101 9.21919 14.8892 9.29831C14.9683 9.37743 15.0756 9.42188 15.1875 9.42188H16.875C16.9869 9.42188 17.0942 9.37743 17.1733 9.29831C17.2524 9.21919 17.2969 9.11189 17.2969 9C17.2969 8.88811 17.2524 8.78081 17.1733 8.70169C17.0942 8.62257 16.9869 8.57812 16.875 8.57812Z" fill="#323232"/>
</svg>
