<svg width="62" height="49" viewBox="0 0 62 49" fill="none" xmlns="http://www.w3.org/2000/svg">
<path d="M43.439 47.189H43.4331C26.5811 47.1148 25.0713 47.1831 25.0147 47.1861C24.8708 47.1939 24.7266 47.1801 24.5869 47.1451C24.4224 47.1021 8.11771 42.6094 7.71294 22.4566C7.70921 22.2771 7.74135 22.0986 7.80748 21.9317C7.87361 21.7648 7.9724 21.6127 8.09805 21.4845C8.22371 21.3562 8.37369 21.2544 8.53922 21.1848C8.70476 21.1153 8.88251 21.0795 9.06205 21.0796H59.4605C59.7663 21.0796 60.063 21.1834 60.302 21.374C60.5411 21.5647 60.7083 21.8308 60.7764 22.1289C60.8155 22.3008 64.4561 39.3892 43.9136 47.1025C43.7619 47.1597 43.6011 47.189 43.439 47.189ZM30.7466 44.4556C33.6436 44.4556 37.7115 44.4649 43.1948 44.4888C58.6177 38.5864 58.6909 27.2959 58.3062 23.7788H10.4664C11.4361 39.8232 23.4122 43.9785 25.0958 44.4839C25.7764 44.4673 27.5498 44.4556 30.7466 44.4556Z" fill="#323232"/>
<path d="M45.6157 40.8892C45.3555 40.889 45.1008 40.8136 44.8824 40.6721C44.664 40.5305 44.4912 40.3288 44.3848 40.0913C44.2784 39.8538 44.2429 39.5906 44.2827 39.3333C44.3225 39.0761 44.4357 38.8359 44.6089 38.6416C49.7075 32.9195 49.7891 29.0093 49.7891 28.9707C49.7908 28.6147 49.9324 28.2737 50.1834 28.0211C50.4343 27.7685 50.7744 27.6247 51.1304 27.6206H51.1392C51.4919 27.6188 51.8311 27.7559 52.0835 28.0022C52.3359 28.2486 52.4811 28.5844 52.4878 28.937C52.4917 29.1338 52.5088 33.8325 46.624 40.4375C46.4974 40.5798 46.3421 40.6935 46.1683 40.7714C45.9945 40.8492 45.8062 40.8894 45.6157 40.8892Z" fill="#323232"/>
<path d="M43.1274 44.4897H24.9282C24.1829 44.4897 23.5786 45.094 23.5786 45.8394V47.6279C23.5786 48.3733 24.1829 48.9775 24.9282 48.9775H43.1274C43.8728 48.9775 44.4771 48.3733 44.4771 47.6279V45.8394C44.4771 45.094 43.8728 44.4897 43.1274 44.4897Z" fill="#323232"/>
<path d="M32.5738 18.8233L30.7252 16.8565C30.6919 16.8822 30.6629 16.9131 30.6392 16.9478C31.1263 15.9888 31.4011 14.9361 31.4449 13.8614C31.3278 12.9905 31.0106 12.1585 30.5182 11.4308C29.5593 9.99128 29.0676 8.29118 29.1099 6.56211C29.3666 5.3484 29.9274 4.21981 30.7398 3.28232C30.8538 3.14661 30.9935 3.03468 31.1507 2.95293C31.308 2.87118 31.4798 2.8212 31.6564 2.80585C31.833 2.7905 32.0109 2.81009 32.1799 2.86348C32.3489 2.91688 32.5057 3.00303 32.6414 3.11704C32.7772 3.23105 32.8891 3.37068 32.9708 3.52794C33.0526 3.68521 33.1026 3.85704 33.1179 4.03362C33.1333 4.2102 33.1137 4.38807 33.0603 4.55709C33.0069 4.7261 32.9207 4.88294 32.8067 5.01865C32.3379 5.55792 31.9913 6.19221 31.7906 6.87802C31.8537 8.05455 32.2381 9.19128 32.9019 10.1646C33.71 11.3529 34.1359 12.7595 34.1226 14.1964C33.7169 17.44 32.9044 18.5128 32.5738 18.8233Z" fill="#323232"/>
<path d="M41.9605 16.3727L40.1129 14.4049C40.0794 14.4308 40.0502 14.4618 40.0264 14.4967C40.5134 13.5377 40.788 12.485 40.8316 11.4103C40.7145 10.5396 40.3975 9.70785 39.9054 8.98012C38.9466 7.54043 38.4548 5.8402 38.4971 4.11098C38.7536 2.89747 39.3143 1.76905 40.1265 0.83168C40.3575 0.559852 40.6867 0.390513 41.0421 0.360687C41.3976 0.33086 41.7504 0.442963 42.0234 0.6725C42.2964 0.902037 42.4675 1.23033 42.4991 1.58562C42.5308 1.9409 42.4205 2.29428 42.1924 2.5685C41.724 3.10725 41.3778 3.74109 41.1778 4.42641C41.2408 5.60325 41.6251 6.74032 42.2891 7.714C43.0967 8.90221 43.5224 10.3086 43.5093 11.7453C43.1041 14.9894 42.2911 16.0621 41.9605 16.3727Z" fill="#323232"/>
<path d="M51.3067 18.8234L49.4581 16.8566C49.4248 16.8823 49.3958 16.9131 49.3722 16.9479C49.8591 15.9889 50.1338 14.9362 50.1773 13.8615C50.0603 12.9907 49.7433 12.1587 49.2511 11.4308C48.2922 9.99137 47.8005 8.29126 47.8429 6.56219C48.0992 5.34828 48.6602 4.21958 49.4732 3.2824C49.7037 3.00925 50.0332 2.83869 50.3893 2.80816C50.7454 2.77763 51.0991 2.88961 51.3728 3.11954C51.6464 3.34948 51.8177 3.67858 51.8489 4.03463C51.8802 4.39068 51.769 4.7446 51.5396 5.01873C51.0708 5.55759 50.7241 6.19158 50.5235 6.87713C50.5865 8.05391 50.9706 9.19094 51.6344 10.1647C52.4423 11.353 52.8682 12.7596 52.8551 14.1965C52.4503 17.4396 51.6373 18.5129 51.3067 18.8234Z" fill="#323232"/>
<path d="M26.9745 23.523C26.7069 23.523 26.4453 23.4434 26.223 23.2944C26.0007 23.1454 25.8277 22.9336 25.726 22.6861C25.5966 22.5904 25.497 22.5157 25.3783 22.4161L7.1591 7.12897C6.77343 6.80646 6.27565 6.64999 5.77483 6.69383C5.274 6.73767 4.81098 6.97825 4.48721 7.36285L4.07121 7.85944C3.74842 8.24494 3.59173 8.74275 3.63548 9.24364C3.67924 9.74453 3.91988 10.2076 4.30462 10.5313L16.7963 21.0123C16.9321 21.1262 17.044 21.2657 17.1259 21.4229C17.2077 21.58 17.2578 21.7518 17.2733 21.9283C17.2887 22.1048 17.2693 22.2826 17.216 22.4516C17.1627 22.6206 17.0767 22.7774 16.9628 22.9132C16.8489 23.0489 16.7094 23.1609 16.5523 23.2428C16.3951 23.3246 16.2234 23.3747 16.0469 23.3901C15.8703 23.4056 15.6925 23.3861 15.5235 23.3329C15.3545 23.2796 15.1977 23.1936 15.0619 23.0797L2.56975 12.5987C1.63724 11.8147 1.05388 10.6927 0.947693 9.479C0.841504 8.26533 1.22117 7.05911 2.00335 6.12505L2.41935 5.62895C3.20337 4.69636 4.32528 4.11284 5.53899 4.00638C6.75269 3.89992 7.95906 4.27923 8.89346 5.0611L27.1127 20.3482C27.1967 20.4185 27.2646 20.4673 27.3217 20.5088C27.7404 20.7885 28.0577 21.1957 28.2265 21.67C28.3085 21.8748 28.3392 22.0966 28.3157 22.3159C28.2923 22.5353 28.2154 22.7456 28.0919 22.9285C27.9684 23.1113 27.8019 23.2611 27.6072 23.3647C27.4124 23.4683 27.1952 23.5227 26.9745 23.523Z" fill="#323232"/>
</svg>
