<svg width="59" height="56" viewBox="0 0 59 56" fill="none" xmlns="http://www.w3.org/2000/svg">
<path d="M15.8919 55.9836C15.5519 55.9836 15.2219 55.8537 14.9719 55.6037L0.381906 41.0137C0.0719056 40.7037 -0.0680852 40.2437 0.0319148 39.8137C0.121915 39.3837 0.431907 39.0237 0.851907 38.8737C0.891907 38.8637 4.47191 37.4937 7.46191 34.5437C9.07191 32.9537 9.76191 31.7237 10.4219 30.5337C11.0319 29.4337 11.6119 28.4037 12.7619 27.3837C14.0819 26.2137 15.3919 25.5737 16.5419 25.0137C17.4219 24.5837 18.1819 24.2137 18.8619 23.6637C19.3919 23.2437 19.9019 22.2737 20.4419 21.2537C21.3519 19.5337 22.4819 17.4037 24.6119 15.9037C26.0619 14.8837 27.0919 14.3337 27.9219 13.8837C28.9519 13.3237 29.5219 13.0236 30.2819 12.1736C30.7719 11.6336 31.2619 10.6337 31.7919 9.57367C32.7919 7.55367 33.9319 5.25366 35.9119 4.18366C36.7819 3.71366 37.6519 3.36365 38.4219 3.05365C40.0519 2.40365 41.2219 1.93366 41.9019 0.683657C42.1019 0.323657 42.4519 0.073674 42.8619 0.013674C43.2719 -0.046326 43.6819 0.0936691 43.9719 0.383669L58.5719 14.9836C58.9819 15.3936 59.0719 16.0137 58.8019 16.5237C57.6719 18.6137 55.8019 19.3637 53.9919 20.0837C53.2519 20.3737 52.4919 20.6837 51.7519 21.0837C50.5019 21.7637 49.5619 23.6637 48.7319 25.3337C48.1219 26.5637 47.5519 27.7137 46.8219 28.5237C45.7619 29.7037 44.8719 30.1837 43.7619 30.7837C42.9519 31.2137 42.0419 31.7037 40.7219 32.6337C39.1019 33.7737 38.1719 35.5237 37.3619 37.0737C36.6919 38.3437 36.0619 39.5337 35.1019 40.3037C34.1919 41.0237 33.2319 41.5036 32.3019 41.9536C31.2019 42.4936 30.1519 43.0037 29.1019 43.9337C28.2819 44.6637 27.8419 45.4337 27.3019 46.4137C26.6219 47.6337 25.7719 49.1537 23.9019 51.0037C20.5019 54.3637 16.5419 55.8636 16.3719 55.9236C16.2019 55.9636 16.0519 55.9836 15.8919 55.9836ZM3.5519 40.4937L16.1919 53.1337C17.4019 52.5737 19.8819 51.2637 22.0419 49.1237C23.6519 47.5337 24.3419 46.3037 25.0019 45.1137C25.6119 44.0137 26.1919 42.9837 27.3419 41.9637C28.6619 40.7937 29.9719 40.1537 31.1219 39.5937C32.0019 39.1637 32.7619 38.7937 33.4419 38.2437C33.9719 37.8237 34.4819 36.8537 35.0219 35.8337C35.9319 34.1137 37.0619 31.9736 39.1919 30.4836C40.6419 29.4736 41.6719 28.9137 42.4919 28.4737C43.5219 27.9137 44.0919 27.6137 44.8519 26.7737C45.3419 26.2337 45.8319 25.2237 46.3619 24.1637C47.3619 22.1437 48.4919 19.8537 50.4719 18.7737C51.3419 18.3037 52.2219 17.9536 52.9919 17.6436C54.2419 17.1436 55.2219 16.7537 55.9219 16.0337L43.1719 3.28366C42.0919 4.38366 40.7119 4.93367 39.3619 5.47367C38.6219 5.76367 37.8619 6.07367 37.1219 6.47367C35.8619 7.15367 34.9219 9.05367 34.1019 10.7237C33.4919 11.9437 32.9219 13.1037 32.2019 13.9137C31.1419 15.0937 30.2519 15.5736 29.1419 16.1736C28.3319 16.6036 27.4219 17.1037 26.1019 18.0237C24.4819 19.1637 23.5519 20.9137 22.7419 22.4637C22.0719 23.7337 21.4419 24.9237 20.4819 25.6837C19.5719 26.4137 18.6119 26.8837 17.6819 27.3337C16.5819 27.8737 15.5319 28.3837 14.4819 29.3137C13.6619 30.0437 13.2319 30.8137 12.6819 31.7937C12.0019 33.0137 11.1519 34.5337 9.2719 36.3837C7.2719 38.3837 5.0519 39.7237 3.5519 40.4937Z" fill="#323232"/>
<path d="M6.0819 46.1737C5.5519 46.1737 5.0619 45.8537 4.8619 45.3237C4.6119 44.6537 4.95189 43.9037 5.62189 43.6437C5.66189 43.6337 9.24189 42.2637 12.2319 39.3137C13.8419 37.7237 14.5319 36.4937 15.1919 35.3037C15.8019 34.2037 16.3819 33.1737 17.5319 32.1537C18.8519 30.9837 20.1619 30.3437 21.3119 29.7837C22.1919 29.3537 22.9519 28.9837 23.6319 28.4337C24.1619 28.0137 24.6719 27.0437 25.2119 26.0237C26.1219 24.3037 27.2519 22.1637 29.3819 20.6737C30.8319 19.6537 31.8619 19.1037 32.6819 18.6637C33.7119 18.1137 34.2819 17.8037 35.0419 16.9637C35.5319 16.4237 36.0219 15.4237 36.5519 14.3637C37.5519 12.3437 38.6919 10.0437 40.6719 8.97371C41.5419 8.50371 42.4219 8.15371 43.1919 7.84371C44.8219 7.19371 45.9919 6.73371 46.6719 5.47371C47.0119 4.84371 47.8019 4.60371 48.4419 4.94371C49.0719 5.28371 49.3119 6.07369 48.9719 6.70369C47.8419 8.79369 45.9719 9.54372 44.1619 10.2637C43.4219 10.5537 42.6619 10.8637 41.9219 11.2637C40.6719 11.9437 39.7319 13.8437 38.9019 15.5137C38.2919 16.7437 37.7219 17.8937 36.9919 18.7037C35.9319 19.8837 35.0419 20.3637 33.9319 20.9637C33.1219 21.3937 32.2119 21.8937 30.8919 22.8137C29.2719 23.9537 28.3419 25.7037 27.5319 27.2537C26.8619 28.5237 26.2319 29.7237 25.2719 30.4837C24.3619 31.2137 23.4019 31.6837 22.4719 32.1337C21.3719 32.6737 20.3219 33.1837 19.2719 34.1137C18.4519 34.8437 18.0119 35.6137 17.4719 36.5937C16.7919 37.8137 15.9419 39.3337 14.0719 41.1837C10.6719 44.5437 6.71189 46.0437 6.54189 46.1037C6.39189 46.1537 6.2419 46.1737 6.0819 46.1737Z" fill="#323232"/>
<path d="M45.0818 17.1936C44.7518 17.1936 44.4318 17.0736 44.1818 16.8336C43.6618 16.3336 43.6518 15.5136 44.1518 14.9936C44.6018 14.5236 45.0918 14.1436 45.6018 13.8736C46.4818 13.3936 47.3518 13.0536 48.1218 12.7436C49.7518 12.0936 50.9318 11.6336 51.6018 10.3736C51.9418 9.74361 52.7318 9.50361 53.3718 9.84361C54.0018 10.1836 54.2418 10.9736 53.9018 11.6036C52.7718 13.6936 50.9018 14.4436 49.0918 15.1636C48.3518 15.4536 47.5918 15.7636 46.8518 16.1536C46.5818 16.3036 46.3018 16.5136 46.0418 16.7936C45.7618 17.0536 45.4218 17.1936 45.0818 17.1936Z" fill="#323232"/>
<path d="M10.9918 51.0737C10.4618 51.0737 9.97181 50.7537 9.77181 50.2237C9.52181 49.5537 9.86182 48.8037 10.5318 48.5437C10.5718 48.5337 14.1518 47.1637 17.1418 44.2137C18.7518 42.6237 19.4418 41.3937 20.1018 40.2037C20.7118 39.1037 21.2918 38.0737 22.4418 37.0537C23.7618 35.8837 25.0718 35.2437 26.2218 34.6737C27.1018 34.2437 27.8618 33.8737 28.5418 33.3237C29.0718 32.9037 29.5818 31.9337 30.1218 30.9137C31.0318 29.1937 32.1618 27.0537 34.2918 25.5637C35.7418 24.5437 36.7718 23.9937 37.5918 23.5537C38.6218 23.0037 39.1918 22.6937 39.9518 21.8537C40.4318 21.3137 41.2518 21.2737 41.7918 21.7537C42.3318 22.2337 42.3718 23.0537 41.8918 23.5937C40.8318 24.7737 39.9418 25.2537 38.8318 25.8537C38.0218 26.2937 37.1118 26.7837 35.7918 27.7037C34.1718 28.8437 33.2418 30.5937 32.4318 32.1437C31.7618 33.4137 31.1318 34.6137 30.1718 35.3737C29.2718 36.1037 28.3018 36.5737 27.3718 37.0237C26.2718 37.5637 25.2218 38.0737 24.1718 39.0037C23.3518 39.7337 22.9218 40.5037 22.3718 41.4837C21.6918 42.7037 20.8418 44.2237 18.9618 46.0737C15.5618 49.4337 11.6018 50.9337 11.4318 50.9937C11.2918 51.0537 11.1418 51.0737 10.9918 51.0737Z" fill="#323232"/>
<path d="M42.6918 21.5838C42.4318 21.5838 42.1618 21.5038 41.9318 21.3438C41.3418 20.9238 41.2118 20.1138 41.6318 19.5238L42.2218 18.6938C42.6418 18.1038 43.4518 17.9737 44.0418 18.3937C44.6218 18.8137 44.7618 19.6238 44.3418 20.2138L43.7518 21.0438C43.5018 21.3938 43.1018 21.5838 42.6918 21.5838Z" fill="#323232"/>
</svg>
