<svg width="50" height="56" viewBox="0 0 50 56" fill="none" xmlns="http://www.w3.org/2000/svg">
<path d="M24.72 55.579C11.09 55.579 0 44.489 0 30.859C0 20.469 6.57 11.119 16.34 7.59901C17.02 7.35901 17.76 7.70901 18.01 8.38901C18.25 9.06901 17.9 9.809 17.23 10.059C8.49 13.209 2.60999 21.569 2.60999 30.869C2.60999 43.059 12.53 52.979 24.72 52.979C36.91 52.979 46.83 43.059 46.83 30.869C46.83 29.469 46.7 28.059 46.44 26.689C46.31 25.979 46.77 25.299 47.48 25.169C48.19 25.029 48.87 25.499 49 26.209C49.29 27.739 49.44 29.309 49.44 30.869C49.43 44.489 38.34 55.579 24.72 55.579Z" fill="#323232"/>
<path d="M36.11 29.909C35.92 29.909 35.73 29.869 35.56 29.789C35.16 29.599 34.88 29.229 34.82 28.789C33.95 22.679 32.55 18.849 31.85 18.069C30.81 17.689 25.57 18.689 21.09 21.059C20.68 21.279 20.17 21.259 19.78 20.999C19.38 20.749 19.16 20.299 19.18 19.829C19.44 15.459 22.44 12.8189 24.88 11.6189C23.3 10.7489 20.94 9.68896 18.91 9.31896C18.46 9.23896 18.09 8.92895 17.93 8.49895C17.77 8.06895 17.84 7.59894 18.12 7.23894C18.2 7.12894 20.17 4.62896 24.75 4.72896C27.68 4.78896 30.48 5.85897 33.09 7.91897C36.81 3.96897 41.33 -0.571049 46.07 0.0589512C46.6 0.128951 47.03 0.508973 47.16 1.01897C47.78 3.40897 47.79 5.41896 47.79 5.50896C47.79 5.87896 47.63 6.22896 47.36 6.47896C47.08 6.72896 46.71 6.83897 46.34 6.79897C46.34 6.79897 46.34 6.79897 46.33 6.79897C46.12 6.79897 43.26 6.87895 40.46 11.999C44.09 13.879 48.46 16.319 48.29 24.789C48.28 25.319 47.95 25.779 47.46 25.979C46.97 26.179 46.41 26.049 46.05 25.669C43.16 22.689 41.72 21.519 40.69 20.809C40.54 24.409 39.24 28.199 36.8 29.719C36.59 29.849 36.35 29.909 36.11 29.909ZM31.09 15.4289C32.17 15.4289 33.05 15.6289 33.58 16.1189C35.01 17.4489 36.19 21.529 36.95 25.629C37.86 23.769 38.33 21.009 38.01 18.499C37.94 17.979 38.2 17.4689 38.65 17.2089C39.11 16.9489 39.67 16.979 40.09 17.299C40.49 17.599 40.83 17.809 41.22 18.059C42.19 18.659 43.25 19.3289 45.44 21.3989C44.61 17.0889 41.89 15.6789 39.03 14.2089C38.72 14.0489 38.41 13.889 38.1 13.719C37.49 13.389 37.24 12.639 37.54 12.009C40.2 6.43896 43.31 4.83896 45.12 4.37896C45.07 3.89896 44.99 3.29896 44.86 2.62896C41.4 2.87896 37.54 6.99897 34.39 10.359L34.15 10.6189C33.66 11.1389 32.86 11.169 32.33 10.699C29.89 8.50897 27.4 7.40897 24.7 7.35897C23.75 7.32897 22.95 7.45895 22.32 7.64895C25.36 8.75895 29.11 10.659 28.97 12.199C28.91 12.829 28.39 13.4589 27.51 13.4589C27.07 13.4789 23.73 14.569 22.36 17.629C25.14 16.459 28.64 15.4289 31.09 15.4289Z" fill="#323232"/>
<path d="M7.21994 34.259C6.53994 34.259 5.98994 33.7189 5.96994 33.0389C5.62994 20.6989 12.5199 16.289 12.8199 16.109C13.4099 15.749 14.1799 15.929 14.5399 16.519C14.8999 17.109 14.7199 17.8689 14.1399 18.2389C13.8899 18.3989 8.16994 22.169 8.46994 32.979C8.48994 33.669 7.93995 34.239 7.24995 34.259H7.21994Z" fill="#323232"/>
</svg>
