<svg width="48" height="64" viewBox="0 0 48 64" fill="none" xmlns="http://www.w3.org/2000/svg">
<path d="M3.08511 48.5074C2.80806 48.5101 2.53172 48.4788 2.26233 48.414C2.03286 48.3728 1.81497 48.2826 1.62354 48.1495C1.4321 48.0165 1.27162 47.8437 1.15304 47.643C0.439629 46.2129 3.01982 41.2235 3.42958 40.7113C3.45325 40.6587 3.68996 40.1081 3.96422 39.4706C15.7754 12.0502 25.715 3.9019 31.9724 1.89432C33.6677 1.32639 35.4684 1.14425 37.2431 1.36116C39.0178 1.57807 40.7217 2.18856 42.2303 3.14808C46.9825 6.01808 48.4754 10.5723 46.5483 16.3179C41.8613 30.2963 18.9376 46.9234 8.78748 46.1582C6.04648 48.065 4.20419 48.5074 3.08511 48.5074ZM2.27539 47.0749C2.53251 47.3051 4.35603 47.7667 8.25201 45.002C8.37652 44.9146 8.52831 44.8747 8.67973 44.8898C18.0789 45.877 40.8769 29.2883 45.3598 15.9197C47.1025 10.7234 45.8316 6.78782 41.5822 4.22151C40.2256 3.35748 38.6932 2.80736 37.0968 2.61134C35.5005 2.41532 33.8805 2.57835 32.3552 3.08851C26.3451 5.0161 16.7411 12.9791 5.11596 39.9665C4.92758 40.4963 4.69096 41.0076 4.40908 41.4941C3.8377 42.2084 2.08357 46.2439 2.27539 47.0749Z" fill="#323232"/>
<path d="M3.08494 49.0071C2.76675 49.0098 2.44944 48.9734 2.14012 48.8987C1.84041 48.8409 1.55686 48.7186 1.30914 48.5403C1.06142 48.362 0.855456 48.1319 0.705546 47.866C-0.142604 46.1658 2.49119 41.2107 2.99119 40.4656C3.05564 40.3167 3.26609 39.8279 3.50486 39.2728C15.3901 11.68 25.4629 3.45732 31.8193 1.41826C33.5824 0.827164 35.4553 0.637242 37.3012 0.862371C39.1471 1.0875 40.9194 1.722 42.4888 2.71953C47.4653 5.72539 49.0332 10.4827 47.0224 16.4769C42.2768 30.6287 19.4692 47.2757 8.92869 46.6683C6.66307 48.2205 4.69773 49.0071 3.08494 49.0071ZM35.8115 1.77373C34.559 1.77973 33.315 1.98104 32.1245 2.37041C25.9658 4.34648 16.1601 12.4212 4.42333 39.6683C4.14794 40.3084 3.91015 40.8611 3.88671 40.9144L3.8203 41.0237C3.37157 41.5843 1.0513 46.3196 1.60009 47.4197C1.68833 47.5542 1.80349 47.6688 1.9383 47.7565C2.0731 47.8441 2.22462 47.9029 2.38329 47.929C2.61314 47.9834 2.84876 48.0097 3.08495 48.0071C4.07421 48.0071 5.81737 47.615 8.50195 45.7474L8.64795 45.6463L8.8252 45.6595C18.7041 46.3953 41.5137 29.7606 46.0742 16.1585C47.9179 10.6614 46.4995 6.31034 41.9722 3.57596C40.125 2.41664 37.9923 1.79274 35.8115 1.77373ZM3.07664 47.7625C2.67301 47.7945 2.27106 47.6828 1.94187 47.4471L1.82371 47.3411L1.78807 47.1873C1.54148 46.1184 3.43455 41.9119 4.01853 41.1814C4.25652 40.7223 4.46971 40.2508 4.65721 39.7688C16.3564 12.6082 26.0942 4.57155 32.2026 2.61208C33.7956 2.07867 35.4877 1.90789 37.1551 2.11225C38.8226 2.3166 40.4233 2.89091 41.8403 3.79322C46.3173 6.49683 47.6611 10.6301 45.834 16.0789C41.4253 29.2259 19.5171 45.4285 9.4868 45.43C9.19977 45.4306 8.91291 45.4161 8.62742 45.3865C5.98924 47.2332 4.17232 47.7625 3.07664 47.7625ZM2.77049 46.7269C3.28514 46.8109 4.87549 46.7845 7.96238 44.594C8.18437 44.439 8.45393 44.3673 8.72361 44.3914C18.0264 45.3655 40.4541 28.9769 44.8857 15.7605C46.5439 10.8162 45.3457 7.07794 41.3237 4.64971C40.0278 3.82387 38.5639 3.29786 37.0388 3.11007C35.5136 2.92228 33.9658 3.07745 32.5083 3.56426C26.5972 5.46026 17.126 13.3489 5.57519 40.1644C5.37813 40.7384 5.11825 41.289 4.80028 41.806C3.8951 43.3424 3.21173 44.9991 2.77049 46.7269Z" fill="#323232"/>
<path d="M31.4492 10.4292C31.3272 10.4292 31.2079 10.3937 31.1058 10.3269C31.0037 10.2601 30.9234 10.165 30.8746 10.0532C30.8258 9.94137 30.8107 9.81776 30.8311 9.6975C30.8516 9.57724 30.9067 9.46556 30.9896 9.37616L38.0062 1.80051C38.062 1.7398 38.1293 1.69071 38.2042 1.65607C38.2791 1.62143 38.3601 1.60191 38.4425 1.59864C38.5249 1.59537 38.6072 1.6084 38.6846 1.637C38.762 1.6656 38.8329 1.70919 38.8934 1.76528C38.9539 1.82137 39.0028 1.88887 39.0371 1.96387C39.0715 2.03888 39.0907 2.11992 39.0936 2.20237C39.0966 2.28481 39.0833 2.36704 39.0544 2.44431C39.0255 2.52159 38.9816 2.59239 38.9253 2.65267L31.9087 10.2283C31.8502 10.2918 31.7792 10.3424 31.7001 10.377C31.6209 10.4115 31.5355 10.4293 31.4492 10.4292Z" fill="#323232"/>
<path d="M31.4493 10.9297C31.23 10.9297 31.0156 10.8657 30.8321 10.7456C30.6487 10.6255 30.5043 10.4545 30.4166 10.2536C30.3289 10.0526 30.3017 9.83047 30.3384 9.61431C30.3751 9.39815 30.474 9.19738 30.6231 9.03662L37.6397 1.46094C37.7402 1.352 37.8612 1.26395 37.9958 1.20185C38.1304 1.13974 38.2759 1.10478 38.424 1.099C38.5721 1.09322 38.7199 1.11671 38.8589 1.16814C38.9979 1.21957 39.1254 1.29792 39.234 1.3987C39.3427 1.49948 39.4305 1.6207 39.4922 1.75544C39.554 1.89017 39.5885 2.03577 39.5939 2.18389C39.5993 2.332 39.5754 2.47974 39.5236 2.61861C39.4718 2.75748 39.3931 2.88476 39.2921 2.99317L32.2755 10.5684C32.1701 10.6823 32.0423 10.7732 31.9002 10.8354C31.758 10.8975 31.6045 10.9297 31.4493 10.9297ZM38.5518 2.13379L38.3731 2.14063L31.3565 9.71631C31.3369 9.74249 31.3269 9.77458 31.328 9.80727C31.3292 9.83996 31.3415 9.87127 31.3629 9.896L31.4493 9.92969C31.4664 9.92976 31.4834 9.92627 31.4991 9.91947C31.5148 9.91266 31.5289 9.90268 31.5406 9.89014L38.5587 2.31348C38.5782 2.28724 38.5882 2.25512 38.5869 2.22243C38.5857 2.18975 38.5733 2.15847 38.5518 2.13379Z" fill="#323232"/>
<path d="M37.9229 13.986C37.801 13.986 37.6817 13.9506 37.5797 13.8839C37.4777 13.8172 37.3973 13.7222 37.3485 13.6105C37.2996 13.4989 37.2844 13.3754 37.3046 13.2552C37.3249 13.135 37.3797 13.0233 37.4625 12.9338L44.2431 5.58916C44.299 5.5287 44.3662 5.47984 44.4409 5.44536C44.5157 5.41088 44.5964 5.39145 44.6787 5.38819C44.7609 5.38493 44.843 5.3979 44.9202 5.42636C44.9974 5.45482 45.0683 5.49822 45.1288 5.55407C45.1892 5.60991 45.2381 5.67712 45.2726 5.75185C45.3071 5.82658 45.3265 5.90737 45.3297 5.98961C45.333 6.07185 45.32 6.15393 45.2916 6.23116C45.2631 6.30839 45.2197 6.37924 45.1639 6.4397L38.3832 13.7844C38.3247 13.8481 38.2535 13.8989 38.1743 13.9336C38.095 13.9683 38.0094 13.9862 37.9229 13.986Z" fill="#323232"/>
<path d="M37.9227 14.4863C37.7037 14.4863 37.4893 14.4224 37.306 14.3025C37.1226 14.1826 36.9782 14.0118 36.8904 13.8111C36.8026 13.6104 36.7752 13.3884 36.8115 13.1724C36.8479 12.9563 36.9464 12.7556 37.0951 12.5947L43.8759 5.24995C44.079 5.03171 44.3602 4.90255 44.6581 4.89056C44.956 4.87858 45.2466 4.98474 45.4667 5.18596C45.5757 5.28625 45.6638 5.40704 45.7261 5.54144C45.7883 5.67585 45.8235 5.82121 45.8294 5.96921C45.8354 6.1172 45.8122 6.26494 45.761 6.40393C45.7098 6.54292 45.6317 6.67044 45.5311 6.7792L38.7504 14.1239C38.6449 14.2382 38.5169 14.3293 38.3745 14.3917C38.232 14.454 38.0782 14.4862 37.9227 14.4863ZM44.7035 5.88814C44.686 5.8881 44.6687 5.89169 44.6526 5.89867C44.6366 5.90564 44.6221 5.91585 44.6102 5.92866L37.8295 13.2734C37.8068 13.2983 37.7948 13.3311 37.7961 13.3647C37.7975 13.3984 37.8121 13.4301 37.8368 13.4531L37.9227 13.4863C37.94 13.4864 37.9572 13.4829 37.9731 13.476C37.989 13.4691 38.0032 13.459 38.015 13.4463L44.7968 6.10059C44.8162 6.07438 44.8261 6.0423 44.8248 6.00969C44.8234 5.97708 44.811 5.94591 44.7894 5.92139C44.7659 5.89998 44.7353 5.88812 44.7035 5.88814Z" fill="#323232"/>
<path d="M38.6339 21.2424C38.5104 21.2424 38.3897 21.2059 38.2869 21.1376C38.184 21.0692 38.1037 20.972 38.0559 20.8581C38.0081 20.7442 37.995 20.6188 38.0183 20.4975C38.0415 20.3763 38.1001 20.2646 38.1866 20.1764L46.2928 11.9245C46.4093 11.8059 46.5681 11.7384 46.7344 11.7368C46.9006 11.7353 47.0606 11.7999 47.1793 11.9163C47.2979 12.0328 47.3654 12.1916 47.3669 12.3579C47.3685 12.5241 47.3039 12.6842 47.1874 12.8028L39.0812 21.0547C39.0229 21.1143 38.9533 21.1615 38.8765 21.1938C38.7997 21.226 38.7172 21.2426 38.6339 21.2424Z" fill="#323232"/>
<path d="M38.6337 21.7426C38.4118 21.7425 38.1948 21.6769 38.01 21.554C37.8252 21.431 37.6808 21.2562 37.5949 21.0516C37.509 20.8469 37.4855 20.6214 37.5272 20.4034C37.5689 20.1854 37.6741 19.9846 37.8295 19.8261L45.9365 11.5737C46.0397 11.4677 46.1631 11.3833 46.2993 11.3255C46.4355 11.2676 46.5819 11.2375 46.7299 11.2368C46.8785 11.2325 47.0263 11.259 47.164 11.3147C47.3018 11.3704 47.4265 11.4541 47.5302 11.5605C47.7428 11.77 47.8637 12.0553 47.8663 12.3537C47.869 12.6522 47.7532 12.9395 47.5444 13.1528L39.4374 21.4052C39.3329 21.5125 39.2079 21.5976 39.0699 21.6556C38.9318 21.7135 38.7835 21.7431 38.6337 21.7426ZM46.829 12.2734L46.6494 12.2749L38.5429 20.5269C38.5196 20.551 38.5067 20.5833 38.5071 20.6169C38.5074 20.6504 38.521 20.6824 38.5449 20.7061L38.6337 20.7427C38.6506 20.7427 38.6673 20.7394 38.6828 20.7328C38.6983 20.7263 38.7123 20.7167 38.7241 20.7046L46.831 12.4522C46.8543 12.4281 46.8672 12.3959 46.8668 12.3624C46.8665 12.3289 46.8529 12.2969 46.829 12.2734Z" fill="#323232"/>
<path d="M29.0518 19.6061C28.928 19.6061 28.8069 19.5694 28.7039 19.5006C28.6008 19.4318 28.5205 19.3341 28.473 19.2197C28.4255 19.1052 28.4129 18.9793 28.4369 18.8578C28.4609 18.7363 28.5204 18.6246 28.6078 18.5368L33.9216 13.2014C34.0391 13.0843 34.1982 13.0186 34.364 13.0186C34.5299 13.0186 34.689 13.0843 34.8065 13.2013C34.924 13.3184 34.9903 13.4772 34.9909 13.6431C34.9915 13.8089 34.9263 13.9683 34.8097 14.0862L29.4959 19.4216C29.4377 19.4802 29.3685 19.5266 29.2923 19.5583C29.2161 19.5899 29.1344 19.6062 29.0518 19.6061Z" fill="#323232"/>
<path d="M29.0517 20.106C28.829 20.106 28.6113 20.04 28.4261 19.9164C28.2408 19.7927 28.0964 19.617 28.011 19.4113C27.9256 19.2056 27.903 18.9793 27.9461 18.7608C27.9893 18.5423 28.0962 18.3415 28.2534 18.1837L33.5668 12.8482C33.6712 12.743 33.7953 12.6593 33.932 12.6021C34.0688 12.5448 34.2155 12.5151 34.3637 12.5147C34.512 12.5142 34.6588 12.5429 34.7959 12.5993C34.933 12.6557 35.0577 12.7386 35.1627 12.8432C35.2677 12.9478 35.3511 13.0721 35.408 13.209C35.4649 13.3458 35.4943 13.4926 35.4944 13.6408C35.4945 13.7891 35.4654 13.9359 35.4087 14.0729C35.352 14.2098 35.2689 14.3343 35.164 14.439L29.8505 19.7745C29.746 19.8799 29.6215 19.9635 29.4844 20.0204C29.3473 20.0773 29.2002 20.1064 29.0517 20.106ZM34.3662 13.522C34.333 13.5207 34.3006 13.5322 34.2758 13.5543L28.9623 18.8897C28.9387 18.9135 28.9254 18.9457 28.9254 18.9793C28.9254 19.0129 28.9387 19.0451 28.9623 19.0689L29.0517 19.106C29.0684 19.1062 29.085 19.1029 29.1005 19.0965C29.1159 19.09 29.1299 19.0805 29.1415 19.0684L34.455 13.733C34.4736 13.7161 34.4865 13.6939 34.4919 13.6693C34.4974 13.6448 34.495 13.6192 34.4853 13.596C34.4755 13.5729 34.4588 13.5533 34.4375 13.5401C34.4162 13.5268 34.3912 13.5205 34.3662 13.522Z" fill="#323232"/>
<path d="M17.2903 28.1867C17.1665 28.1867 17.0454 28.1499 16.9424 28.0811C16.8393 28.0124 16.759 27.9146 16.7115 27.8002C16.664 27.6858 16.6515 27.5599 16.6754 27.4384C16.6994 27.3169 16.7589 27.2052 16.8463 27.1174L22.1601 21.782C22.2775 21.6645 22.4368 21.5983 22.6029 21.5981C22.7689 21.598 22.9283 21.6637 23.046 21.7809C23.1637 21.8982 23.23 22.0573 23.2304 22.2234C23.2308 22.3895 23.1653 22.549 23.0482 22.6668L17.7344 28.0022C17.6762 28.0608 17.607 28.1072 17.5308 28.1389C17.4546 28.1705 17.3729 28.1868 17.2903 28.1867Z" fill="#323232"/>
<path d="M17.29 28.687C17.0673 28.687 16.8496 28.621 16.6644 28.4974C16.4791 28.3737 16.3347 28.198 16.2493 27.9923C16.1638 27.7866 16.1413 27.5602 16.1844 27.3417C16.2276 27.1232 16.3345 26.9224 16.4917 26.7646L21.8057 21.4292C21.91 21.3242 22.0339 21.2409 22.1705 21.184C22.3071 21.1271 22.4536 21.0977 22.6016 21.0977H22.6045C22.8272 21.0976 23.0449 21.1636 23.2301 21.2872C23.4153 21.4108 23.5597 21.5865 23.6451 21.7921C23.7306 21.9978 23.7531 22.2241 23.71 22.4425C23.6669 22.661 23.56 22.8618 23.4029 23.0195L18.0889 28.3555C17.9842 28.4608 17.8598 28.5443 17.7226 28.6012C17.5855 28.6581 17.4385 28.6873 17.29 28.687ZM22.6045 22.103C22.5715 22.1016 22.5392 22.1132 22.5146 22.1352L17.2007 27.4707C17.177 27.4945 17.1637 27.5267 17.1637 27.5603C17.1637 27.5939 17.177 27.6261 17.2007 27.6499L17.29 27.687C17.3069 27.687 17.3236 27.6836 17.3392 27.6771C17.3548 27.6705 17.369 27.6609 17.3808 27.6489L22.6938 22.3139C22.7122 22.2969 22.7249 22.2746 22.7302 22.2501C22.7355 22.2256 22.733 22.2001 22.7233 22.177C22.7135 22.154 22.6968 22.1345 22.6756 22.1212C22.6543 22.108 22.6295 22.1016 22.6045 22.103Z" fill="#323232"/>
<path d="M29.5996 28.4984C29.4748 28.4983 29.3529 28.461 29.2495 28.3912C29.146 28.3214 29.0657 28.2225 29.0189 28.1068C28.972 27.9912 28.9607 27.8642 28.9863 27.7422C29.012 27.6201 29.0734 27.5084 29.1629 27.4214L34.5208 22.2284C34.6403 22.1132 34.8006 22.05 34.9666 22.0528C35.1326 22.0556 35.2907 22.1241 35.4063 22.2432C35.5218 22.3624 35.5855 22.5225 35.5832 22.6885C35.5809 22.8545 35.513 23.0128 35.3942 23.1287L30.0363 28.3217C29.9192 28.4352 29.7626 28.4986 29.5996 28.4984Z" fill="#323232"/>
<path d="M29.5995 28.9984C29.3751 28.9984 29.1557 28.9314 28.9696 28.806C28.7835 28.6805 28.639 28.5024 28.5548 28.2944C28.4706 28.0864 28.4504 27.8579 28.4968 27.6383C28.5432 27.4187 28.6541 27.218 28.8153 27.0619L34.1727 21.8695C34.3875 21.6621 34.6757 21.5485 34.9741 21.5534C35.2726 21.5583 35.5569 21.6814 35.7647 21.8956C35.9725 22.1099 36.0868 22.3979 36.0826 22.6963C36.0783 22.9948 35.9559 23.2794 35.7421 23.4876L30.3842 28.6805C30.1741 28.8847 29.8925 28.9988 29.5995 28.9984ZM34.9579 22.5516C34.9243 22.5517 34.8921 22.5648 34.8681 22.5882L29.5111 27.7801L29.5097 27.9608L29.5995 27.9984C29.6161 27.9986 29.6325 27.9954 29.6479 27.9891C29.6632 27.9828 29.6772 27.9735 29.6889 27.9618L35.0458 22.7699L35.0477 22.5897C35.0361 22.5776 35.0222 22.568 35.0067 22.5615C34.9913 22.5549 34.9747 22.5516 34.9579 22.5516Z" fill="#323232"/>
<path d="M17.6486 37.4611C17.525 37.461 17.4042 37.4244 17.3014 37.3558C17.1986 37.2873 17.1183 37.1899 17.0706 37.0759C17.0229 36.9619 17.0099 36.8364 17.0333 36.715C17.0567 36.5937 17.1154 36.482 17.2021 36.3939L22.4661 31.0588C22.5239 31.0002 22.5928 30.9535 22.6686 30.9215C22.7445 30.8895 22.8259 30.8727 22.9083 30.8721C22.9906 30.8715 23.0723 30.8872 23.1486 30.9182C23.2249 30.9492 23.2944 30.9949 23.353 31.0527C23.4116 31.1105 23.4583 31.1793 23.4903 31.2552C23.5224 31.3311 23.5392 31.4125 23.5397 31.4949C23.5403 31.5772 23.5246 31.6589 23.4937 31.7352C23.4627 31.8115 23.4169 31.8809 23.3591 31.9396L18.0951 37.2746C18.0367 37.3337 17.9672 37.3806 17.8906 37.4126C17.8139 37.4446 17.7317 37.4611 17.6486 37.4611Z" fill="#323232"/>
<path d="M17.649 37.9612C17.4267 37.9611 17.2095 37.8954 17.0245 37.7722C16.8396 37.6491 16.6951 37.474 16.6093 37.269C16.5236 37.064 16.5003 36.8382 16.5424 36.6201C16.5846 36.4019 16.6903 36.201 16.8462 36.0427L22.1104 30.7077C22.3203 30.4949 22.6062 30.3742 22.9051 30.3721C23.204 30.37 23.4915 30.4868 23.7044 30.6967C23.9172 30.9066 24.0379 31.1925 24.04 31.4915C24.0421 31.7904 23.9253 32.0779 23.7154 32.2907L18.4512 37.6257C18.3466 37.7322 18.2217 37.8168 18.0839 37.8744C17.9462 37.932 17.7983 37.9615 17.649 37.9612ZM22.9131 31.3728C22.8961 31.3728 22.8792 31.3761 22.8634 31.3827C22.8477 31.3892 22.8334 31.3988 22.8213 31.4109L17.5581 36.7449L17.5611 36.9256L17.649 36.9612C17.666 36.9612 17.6828 36.9578 17.6985 36.9512C17.7142 36.9445 17.7284 36.9348 17.7403 36.9226L23.0034 31.5886L23.0005 31.4084C22.989 31.397 22.9754 31.388 22.9604 31.3819C22.9454 31.3758 22.9293 31.3727 22.9131 31.3728Z" fill="#323232"/>
<path d="M21.6321 18.3967C21.5085 18.3968 21.3877 18.3603 21.2848 18.292C21.1819 18.2236 21.1015 18.1263 21.0537 18.0123C21.0059 17.8984 20.9928 17.7728 21.0162 17.6515C21.0395 17.5301 21.0982 17.4184 21.1848 17.3303L25.453 12.9911C25.5106 12.932 25.5794 12.8848 25.6553 12.8523C25.7312 12.8198 25.8128 12.8027 25.8953 12.8018C25.9779 12.8009 26.0598 12.8163 26.1364 12.8472C26.213 12.878 26.2827 12.9237 26.3416 12.9816C26.4005 13.0394 26.4474 13.1084 26.4795 13.1844C26.5117 13.2604 26.5286 13.3421 26.5291 13.4246C26.5297 13.5072 26.514 13.5891 26.4828 13.6655C26.4517 13.742 26.4057 13.8115 26.3476 13.8702L22.0794 18.2094C22.0211 18.2688 21.9515 18.316 21.8746 18.3482C21.7978 18.3803 21.7154 18.3969 21.6321 18.3967Z" fill="#323232"/>
<path d="M21.6323 18.897C21.4103 18.8971 21.1931 18.8316 21.0082 18.7087C20.8232 18.5858 20.6787 18.411 20.5928 18.2063C20.5068 18.0016 20.4832 17.776 20.525 17.5579C20.5668 17.3398 20.6721 17.139 20.8276 16.9805L25.0966 12.6407C25.3063 12.4282 25.5917 12.3075 25.8903 12.3052C26.1888 12.3029 26.4761 12.4191 26.689 12.6284C26.9019 12.8376 27.0232 13.1228 27.0261 13.4214C27.029 13.7199 26.9134 14.0074 26.7045 14.2207L22.436 18.5601C22.3313 18.6671 22.2063 18.752 22.0682 18.8099C21.9302 18.8677 21.782 18.8974 21.6323 18.897ZM25.9004 13.3037C25.8834 13.3038 25.8665 13.3072 25.8508 13.3138C25.8352 13.3204 25.8209 13.3301 25.8091 13.3423L21.541 17.6812C21.5177 17.7054 21.5048 17.7378 21.5052 17.7714C21.5056 17.8051 21.5192 17.8372 21.543 17.8609L21.6324 17.897C21.6495 17.897 21.6665 17.8936 21.6823 17.8868C21.698 17.8801 21.7123 17.8703 21.7242 17.8579L25.9913 13.5201C26.0088 13.5022 26.0207 13.4795 26.0254 13.4549C26.0301 13.4303 26.0275 13.4048 26.0178 13.3817C26.0081 13.3586 25.9917 13.3389 25.9709 13.325C25.95 13.3111 25.9254 13.3037 25.9004 13.3037Z" fill="#323232"/>
<path d="M30.2331 62.9263C29.2027 62.9617 28.1755 62.7927 27.2108 62.4291C26.2461 62.0655 25.363 61.5144 24.6123 60.8077C22.6925 58.9234 21.9823 56.0636 22.6117 52.7545C23.4466 49.2724 25.2128 46.0828 27.7213 43.5273C30.2298 40.9718 33.386 39.1467 36.8521 38.2472C40.1522 37.5559 43.0221 38.2142 44.9412 40.0985C48.8314 43.9173 47.4364 51.6693 41.832 57.379C39.3663 59.989 36.1934 61.8238 32.7014 62.659C31.89 62.8329 31.0628 62.9225 30.2331 62.9263ZM39.3139 39.2345C38.5727 39.2383 37.8339 39.3187 37.1092 39.4745C33.8855 40.3231 30.951 42.0269 28.6158 44.4057C26.2806 46.7845 24.6314 49.75 23.8426 52.9888C23.2949 55.8726 23.8801 58.332 25.4906 59.9131C27.1019 61.4946 29.571 62.035 32.4443 61.4318C35.6941 60.6477 38.6452 58.9343 40.9374 56.5008C46.0578 51.2845 47.4601 44.3279 44.0628 40.9931C43.4262 40.4015 42.6789 39.9416 41.8639 39.6398C41.0489 39.338 40.1823 39.2002 39.3139 39.2345Z" fill="#323232"/>
<path d="M30.2329 63.4267C29.1377 63.4623 28.0463 63.2808 27.0215 62.8926C25.9968 62.5044 25.059 61.9173 24.2622 61.165C22.2192 59.1601 21.459 56.1401 22.1206 52.6616C22.9738 49.0822 24.7867 45.8032 27.3643 43.1772C29.9419 40.5513 33.1866 38.6777 36.7495 37.7582C40.2144 37.0317 43.249 37.7368 45.291 39.7416C49.3784 43.7534 47.9868 51.8227 42.189 57.7294C39.6539 60.4098 36.3924 62.2929 32.8037 63.1484C31.9586 63.3292 31.0971 63.4225 30.2329 63.4267ZM39.3184 38.4804C38.5237 38.4844 37.7316 38.5703 36.9546 38.7367C33.5851 39.6158 30.5173 41.3925 28.078 43.8775C25.6387 46.3626 23.9193 49.4629 23.103 52.8481C22.5059 55.9882 23.166 58.6884 24.9624 60.4511C26.7461 62.2021 29.4961 62.8207 32.5986 62.1698C35.9941 61.3551 39.0786 59.5688 41.4751 57.0292C46.8867 51.5155 48.2842 44.081 44.5908 40.4555C43.8858 39.7947 43.0569 39.28 42.152 38.941C41.2471 38.602 40.284 38.4455 39.3184 38.4804ZM30.2364 62.1728C29.3035 62.2074 28.373 62.0572 27.4985 61.7307C26.6239 61.4042 25.8226 60.9079 25.1407 60.2704C23.4068 58.5688 22.7715 55.9496 23.3511 52.8959C24.1584 49.56 25.8543 46.5051 28.2586 44.0558C30.663 41.6065 33.686 39.8542 37.0063 38.9853C40.022 38.3549 42.6939 38.9487 44.4131 40.6367C48.0069 44.164 46.6079 51.4379 41.2944 56.851C38.9331 59.3551 35.8934 61.117 32.5469 61.9213C31.7875 62.0846 31.0131 62.1689 30.2364 62.1728ZM39.314 39.7348C38.6071 39.7388 37.9026 39.8156 37.2115 39.9638C34.0844 40.7922 31.2383 42.4477 28.9723 44.7562C26.7062 47.0648 25.1038 49.9411 24.3335 53.0829C23.8184 55.7973 24.3535 58.0966 25.8408 59.5565C27.3291 61.018 29.6372 61.5097 32.3418 60.9428C35.495 60.1788 38.3576 58.5138 40.5806 56.1508C45.5079 51.1308 46.9126 44.4916 43.7129 41.3505C43.122 40.805 42.4293 40.3816 41.6745 40.1043C40.9196 39.827 40.1175 39.7015 39.314 39.7348Z" fill="#323232"/>
<path d="M45.0994 41.8505C45.0021 41.8507 44.906 41.8282 44.8189 41.7848C44.7318 41.7415 44.6559 41.6784 44.5974 41.6007C42.0653 38.2361 39.1514 35.1767 35.914 32.4839C35.8506 32.4314 35.7982 32.3668 35.7597 32.2939C35.7213 32.221 35.6975 32.1413 35.6899 32.0593C35.6823 31.9772 35.691 31.8945 35.7154 31.8158C35.7398 31.7371 35.7794 31.6639 35.8321 31.6006C35.8848 31.5372 35.9494 31.4849 36.0224 31.4465C36.0953 31.4082 36.1751 31.3846 36.2571 31.3771C36.3392 31.3696 36.4219 31.3784 36.5006 31.4029C36.5793 31.4274 36.6523 31.4672 36.7156 31.52C40.0277 34.2748 43.009 37.4045 45.5997 40.8465C45.6697 40.9396 45.7124 41.0503 45.723 41.1663C45.7336 41.2822 45.7117 41.3989 45.6597 41.5031C45.6078 41.6073 45.5279 41.695 45.4289 41.7564C45.3299 41.8177 45.2158 41.8503 45.0994 41.8505Z" fill="#323232"/>
<path d="M45.0997 42.3504C44.925 42.3501 44.7527 42.3094 44.5963 42.2315C44.4399 42.1535 44.3037 42.0405 44.1983 41.9012C41.6892 38.5677 38.8019 35.5365 35.5943 32.8685C35.4805 32.7738 35.3865 32.6577 35.3176 32.5267C35.2487 32.3957 35.2062 32.2524 35.1927 32.1051C35.1792 31.9577 35.1948 31.8091 35.2387 31.6677C35.2826 31.5264 35.3539 31.3951 35.4485 31.2813C35.5432 31.1675 35.6593 31.0735 35.7903 31.0046C35.9213 30.9357 36.0645 30.8933 36.2119 30.8797C36.3593 30.8662 36.5079 30.8818 36.6493 30.9257C36.7906 30.9696 36.9219 31.0409 37.0357 31.1356C40.3775 33.9149 43.3854 37.0728 45.9991 40.5457C46.0882 40.6639 46.1531 40.7985 46.1901 40.9418C46.2271 41.0851 46.2355 41.2343 46.2149 41.3809C46.1942 41.5275 46.1448 41.6685 46.0696 41.796C45.9944 41.9235 45.8947 42.0349 45.7764 42.1238C45.5811 42.2702 45.3438 42.3497 45.0997 42.3504ZM36.3145 31.8743C36.2884 31.8745 36.2631 31.8828 36.2418 31.8978C36.2206 31.9129 36.2044 31.9342 36.1957 31.9588C36.1869 31.9833 36.1858 32.01 36.1927 32.0351C36.1995 32.0603 36.2139 32.0827 36.2339 32.0994C39.5008 34.8171 42.4416 37.9044 44.9971 41.2996C45.0596 41.3821 45.1094 41.3748 45.1749 41.325C45.1988 41.3029 45.2144 41.2732 45.2191 41.241C45.2238 41.2087 45.2173 41.1758 45.2007 41.1478C42.6335 37.7365 39.679 34.6347 36.3965 31.9046C36.3737 31.8851 36.3446 31.8743 36.3145 31.8743Z" fill="#323232"/>
<path d="M9.71137 26.4011C9.58127 26.4012 9.45437 26.3608 9.34831 26.2854C9.24224 26.2101 9.1623 26.1036 9.11958 25.9807C8.12865 23.1409 7.08384 19.4719 7.403 18.4781C7.43989 18.3444 7.5223 18.2277 7.636 18.1483C7.7497 18.0689 7.88757 18.0317 8.0258 18.043C9.88047 18.2966 11.6894 18.814 13.3976 19.5796C13.5503 19.6452 13.6707 19.7688 13.7323 19.9232C13.7939 20.0776 13.7917 20.2501 13.7261 20.4028C13.6605 20.5556 13.5369 20.676 13.3826 20.7376C13.2282 20.7992 13.0557 20.7969 12.9029 20.7313C11.5242 20.133 10.0877 19.678 8.61592 19.3735C8.97977 21.4873 9.54474 23.5614 10.3031 25.5677C10.3361 25.6622 10.3459 25.7631 10.3318 25.8622C10.3178 25.9612 10.2802 26.0555 10.2223 26.1371C10.1644 26.2187 10.0878 26.2852 9.99886 26.3311C9.90998 26.377 9.81142 26.401 9.71137 26.4011Z" fill="#323232"/>
<path d="M9.71133 26.9014C9.47741 26.9014 9.24928 26.8286 9.05862 26.6931C8.86796 26.5575 8.72422 26.366 8.64733 26.1451C8.13024 24.6641 6.47887 19.7212 6.92712 18.3253C6.99594 18.0858 7.14511 17.8774 7.34955 17.735C7.55399 17.5926 7.80122 17.525 8.04966 17.5435C9.96492 17.7961 11.833 18.3273 13.5946 19.1202C13.8684 19.2385 14.0842 19.4606 14.1945 19.7378C14.3049 20.0149 14.3008 20.3245 14.1832 20.5987C14.0657 20.8728 13.8442 21.0892 13.5674 21.2003C13.2905 21.3114 12.9809 21.3083 12.7064 21.1915C11.5789 20.7085 10.4151 20.3149 9.22593 20.0142C9.61455 21.8449 10.1323 23.6458 10.7753 25.4034C10.8343 25.5732 10.8519 25.7547 10.8266 25.9327C10.8012 26.1108 10.7337 26.2802 10.6296 26.4268C10.5254 26.5734 10.3877 26.693 10.228 26.7755C10.0683 26.8581 9.89115 26.9013 9.71133 26.9014ZM7.98719 18.5421C7.93153 18.5421 7.9022 18.5587 7.87978 18.6299C7.65859 19.3179 8.37877 22.34 9.59169 25.8165C9.59672 25.8325 9.60497 25.8472 9.61594 25.8599C9.62691 25.8726 9.64035 25.8829 9.65545 25.8902C9.67055 25.8974 9.68698 25.9015 9.70373 25.9022C9.72048 25.9029 9.73719 25.9001 9.75283 25.8941L9.83094 25.7325C9.05162 23.6951 8.47829 21.5848 8.11953 19.4332L8.03994 18.7647L8.70253 18.8809C10.2121 19.193 11.6856 19.6592 13.1 20.272C13.131 20.285 13.1659 20.2852 13.1972 20.2727C13.2284 20.2602 13.2535 20.2359 13.267 20.2051C13.28 20.1742 13.2803 20.1394 13.2678 20.1083C13.2553 20.0772 13.2309 20.0523 13.2001 20.0391C11.5467 19.3001 9.79794 18.7964 8.00479 18.5426L7.98719 18.5421Z" fill="#323232"/>
<path d="M24.3607 60.1782C24.2625 60.1783 24.1656 60.1554 24.0778 60.1112C23.9901 60.067 23.9139 60.0029 23.8555 59.9239C20.6695 55.5624 17.71 51.04 14.9885 46.3745C14.948 46.3029 14.9219 46.224 14.9119 46.1423C14.9019 46.0607 14.908 45.9778 14.93 45.8986C14.952 45.8193 14.9894 45.7451 15.04 45.6803C15.0907 45.6154 15.1536 45.5612 15.2252 45.5207C15.2968 45.4802 15.3757 45.4542 15.4573 45.4441C15.539 45.4341 15.6218 45.4402 15.7011 45.4622C15.7804 45.4842 15.8546 45.5216 15.9194 45.5722C15.9842 45.6229 16.0385 45.6858 16.079 45.7574C18.7756 50.3787 21.708 54.8583 24.8643 59.1787C24.9331 59.272 24.9746 59.3826 24.9844 59.4981C24.9941 59.6136 24.9717 59.7296 24.9195 59.8331C24.8673 59.9366 24.7875 60.0237 24.6889 60.0846C24.5902 60.1455 24.4767 60.1779 24.3607 60.1782Z" fill="#323232"/>
<path d="M24.3609 60.6783C24.1846 60.678 24.0109 60.6365 23.8535 60.5573C23.6961 60.478 23.5593 60.3631 23.4541 60.2217C20.2569 55.8431 17.2862 51.3034 14.5537 46.6206C14.4809 46.4919 14.4341 46.35 14.4161 46.2032C14.3981 46.0564 14.4091 45.9074 14.4487 45.7649C14.4882 45.6223 14.5555 45.4889 14.6465 45.3724C14.7376 45.2558 14.8508 45.1583 14.9795 45.0855C15.1083 45.0126 15.2501 44.9659 15.397 44.9478C15.5438 44.9298 15.6927 44.9409 15.8353 44.9804C15.9778 45.02 16.1112 45.0872 16.2278 45.1783C16.3443 45.2694 16.4418 45.3825 16.5147 45.5113C19.2032 50.113 22.1238 54.5751 25.2652 58.8804C25.3894 59.048 25.4647 59.2468 25.4826 59.4547C25.5005 59.6626 25.4604 59.8714 25.3666 60.0578C25.2729 60.2442 25.1292 60.4009 24.9516 60.5104C24.774 60.62 24.5695 60.6781 24.3609 60.6783ZM15.4717 45.9556C15.4452 45.9745 15.426 46.0019 15.4172 46.0333C15.4085 46.0647 15.4109 46.0981 15.4239 46.128C18.1356 50.7745 21.0834 55.2791 24.2559 59.6241C24.3179 59.7071 24.3711 59.7012 24.4355 59.6533C24.4596 59.6313 24.4753 59.6016 24.4801 59.5694C24.4849 59.5371 24.4785 59.5042 24.4619 59.4761C21.2936 55.1393 18.3505 50.6425 15.644 46.0034L15.4717 45.9556Z" fill="#323232"/>
<path d="M24.3201 50.1216C24.1573 50.1218 24.0008 50.0584 23.8842 49.9448L20.247 46.4223C20.1878 46.3651 20.1404 46.2967 20.1077 46.2212C20.0749 46.1457 20.0573 46.0644 20.056 45.9821C20.0546 45.8998 20.0695 45.818 20.0998 45.7415C20.13 45.6649 20.1751 45.5951 20.2324 45.5359C20.2896 45.4768 20.358 45.4295 20.4335 45.3968C20.5091 45.3641 20.5903 45.3466 20.6726 45.3453C20.755 45.344 20.8367 45.3589 20.9133 45.3892C20.9898 45.4196 21.0596 45.4647 21.1187 45.522L24.756 49.0445C24.8457 49.1313 24.9076 49.2429 24.9335 49.365C24.9594 49.4872 24.9482 49.6143 24.9013 49.7301C24.8545 49.8458 24.7741 49.9449 24.6706 50.0146C24.567 50.0844 24.4449 50.1217 24.3201 50.1216Z" fill="#323232"/>
<path d="M24.3197 50.6217C24.0267 50.6223 23.7451 50.508 23.5355 50.3033L19.8993 46.7818C19.7926 46.679 19.7072 46.5562 19.648 46.4204C19.5888 46.2845 19.557 46.1383 19.5544 45.9902C19.5518 45.842 19.5784 45.6948 19.6328 45.557C19.6871 45.4191 19.7682 45.2933 19.8712 45.1869C19.9743 45.0804 20.0973 44.9953 20.2333 44.9364C20.3693 44.8776 20.5155 44.8461 20.6637 44.8439C20.8118 44.8416 20.959 44.8686 21.0967 44.9233C21.2344 44.978 21.36 45.0594 21.4662 45.1627L25.1034 48.6851C25.2649 48.8411 25.376 49.0419 25.4226 49.2615C25.4692 49.4811 25.449 49.7096 25.3648 49.9178C25.2806 50.1259 25.1361 50.3041 24.9499 50.4295C24.7637 50.5549 24.5442 50.6218 24.3197 50.6217ZM20.6825 45.8453C20.6655 45.8453 20.6487 45.8488 20.633 45.8554C20.6173 45.862 20.6031 45.8717 20.5912 45.8839L20.5946 46.0631L24.3197 49.6217C24.3368 49.6218 24.3538 49.6185 24.3696 49.6119C24.3854 49.6052 24.3997 49.5954 24.4115 49.5831C24.4348 49.5588 24.4474 49.5264 24.4468 49.4928C24.4462 49.4592 24.4322 49.4272 24.4081 49.4039L20.7709 45.8814C20.7472 45.8584 20.7155 45.8454 20.6825 45.8453Z" fill="#323232"/>
<path d="M29.1294 43.675C29.0353 43.6751 28.9425 43.654 28.8577 43.6133C28.7729 43.5726 28.6984 43.5133 28.6396 43.4398L25.6374 39.688C25.5335 39.5581 25.4855 39.3922 25.5038 39.2269C25.5222 39.0616 25.6055 38.9103 25.7354 38.8064C25.8653 38.7025 26.0311 38.6544 26.1965 38.6728C26.3618 38.6912 26.513 38.7745 26.617 38.9044L29.6191 42.6562C29.6929 42.7485 29.7391 42.8597 29.7524 42.977C29.7657 43.0944 29.7457 43.2131 29.6945 43.3195C29.6433 43.426 29.5631 43.5158 29.4632 43.5787C29.3632 43.6416 29.2475 43.6749 29.1294 43.675Z" fill="#323232"/>
<path d="M29.1293 44.1753C28.9602 44.1755 28.7933 44.1377 28.641 44.0644C28.4886 43.9912 28.3548 43.8846 28.2494 43.7524L25.2465 40.0004C25.0605 39.7669 24.9747 39.4692 25.008 39.1726C25.0413 38.8759 25.1908 38.6045 25.4239 38.418C25.657 38.2315 25.9545 38.1451 26.2512 38.1776C26.548 38.2102 26.8197 38.3591 27.0067 38.5918L30.0097 42.3442C30.1422 42.51 30.2252 42.7099 30.2492 42.9208C30.2731 43.1318 30.237 43.3451 30.1451 43.5365C30.0531 43.7278 29.9089 43.8892 29.7292 44.0022C29.5495 44.1153 29.3416 44.1752 29.1293 44.1753ZM26.1273 39.1699C26.0982 39.1696 26.0699 39.1795 26.0472 39.1977C26.0211 39.2189 26.0045 39.2495 26.0008 39.2828C25.9971 39.3162 26.0068 39.3496 26.0277 39.3759L29.0301 43.1274C29.0383 43.143 29.0502 43.1564 29.0648 43.1663C29.0794 43.1763 29.0962 43.1825 29.1137 43.1845C29.1312 43.1865 29.149 43.1841 29.1654 43.1777C29.1818 43.1712 29.1964 43.1608 29.2079 43.1474C29.2313 43.1246 29.2462 43.0944 29.2499 43.0619C29.2537 43.0295 29.246 42.9967 29.2284 42.9692L26.2264 39.2172C26.2145 39.2024 26.1994 39.1904 26.1822 39.1822C26.1651 39.174 26.1463 39.1698 26.1273 39.1699Z" fill="#323232"/>
<path d="M35.8128 39.7889C35.7157 39.7891 35.6198 39.7667 35.5328 39.7235C35.4458 39.6803 35.3701 39.6174 35.3116 39.5399L32.7363 36.1324C32.6361 35.9997 32.5927 35.8326 32.6156 35.6679C32.6386 35.5032 32.726 35.3543 32.8587 35.2541C32.9915 35.1539 33.1585 35.1105 33.3233 35.1335C33.488 35.1564 33.6368 35.2438 33.737 35.3766L36.3123 38.784C36.3825 38.877 36.4254 38.9878 36.4361 39.1038C36.4469 39.2198 36.4251 39.3365 36.3732 39.4409C36.3213 39.5452 36.2414 39.633 36.1424 39.6945C36.0434 39.7559 35.9293 39.7887 35.8128 39.7889Z" fill="#323232"/>
<path d="M35.813 40.2891C35.6385 40.2898 35.4663 40.2498 35.31 40.1721C35.1538 40.0945 35.0179 39.9814 34.9131 39.8418L32.3374 36.4341C32.158 36.1954 32.0804 35.8954 32.1217 35.5996C32.163 35.3038 32.3197 35.0365 32.5576 34.856C32.6743 34.7654 32.8081 34.6994 32.9511 34.6619C33.094 34.6243 33.243 34.6161 33.3892 34.6377C33.5365 34.6575 33.6784 34.7064 33.8066 34.7815C33.9349 34.8566 34.0469 34.9565 34.1362 35.0752L36.7114 38.483C36.8908 38.7217 36.9684 39.0217 36.9271 39.3175C36.8858 39.6132 36.7291 39.8806 36.4912 40.0611C36.2963 40.2096 36.058 40.2897 35.813 40.2891ZM33.1601 35.6539C33.1334 35.6744 33.1158 35.7046 33.1113 35.7379C33.1067 35.7713 33.1155 35.8052 33.1357 35.8321L35.7104 39.2388C35.7186 39.2543 35.7303 39.2675 35.7446 39.2776C35.7589 39.2876 35.7754 39.2941 35.7927 39.2965C35.81 39.299 35.8276 39.2973 35.8442 39.2916C35.8607 39.2858 35.8756 39.2763 35.8877 39.2637C35.9147 39.2434 35.9326 39.2131 35.9374 39.1796C35.9421 39.1461 35.9334 39.1121 35.9131 39.085L33.3383 35.6783L33.1601 35.6539Z" fill="#323232"/>
</svg>
